<svg xmlns="http://www.w3.org/2000/svg" width="1920.422" height="1051.836" viewBox="0 0 1920.422 1051.836">
  <path id="bg_mapworld" d="M196.27,268c3.816,0,4.277,1.379,7.546,0s12.911-7.747,16.175-8.619,5.36.291.547,2.973-14.466,8.474-12.741,8.038c1.7-.436,6.6-2.532,13.523-5.791s6.293-1.815,8.078-5.29,2.723-5.285,2.723-5.285,10.966,11.226,11.979,11.663,1.409-.075,1.94-1.449c.552-1.379,1.71-3.334,3.269-2.683s.231,3.329,1.163,3.7,2.487-.075,5.36-1.013,1.409-3.039,1.409-3.039-.316-.08,3.033-.366,13.839,3.545,16.942,4.778c3.119,1.228,12.525,2.246,15.177,3.114,2.627.867,3.64-1.519,7.3.436s6.388,4.558,3.65,5.937c-2.718,1.374-9.557,2.387-6.052,3.259a53.912,53.912,0,0,0,13.834,1.81c5.059-.145,14.155-2.031,16.943-2.031s4.513,1.74,7.165,6.157c2.637,4.417,4.733,6.157,5.746,6.518s-1.013-2.1-.466-4.272-.547-6.453-1.163-7.9,0-2.171-1.244-4.272-3.269-1.735.461-3.545,6.308-4.488,10.82-3.911,5.741,6.3,9.637,6.729,4.593,1.96,11.267,2.467,3.9.075,11.367.582c7.451.5,4.743-.8,6.288-4.633s3.269-4.563,5.059-4.422,8.083,1.013,8.083,1.815-2.642,4.919-1.329,6.944,6.7,5.365,6.7,5.365-1.163-4.638-1.163-5.144-.4-4.127.381-4.778,5.21.361,8.012-5.069-1.87-5.144-1.87-5.144-1.71.08-.862-2.166,5.836-3.625,5.836-3.625.316,1.013-.311-.8-3.886-1.449-7.386-1.665-5.907-.722-6.538-3.69a87.362,87.362,0,0,1-.847-13.473c0-4.272,3.42-2.748,4.036-5.139s-.15-14.039-1-16.436,1.228-7.536,1.71-10.931c.446-3.41,3.961-1.89,3.961-1.89-.627-1.158,1-4.417,5.676-5.786s13.538.065,13.538.065-.792.075-2.968,2.9-.767,7.827-4.046,11.372c-3.254,3.55-11.582,2.387-11.582,2.387s2.572,5.866,1.474,7.747a23.314,23.314,0,0,0-1.775,5.726s7.3,2.026,7.7,6.659,4.036,5.435,4.9,9.7c.847,4.277-3.585,7.822-2.652,8.474s1.243.943,3.9,1.088,6.222.652,6.222.652a4.463,4.463,0,0,0-.165,4.488c1.329,2.317.316,3.761.466,6.228.166,2.467,1.64,4.563,2.256,4.127s3.5-6.734,4.132-9.557c.612-2.823,1.078-4.347,2.321-4.347s5.44,3.841,5.907,5.22.782,3.259-1.544,7.025-2.106,5.5-.085,6.949,2.111,1.013,5.756,2.753,2.953,1.589,5.21.938-.938-6.373-.707-6.513c.246-.15,5.375-.727,4.212-3.625s-2.337-4.342.065-5.791c2.422-1.449,4.132-2.607,4.132-2.607a27.982,27.982,0,0,1-3.034-6.809c-1.715-4.854,1.474-3.545,8.178-3.039,6.669.506,6.985,2.823,10.565,4.633s1.314,2.462,2.477,5.36c1.178,2.893-2.953,3.329-2.953,3.329s-2.723.506-2.091,2.753a39.572,39.572,0,0,0,3.816,8.4c1.94,3.48-.552,5.866-3.585,8.684a14.69,14.69,0,0,1-10.189,3.7c-3.57.075-5.124,1.519-5.36.5s-1.956-1.95-3.881-1.519c-1.955.431-6.388,2.171-4.829,2.753s5.676.436,3.966,3.625-3.2,3.184-6.619,2.823-6.6-.366-8.79-.511c-2.166-.14-12.911-.792-12.911-.792s7.25,4.417,13.006,6.223a27.953,27.953,0,0,0,11.808.727s-2.332,4.342-5.139,8.98c-2.788,4.633-5.44,2.607-7.762,2.893-2.342.291-3.735,2.171-8.083,2.753s-13.453-1.228-12.059-.582,2.021,1.815,4.508,2.176a10.635,10.635,0,0,1,6.222,2.607c2.176,1.81-1.409,2.246-4.277,2.748-2.888.511-3.65,1.023-4.979,2.823s-6.222,8.835-7.782,11.011a23.845,23.845,0,0,0-3.565,10.063c-.632,4.277-4.282,9.411-2.642,10.5s7.767,1.228,10.339,2.818,5.445,9.416,7.386,12.385c1.956,2.968,3.495,5.215,5.671,2.9s6.458-1.74,10.5-.291,12.274,7.17,14.847,9.7,7.07,2.1,12.134,2.823c5.039.727,5.616,2.632,5.616,2.632s5.265.266,3.094,2.512-2.808.07-.632,3.836a17.121,17.121,0,0,1,1.489,11.372c-.617,2.537,6.959,1.254,10.159,3.134,3.184,1.885,3.364,9.537,5.009,8.594,1.625-.943,4.347-2.607,4.663-4.633s-.085-4.708-.4-8.183-1.163-9.848-2.873-12.38,3.074-3.55,2.3-4.638-.587-3.254,2.678-4.126,3.5-.07,5.28-1.449,2.106-7.817,2.407-10.133a24.908,24.908,0,0,0-1.314-9.2c-.767-1.885-3.961-7.9-5.129-9.2s-2.632-1.665.552-5.721,1.314-3.184.847-4.417-1.163-4.272-1.78-7.02c-.642-2.753,1.314-5.8.15-9.707s-2.4-3.038-2.171-3.906,7.611-.657,13.057-.075,7.616-.582,9.176-.582,4.362,1.524,7.381,3.48c3.039,1.951,4.2,1.449,5.756,3.841s2.412,3.69,5.6,3.545a17.186,17.186,0,0,1,6.619,1.374s-2.256,1.3-1.86,5.581c.381,4.262-.481,7.381-.4,9.121.065,1.735.943,1.8,2.407,2.026,1.479.221,5.455,3.766,9.557,5.215,4.131,1.449,5.21,1.013,6.538-2.322s1.64-3.038,3.264-3.249,2.176.356,2.873-.371-1.243-2.166-.782-4.483,2.728-5.36,4.6-7.1,3.189,1.74,4.828,4.929,7.3,13.533,8.94,16.937,3.735,3.62,1.775,6.809c-1.94,3.184-2.868,4.563.171,6.007,3.018,1.454,5.756,3.986,5.525,6.378-.251,2.387-.862,2.457.145,3.109s4.663-1.3,7.315-.14,5.826,2.246,7.7,4.127c1.855,1.885,1.7,2.537-.943,3.475a46.338,46.338,0,0,0-6.608,2.678c-1.324.8-3.415,2.321-3.349,3.55.085,1.228-.547,3.254,1.559,1.665a28.167,28.167,0,0,1,8.012-3.911c2.487-.722.617-.07,2.873-.361s4.427,1.088,7.546,1.955c3.1.872,2.256,2.823,1.474,4.633s-1.474,3.545-.231,5.576-.547,3.841-3.264,6.3-4.748,2.828-9.176,3.41-6.538,3.254-9.642,6.147-4.663,2.176-9.176,2.4-2.723-2.251-4.117-1.74-3.184,2.026-6.067,2.322-12.61.431-16.341,1.514-2.562,3.62-3.49,5.721c-.943,2.1-2.422,1.233-5.21,2.171s-6.152,5.069-9.406,10.72a35.256,35.256,0,0,1-7.7,9.121,24.342,24.342,0,0,0,7.767-5.791c2.256-2.748,11.668-9.271,14.551-11.292s9.1-5,10.57-4.568,5.144,3.264,5.144,4.708-1.093,2.607-3.735,5.069-6.152,0-5.922,1.013a6.822,6.822,0,0,0,4.131,3.836c2.021.506,1.925,2.973,1.925,4.2s-1.163,2.823,3.5,6.739c4.678,3.9,7.947,4.2,11.367,3.976s1.625,1.158,3.034,1.018c1.394-.145,1.71-2.823,2.176-4.994s1.244-4.207,2.487-5.144,2.176-2.682,2.572.652c.381,3.329-1.409,7.892-3.2,8.91s-1.4,2.311-1.4,3.324-2.026,1.088-6.849,3.771-6.368,3.324-7.22,2.963-2.652.436-4.974,2.542c-2.342,2.091-4.813,4.924-6.523,4.849s-3.2-.8-.862-3.189,3.119-5.716,5.44-6.879a9.442,9.442,0,0,1,5.36-1.013c1.945,0,1.013-1.158,2.572-2.316,1.544-1.158-1.173-.8-3.816-1.233s-.612-2.753-.612-2.753l-2.738,1.454s-4.116,2.171-5.209,2.316-.847.867-1.163,1.3-4.2.727-4.2.727-2.021,4.122-5.059,4.7c-3.023.587-.913.361-3.1,1.3s-1.78-1.083-2.256-.506a14.478,14.478,0,0,1-3.254,2.9c-2.422,1.81-3.826,2.392-5.526,8.98-1.725,6.588.3,8.975.236,9.993-.085,1.013-3.038-.652-3.886.14-.877.8-2.818,3.259-5.375,3.986-2.572.727-7.616,2.026-8.79,3.259s-1.243,2.968-1.795,5.5c-.532,2.537-3.565,8.479-3.565,8.479a4.1,4.1,0,0,0-1.409-4.132c-2.1-1.74-1.78-3.329-1.78-3.329a10.77,10.77,0,0,0,.316,4.849c.777,2.462,2.327,4.929,1.63,7.6s-2.026,6.012-3.65,6.95c-1.645.948.381-1.8.381-3.976s-1.083-2.316-1.79-3.4-.7-3.841.547-7.541-1.163-1.439-2.572,1.018-2.392,7.025-.236,9.993c2.191,2.968-1.389,2.677.085,6.949s-1.78,6.373-1.178,7.025c.627.657,2.342-.286,3.119,1.815s-1.544,1.153-2.327,1.74-.391,1.374.07,2.532,1.409.431,1.013.792a8.2,8.2,0,0,1-3.5,2.462c-2.011.652-2.176-.366-3.42,1.088s-2.171,2.753-3.5,4.417c-1.314,1.665-2.241,1.088-3.65,2.246s-1.945,2.1-3.665,3.55c-1.7,1.439-5.591,3.685-7.687,6.513s-1.554,3.545-2.567,8.113c-1.013,4.553,2.567,12.52,4.824,20.056s3.189,5.43,2.873,7.817a12.939,12.939,0,0,1-2.968,6.955c-1.615,1.665-2.542-1.158-4.8-2.828s-.476-2.818-2.652-6.293-2.026-4.708-2.256-7.24a31.642,31.642,0,0,0-1.78-8.91c-1.173-2.758-3.66-6.232-7.4-4.854s-2.788.727-4.813.14-7.386-2.743-10.118-1.3-11.337-.436-13.142,0-3.114.582-3.114,1.815-.767,1.439,2.417,2.311,2.723,1.81,2.5,3.189c-.246,1.374-2.582-.722-3.826-1.234s-2.407,1.013-4.583,1.013-2.567-2.1-4.508-2.387-2.723,0-4.6-.722c-1.86-.732-4.347-1.96-6.523-1.81s-10.585,5.721-14.546,8.684-7,5.866-7.922,8.253c-.943,2.4-1.023,2.607,2.176,6.162,3.184,3.545,1.71,2.968,1.078,4.994-.612,2.026-2.487,4.488-4.728,9.7-2.271,5.21-.943,7.747,1.775,12.746s5.144,8.614,7.321,10.715,3.715,4.342,5.591,5.139a7.449,7.449,0,0,1,3.119,1.956c.847.872.612,1.228,3.58.436,2.943-.792,5.114-1.961,7.22-1.961s4.046.075,5.21,1.168c1.163,1.078,1.329.436,1.329-.151a14.279,14.279,0,0,1,1.243-3.329c.3-.582,3.1-4.563,3.57-6.734s.461-6.518,3.2-6.809c2.7-.291,8.544-1.66,13.834-1.3s2.958,2.973,1.559,5.716c-1.4,2.758-1.955,3.044-1.955,5.144s.632,2.1-1.078,3.334-.627-.727-1.324.506a10.908,10.908,0,0,1-2.873,2.678c.3-.286,1.078,2.1,1.078,3.259s-.231,1.74-.231,4.563-5.525,5.716-5.525,5.716a10.843,10.843,0,0,0,4.979,1.163c2.968,0,6.533,0,9.637,1.449s9.025-1.158,13.388,1.013,2.8,3.475,3.1,5.505c.316,2.026.782,8.975.481,10.57-.331,1.589-2.357,6.082-3.435,9.271s3.1,5.5,7,8.108a32.446,32.446,0,0,0,9.341,4.347c2,.577,5.741-3.049,12.6-2.612a10.768,10.768,0,0,1,9.161,6.232,29.4,29.4,0,0,1,3.9-8.549c3.119-4.919,3.254-6.373,7.456-7.962s5.606-1.885,12.455-4.056c6.834-2.176,5.591-.577,9.161-.291a99.426,99.426,0,0,1,20.071,3.48c8.233,2.457,20.838,3.184,25.652,5.21s7,7.676,11.978,12.309,11.2,8.835,13.839,11.006,17.424,4.207,20.688,5.505,7.782,6.659,8.083,9.848,3.585,4.778,8.078,6.664c4.518,1.875,5.927,4.051,8.875,9.848,2.968,5.791,2.026,7.381,6.062,8.835,4.061,1.449,32.05,8.975,39.034,11.728,7,2.753,15.865,10.138,18.2,11.006s6.538-.727,8.4.291-1.093,6.513,1.243,10.429,2.487,4.2,1.093,7.09-7,9.858-9.176,13.327-6.849,5.651-9.492,7.1-4.974,0-2.637,2.9.151,5.355-1.87,7.962.16,2.317-.466,10.72,0,17.524-.943,21.139-6.363-3.189-12.6,4.633c-6.207,7.822-7.917,13.759-11.648,14.626-3.75.872-12.445,5.215-15.4,7.972s-3.585,3.76-5.455,7.817-3.72,12.31-5.746,17.379-5.29,7.962-12.756,14.771-10.735,13.759-15.559,19.119-3.57,4.2-4.583,5.21c-2.572,2.582-13.182-4.172-10.449-.431,2.026,2.753-1.133,0,.577,2.6s2.953,3.62-.782,8.258c-3.715,4.633-8.037,3.715-10.991,4.442s-7.356-3.043-7.672-1.158c-.3,1.885-2.011,6.563-4.347,7.722s-8.549,2.9-8.4,3.62c2.938,13.723,8.985,15.157,2.587,14.526-17.529-1.715-5.019-5.876-17.218,19.65-1.86,3.916-3.715,1.885-3.414,6.518s0,8.113,2.5,11.011.767,2.748-3.43,6.659-4.513,3.334-8.393,9.271-7.616,5.646-6.223,10.138,1.7,11.151,4.046,17.81c2.326,6.664,7.155,5.5,14.766,10.133s8.559,2.176,12.294,3.329-2.652,1.459-9.341,2.607-11.031,2.462-15.709,1.454-15.7-7.391-19.434-10.138-9.787-7.671-11.974-12.455-3.73-9.557-6.523-16.075-.792-10.575.466-24.9,2.171-25.492,4.2-33.168c2.011-7.676,8.243-41.852,9.938-50.692,1.725-8.83,9.657-44.745,10.269-50.4a134.585,134.585,0,0,1,2.342-15.639c1.243-5.651.466-17.093.466-17.67s-.466-1.013-2.191-6.373c-1.7-5.355-4.5-7.531-8.379-9.848s-7.947-5.21-11.051-7.386a47.293,47.293,0,0,1-9.953-9.121c-3.119-3.911-6.072-11.878-7.616-15.208a204.956,204.956,0,0,0-12.6-22.448c-5.29-7.822-5.606-7.962-8.243-16.221s2.322-8.4,3.264-13.031c.918-4.633,4.036-9.271,7.471-15.789,3.415-6.518,7.927-8.4,10.565-14.19s.632-5.791-.316-11.442c-.923-5.651.316-4.778-1.4-7.822s-2.627-6.8-4.182-7.817-3.886-1.74-5.3-.145-3.881,6.227-5.44,6.518-2.176-1.454-3.109-2.467-5.44-1.013-6.383-2.026-3.254-1.163-4.814-1.88-7.631-3.911-9.336-5.36A12.391,12.391,0,0,1,458.244,689c0-3.766-3.254-5.215-10.57-10.424s-10.419-5.942-19.294-8.113c-8.86-2.171-12.43-8.4-15.4-10.138-2.953-1.74-2.637-3.625-9.176-2.9-6.518.727-14.45-2.9-19.439-4.919-4.964-2.031-13.839-3.475-17.569-5.942s-10.259-3.334-13.062-9.266-2.337-3.625-1.243-8.84-6.373-9.557-10.886-14.476-7.932-5.651-10.269-11.733-5.746-5.8-10.254-10.138-4.678-9.848-6.538-14.771-14.3-12.019-14.3-12.019,3.249,8.253,4.663,11.587c1.394,3.329,4.658,11.292,8.394,17.228s7,7.386,10.419,13.327.16,9.557-1.1,7.24c-1.238-2.317-6.217-3.329-6.217-6.082s-1.228-4.488-2.327-6.664-5.907-4.638-10.585-8.4c-4.658-3.766-7.917-5.505-4.974-5.505s7.165,2.753,6.388,1.013-6.072-7.095-8.564-10.86c-2.477-3.766-3.269-7.962-5.756-14.335s-11.653-12.455-16.175-12.891c-4.5-.436-5.746-2.607-7.3-7.235s-1.855-9.562-3.881-13.187-10.735-15.779-10.881-20.412c-.17-4.643-2.657-18.111.466-25.642,3.1-7.526,2.322-24.323,1.855-27.658s-6.072-9.7-6.072-12.164,3.284-1.013,5.771-.291,7.767,2.9,7.767,2.9-4.031-7.531-6.523-10.138-9.8-5.937-13.072-6.664-7.466-1.88-9.176-4.633-3.565-6.373-4.824-8.689c-1.233-2.316-6.538-5.064-7.767-7.531-1.248-2.462-.933-7.245-2.642-9.7s-4.212-3.911-7.01-2.9-3.725-1.444-5.9-5.069c-2.191-3.615-7-5.355-8.409-5.786s-6.207-6.809-6.523-8.4-7.947-9.993-10.419-11.733c-2.5-1.74-26.6-9.557-27.211-9.557-.627,0-7.631,1.013-9.492.436s-8.243-6.082-11.5-7.245c-3.284-1.158-5.621,1.3-7.165,4.924s-9.176,9.853-13.372,12.6-7.631,3.043-7.315,1.594.15-3.766,1.559-7.24,2.171-4.493,6.523-6.659c4.372-2.171,4.2-2.322,2.5-2.171s-2.963-.3.466-2.322,4.813-2.316,4.663-4.056-7.466,2.322-12.144,6.082a42.531,42.531,0,0,0-11.5,13.037c-4.051,6.664.466,4.2-2.953,8.549s-15.082,13.172-18.5,16.506S56.855,401.24,51.084,402.98,43,405.442,40.2,407.758s-9.787,3.038-7.466,1.449c2.342-1.6,6.689-5.22,9.657-6.954,2.938-1.74,10.88-4.924,13.207-5.791a42.826,42.826,0,0,0,12.144-8.549c3.254-3.62,5.44-7.817,7.616-11.292S78,371.547,73.506,373a19.129,19.129,0,0,1-11.512,0c-2.342-.867-8.414,2.748-10.585,1.158s.165-4.929-1.243-6.518-6.222-.577-9.326-1.158-7.466-3.044-7.466-7.386-3.1-8.113-1.409-11.442c1.72-3.329,4.212-4.2,7-6.082s10.57-4.342,12.129-4.342c1.574,0,3.745-1.594,5.144-3.044s-3.274-6.664-3.274-6.664.782-.577,2.642-1.735.481-3.62-2.8-3.184-10.259,3.766-14.616,4.919-10.259.441-10.108-1.444,1.1-3.044-.466-4.488c-1.539-1.454-2.8-3.049-1.238-3.766s11.2-6.082,11.2-6.082,3.42,3.761,7.15,4.192S56.4,309.421,56.4,309.421c-4.979-3.039-3.886-3.911-3.886-3.911s-8.093-.145-9.958-1.3-2.487-3.475-2.948-5.5-8.4-3.625-6.222-6.954,6.222-4.488,8.86-7.817,4.974-9.562,12.6-13.036,16.792-6.659,20.838-9.557,5.912-.14,7.471.286c1.539.436,11.2-.426,14.912-.426,3.735,0,4.367,4.192,5.611,5.2,1.228,1.018,34.06,2.031,34.06,2.031s27.828.436,33.434,2.031,15.7,5.791,15.7,5.791C193.011,275.458,192.469,268,196.27,268ZM570.217,100.007s-2.8,11.582-13.989,14.771-31.734,12.164-32.667,12.741,1.243,6.949,4.036,10.143,5.44,5.35,7.932,8.539,6.844,2.9,10.269,6.232,5.907,2.166,15.243,2.321c9.326.135,6.839.862,17.258,1.439s21.315,1.449,24.885,4.638,8.714,15.644,11.979,23.175,9.025,19.981,9.025,21.139-3.58,10.284-3.58,11.728,1.855,3.911,3.58,5.937c1.7,2.031.767,3.625.451,5.505-.3,1.885,1.875,6.664,2.191,7.24s4.959-4.628,7.927-5.5c2.953-.867,10.269,5.215,10.269,9.411,0,9.527,2.587,6.283-12.906,17.529-2.051,1.479-4.051,12.881-2.492,18.387s5.28,12.024,8.233,19.846,11.663,18.823,14.47,23.892,3.58,12.024,9.787,13.618c6.222,1.589,12.144,3.76,16.642,4.773s7.466,2.467,9.637-1.735c2.191-4.2,6.538-20.131,10.118-31.719S698.206,289,706.6,286.394s21.771-7.822,25.351-9.416,2.953-13.031,10.885-16.8,9.025-3.465,16.792-5.932a106.1,106.1,0,0,0,26.444-12.891c7.782-5.51,9.953-2.6,12.756-7.677s-2.8-12.455-3.415-19.986c-.632-7.526,2.487-7.962,4.031-14.771s2.341-11.3,8.393-15.93c6.072-4.638,9.326-7.235,8.248-11.582-1.093-4.347-4.2-10.865-4.2-15.639s1.093-2.031-1.394-8.694-2.492-7.531-.166-13.759,8.559-4.633,8.093-7.386-9.953-6.949-10.1-14.626c-.165-7.676,1.71-9.993,3.254-11.873,1.559-1.89,17.419-14.486,18.512-15.644s-.311-4.347,7.471-8.108,10.414-6.227,13.372-7.386,7.616-1.013-1.409-3.625S838.482,60.9,832.576,61.63s-7.932,4.056-18.517,5.069-22.543,5.937-22.543,5.937,3.58-3.184.466-6.227,8.088-13.037,9.963-14.195c1.845-1.158-14.631-5.215-23.19-6.8-8.544-1.589-25.336-6.664-34.978-5.942s-23.792.587-28.62,2.176-4.2,7.822-9.637,8.113S689.971,46.577,682.2,47.73s-20.227,6.518-21.621,6.809c-1.409.286,4.828,4.056,8.86,4.924s9.326,9.266,9.326,9.266-10.876-3.62-21.916-6.664-23.962,0-28.475,1.309-10.419,3.761-19.429,4.2c-9.025.431-19.279,7.817-24.418,11.292S563.378,91.6,559.332,93.779s-2.487,3.184,1.86,4.347S570.217,100.007,570.217,100.007ZM339.747,219.722c1.233,5.31,1.233,12.941-1.67,9.652s-5.29-9.938-9.953-7.235-9.737,1.93-8.915,1.354c.837-.582-.1-3.475-2.487-4.347s-3.831.481-6.318,1.93-10.369,3.379-7.155.867,2.176-3.861,1.028-6.754-9.326,2.026-13.688,5.119-6.929,7.817-9.532,11-.722,5.22,3.214,6.373,10.269,1.935,4.979,3.866-9.336,3.279-6.634,4.919,7.361,1.935,12.019,1.354c4.678-.577,8.614-1.83,16.085.191a46.574,46.574,0,0,0,11.9,1.935,23.568,23.568,0,0,1-7.762,2.607c-4.979.867-14.115,0-18.778.867s-12.019,2.121-10.158,3.861,3.324,4.437,9.752,6.468,7.571.1,11.4,1.063,1.765,5.31,2.8,5.987,8.3-.582,15.549-1.93,4.568-2.512,10.269-3.961,5.907-5.791,9.231-6.759.928,2.221,4.864,3.189,1.765,1.259,6.017,1.935,3.42,2.317,7.561,2.021c4.157-.286,9.025-3.084,8.4-3.575s-1.243-1.735-.822-3.665-4.152.386-5.806,1.349-1.549-2.6,1.965-4.342,6.649,0,8.709,0c2.081,0,.221-5.987-3.525-6.949s-5.39-3.284-11-6.373-2.693-4.442-4.347-8.489-5.185-16.035-8.3-18.161-6.428-1.539-9.527-3.665C339.12,211.424,338.5,214.412,339.747,219.722Zm-86.061-8.2c1.354,3.861,1.554,1.449-1.138,5.7s-1.143,5.791-3.008,8.975-6.834,7.441-5.29,9.562,6.538,3.379,8.614,5.024,4.147,5.014,7.862,3.761a41.066,41.066,0,0,0,7.576-3.475c2.6-1.349,4.773-2.9,4.663-6.278s-.206-5.014.847-4.728c1.023.291,2.677,1.835,3.515-.386a20.372,20.372,0,0,1,4.046-6.859c1.75-1.735,6.839-3.475,9.216-5.5s6.438-4.252,7.576-5.987-2.081-3.094-4.051-3.861-4.237-3.861-8.8-3.861-7.055,3.475-6.854,1.925c.221-1.544-3.1-2.316-4.964-2.993s-3.635-1.735-9.542-1.058a66.339,66.339,0,0,0-13.072,2.412c-4.036,1.151,1.465,3.758,2.8,7.624Zm134.983,46.25c-.612.862-3.3,1.735-4.959,3.665s3.51.867,5.164,1.449c1.67.577,2.913,2.216,4.257,2.708s8.614.767,11.623-.682c2.993-1.449,3.3-1.93,2.993-2.607a45.447,45.447,0,0,0-10.57-8.785c-4.362-2.322-4.457-2.412-5.39-1.835s-2.487,5.215-3.118,6.084Zm-19.59-45.187c-2.818,1.4-4.859,3.089-.1,5.5s6.318,4.442,9.532,6.468,4.568,7.822,11.312,5.22c6.724-2.607,9.436-5.7,10.374-8.4.918-2.7-.938-3.284-2.592-5.791-1.675-2.512-2.081-3.575-5.5-3.189-3.435.386-4.568.386-4.568.386a19.187,19.187,0,0,1,6.017-4.728c3.735-1.835.617-3.094,2.377-4.829s-4.458-2.607-7.15-1.93-2.8-.2-7.26-.381c-4.452-.2-11.5,3.856-11.2,5.3s3.635.872,6.744,2.607,4.046,1.544.928,6.473-4.758-1.163-5.8-1.94-.206-2.218-3.114-.769Zm-19.9-8.88c-4.663.431-6.237,3.665-4.457,4.147,1.75.486,2.9-.481,5.686,2.512s5.3,4.633,6.428-.291-.5-7.053-7.653-6.373Zm-74.865-37.37c-5.2,4.152-6.222,7.441-10.254,10.043s-3.124,4.829-1.765,6.273c1.339,1.454,5.385-.1,7.245-1.063,1.875-.963,3.42-3.369,4.568-1.925s5.907-4.924,7.782-7.05c1.855-2.126,4.758-4.342,5.29-4.247s-1.775,2.512-.943,4.538,4.553,2.121,7.872-1.349.316-6.664,2.913-9.366,4.763-2.321-.311-4.738-8.3.291-9.341,1.549-2.893-.775-13.052,7.332Zm31.614,6.568c-2.938.135-4.242.577-9.121,2.7s-6.944,7.626-8.083,10.62.521,2.993,4.979,4.733,10.68-.481,12.129-4.638,3.229.968,2.392,3.089,3.1.191,4.979-.772,7.451-1.349,7.877-1.349c.406,0-4.568,3.766-9.451,5.4a68.232,68.232,0,0,1-10.158,2.7c-1.339.2,1.259,2.221,6.949,3.384,5.711,1.158,9.131-3.48,17.324-6.568s7.777-3.67,10.469-2.9,5.6-1.349,8.915-2.126,4.663.486,6.127-4.437c1.439-4.924,4.036-9.657-.627-9.948s-4.979-.286-5.606,5.024-1.038,2.026-1.038,2.026-3.109-4.633-4.979-7.05-3.214-6.177-5.28-8.2-3.008.862-6.222,4.442-.627,4.919,2.587,6.463,5.5,5.505,3.951,6.568-3.324-.191-9.231.481c-5.922.677-5.7-1.83-7.371-2.607s2.8-2.407-3.525-5.019-5.891-2.124-7.982-2.024Zm-19.174,5.024c.662-1.123-7.872,5.019-9.171,6.995s1.3,1.64,3.9,1.544c2.583-.1,3.1-4.826,5.275-8.541Zm16.386-12.8c-2.136.963-2.136,1.69,1.339,2.076s5.51-1.153,4.773-2.6c-.708-1.454-4.4-.246-6.108.521Zm17.68-18.336c-2.281.381-9.025,2.748-9.391,3.906s.065,3.665,1.088,5.646c1.043,1.981,1.409,2.271,7.21.727s9.8-4.538,7.872-5.074c-1.91-.526-3.1-1.394-4.808-1.635s1.5-1.158,5.33-2.367,5.143-3.287-7.3-1.206Zm-19.65,3.039c-1.64.752-2.226.772,1.188,2.076s7.11,1.2,6.634.145c-.448-1.072-3.21-4.351-7.818-2.225Zm13.372-9.512c-3.239,1.279-3.976,3.62-4.718,4.538-.722.923,3.68-.677,5.706-1.158s2.487.722,4.458-1.018,5.861.05,9.391-.722c3.51-.772,4.091-3.084,3.309-5.109s-8.856-.205-18.142,3.466Zm35.143,8.739c-.958.461-.617,1.981.216,3.766s1.043,1.349,2.793,2.026a13.552,13.552,0,0,1,3.936,2.507c.421.441.667.582,1.409-1.158.722-1.74-.371-1.439-2.337-3.761s-3.51-4.591-6.012-3.383Zm11.979,15.152c-2.683-.727-4.2.827-5.185,1.309s.521,1.589,1.188,3.665.11,2.753,4.046,3.044,5.129-.436,5.445-2.943-3-4.4-5.49-5.078Zm15.3,4.543c-2.447-1.785-3.635-3.234-6.122-2.221s-.411,2.266-.411,2.948,3.008-.1,3.059,1.544.973,2.316-2.647,2.507-4.623.05-6.017,1.108,2.7-.14,3.951,1.5,3.359,1.835,6.834,1.3,8.193-1.3,8.193-1.3a27.9,27.9,0,0,0-3.58,4.1c-1.028,1.69-1.454,4.1.366,5.31s2.026-1.253,7.055-1.354,6.523-2.7,6.523-2.7a4.759,4.759,0,0,1-.983-3.62,9.883,9.883,0,0,0-.055-3.094,20.751,20.751,0,0,1,2.487,2.031s-.356-1.494-1.078-4.2-.155-2.9-.948-6.563c-.777-3.67-.612-4.442-4.4-4.347s-6.373,1.4-9.487,1.4-4.457.582-2.176,1.74,2.6,2.557,3.68,3.861.887,4.442.943,4.3-5.185-4.253-5.185-4.253Zm-18.923,13.764a.543.543,0,0,0-.165.065,4.485,4.485,0,0,0-2.226,3.74c-.1,1.259,2.076.532,5.551-.672s1.766-4.731-3.158-3.136Zm48.937-6.568a25.766,25.766,0,0,0-6.854,5.551c-1.65,1.88-.2,2.126,4.107,4.292s8.915,2.607,10.926.336c2.027-2.27-.927-14.144-8.177-10.183ZM426.984,159.1c-5.526.552-3.816,1.379-10.189-.722s-14.385-2.317-16.556-2.317c-2.191,0-1.163,1.013,1.093,4.708s2.868,4.994,7.531,3.836c4.678-1.163,8.484-1.95,11.9,2.968s5.21,6.443,2.407,8.248-1.474,4.708.165,8.479,5.36,3.615,10.57,3.615,38.172-.5,43.316-1.444c5.124-.943,9.712-5.285,12.445-7.235s4.2-5,.466-7.245-9.025-4.347-13.222-4.347c-4.217,0-7.782,2.176-14.155,2.823s-4.979,3.7-10.73,3.841-2.958,2.682-10.043-.221-12.274-6.513-8.93-7.02,6.062-.938,4.2-2.532-5.136-5.945-10.266-5.439Zm-65.935-26.935c3.42,1.158,4.282,2.026.466,3.038s-6.769,3.69-2.958,3.189,7.07.361,11.969,1.158,4.513.291,6.684,3.044c2.191,2.748,4.518,2.748,7.862,1.956s3.8-1.013,1.645-3.41c-2.191-2.387-4.447-6.8-7.4-8.539s-5.44-4.2-8.394-3.911-3.65.356-6.222-3.114-4.583-1.815-8.328-.872c-3.715.943-4.924,3.61-6.368,4.783-2.953,2.388,7.627,1.51,11.046,2.674Zm44.8-35.484c-4.046,5.069-7.315,9.346-2.738,9.853,4.593.506,6.6-.366,6.919,1.088s-.777,2.457-7.616,2.457-4.743,1.519-.928,6.012,4.2,2.968,10.023,2.823,7.782-2.246,12.605-1.008,6.293,2.462,1.945,3.761-14.631,3.766-12.294,5.937,9.572,7.386,12.841,7.9c3.254.506,3.951-2.176,11.031-1.384s5.375,1.524,6.142-.431,4.673-6.949,5.44-8.765,2.738-2.963,6.619-3.836,5.129-2.1,1.479-3.4-7.782-1.885-7.386-2.893,2.642-3.981,1.083-5.5-4.036-1.449-6.072-2.241c-2.016-.8-4.267-4.493-6.839-6.082s-4.813-1.74-7.932-4.132c-3.1-2.387-8.078-8.213-14.3-7.887-4.2.2-5.993,2.656-10.024,7.728ZM397.9,139.036c-1.554.8-5.44.938-2.557,3.329s2.1,2.467,5.746,1.088c3.665-1.374,8.94-4.778,9.421-5.791.451-1.018-3.665-2.968-6.468-3.841s-4.733-3.114-10.57-4.708C384.993,126.8,399.459,138.234,397.9,139.036ZM588.143,63.7c-6.428-1.74-29.437-6.182-36.9-4.447s-7.055-3.856-17.419-2.5-26.324.577-31.3,1.349S505,61,507.709,62.735c2.693,1.74-12.851-1.93-24.684,1.354-11.813,3.284-19.495,5.019-6.834,9.853s14.3,6.172,14.3,6.172-16.18-2.893-23.014-5.6c-6.854-2.7-3.1-2.507-15.975,1.163-12.851,3.66-25.291,5.6-24.664,9.462.612,3.861,10.364,9.075,16.792,10.424s19.7-1.93,20.743-2.316-5.2,5.215-5.2,5.215,6.634-1.354,14.1-3.289,13.277-4.051,20.332-6.563,8.288-3.279,8.288-3.279-12.231,9.469-20.74,12.745-19.495,5.4-24.679,5.6-4.362,3.475.837,6.177c5.18,2.7,9.116,8.494,11.813,10.424a8.13,8.13,0,0,1,3.119,5.024s-8.1-6.373-17.013,0-7.672,9.657-5.39,10.424,10.163,1.544,11.613,4.247,11.813-2.507,11.813-2.507-5.169,6.563-10.158,6.563c-4.964,0-4.758-4.247-12.019-3.475s-6.849,2.512-3.73,5.024c3.1,2.512,5.6,3.284.2,5.791s-7.877,3.284-8.078,6.368c-.221,3.094,7.04,3.094,11.608,3.094s8.915-.391,17.213-.582,7.25-2.9,10.364-2.9,6.222.968,4.979,4.056,1.228,1.163,10.364-2.121c9.12-3.284,4.964-8.308,4.362-10.043-.632-1.74-3.951-2.316-6.017-3.284s6.222-9.467,4.964-12.355c-1.228-2.9,10.174-.582,15.343-7.336,5.2-6.759,3.319-11.783-.411-12.941s6.849-.386,10.158-2.322c3.324-1.92,10.585-4.242,13.483-7.912s3.936-5.019-3.1-4.247c-7.055.777,10.148-3.094,18.447-8.5s17.845-11.778,19.911-13.322,3.951-.777-5.811-.191c-9.737.577-21.36-.772-14.922-1.544s25.5-3.089,30.48-6.759A61.9,61.9,0,0,1,588.143,63.7Zm-116.1,134.01c-10.379-.973-25.5-3.475-28.62,5.4s-7.877,28.59-8.3,32.25,12.44,9.075,21.355,9.461,23.441.963,20.537-1.158-.421-3.279,7.877-2.893,9.121-1.74,9.121-3.48,1.449,2.121,7.26,5.215,10.79,11.778,15.97,16.8,16.792,11.778,14.511,15.644,2.487,17.379-15.353,20.472c-17.82,3.084-18.858.963-18.657,5.014s1.033,5.8,8.083,5.8,16.807-5.8,20.116-1.544,7.877,5.791,10.79,6.754-3.53,2.7-5.185,3.284,3.53,1.158,13.688,5.987,22.383,5.4,16.366,1.93-8.9-9.846-11.6-11.969-.206-.391,4.568.767,9.121,5.019,11.2,6.764c2.061,1.735,3.1-.582,4.548-7.341s-.617-6.759-8.709-12.164-10.57-9.657-11.407-13.518c-.817-3.866,4.162-4.633,6.242-7.341,2.061-2.7,7.872,4.828,11.813,9.271s7.245,12.169,10.359,6.568,6.007-18.156,6.007-21.049-3.1.191-16.366-6.373c-13.282-6.568-20.116-9.075-21.36-9.075s3.525-2.512,9.336-5.41c5.786-2.9,8.288-2.507-4.157-14.285s-15.97-14.29-24.047-15.067c-8.1-.767-10.369-9.266-16.18-12.159s-19.279,3.475-23.23,4.442c-3.926.963-2.693,2.507-7.671-4.638s-8.9-12.354-8.9-12.354Zm9.326,0c-5.159.612,3.1,10.038,9.732,10.429s12.239-2.9,13.688-3.289c1.464-.381-15.343-8.107-23.42-7.135Zm-23.275,95.773c-.877,2.106-2.968,7.962-3.269,11.873s-.943,4.493-1.71,6.954c-.782,2.462,2.492-.436,4.663,3.184s1.233,4.633,5.129.431,8.248-5.646,13.688-3.906,9.642,2.462,7.777-.867-4.357-3.044-8.093-7.531-6.523-5.651-11.186-7.391-5.139-7.23-7-2.741Zm39.12,338.348c-1.6-3.344-4.016-8.77-14.094-10.645s-13.5,1.875-17.218,3.129,3.475,1.875,8.273,0,8.449-.4,9.105.456-1.61,1.389-2.432.476-.973,2.246,4.442,4.2c5.43,1.955,6.744,2.893,7.29,5.22s.5,3.565,1.735,5.505,1.7,2.758-.572,3.61c-2.3.857-1.479.737.191,1.775a22.074,22.074,0,0,0,9.8,3.164c4.743.4,6.3,1.289,3.008-3.054s-9.023-12.772-9.529-13.83Zm15.067,21.214c2.627,2.688,1.86,5.616,1.685,7.16s-3.018.351-8.233-1.028c-5.2-1.374-4.4-.7.125,1.74s7.451,1.85,7.245,5.1c-.19,3.254,4.162.3,6.087-1.584,1.91-1.885,1.79-.216,9.828,1,8.057,1.208,9.7,2.668,8.414-.862s3.69-3.244-3.46-6.613-24.672-7.971-21.692-4.907Zm-22.9,2.006c-3.018-3.344-6.809-3.831-6.834-.988s1.028,2.687,3.816,3.46c2.812.788,4.958-.33,3.013-2.466ZM547.8,669.582c-3.3-1.128-3.966,1.349-1.775,3.409s5.546,1.349,8.86,1.2-1.349-2.628-7.09-4.6ZM509.959,265.465c-4.362,1.84-6.919,3.114-3.119,8.113s6.072,8.108,7.536,4.488C515.865,274.445,517.339,262.351,509.959,265.465Zm-34.908,53.61c-6.578,1.058-8.724,1.253-7.687,4.929s2.8,3.084,7.26.862,7.576-6.949.427-5.791Zm13.673,5.6c-1.123.346-1.449,2.9,0,5.215s4.252-.772,5.5-3.57-1.343-2.9-5.5-1.649ZM416.978,146.447c-6.212.206-15.549,2.412-10.364,2.507s9.431,1.163,17.845.677c8.393-.481,9.211-1.058,9.416-5.119S428.39,146.061,416.978,146.447ZM378.1,112.366c-6.348,1.971-4.773,3.284,2.693,6.563s7.671,1.74,6.849-4.442S381.835,111.2,378.1,112.366ZM821.286,273.974c-7.852,2.191-10.489.878-11.984,4.864-1.489,3.971-4.563,1.85-6.343,2.342-1.765.491-4.282,11.608-5.521,9.953-1.258-1.655-1.7-2.557-3.52-6.373-1.8-3.821.607-3.144-2.853-7.17s-10.284-3.57-10.765-1.92,4.718,3.029,2.953,4.9c-1.78,1.865-6,4.147-7.6,5.5s3.079.757,6.017.065,4.949,2.206,6.152,4.257-1.354,4.056-2.622,5.054,4.277.757,6.493,1.168,3.379,2.276,1.855,4.783,6.594.361,11.1.105c4.467-.266,5.661,3.069,12.44.948s10.008-1.976,16.19-6.553,5.7-3.51,9.808-6.458,3.114-3.856,3.289-7.125,2.713.918,1.74-4.021c-.943-4.944-6.017-3.6-9.557-3.981s-3.4-3.159-5.185-4.031S829.258,271.748,821.286,273.974Zm524.906,425.387a15.664,15.664,0,0,0-.837,5.119c0,2.607-.3,5.405-.1,8.013s.361,4.442,1.81,5.019,2.447,1.158,4.823.05,4.623-3.089,3.435-6.082a84.993,84.993,0,0,0-4.733-9.316c-1.28-2.217-3.77-5.024-4.4-2.8Zm-1.9-3.58c.261,1.108.617.872,1.133,1.64s1.093.1.371-.918-.642-1.133-.642-1.133-.917-.316-.917.6M1568.16,849.9c-.03.115-.165.18-.246.271-4.267,4.307-8.138,3.1-15.453,5.37-7.451,2.321-20.377,9.853-21.3,13.182s0,3.765-.928,3.329a11.293,11.293,0,0,1-2.5-2.462s-2.011,4.056-1.544,7.676,2.171,5.791,2.021,10.424-1.875,7.391-1.7,10.575c.151,3.189,5.425,9.266,6.834,13.037s2.336,2.753,3.1,9.562,4.362,10.565.777,14.185c-3.565,3.62-6.217,2.9-1.855,6.664,4.347,3.766,7.927,6.227,14.917,3.766s5.139-4.633,10.584-5.791,6.538-2.316,11.2-2.612,7.932.15,9.657-3.179c1.69-3.329.446-3.189,5.109-5.505,4.678-2.317,4.2-2.9,7.315-3.475s5.129,1.594,9.326-1.74,1.093-3.62,10.419-3.62,13.237,1.309,16.642,2.462c3.434,1.158,9.025,4.2,10.419,6.373,1.409,2.176,3.269,4.778,3.886,4.778s1.409.145,3.58-2.026a93.1,93.1,0,0,1,8.4-6.513s-.316,4.628-1.71,6.368a8.171,8.171,0,0,0-1.409,5.069c0,.867,3.58-2.753,4.056-2.9s.933,6.373,1.4,6.955,1.875.286,3.264,2.171,3.274,3.329,4.663,6.954,7.32,7.235,11.051,7.817a30.875,30.875,0,0,0,9.792-.15c2.8-.431,2.953-3.76,5.907-2.457s-.15,4.051,6.849,3.475,8.86-2.893,11.663-4.778,3.1,2.607,6.689-2.322c3.565-4.924,4.2-3.76,4.814-9.7s.461-7.095,3.881-12.741c3.435-5.646,4.217-2.9,6.553-11.151s5.275-16.08,4.974-22.879c-.316-6.814.135-2.322-1.409-10s-.466-6.8-5.44-9.988c-4.994-3.189-6.223-2.322-7.466-6.809s.316-5.791-2.026-5.791c-2.321,0-4.362,1.008-5.756-2.031s-1.228-4.2-3.881-7.095-5.13-2.317-9.958-4.488-2.337-2.753-2.337-6.523.276-7.767-3.57-9.507-1.554.968-1.554-5.215,0-5.31-3.109-6.368-4.156-.968-6.122-4.733-4.558-9.943-5.485-12.45c-.943-2.517-2.076.286-3.324,2.121a19.434,19.434,0,0,0-3.008,9.652c0,3.765,1.655,5.891,1.655,10.91s-3.51,10.043-5.7,12.941c-2.171,2.893-3.936.286-5.812-.486-1.86-.772-2.266-3.575-6.207-5.5s-11.2-3.67-14.521-6.659-1.038-3.094,0-6.187a15.754,15.754,0,0,1,4.979-7.626c2.487-2.026,1.76-2.8-1.344-4.538s-7.461-1.83-12.756-1.83-8.4-.391-8.093,2.6c.326,2.993,3.415,4.152-1.028,3.284-4.458-.872-8.3-1.253-10.269.867s-2.392,3.384-3.53,7.917.316,4.829-1.544,4.829-9.231-3.575-11.718-4.633-3.826-.968-6.739,1.735-12.966,11.492-16.7,13.613S1571.94,838.019,1568.16,849.9ZM1429.81,719.362c-2.2-.291-3.42-.872-.727,2.607a40.907,40.907,0,0,0,6.022,6.563c2.582,2.412,3.525-1.74,5.5,2.893s1.243,4.738,3.214,6.468,3.62,2.226,4.141,3.961,1.138,4.442,3.42,6.378,2.281,1.64,3.62,5.4c1.359,3.766,3.435,6.473,4.473,9.657s6.944,6.182,9.943,10.043,8.093,9.456,8.925,7.912,3,0,4.558-.572,2.076-2.8,3.119-8.213-.948-7.912-2.4-9.171-4.141-1.544-4.869-2.7-1.965-5.114-3.73-6.373-2.191.1-2.191-2.993,2.081-2.8-.5-4.538c-2.6-1.735-2.913-2.993-3.751-3.861-.817-.867-6.413-2.221-7.872-3.771-1.439-1.539-7.566-4.337-10.464-7.245-2.913-2.888-6.122-5.2-7.055-7.33S1439.34,720.615,1429.81,719.362Zm60.339,62.274c-2.482,0-3.73-1.449-5.385,1.544s-1.449,2.993,1.138,2.993,2.076,1.354,1.97,1.74-1.249-.3,4.046,1.83c5.275,2.126,9.02,1.254,10.474.481s1.965,1.935,9.226,3.089,11.091-.672,15.754.486,3.525-.582.206-3.089-3.009-1.163-6.333-3.57c-3.294-2.417-7.972-2.517-10.143-2.9-2.191-.391,1.855,2.311-4.774,1.444-6.648-.867-4.257.582-7.671-1.64-3.43-2.221-3.43-2.607-5.716-2.993s-2.791.585-2.791.585Zm52.673,10.62c-1.87.577-5.7,1.64-3.936,2.412s.4,1.253,5.906.772c5.485-.481,10.269-1.158,10.981-2.317s-.933-.386-3.214-1.063-2.076.481-5.179.872-4.56-.676-4.56-.676Zm19.279-.386c-3.675.446-3.209,1.253-.311,2.126,2.913.867,5.611,1.249,7.782.672s2.487-1.163,6.533-1.835,5.39-.577,8.589-.963l3.224-.386s-.311-.677-2.487-.577-3.715.186-5.906.186-5.906,1.935-7.466,1.84-4.553-1.063-5.3-.582c-.724.482-.714-.962-4.664-.481Zm20.748,4.728a.348.348,0,0,0-.141.1c-2.567,1.755-2.677,2.246-2.447,3.635a2.629,2.629,0,0,1-.271,2.026,11,11,0,0,0,6.644-3.074c2.888-2.9,2.993-2.868,5.947-3.916s6.308-4.272,6.308-4.272a18.781,18.781,0,0,1-4.9.3,9.184,9.184,0,0,0-5.922,2.026c-.807.677.8.859-5.227,3.177Zm-21.676,1.519c-2.708-1.93-5.32-1.66-5.521-.471s-2.341,1.128,1.474,2.537,7.426,3.259,7.15,1.339-1.946-2.577-3.106-3.4Zm-24.774-80.5c-1.559,2.221,1.449,1.645-.837,3.57s-4.031,1.063-6.313,3.961-5.706,4.924-7.155,5.987-6.127,2.316-8.2,5.119a2.767,2.767,0,0,0,.737,4.342s-1.254.582-4.563-.677c-3.324-1.253-3.53-2.8-3.53-2.8s-2.382-.1-3.72,3.475c-1.354,3.57-2.091,3.956.286,6.082,2.4,2.126-1.64,2.221-1.133,3.67s.532,4.157,1.97,4.442,1.76-1.354,3.54.867c1.75,2.221.3,8.489,2.587,8.79s3.931-.682,5.9.19c1.986.867,3.424,1.64,6.022.767a8.9,8.9,0,0,1,6.739.777c1.339.767,6.207,2.412,8.6,2.221s2.793.386,3.214-3,.11-6.563,3.008-9.166,3.008-2.612,3.214-5.024.2-4.924,1.97-7.436,2.8,1.449,3.731-.481,1.875-1.925,1.339-2.9c-.516-.963-3.209-.963-4.237-2.8s.316-2.8-.943-6.563-1.955-2.317-.206-4.442,3.214-2.512,3.415-4.152c.221-1.645.933-1.74,3.124-3.284,2.171-1.544-.341-.817-2.422-2.367s-5.947-7.331-8.369-7.285c-1.307.039-6.227,5.906-7.767,8.122Zm306.343,204.969c-.993-.727-1.845-.19.441,2.517s2.472,1.925,3.926,2.021,2.7,5.41,3.525,6.764a23.266,23.266,0,0,0,2.381,2.988s.848,5.791.1,8.4c-.722,2.6-2.281,3.766-2.788,6.177s2.382,1.735,4.252,2.512,1.544.767.822,2.9-2.9,3.079-2.9,3.475,4.252,2.8,6.423.191,5.6-6.468,6.538-9.266-1.67-1.549,1.339-3.575,2.6-1.063,4.157-3.57,3.2-5.119,1.449-6.468-3.73,1.635-5.3,2.221a5.451,5.451,0,0,1-4.964-.391c-2.171-1.063-2.6-1.063-3.415-2.993a10.7,10.7,0,0,0-1.875-2.993s-.632,3.279-2.171,2.221c-1.564-1.058-1.153-2.221-2.286-4.051a40.993,40.993,0,0,1-1.875-3.766c-.712-1.354-.1-3.961-3.715-4.347s-3.131-.285-4.071-.962Zm.632,35.053a39.6,39.6,0,0,0-5.48,6.082,26.588,26.588,0,0,0-3.846,6.849c-.817,1.935-3.826,4.252-8.8,6.859s-6.849,3.665-8.5,6.082-7.576,9.943-8.288,10.81c-.737.867,2.793,1.74,6.428,1.74s9.326,3.284,12.43-.1,6.222-11.392,8.188-14.29,3.841-3.956,6.95-6.759,8.3-8.012,8.3-10.038a18.614,18.614,0,0,0-1.354-5.315,3.9,3.9,0,0,1-3.841,1.935c-2.711-.28-2.191-3.85-2.191-3.85Zm-24.448,37.084c-3.635-1.93-4.347,1.665-4.939,5.345s1.574.557,4.733-1.1c3.18-1.652,1.59-3.5.2-4.24Zm-123.28-25.311c-4.107-1.364-3.42,2.512-2.8,5.41a21.277,21.277,0,0,0,3.008,7.626c1.554,2.412,7.356,3.279,9.652,2.221,2.271-1.058,3.926-4.633,6.2-8.017s3.329-7.24,2.913-9.261-3.319,1.83-5.19,2.7-4.347,3.094-7.877,2.126-4.472-2.317-5.912-2.8Zm-51.635-207.286c-3.309.772-4.979-2.126-7.672-7.727-2.708-5.6-4.773-6.368-11.608-3.861s-5.811,1.935-1.244,3.67,5.179,2.316,5.8,2.316,7.26.968,5.811,1.93-7.671,1.93-3.736,4.633,2.287.772,12.651,5.987,12.033,1.354,15.358,8.113c3.309,6.754,3.309,5.6.617,7.336-2.713,1.74-6.228,3.475-4.778,3.67a94.828,94.828,0,0,0,11.2,1.158c7.055.386.411,4.443,8.288,4.443s9.953-2.512,13.067-6.182,3.736-1.735,10.369-.191,8.915,7.341,17.218,9.652c8.283,2.321,11.808,5.405,6.629.582s-7.055-8.3-14.11-13.9-7.451-6.177-9.531-10.424-9.326-9.271-17.409-12.555-12.716-3.74-22.192-6.373c-9.759-2.7-11.419,6.957-14.729,7.729Zm-54.543-19.309c-3.1,2.166-3.49.842-5.817-.6s-1.679,3-6.844.6-7.1-3.61-12.656.481-2.061,5.776-2.2,8.664-4.643,11.061-6.328,14.064c-1.67,3.008-1.67,4.091-.386,6.017s3.109,1.2,3.876,2.161,0,8.539-.9,11.066,2.2,3.008,5.425,2.286.386-.963.386-3.6,1.544-3.851,1.544-8.785v-7.21s.912-.486,2.081,1.2,2.843,6.373,4.247,8.78c1.424,2.4,2.843,4.207,5.044,2.522s4.257-3.6,4.257-3.6-4.257-1.324-4.257-2.768,1.81-2.642-1.173-7.456c-2.968-4.808-4.512-5.049-.762-5.295s3.62-3.966,5.806-5.049a11.1,11.1,0,0,1,5.3-.717,5.774,5.774,0,0,0-5.556-1.324c-3.344.958-6.328,1.439-9.17,3.009s-5.3,2.522-5.811-.361-.888-3.61-.507-7.581,4.894-.958,8.258-1.92,3.365-.722,10.72-.241,7.877-1.208,10.078-4.207a30.664,30.664,0,0,0,3.475-6.5s-5.043,4.214-8.133,6.38ZM1606.9,732.3c.657-1.193-5.405,4.152-6.538,5.215s0,2.6.823,4.152.627,6.854.942,8.012,3.415,2.221,3.415,2.221-.09-3.57,1.043-5.215,0-3.67,0-6.659S1604.93,735.868,1606.9,732.3ZM1594.97,764c-4.763-1.825-6.538-.627-6.538,1.865s-.531,3.72,4.538,3.72S1603.78,767.351,1594.97,764Zm9.477-1.614c-1.178.361-2.407,4.1-1.74,6.333s1.464.747,4.141.246,2.261-2.607,5.6-2.853,10.269,2.357,10.269,2.357,1.479-1.735-3.856-5.089c-5.351-3.359-7.751-3.109-14.411-.993Zm-94.856-122.824s-4.773.14-5.5.14-2.392,1.84-3.58,2.567-1.188,1.735-.356,3.615,2.231,1.981,4.553,2.607c2.342.632,1.5-1.013,3.229-1.645,1.695-.622,2.171-2.171,2.542-3.565a5.381,5.381,0,0,1,1.915-2.512c.406-.481-1.354-2.121-1.354-2.271s-1.45,1.065-1.45,1.065Zm56.143,6.709c-1.87-1.384-2.908,3.48-3.43,5.987s-1.138,4.151-.211,5.987c.948,1.835.521,2.417.521,2.417l-2.693-2.031a17.327,17.327,0,0,0-.722,4.347c0,2.026-.837,2.893,2.281,4.342s4.142.677,4.553,2.9.411,3.184,2.492,3.57,4.453,1.254,5.29,2.612c.817,1.349.411-3.58,1.855-3.289s3.124,2.126,4.162,3.771a3.6,3.6,0,0,0,2.582,1.735s-2.377-3.956-1.339-4.437,1.339-.872-1.354-2.517-4.869-1.249-6.944-1.544-2.066,1.449-3.625-2.6-.316-6.563-.316-7.436,1.133,1.354,2.392-1.449a14.867,14.867,0,0,0,1.344-7.722c-.211-2.708,1.86-3.766.3-3.861s-6.112-.009-7.132-.781Zm24.669,51.88c.316,1.961-1.86-.536-2.682.587s-1.244.9-2.572,1.444c-1.309.542-4.5,3.51-4.5,3.51s-.04-1.915.03-2.347-.973-2.683-1.94-1.163a8.864,8.864,0,0,1-4.092,3.58,6.307,6.307,0,0,0-3.8,4.643c-.271,1.951,1.329,1.88,1.329,1.88a12.547,12.547,0,0,0,2.3-2.9c1.434-2.241,1.7-2.171,4.307-2.5s2.407-.291,3.224,1.118.19,3.555.276,5.109c.07,1.554-.085,3.435,2.6,4.342s1.409.075,3.856-.14,2.407-.15,2.051-1.379c-.341-1.228-1.078-2.316-1.243-3.76-.15-1.454,1.409-2.071,1.915-2.357s.822,1.444,1.559,3.259,1.038,1.73,1.354.361,1.163-4.633.857-6.373a24.659,24.659,0,0,1-.461-4.528,5.638,5.638,0,0,0-1.915-3.69c-.7-.511-3.1-2.642-3.1-2.642s.344,2,.654,3.947Zm-11.938-11.813s.055-1.233-2.186-3.44c-2.261-2.211-2.311-2.853-5.756-3.445-3.42-.587-6.864.3-5.415,3.981s1.87,4.227,4.783,4.668a5.95,5.95,0,0,0,4.663-1.133s.221.592-2.527,2.316-3.053,5.009-.9,6.288,2.091,3.244,3.319,2.256,2.146-4.372,4.663-6.734c2.532-2.352,2.683-2.7,3.009-5.2a19.8,19.8,0,0,0,.055-4.518Zm5.882-7.08c-.316.251-2.111-.18-.246,1.625s3.58,2.211,3.344,3.55-.08,1.594-1.118,1.449-1.369-.4-1.83-.431-.537.862-.236,1.7.236-.1,1.123,1.3.672,1.885.943,3.52.968.827.968.827-.231-3.911-.12-4.708-.316-2.713,1.013-2.1.973,2.933,1.75.757a9.941,9.941,0,0,0,.04-5.826c-.381-1.74-1.75-1.81-3.349-1.81a12.668,12.668,0,0,0-2.279.154Zm-26.83,6.694c-.762.191-1.244.943-1.71,3.585s-1.956,4.021-3.54,5.576c-1.6,1.559-5.922,5.721-6.142,6.553-.246.832-.286.326,2.958-1.2,3.224-1.519,5.781-3.545,6.167-5.611s-.386-.792,2.457-2.131,1.4-1.775,1.519-3.876-.286-3.256-1.706-2.895ZM1729.18,765.03c-.341,2.677.782,3.475-1.71,5.455s-5.29,1.975-7.947,2.407c-2.637.441-.707-.431-3.976-.526s-4.1.145-2.6,1.785,1.138,3.234,5.962,3.043,8.8-2.8,11.923-3.765,2.858-3.475,3.119-4.633S1729.54,762.132,1729.18,765.03Zm13.468,5.791c1.339,1.9.837,1.6,2.542,4.1s4.417,2.948,6.428,3.625.015-.727-1.489-2.753-1.61-3.139-3.846-5.17-5.953-3.131-3.633.2ZM1567.54,608.476c-6.644,4.222-9.642,3.911-6.985,9.266,2.638,5.36,4.292,7.626,4.658,8.644s1.715-.677,3.515-4.924c1.82-4.247,2.026-9.8,2.748-11.492C1572.22,608.281,1569.82,607.027,1567.54,608.476Zm113.794-208.3c.722,2.8,1.449,7.15-.2,7.626-1.67.481-2.8,3.57-3.214,6.764-.426,3.179-1.244,7.24.506,9.747,1.78,2.512.521,2.7.521,4.828s.627,7.531-.411,10.715-1.655,3.961-1.244,7.336,0,4.056,0,8.885-.3,8.689-.1,10.62,1.234-.968,1.955-1.64a4.28,4.28,0,0,1,5.089.582l1.559,1.64s2.487,1.063-.928-6.278c-3.435-7.336-4.051-5.786-3.119-12.455s1.444-6.754,4.974-7.436,5.39,4.157,5.816,4.638c.406.481-.316-1.645-1.559-5.41s-2.4-5.019-2.8-9.747-1.875-8.694-3.736-10.043-.928-3.575-.1-5.4a15.3,15.3,0,0,0,.722-7.817,83.244,83.244,0,0,0-1.855-9.371c-.536-1.735-2.6,1.058-2.6,1.058Zm-3.119,73.962c.206,2.121.426,4.046-1.028,6.463s-.421,2.993-1.238,6.368c-.837,3.379-4.884,0-4.884.682a7.048,7.048,0,0,1-1.655,3.956c-1.038.867-4.568,1.063-3.53,4.442A48.244,48.244,0,0,0,1668.8,503a16.481,16.481,0,0,1,2.682-2.121c.627-.191,2.281-.677,2.281-.677s-.3-.968-2.587-2.026a3.118,3.118,0,0,1-1.76-3.961c.316-.677,3.214.2,5.074,0s3.429-1.158,5.716.677a14.981,14.981,0,0,0,5.591,2.512,17.017,17.017,0,0,1,1.449-4.638c1.038-1.925,4.046-1.058,7.055-1.925s5.28-1.354,4.252-2.612-.943-4.051-1.569-6.177-2.587-.1-4.142.672-3.515.2-5.6-1.158-5.811-6.468-7.15-8.494c0-.005-2.082-1.072-1.872,1.063Zm-9.281,31.664c-.988.481-2.241,3.039-2.01,5.861s2.637-.216-.476,8.474-4.668,10.645-7.7,12.891-5.826,2.246-6.99,1.66.316-2.532,1.163-3.114-2.653-.792-4.117-.572c-1.479.211-.08,1.88-.246,3.254s-3.018,5.069-2.708,6.739.3,2.171-1.559,2.753c-1.875.577-3.1-1.384-3.65-1.67s-3.349.511-7,1.013-4.583,1.735-6.142,4.422-5.225,3.109-7.857,4.122-1.63,4.778-4.518,6.082-2.873,3.7-3.1,5.646,1.775.587,2.086.441.316-2.758,2.111-2.462,2.021.361,1.078,2.387c-.928,2.031-1.464,3.039-2.392,4.778s.3,2.537,1.695,4.277,2.733-.511,5.671-3.62c2.969-3.114,3.2-3.841,2.969-7.391s-1.4-3.625-3.58-4.633-2.652,0-.23-2.753c2.407-2.753,3.5-.07,5.129-1.3s5.606-1.163,9.406-2.1,7.476-2.171,7.626-.943,1.329,5.36,1.464,6.228c.166.872,2.662-1.229,5.21-2.171,2.572-.943.166-1.374-.07-3.039a2.836,2.836,0,0,1,1.168-2.607s1.319,2.753,5.44.8,4.442-2.753,5.52-2.467c1.093.291,1.79,1.379,3.5.291s2.021-.07,1.7.8c-.3.867,4.979-1.665,6.142-2.462s.547-.07.08-3.114-1.94-3.259-1.083-7.17a34.81,34.81,0,0,0,.853-6.729c.231-2.467,1.163-2.828,1.79-2.973s.632-3.4,1.94-5.134c1.329-1.74,1.013-2.537,1.013-6.523s-2.186-3.259-2.322-6.082a21,21,0,0,1,.527-5.576s-4.428,1.67-4.889,2.678l-.481,1.018s-.665-.74-2.155-.012Zm-29.016,43.517a79.669,79.669,0,0,0-10.559,2.126c-2.733.867-3.31,2.071-2.883,4.794a56.529,56.529,0,0,0,1.86,6.859c.381,1.414,1.875,0,4.427-1.359s2.412-5.34,4.854-5.34c2.462,0,1.549,2.838,4.859-1.143s.792-4.3.9-6.318-3.456.377-3.456.377Zm290.554-214.461c-4.924-.948-6.348-2.021-6.8-.236s-.983,2.367,2.121,3.475,4.663-.817,7.576,1.354c2.893,2.171,3.73,2.071,5.962,1.78a4.756,4.756,0,0,0,3.1-1.4s-8.231-4.244-11.961-4.976ZM1874.31,257.5c-1.805.506-3.279-1.228-2.8,3.189.446,4.412,1.459,4.924,7.135,4.127s1.409-.216,9.186-.8,9.4-1.665,9.4-1.665a13.542,13.542,0,0,0-3.721-4.2c-2.652-2.026-6.152,1.379-12.144.361A65.4,65.4,0,0,0,1874.31,257.5Zm-175.2-65.238c.085,1.69,7.782,6.443,10.57,7.817s4.979.8,10.9.145c5.906-.652,6.373-3.184,7.065-4.633s-2.8-.943-6.754-1.735c-3.976-.8-7.23.717-8.639,0-1.394-.727,2.106-1.454-1.394-2.753-3.515-1.309-4.362.431-5.14-.145s-.933-1.815-2.642-1.96-4.046,1.668-3.966,3.262Zm-30.48,9.918c-2.677,1.078-2.487,2.031.536,4.563s2.036,1.955.712,3.766,0-.075,4.347,1.88c4.362,1.955,6.152,5.505,8.875,6.3a6.35,6.35,0,0,0,4.578-.221,24.619,24.619,0,0,0-3.5-6.373c-2.557-3.475-8.093-4.488-9.1-7.526s-2.643-3.915-6.443-2.391Zm27.763-14.19s-3.971-2.392-9.958-6.157-8.243-4.778-10.269-5.069-1.695,2.106-2.487,3.986c-.767,1.885-1.313,1.514-4.432,0-3.1-1.519-6.222-3.841-9.406-4.568s-5.129,1.88-8.779,5.505-1.56,4.633,2.873,9.988,6.383,5.656,9.953,3.555,2.562-3.48,5.129-2.467,11.432-1.013,11.748-1.013-.552,4.929,3.349,3.625c3.866-1.3,7.446-1.961,9.241-3.916s3.035-3.471,3.035-3.471ZM1427.11,84.558c-1.133.963-7.782.386-11.2,5.791s-5.8,1.645-7.576,4.924a68.616,68.616,0,0,0-3.214,7.245s3.119,3.665,6.438,3.379,9.12,1.158,12.335,5.6,5.6,4.437,13.373,5.691,4.242,2.322,8.3,1.935c4.036-.391,9.627.481,8.4-1.549-1.243-2.031-2.186-3.284-1.66-7.24.511-3.956,4.136-3.766-.1-6.373s-7.26-.481-7.055-.963c.221-.481,3.846-1.93,2.392-2.031s-8.614-.476-9.431-4.533c-.837-4.056,1.951-4.352,3.4-4.638s1.053-.772-3.109-3.761a113.668,113.668,0,0,0-9.733-6.082C1426.07,83.31,1428.25,83.6,1427.11,84.558Zm38.99,29.252c-3.008.582-5.5,3.575-7.26,6.182a47.047,47.047,0,0,1-7.466,8.3c-2.176,1.74-1.559,2.226,1.971,3.485s9.747-2.221,11.507-2.316,3.109,2.6,8.714,1.925,14.1-1.74,9.953-4.733-2.693-1.544-7.26-5.215a20.051,20.051,0,0,0-10.364-3.956s9.437-3.189,7.15-3.374S1466.1,113.81,1466.1,113.81ZM1226.4,66.217c-5.43,1.94-3.53,2.893-7.055,5.691s-1.153,3.575,6.438,1.745c7.561-1.84,7.972-2.612,12.851-4.829S1234.49,63.319,1226.4,66.217Zm12.019,13.613c-5.084,2.256-3.735,4.633-2.382,6.563s5.074-1.158,6.117.968,1.349,1.248,6.122-1.935,3.008-2.216,1.148-5.6-2.284-3.857-11,0Zm-28.319-1.4c-3.264,1.549-3.264,1.379-.165,2.828,3.119,1.444,10.655,2.6,14.541.07s3.59-2.026-1.319-2.753-9.417-1.889-13.057-.149ZM1162.035,84.3a73.788,73.788,0,0,1,13.774-.216c4.031.436,2.557,3.911-4.909,4.708s.712,1.955,5.987,1.735c5.3-.221,1.875-4.558,6.3-6.082s7.235-.582,12.515-2.462-3.024-3.7-9.181-3.55c-6.122.145-8.158.506-13.372.145s-9.406,1.986-14.766,2.9c-11.053,1.876-1.393,3.255,3.647,2.819Zm39.656,1.379c-4.442,0-15.167,2.457-6.137,3.329s8.323,1.449,12.044.07c3.742-1.382-1.238-3.4-5.908-3.4Zm31.423,1.885c-6.333-2.1-6.468-1.238-11.362-1.023s-6.839,3.259-3.64,4.563c3.169,1.309,5.35.8,8,.371s2.487-1.233.777-1.885,9.951-.8,6.221-2.029Zm26.586-7.83c-4.854.612-5.14,1.449-5.606,3.044s.7,1.228,5.836.577,7.536-1.374,10.885-3.184-.7-6.222-.7-7.025-4.743,2.392-6.072,3.545S1265.45,79.008,1259.7,79.73ZM878.9,357.493c-2.447,6.749-6.478,9.868-1.71,8s9.532-7.7,9.3-2.708-4.894,4.262-3.43,9.146.366,4.467,8.308,6.232c7.962,1.77,1.464,1.143,3.435,5.821,1.94,4.678,3.294,6.132,1.218,7.481s-8.193-4.257-8.564-1.87.852,4.152,2.326,7.481-.988,5.2-5.621,7.371c-4.658,2.191-.612,3.54,2.928,3.334s12.47-1.875,11.006,1.243-5.741-.516-8.79,4.678c-3.079,5.189-14.335,9.657-8.454,9.351,5.866-.316,5.019-1.87,22.508-4.367s5.375-.206,16.872-3.741,7.822-4.468,1.464-3.43,4.172-6.237,2.693-12.981c-1.464-6.764-5.616-.316-8.313-4.578s-2.322-5.505,2.818-3.951,4.648-1.033-5.265-7.371-3.786-5.094-8.313-10.394-12.224-4.678-12.224-4.678a15.587,15.587,0,0,0,5.25-5.816c1.956-3.841,2.321-3.535,4.4-8.208s-2.081-4.262-7.325-3.119c-5.265,1.138-6.99,1.665-5.882-.411s1.83-2.908,4.282-5.51,2.923-3.946-1.589-2.908c-4.528,1.038-5.21.938-9.05,2.7C877.318,346.994,881.349,350.739,878.9,357.493Zm-12.36,15.895c-7.987,3.149-5.741,5.2-4.387,6.343s3.786-1.043-3.68,3.219-7.576,8.935-3.665,9.868,3.42-2.286-.722,5.51c-4.172,7.787-6.975,13.092,1.459,11.116s10.765-6.338,14.8-6.859,4.773-3.736,4.773-8.624-2.693-4.984.491-9.04c3.169-4.051,3.415-8.313-2.833-10.289s-1.214-3.22-6.233-1.244ZM966.989,482.433c-.421,1.1.531,4.051-2.693,6.082s1.559,3.866,2.582,5.8c1.053,1.925,2.4-6.568,2.081-10.62C968.659,479.635,968.343,478.958,966.989,482.433Zm-1.544,16.03c-5.28,2.487-5.591,4.337-6.232,8.3-.617,3.961,4.267.777,3.008,4.247s-.1,5.31,5.4,2.031,2.377-6.278,3.214-10.429S972.394,495.179,965.445,498.463Zm81.278,42.67c-4.633-.456-6.689,2.462,1.243,3.339,7.932.862,11.5,1,14.466.286,2.943-.727.451-.15-3.43-2.758s-6.372-.291-12.282-.867Zm44.154,2.462c-6.388-1.379-4.648,6.373,1.87,5.215,6.538-1.158,4.051.436,7-4.337s-2.177.57-8.867-.879ZM932.051,507.634c-5.2.657-5.591,2.412-1.554,3.475s3.525-.191,5.811-1.835S934.338,507.343,932.051,507.634Zm-314.1-94.525c-3.184,2.527-6.834,6.227-11.347,14.34s-4.036,7.24-8.4,11.733-2.171,3.475,11.352,6.082,12.445,4.628,15.559,3.766,3.735,1.735,3.735,4.488,2.938,1.158,4.347-3.184c1.394-4.347-1.409-12.169-4.2-16.657s-3.43-4.493-7.782-3.329-2.953-1.018-4.5-4.493-4.061-.722-.316-5.937,4.671-9.271,1.552-6.809Zm-413.915-9.266c0,4.307,4.553,11.683,7.972,14.094s2.7,1.068,1.148-4.051-.316-5.119-1.043-8.4-8.077-3.186-8.077-1.643ZM226.73,427.4a40.175,40.175,0,0,0,8.4,8.007c4.773,3.189,6.017,3.58,11,5.024s7.15-.486,3.936-3.379-.521-2.607-6.328-3.961-7.045-.867-9.958-2.7S224.765,425.373,226.73,427.4ZM100.321,379.369c-3.735-.847-5.21-1.013-7.782,1.013s-3.254,3.766-1.86,6.012.547,1.013,3.8-1.233c3.279-2.246,1.725-2.532,5.841-3.545s3.264-2.392,3.264-2.392S102.592,379.876,100.321,379.369Zm-1.314-4.994c-2.517,1.514-3.349,2.748-.547,2.171s2.407-2.171,4.2-1.81,2.407-.361,2.407-.361-3.422-1.594-6.06,0ZM27.236,362.858c-3.425,1.665-6.664-.286-4.558.973s4.979,2.467,7.235,2.211,3.73-.286,2.908-1.379a3.478,3.478,0,0,1-1.078-2.487C31.664,360.647,30.651,361.193,27.236,362.858ZM1174.97,834.735c-3.936,8.694-12.239,4.443-18.868,10.81s-5.606,4.447-.632,13.327-4.127,7.917-6.423,18.341,2.693,8.5,5.385,17.379c2.713,8.88,3.951,6.182,8.93,5.024a29.1,29.1,0,0,0,8.494-3.475A125.018,125.018,0,0,1,1176,877.022c3.319-11.392,5.606-19.7,6.223-27.226s1.243-12.936,2.913-10.62,1.855,2.316,1.855-1.349-1.981-13.994-5.18-16.416C1176.2,817.166,1178.91,826.046,1174.97,834.735Zm5.811-593.959c-5.425,1.238-8.012,4.558-4.046,5.861s3.57.582,10.1-1.74-.695-5.354-6.055-4.121Zm101.6-98.671c-1.86-2.9-3.515.963-22.593,9.266s-18.883,1.158-36.713,15.253-13.894,12.36-14.932,20.858-5.18,4.824-6.834,12.545-10.775,8.118-6.223,14.486c4.568,6.373,10.57,10.038,20.1,12.746,9.547,2.7,12.239-.191,10.179-1.163-2.081-.963-9.326-12.355-7.877-25.291s6.222-11.011,10.364-15.834,14.932-17.379,21.987-21.631c6.849-4.127,25.09-9.9,34.281-13.062.261-.09.587-.075.752-.261,7.258-8.108-.622-5.017-2.492-7.917Zm-51.414,86.788c-2.256.321-3.324.391.833,4.447,4.142,4.056,7.767,7.15,6.413,1.735s-5.183-6.468-7.253-6.182Zm68.106-39.3c-3.033-1.409-4.663-2.893-5.385-.572s3.415,5.4,7.466,6.177c4.026.777.816-4.242-2.084-5.6ZM585.245,432.613c-4.608-2.311-9.121-4.147-12.124-4.147s.627,3.179,5.385,5.786C583.289,436.86,587.937,433.967,585.245,432.613Zm-10.981,19.409c.246-3.826-2.557,4.392.878,6.222,3.415,1.835,5.2,2.321,7.371.1s.4-.822-2.6-1.344c-3.007-.54-5.85-1.788-5.649-4.977ZM1932.7,318.98a23.449,23.449,0,0,1-9.8-1.018s-.316,4.493-2.01,6.664a4.247,4.247,0,0,0-.476,4.488s-5.6-2.462-8.86-3.62-6.223-.145-8.1-5.069c-1.86-4.924-7.451-4.056-11.818-4.056-4.347,0-3.1-5.646-3.1-5.646l-2.642.145c-2.652.145-2.186,6.518-5.606,8.544-3.435,2.026-14.15,3.329-14.15,3.329s6.834,4.929,8.243,8.98a39.244,39.244,0,0,0,4.046,7.967s-.627,1.88-8.875.291-7.762,1.589-16.642,5.21c-8.86,3.625-18.963,9.126-21.45,11.151s-2.652.867-10.419-1.008-9.326,2.166-11.367,3.184c-2.01,1.013-1.228-4.638-1.228-4.638a15.218,15.218,0,0,0-6.237,1.74c-35.439,18-10.991,17.058-12.114,20.7l-3.745,14.049c-5.21,15.523-8.82,7.4-13.212,19.7-14,39.1-22.1-6.027-22.1-16.361,0-6.373-1.389-14.626,2.657-16.506,34.8-16.2,3.264-2.256,35.921-24.624,10.585-7.24,4.824-11.583,7.15-13.613a13.981,13.981,0,0,1,6.072-2.607l-5.756-.577c-5.756-.577-5.907.722-10.419,5.646s-8.083,5.8-7.15,2.026,1.078-7.671-2.332-5.641-4.824,1.735-11.191,3.038a31.32,31.32,0,0,0-18.978,11.582c-5.761,7.245-2.492,6.373-.617,8.113,1.855,1.735-9.191,1.3-14.466.867-5.3-.431-2.507-1.449.612-2.462s-4.663-1.885-11.512-3.329-4.2,1.158-8.233,2.753-3.886-1.449-5.906-1.885-11.046-1.013-17.419-1.74-5.912.436-7.616,2.607c-1.725,2.176-13.538,12.605-18.667,18.542s-11.512,7.24-17.268,12.746c-5.741,5.5-6.689,5.21-2.026,6.082s5.3.431,6.072,4.778,2.953,5.786,7.932,5.786,3.58,1.309,4.508-2.462-1.239-8.1,2.958-4.778c4.2,3.339,7.616,5.8,8.86,10.575,1.259,4.778-.316,8.253-2.492,16.225s-2.948,19.4-5.9,25.2-5.3,10.138-8.564,16.511-19.129,22.443-22.7,23.892-5.907,1.59-7.616-1.589-2.953-2.607-7,1.008c-4.031,3.62-5.906,5.8-7.466,11.587s-4.979,5.791-8.559,10.133-4.5,3.334-1.86,8.258,6.99,10.143,7.466,14.917-2.186,11.733-3.881,14.776c-1.725,3.038-9.808,4.487-9.657,3.038a112.078,112.078,0,0,0,0-12.886c-.311-4.2-3.42-4.2-2.336-5.5,1.108-1.3,5.606-3.48,2.336-6.518s-5.591-.436-6.984-4.056c-1.409-3.62.612-6.518-.15-7.822-.8-1.3-3.119-2.748-7.948-3.179-4.813-.441-5.906,4.337-7,.135s.476-4.628-1.71-6.368-4.046-.577-9.627,4.2c-5.606,4.778-6.7,3.766-11.362,5.791s-4.663,3.189-3.585,4.778c1.1,1.6,4.979,8.544,8.248,9.271s5.6-1.454,10.57-1.454c4.994,0,5.917.727,4.678,2.607-1.258,1.885-4.678,3.771-10.735,9.853s-4.212,4.924-2.176,7.386,4.979,5.505,7.155,10.284,0,6.513-.316,9.261-.782,6.96,3.264,11.307,1.248,2.893.782,4.488-7.316,14.044-10.419,20.272c-3.119,6.227-3.119,6.809-13.222,13.9s-14.616,7.822-20.061,8.83a67.383,67.383,0,0,0-12.906,3.771c-2.8,1.158-1.72,3.475-2.011,4.924-.326,1.449-2.968.14-2.5-2.031s.161-3.766-1.244-4.347-5.756-2.316-10.254,2.031-9.973,4.633-11.833,10.138-1.544,3.625.481,5.937c2.006,2.317,11.813,11.733,14.14,16.8s2.8,8.845,2.968,14.34c.15,5.505-11.212,15.639-16.181,18.973s-6.072,6.513-5.29,1.3c.762-5.21-2.176-8.253-5.756-12.159s-14.455-7.095-16.491-7.531c-2.011-.436.777-3.62-.627-3.48-1.384.145-4.653-.722-4.187,4.347s-3.269,3.48-4.046,8.544-1.71,10.279,1.559,9.848,2.638,4.493,5.13,9.993,1.544,2.462,7.777,7.531,4.663,4.2,6.072,9.271c1.379,5.064.933,7.962,4.046,12.6,3.089,4.633,3.254,5.646-1.875,3.039s-9.326-5.791-11.357-8.98-3.259-11.3-4.5-15.348-9.637-8.835-12.445-11.733-1.093-5.21.316-11.873c1.394-6.664-.627-13.036-1.093-17.093s-3.735-15.423-5.3-19.264-.922-3.324-3.344,0-4.267,5.365-6.608,5.365c-2.322,0-5.741-.366-5.44-1.885s2.652-7.311,1.955-9.487-2.883-9.126-6.152-11.582a24.987,24.987,0,0,1-9.1-11.587c-2.106-5.716-2.652-4.056-6.689-1.088s-13.3,3.329-17.73,3.69-.782,2.542-1.865,4.708-6.3,5-16.787,15.935-12.089,11.3-14.811,12.455-4.417.792-4.317,5.285c.07,4.488.476,6.924-.04,10.936s-1.715,5.646-2.863,8.2a49.318,49.318,0,0,0-2.733,9.612c-.356,2.417-2.693,5.215-6.112,7.677s-3.415,2.026-4.979-1.594-9.637-17.524-16.175-30.556-4.979-15.353-5.606-19.119-.737-26.369-.466-28.094c.165-.963-3.159,2.658-4.087,4.488-.948,1.835-.888,4.061-4.608,4.392s-4.513.386-8.043-3.134-5.139-5.505-4.523-5.405a19.447,19.447,0,0,0,7.015-1.544c2.321-1.163,1.544-2.417,1.544-2.417s-2.532.286-5.541.431-1.665-.672-5.646-2.266-4.879-1.735-5.55-3.52-1.655-4.3-2.231-5.656-1.038-1.444-1.7-3.134-2.587.286-6.894.386-3.324.291-8.5,2.317-5.962,1.3-11.828,1.113-9.943-2.708-12.906-3.72-3.42-.577-7.767-1.208-3.42-2.843-4.513-4.678-2.9-2.271-8.614-1.835c-5.691.431-5.912.145-9.111-.722s-3.485-2.031-6.182-4.733-1.8-.582-3.565-1.981a15.049,15.049,0,0,1-4.924-7.095c-1.409-3.76-1.093-4.588-2.708-6.328s-1.489-1.3-6.533-1.3c-5.019,0-2.738.336-3.364.672s-2.176,2.562-3.57,4.3,1.138,4.157,3.159,6.518.256,2.126,3.475,5.7,2.121,3.234,4.4,8.208,3.73,6.227,4.252,7.727.983-.587,1.5-1.93-.206-6.182-.206-6.182a30.474,30.474,0,0,1,1.86,5.6c.887,3.575.261,3.62.887,5.891s0,1.976,3.886,1.976,6.278.145,10.58-.867,6.157-4.924,8.178-6.082c2.041-1.158,2.041-5.22,3.38-4.778s.055,4.778,1.3,7.626,1.544,1.83,4.568,3.089c2.993,1.254,3.826,1.981,6.879,3.134s.983,1.3,2.647,4.347,1.559,1.354,3.159,2.412.988.291-.145,3.911-1.359,3.67-4.051,6.619-2.693,2.026-3.1,1.93-1.243-2.176-1.243-2.176a22.572,22.572,0,0,0-1.97,7.631c-.261,4.1,1.344,2.6-3.58,4.583s-7.892,2.8-9.792,4.438-1.911,3.821-3.009,4.884-2.6.09-5.907,1.249c-3.324,1.158-2.392.923-5.195,3.049s-.316,1.93-3.886,3.279-10.048,4.488-13.317,4.828-2.6,1.208-3.419,2.412-.888,1.83-5.034,2.462-9.321,1.209-11.878,2.467c-2.542,1.254-6.262,4.046-8.955,3.52-2.708-.531-1.971-.632-2.858-3.043a29.307,29.307,0,0,1-1.765-8.113c-.411-3.956-1.82-9.988-4.1-13.8s-2.231-4.061-4.7-8.068c-2.492-4.006-4.157-7.381-6.333-8.93s-3.254-1.64-4.307-2.8c-1.028-1.158-.411-5.119-1.489-8.5-1.093-3.375-1.82-6.659-3.43-8.544s-4.092-4.051-6.318-8.058-2.387-4.447-5.6-10.62c-3.229-6.182-4.362-6.954-6.483-11.106s-.732-3.329-1.5-5.8-2.8,4.011-4.4,5.265-2.432.622-3.73-3.043-2.392-6.9-3.38-5.455-1.76,2.9-.421,6.814c1.354,3.9,1.98,3.084,3.745,6.8s6.573,13.041,8.544,16.9,1.188,1.981,3.008,7.822,2.843,6.568,5.28,8.975,2.036,1.163,3.119,5.119.682,8.6.832,11.011,1.5,3.665,4.4,6.082,1.449,1.544,2.8,4.1a55.831,55.831,0,0,1,3.475,8.689c.777,2.507,1.71,4.247,3.991,5.36a39.457,39.457,0,0,0,5.185,2.076c2.286.817,1.489,1.394,3.048,3.374s4.568,3.475,6.443,6.619c1.855,3.134.612,2.216.5,5.26s-1.078,1.645.276,3.234c1.339,1.594,3.675,2.9,7.6,5.5,3.951,2.607.792.772,4.307.682,3.54-.1,4.267-1.018,8.042-1.84s8.654-2.216,13.317-3.329c4.678-1.108,9.231-1.835,11.623-2.607,2.377-.772,2.432,1.84.617,5.892s-2.693,7.431-4.257,10.715-2.131,3.575-3.269,6.232-8.814,13.508-10.4,16.943a41.862,41.862,0,0,1-5.866,9.025c-2.337,2.848-9.637,8.012-13.057,10.765s-2.542,2.753-5.084,5.987-10.259,12.214-12.35,15.393c-2.066,3.189-3.254,4.352-4.813,7.486-1.544,3.139-5.947,7.581-6.223,9.848-.26,2.266-2.733,2.562-.872,4.543s2.843,2.312,3.525,4.829-2.076,5.355-.316,9.938.521,1.3,3.179,4.974c2.637,3.665,2.527,5.987,2.788,11.347s.516,10.67-.316,14.14a64.967,64.967,0,0,1-3.159,8.89c-1.188,3.134-7.727,5.26-11.568,6.944s-3.665,1.018-5.445,3.139c-1.75,2.126-6.834,6.563-8.544,9.843-1.725,3.289-3.008,2.953-2.327,5.029s2.111,4.778,3.886,8.639c1.75,3.861.522,3.57.1,6.9s-.356,2.8-.822,6.854-5.24,4.152-10.675,6.278-3.475,1.058-4.1,4-.246,8.745-.466,12.214c-.2,3.48-1.86,2.076-4.828,6.378s-4.142,6.323-7.3,11.487c-3.174,5.159-2.9,4.442-6.9,7.671-3.981,3.234-7.155,4.056-8.905,7.772s-3.786,1.253-12.345,4.011-2.327,1.4-10.459,2.312-11.051,1.549-15.358,2.321-3.731-.236-6.373-3.139-3.059-2.657-4.237-5.064c-1.208-2.417-.316-2.993-.687-7.341s-.722-4.493-2.322-7.2-1.519-3.139-3.269-7.436a35.2,35.2,0,0,0-4.528-8.393c-1.955-2.9-2.527-1.981-4.347-3.866s-1.86-3.53-2.281-6.177-1.043-8.935-1.915-15.544-.1-3.089-1.148-5.891c-1.028-2.8-2.271-6.182-4.036-9.893A53.383,53.383,0,0,0,987,867.943a43.965,43.965,0,0,1-4.142-7.957c-1.71-4.011-1.971-2.226-2.066-3.771-.11-1.544.878-4.342.983-7.045s.988-5.841,1.64-9.993c.687-4.152-.913-4.1.837-6.955s3.58-5.45,4.733-8.684c1.133-3.234.968-3.379.968-7.486s-.411-3.761-1.655-7.19-1.71-7.436-3.214-12.941-1.449-5.3-1.67-7.436a51.7,51.7,0,0,0-2.266-9.8c-1.043-2.893-1.559-1.735-3.831-3.615s-.777-1.068-2.748-3.144-1.615-2.753-3.53-5.019a27.775,27.775,0,0,1-3.746-4.929c-1.544-2.552-.712-1-.5-5.3s1.444-12.505,2.226-17.233.943-4.493-.878-6.468-3.119-4.828-4.508-5.315c-1.409-.481-4.773.486-9.7.391s-4.718-1.2-6.839-3.675c-2.131-2.457-4.934-5.886-5.922-6.8s-2.693-.872-11.086-.246-3.324.772-8.93,1.645c-5.581.867-7.767,3.811-12.074,5.31s-5.536,1.113-13.112-.386-11.352,1.74-15.193,3.379-5.706.867-8.494-1.063-4.457-3.52-8.765-5.646c-4.292-2.126-3.319-3.284-7.556-5.365-4.267-2.071-2.863-2.171-6.388-5.5S845.8,703,843.353,699.521s-4.513-8.348-7.782-12.024-6.468-11.056-8.083-13.272-2.843-2.412-2.8-3.475,3.169-7.29,4.468-10.525,1.655-2.8,2.216-4.828-.762-7.867-2.011-11.051-2.652-9.9-3.625-13.037c-1-3.139.507-3.184,1.715-4.969a106.992,106.992,0,0,0,6.985-11.006c2.953-5.51,4.623-8.213,6.167-10.775,1.559-2.552,5.124-10.424,7.476-12.545a74.81,74.81,0,0,1,10.82-7.676c2.542-1.3,4.618-2.026,5.029-3.184s1.5-10.715,2.231-14.721-.246-6.227,2.652-7.777,7.561-4.437,10.008-5.791c2.422-1.354,2.788-3.379,4.036-6.328s1.76-6.654,3.635-7.867,1.339.532,3.776,2.176,2.858,1.74,3.991,2.026,2.171-.918,5.029-.968a7.048,7.048,0,0,1,4.869,1.258c1.71.913.782.918,5.661-2.076a77.037,77.037,0,0,1,15.138-7.2c6.373-2.367,10.72-3.67,13.673-4.006s1.449.05,4.773,1.354,3.475,1.88,4.142.913c.687-.968,2.858-3.67,4.252-3.57s3.008.677,6.594,1.3,5.074.291,6.533-.481c1.439-.772,3.309-2.316,3.67-2.316a60.342,60.342,0,0,1,5.917,1.976c2.487.923,2.527,1.068,2.026,1.69a12.938,12.938,0,0,0-2.437,4.006c-1.2,2.708-.627,1.258.506,4.107s1.971,2.7,1.449,4.778-2.843,4.006-4.553,6.037-1.3,2.357,2.9,4.728a58.986,58.986,0,0,0,7.932,4.1c4.718,2.121,4.924,1.354,10.419,2.993s4.823,1.83,6.744,4.057,2.021,4.347,5.33,5.5,6.849,1.163,8.765,2.367,3.475,2.948,6.072,3.43,2.587.822,3.826-1.063c1.264-1.875,2.286-3.57,1.82-4.538s-1.87-2.462-1.559-3.384a63.842,63.842,0,0,1,3.159-5.691c.682-1.108,2.4-1.4,6.5-1.589s6.93-.777,7.612,1.64.521,1.3,3.68,2.6,3.475,1.3,6.112,2.322,1.3,2.462,2.652,2.362a16.243,16.243,0,0,1,6,.436c2.492.722,7.06,2.893,11.873,3.089s6.684-1.253,7.421-1.594,4.147-4.533,6.167-1.639,4.663,2.943,9.737,2.652,5.144-1.058,6.278-2.362a35.343,35.343,0,0,0,5.195-9.607c.973-3.38,3.665-10.76,4.387-14.1.742-3.329-.04-5.932-.3-7.907s.2-3.339.983-5.556-2.437-.872-3.735-.436-1.655-.677-2.843-1.013-2.447-.632-3.319,1.589c-.892,2.221-.481,3.334-5.24,3.089s-3.886-.531-5.445-2.221-4.2-2.121-6.328-2.753-2.321-.527-2.487.822c-.151,1.349-.206,2.271-1.75,2.8-1.559.531-5.089-.1-8.042-1.494s-3.841-2.076-6.739-4.924-2.492-2.848-3.68-7.245-1.188-8.158-.667-9.462c.5-1.3,1.334-1.685-.892-1.013s-3.735,1.063-2.231-2.266,2.9-3.475,4.457-3.916a42.411,42.411,0,0,1,6.894-.672c2.953-.191,5.24-1.69,6.278-2.131,1.038-.426,3.169-1.153,2.076-1.444s-4.362-.627-3.786-1.539.928-.873,2.693-1.063,4.513-.291,6.849-.436,3.725.286,4.518-1.108c.762-1.4,1.75-3.48,3.565-4.588s3.791-.531,8.559-.727,4.036.963,5.6,2.081,2.582.577,4.618.963c2.011.386.767,1.594,2.327,2.221s4.4,1.254,7.872,2.362,1.193.632,5.445.632a28.927,28.927,0,0,0,7.466-.536c3.364-.577,4.773-1.83,7.155-3.52s.722-5.36-.156-8.208-4.618-4.678-6.328-5.982-5.39-5.46-7.356-7.15c-1.985-1.685-4.257-2.171-6.428-3.374s-6.072-3.189-6.423-4.783c-.371-1.589.833-1.635,4.046-2.412s2.171-1.449,2.788-3.139.887-1.64,3.525-2.607-3.048-2.993-3.841-4.1c-.767-1.118,1.76-.777,4.417-1.4s2.858-1.88,3.214-2.993.245-1.645-2.858-1.594-7.045,1.354-12.279,2.753-2.843,1.449-6.017,3.911-3.364,1.4-2.953,2.748.612,2.657,3.831,4.347,1.86,1.74,2.758,1.986c.877.236,3.054.572,2.066.867s-1.875,1.825-3.324,1.825-2.076,1.5-4.553,2.9a13.076,13.076,0,0,1-5.385,1.885c-1.82.291-3.119-.291-2.858-3.379s-.933-1.008-2.858-1.735a7.021,7.021,0,0,1-2.642-1.549,21.363,21.363,0,0,0,3.846-1.885,7.424,7.424,0,0,0,3.73-4.292c.932-2.362-2.076-1.063-4.247-1.349s-1.559-.486-3.68-.772a3.975,3.975,0,0,1-2.953-1.981,6.376,6.376,0,0,0,2.788.2c1.82-.2,1.409-.677,2.076-1.158s1.2-.923.672-.923-2.748.241-4.237.145a16.025,16.025,0,0,0-4.568,0c-2.191.336-1.3,1.158-2.858,2.171s-1.6,1.354-2.437,2.853c-.817,1.494-1.093,1.253-1.655,2.216s-.516,3.379-.516,5.024-.426,2.171-1.409,3.52-.988.777-2.642,1.594-.572,1.4-.777,3.043-.777,2.266-.928,4.4-.988,2.211-2.286,3.71-2.021,1.494-2.116,3.043a18.076,18.076,0,0,0,0,5.21c.356,2.993,1.188,2.221,3.525,5.265s3.57,1.885,2.733,3.424c-.817,1.549-.667.968-3.525.632-2.843-.341-3.309.1-5.37,2.076-2.081,1.976-2.507,3.089-3.585,3.816-1.1.717-.727-1.449-1.138-2.467s-5.194-1.349-8.459-2.317-4.147-1.544-4.979-1.544-2.1-.2-5.51,1.69-2.657,2.968-2.412,5.43,2.943,2.973,2.176,8.76c-.792,5.8,2.873,3.119,4.432,6.664s.151,3.259-.782,3.7-1.855,3.475-2.567,6.368.08,3.264-.782,3.114-1.86.512-3.485-1.88c-1.64-2.387-2.953-.14-3.2-1.519-.22-1.374-2.256-3.7-1.479-6.879s2.026-3.48-.777-5.139-2.091-1.885-3.419-5.29a18.952,18.952,0,0,0-4.187-7.165c-2.582-3.114-2.347-2.246-1.635-5.36.692-3.114,1.238-7.17-.321-9.341s-8-8.183-13.3-11.006c-5.28-2.818-6.373-.652-8.709-5.139s-3.4-9.2-7.3-11.954c-3.881-2.753-1.936-2.963-5.671-1.589s-3.816,1.956-3.5,3.044a9.249,9.249,0,0,1,.612,5.5c-.547,2.963-1.314,2.026,2.577,4.342s2.251,1.81,4.2,6.087,2.251,5.064,3.811,6.8,2.106,3.259,5.992,4.127,3.264-.216,4.267.722c1.023.943-2.723,1.3-2.016,1.74a37.088,37.088,0,0,0,4.813,3.7c3.274,2.026,6.623,4.127,7.481,5.721s3.72,7.6-.476,3.184-4.267-2.387-5.44.652,1.078,5.36.943,7.606c-.165,2.241-2.106,1.379-3.43,3.184s-2.026,3.976-3.585,5.139-1.078-1.3-1.93-1.3-1.173,1.088-2.256,3.184,0,2.973.451,5.8c.466,2.818,1.258,3.033-1.78,2.893s-2.336-2.973-5.124-4.854-4.427-1.229-6.769-2.683,1.013-1.8,6.834-2.532c5.841-.722,6.538-1.3,8.333-2.672,1.775-1.384,1.163-1.74,3.1-4.5s0-3.836-1.329-7.17a12.108,12.108,0,0,0-4.663-5.5,45.805,45.805,0,0,1-4.5-4.488c-1.72-1.88-3.515-2.171-6.468-2.893s-2.407-3.4-4.036-4.207-3.264-3.109-7-6.589-2.327-6.082-4.046-9.121-3.42-5.36-7.15-5.36-6.538,2.607-10.269,6.228-2.953,5.36-7.3,2.612c-4.367-2.758-5.912-2.467-9.03.14s-3.73,5.215-3.73,10.424-3.73,3.044-6.689,4.493-5.591,5.069-10.1,13.613.311,4.488-.637,7.386c-.928,2.893.316,5.215-3.881,8.975s-2.336-.431-4.813,2.612a12.154,12.154,0,0,1-11.823,4.778c-5.912-.722-4.2,1.595-7.932,2.462s-5.761,2.171-4.829-2.031.166-3.62-6.985-3.324c-7.17.286-9.657,2.171-9.03,1.158s.933-2.758,1.725-6.814c.777-4.051,1.86-5.355.777-5.355s-3.43.582-1.72-6.664,2.337-8.544,1.559-12.746.3-9.848-.617-12.309c-.943-2.457,1.86-4.919.617-6.222s-2.652-3.044-1.71-3.044a65.306,65.306,0,0,1,9.787,1.013c4.994.872,10.108-.727,13.077-.431,2.938.291,9.176,1.59,15.378,2.6,6.223,1.013,6.072-.868,5.46-9.988s.461-13.327-1.409-15.208-3.881-1.745-5.907-4.2-.466-6.087-4.813-7.391c-4.362-1.3-9.191-.291-6.854-1.158s3.269-1.158.782-3.043-3.119-3.906-1.243-4.2c1.86-.286,7.15-.286,7.15-.286s.466,2.6,3.269,1.444,6.373-2.316,5.606-4.2c-.792-1.885-2.186-4.207-1.725-4.207s1.559,2.612,7.466,2.612,5.445-.872,4.979-3.329,3.9-2.322,6.849-4.347-1.093-4.342-.461-6.227c.612-1.88,4.031-3.044,10.1-3.475s4.964-1.454,4.347-2.176.165-3.766.617-7.672c.476-3.911-.451-5.215,2.652-7.1s2.176-1.158,8.559-1.74,2.477-2.026,3.57-2.317,8.709-2.171,10.1-2.758c1.409-.577,1.259-.426,0-3.189-1.243-2.743-2.953-4.337-4.347-17.083s-1.093-12.746,6.684-15.057,6.072-1.594,5.445,5.5-4.046,7.1-4.829,12.309-.15,8.4,3.114,13.9,2.958,2.748,9.963,2.748,5.435,1.74,10.1,3.329,3.1-2.888,7.626-4.488c4.5-1.589,3.57,1.018,14.14-.577,4.036-.612,5.415-.747,5.731-.777-.326.02-1.489.03-.286-.672,2.482-1.449,3.119-4.051,6.7-4.493s6.057,1.018,5.9-4.488-2.176-4.633-1.549-8.835.767-2.311,1.083-5.646-.456-3.911,4.046-5.069,1.409,4.056,6.839,5.21,4.673,2.031,5.6-2.166,3.9-9.707,1.243-9.416c-2.637.291-3.264-.145-5.906-4.051s-4.2-4.778-2.487-4.778,7.466-1.594,15.7-1.3,10.584,1.013,11.051.135-1.4-1.73,1.389-3.47c2.808-1.74,11.979.867,10.585-.727-1.409-1.589-9.492-3.766-14.932-2.893s-18.662,2.462-20.688,2.316c-2.01-.14-5.746-1.594-6.689-2.6-.928-1.018-3.881-1.745-3.881-6.518s1.71-6.664-1.093-11.3,5.13-8.544,10.585-13.473c5.44-4.919,4.046-8.975,7.3-9.266,3.269-.291,4.528-2.026,2.953-3.62-1.544-1.589-7.3-7.1-10.108-7.682s-6.995-3.76-11.347,3.771.306,8.253,1.1,12.164c.777,3.911-6.072,6.809-11.217,10.429-5.124,3.62-6.985,2.753-8.549,12.019s-3.114,9.562,2.642,12.741c5.756,3.194,6.854,4.783,4.212,7.536-2.658,2.753-8.243,2.607-11.678,9.126-3.419,6.513-2.011,9.7-3.419,12.6s-5.741,4.2-7,7.1c-1.228,2.893-1.228,8.394-6.523,7.531s-2.337-7.967-4.673-11.593-4.2-6.659-6.99-11.151-.617-8.83-3.269-11.151-3.269-6.95-3.269-6.95l-.933,2.176c-.923,2.171-.461,3.475-5.751,9.993s-13.222,6.949-17.108,5.355-3.264-5.355-3.264-10.133-.933-11.156-.155-18.682,2.953-6.954,11.2-11.878,8.4-4.633,10.419-7.822,7.932-7.671,11.347-10.57,9.341-13.9,12.445-21.726,8.86-12.6,14.456-21,15.559-15.784,28.3-21.139,10.585-5.942,13.523-10.138c2.968-4.2,4.212-1.74,9.191-2.753s4.2,0-.782,4.924-7.15,10.138-2.953,6.227,7.451-8.549,13.989-8.258,3.9,0,10.269,2.9,7.466,3.184,3.9,5.505c-3.6,2.317-9.652,1.74-9.652,1.74a10.043,10.043,0,0,0,7.932,5.5c5.917.727,9.171-4.638,13.072-2.607,3.881,2.026,4.979,3.475-.316,3.039s-6.839,2.9-.316,5.21,7.15,2.612,15.714,3.771c8.544,1.158,12.289,7.386,18.813,10.138s14.155.436,11.979,6.378,1.71,11.728-9.642,14.481-11.046-.867-20.522-3.776a167.552,167.552,0,0,1-16.175-5.786,61.99,61.99,0,0,0,6.834,7.386c4.347,4.051,4.829,7.817,4.347,15.208-.461,7.386-2.487,9.416,4.994,13.031s6.373,2.607,8.7,2.031,6.218-1.3,5.285-2.467-1.7-3.329-4.2-4.488-2.637-3.911-.151-5.215,4.813,1.158,10.259.872,0-2.026,2.637-4.778c2.652-2.753,2.818-7.386,9.191-9.853s13.207,1.163,14.932-1.59,3.565-5.937,0-10.138c-3.585-4.2-6.388-5.646-4.212-7.677s6.538-7.386,8.559-4.347,7.15,6.378.627,5.8-2.036,9.7,3.886,9.126c5.906-.582,5.44-2.462,10.269-4.778,4.813-2.322,14.3-9.993,20.989-12.315s8.083-1.74,10.72-.572c2.652,1.153,2.652,3.324,9.968,1.88,7.3-1.454,9.477-3.189,16.331-4.352,6.834-1.153-.466,2.472,2.638,3.475s3.414,1.89,5.756.3,9.8-4.2,6.383-6.809-5.917-4.342-5.917-4.342a9.3,9.3,0,0,1,9.02-5.069c6.523.436,16.481,6.518,22.864,10.86s14.155,13.613,14.155,13.613,2.788-4.778.446-12.746c-2.321-7.962-8.228-6.082-8.228-13.613s-5.455-5.5-3.585-10.86,7.15-7.386,8.559-14.195,2.642-12.45,7.471-12.45c4.814,0,15.233,1.444,15.233,1.444s0,6.227-3.881,15.5,2.021,10.284,1.088,21.575-1.088,12.746,1.544,15.353,7.631,5.8,5.761,10.715-2.808,7.967-9.792,10.72c-7,2.753-15.865,1.158-12.61,3.334a31.027,31.027,0,0,0,12.134,4.778c4.673.722,2.336-.291,6.072-3.334S1318.87,268,1318.55,265.1c-.3-2.888-4.814-7.381-1.71-9.557,3.119-2.171,4.352-5.5,9.181-2.748s9.487,13.032,9.487,12.6-.933-10.133-6.684-15.925-15.238-.3-15.238-5.36,2.643-12.024,2.016-17.524-2.793-11.006.777-15.784,3.731-8.549,3.731-8.549a20.332,20.332,0,0,1,.316,10.138c-1.244,5.646.632,8.98,3.269,8.98s14.45.145,8.083-1.74-8.233-3.62-1.86-7.09,6.057-1.163,15.383,1.013,11.512,3.766,14.631,3.615c3.1-.135,2.637-.431,1.539-3.184a12.283,12.283,0,0,0-5.435-6.513c-2.958-1.885-4.964.426-5.911-2.467-.928-2.9-2.637-10.138-3.42-12.886s2.342-.582,7.306-.582c4.979,0,18.512-.722,28.931-1.013s.166-11.151-.627-18.828,19.294-7.967,29.087-9.411,21.149-1.013,39.5-5.36,6.533-3.62,9.176-8.83,7.15-6.087,12.59-6.087,10.434,1.008,8.413,1.735-8.1,3.766,1.394,5.8,7,1.88,2.021,3.62-.777,4.924,8.865,4.924,3.886-.867,2.322-4.051c-1.545-3.189,1.409-2.036,9.341-.727s11.046,2.607,15.4,6.659,5.125,3.044,6.684,8.694-.15,4.778-6.834,9.988c-6.7,5.215-10.735,5.215-20.377,11.3s-7.316,9.266-12.59,13.317c-5.3,4.056-3.9,2.9,7.3,0s17.253-4.778,23.024-4.2c5.746.577,8.549,2.748,12.9,2.748s-.3.727,13.387.727,11.648,0,6.674,3.911.943,5.069,7,5.069c6.072,0,13.538.291,19.128-.577,5.606-.872.777-5.069,7.466-5.36s8.86-.872,16.015-.872,4.974,2.9,7.461,5.505,5.906,4.342,3.585,9.557-3.585,5.36-2.186,12.455,4.989,8.108,9.336,9.411,4.347-6.368,8.559-8.975,5.13,5.21,9.958,4.051a28.545,28.545,0,0,1,14.455.722,23.487,23.487,0,0,0,13.683.727c5.906-1.3,4.047-3.62,2.021-7.235s-2.171-3.334,1.559-7.1,6.223-1.885,18.356,1.3,8.243,3.184,15.077,5.069c6.849,1.88,4.663,1.449,15.082,6.227s8.409,10.429,13.222,13.468,5.129,0,14.781-.867c9.627-.872,9.477,1.153,20.061,3.906s7.767,6.227,7.767,9.276-2.953,5.355,3.585,6.8c6.518,1.449,9.171,2.748,14.766,1.3s.632,1.444,13.072,1.584c12.425.155,8.243-1.439,11.979,1.168,3.72,2.607,4.663,7.812,10.715,7.24s5.611-.436,3.124-5.8-4.046-6.228-.466-6.082,10.885,1.74,24.408,3.911,13.989,4.633,25.05,11.587c11.036,6.949,14.14,7.526,22.232,13.754,3.079,2.372,3.69,3.058,3.761,3.234.206,0,1.068.246,4.172,1.69,8.694,4.061,7.15,2.753,14.616,6.373a84.933,84.933,0,0,1,13.824,8.689S1938.29,318.393,1932.7,318.98ZM1207.12,466.168s-.832,1.108,3.525-2.372-2.036-.14-4.523-.867-3.269-1.885-2.477-5.064c.777-3.189-.316-3.189-2.968-7.391,0,0-1.394-.867-4.348.867s-4.663-1.735-8.248-.431c-3.565,1.3-7.461.722-9.637,6.087s-4.663,1.875-5.445,6.222-7.461,6.659-7.461,6.659,2.647,2.607,4.663,5.069.627.872,2.637,8.98,3.435,7.391,6.233,8.544a61.977,61.977,0,0,1,7.155,3.911s-2.642-1.59-2.642,2.753-4.212,7.386-3.746,13.759-5.741,12.309-.767,12.891,3.419,2.748,8.86,4.2,8.549,2.457,16.491,2.457c7.917,0,3.57-3.039,2.477-7.531a61.012,61.012,0,0,1-2.01-12.3c-.311-4.929-2.186-3.625-3.43-6.664s.627-4.778,4.347-4.778,4.212-.15,2.186-3.48-.762-4.633-3.279-6.082c-2.477-1.444-3.57,4.778-3.57,4.778s-1.544-1.449-.927-7.526,1.093-3.189-.767-4.352-2.968.291-5.455-3.761-.3-3.189-3.254-8.108-1.409-2.322,1.855-2.322,1.549-.722,0-2.316-2.638-4.051,1.549-3.766c4.207.291,9.652,1.158,11.663,1.3S1207.12,466.168,1207.12,466.168ZM626.911,243.027c-1.434,2.472,2.432,5.651,5.235,4.663s3.72.1,5.32-1.168,1.735-3.144-.15-4.979-1.133-2.913-1.449-3.109C632.3,236.248,628.36,240.55,626.911,243.027ZM1395.7,83.35c-4.212.145-8.88.291-4.979,1.594,3.881,1.3,2.327,7.822,9.792,4.2s5.9-3.916,11.046-6.087c5.129-2.166,2.161-1.128-4.046-2.748C1403.63,79.3,1399.9,83.21,1395.7,83.35Z" transform="translate(-22.009 -39.402)" fill="#000c34"/>
</svg>
