<?xml version="1.0" encoding="utf-8"?>
<!-- Generator: Adobe Illustrator 23.0.1, SVG Export Plug-In . SVG Version: 6.00 Build 0)  -->
<svg version="1.1" id="Layer_1" xmlns="http://www.w3.org/2000/svg" xmlns:xlink="http://www.w3.org/1999/xlink" x="0px" y="0px"
	 viewBox="0 0 900 900" style="enable-background:new 0 0 900 900;" xml:space="preserve">
<style type="text/css">
	.st0{fill:#848484;}
	.st1{fill:#00A651;}
	.st2{fill:#FFFFFF;}
	.st3{fill:none;}
</style>
<g>
	<g>
		<rect x="166.2" y="146.9" class="st0" width="28.3" height="178.3"/>
		<rect x="217.4" y="146.9" class="st0" width="15.8" height="178.3"/>
		<rect x="253.9" y="146.9" class="st0" width="17" height="178.3"/>
		<rect x="295.8" y="146.9" class="st0" width="50.4" height="178.3"/>
		<rect x="374.1" y="146.9" class="st0" width="50.4" height="178.3"/>
		<rect x="452.4" y="146.9" class="st0" width="30.2" height="178.3"/>
		<rect x="511.1" y="146.9" class="st0" width="17.2" height="178.3"/>
		<rect x="84.1" y="146.9" class="st0" width="56" height="178.3"/>
		<rect x="635.9" y="146.9" class="st0" width="28.3" height="178.3"/>
		<rect x="687.1" y="146.9" class="st0" width="15.8" height="178.3"/>
		<rect x="723.7" y="146.9" class="st0" width="17" height="178.3"/>
		<rect x="765.5" y="146.9" class="st0" width="50.4" height="178.3"/>
		<rect x="553.8" y="146.9" class="st0" width="56" height="178.3"/>
		<rect x="166.2" y="390.5" class="st0" width="28.3" height="169.6"/>
		<rect x="217.4" y="390.5" class="st0" width="15.8" height="169.6"/>
		<rect x="253.9" y="390.5" class="st0" width="17" height="169.6"/>
		<rect x="295.8" y="390.5" class="st0" width="50.4" height="169.6"/>
		<rect x="374.1" y="390.5" class="st0" width="50.4" height="169.6"/>
		<rect x="452.4" y="390.5" class="st0" width="30.2" height="169.6"/>
		<rect x="511.1" y="390.5" class="st0" width="17.2" height="169.6"/>
		<rect x="84.1" y="390.5" class="st0" width="56" height="169.6"/>
		<rect x="635.9" y="390.5" class="st0" width="28.3" height="169.6"/>
		<rect x="687.1" y="390.5" class="st0" width="15.8" height="169.6"/>
		<rect x="723.7" y="390.5" class="st0" width="17" height="169.6"/>
		<rect x="765.5" y="390.5" class="st0" width="50.4" height="169.6"/>
		<rect x="553.8" y="390.5" class="st0" width="56" height="169.6"/>
		<g>
			<g>
				<polygon class="st1" points="45.5,103.5 182.5,103.5 182.5,70.8 12.9,70.8 12.9,240.4 45.5,240.4 				"/>
			</g>
		</g>
		<g>
			<g>
				<polygon class="st1" points="45.5,612.3 45.5,475.3 12.9,475.3 12.9,644.9 182.5,644.9 182.5,612.3 				"/>
			</g>
		</g>
		<g>
			<g>
				<polygon class="st1" points="717.5,70.8 717.5,103.5 854.5,103.5 854.5,240.4 887.1,240.4 887.1,70.8 				"/>
			</g>
		</g>
		<g>
			<g>
				<polygon class="st1" points="854.5,475.3 854.5,612.3 717.5,612.3 717.5,644.9 887.1,644.9 887.1,475.3 				"/>
			</g>
		</g>
		
			<rect x="442.1" y="-77.6" transform="matrix(-1.836970e-16 1 -1 -1.836970e-16 809.5053 -90.4947)" class="st1" width="15.8" height="874.2"/>
	</g>
	<g>
		<g>
			<path class="st1" d="M12.9,690.4c8.2-1.6,24.7-3.1,40.5-3.1c19.1,0,30.8,1.9,40.9,7.8c9.7,5.1,16.4,14.6,16.4,27.3
				c0,12.1-7.2,23.4-22.6,29.4v0.4c15.8,4.1,27.5,16.2,27.5,34.1c0,12.7-5.8,22.6-14.4,29.4c-10.1,8-26.9,12.5-54.5,12.5
				c-15.4,0-26.9-1-33.9-2.1V690.4z M43.9,743.3h10.3c16.6,0,25.3-6.8,25.3-17.1c0-10.5-8-16-22.2-16c-7,0-10.9,0.4-13.4,1V743.3z
				 M43.9,804.7c3.1,0.6,6.8,0.6,12.1,0.6c14.2,0,26.7-5.5,26.7-20.1c0-14-12.5-19.5-28.2-19.5H43.9V804.7z"/>
			<path class="st1" d="M168.3,791.3l-9.7,35.6h-32.5l42.3-138.5h40.9l43.2,138.5h-33.7l-10.7-35.6H168.3z M203.4,767.9l-8.6-29.4
				c-2.3-8.2-4.7-18.7-6.8-26.7h-0.6c-1.9,8.2-4.1,18.7-6.2,26.7l-8.4,29.4H203.4z"/>
			<path class="st1" d="M271.1,690.4c10.1-1.9,24.9-3.1,41.7-3.1c20.6,0,34.9,3.1,44.8,11.1c8.4,6.6,12.9,16.2,12.9,29
				c0,17.5-12.5,29.6-24.5,33.9v0.6c9.7,3.9,15,12.9,18.5,25.7c4.3,15.8,8.4,33.9,11.1,39.3h-32.1c-2.1-4.1-5.5-15.2-9.5-32.3
				c-3.9-17.5-9.9-22-22.8-22.2h-9.2v54.5h-31V690.4z M302.1,749.8h12.3c15.6,0,24.9-7.8,24.9-19.9c0-12.5-8.6-19.1-23-19.1
				c-7.6,0-11.9,0.4-14.2,1V749.8z"/>
			<path class="st1" d="M493.7,823c-5.5,2.7-18.7,6-35.4,6c-47.9,0-72.6-30-72.6-69.5c0-47.1,33.7-73.2,75.6-73.2
				c16.2,0,28.6,3.3,34.1,6l-6.6,24.9c-6.2-2.7-15-5.1-26.3-5.1c-24.7,0-44,15-44,45.8c0,27.5,16.4,45,44.2,45
				c9.7,0,19.9-1.9,26.3-4.5L493.7,823z"/>
			<path class="st1" d="M567.1,829.2c-40.9,0-65.2-31-65.2-70.5c0-41.5,26.7-72.6,67.4-72.6c42.5,0,65.8,31.9,65.8,70.1
				c0,45.6-27.3,73-67.8,73H567.1z M568.7,804.3c21.2,0,33.3-19.9,33.3-47.1c0-24.9-11.7-46.2-33.3-46.2c-21.6,0-33.7,21-33.7,46.9
				c0,26.1,12.5,46.4,33.5,46.4H568.7z"/>
			<path class="st1" d="M655.6,690.4c11.5-2.1,26.5-3.1,42.1-3.1c26.5,0,43.8,4.9,56.9,14.8c14.4,10.7,23.4,27.5,23.4,52.2
				c0,26.5-9.7,44.8-22.8,56.1c-14.6,12.1-37,17.9-64.1,17.9c-16.2,0-28-1-35.6-2.1V690.4z M686.9,803.3c2.7,0.6,7.2,0.6,10.9,0.6
				c28.6,0.2,47.3-15.4,47.3-48.5c0-28.8-16.9-44-44-44c-6.8,0-11.5,0.6-14.2,1.2V803.3z"/>
			<path class="st1" d="M881.1,768.3h-51v32.9h56.9v25.7h-88.2V688.4h85.3v25.7h-54.1v28.8h51V768.3z"/>
		</g>
	</g>
</g>
</svg>
