<svg xmlns="http://www.w3.org/2000/svg" width="100.982" height="50.998" viewBox="0 0 100.982 50.998">
  <g id="logo" transform="translate(-375.278 -14.802)">
    <g id="Group_2220" data-name="Group 2220" transform="translate(375.278 14.802)">
      <path id="Path_3210" data-name="Path 3210" d="M4793.635,1743.288c-.927-5.654-6.148-11.031-9.938-13.4-.122-.076-.23-.174-.407-.31.6-.386,1.141-.741,1.688-1.092q5.323-3.413,10.654-6.813a.824.824,0,0,1,.708-.056,29.4,29.4,0,0,1,7.025,5.65,25.581,25.581,0,0,1,6.36,13.621c.091.657.128,1.322.22,1.979.047.33-.086.422-.378.4-.1-.007-.2,0-.3,0l-15.017.02h-.616" transform="translate(-4709.613 -1716.094)" fill="#00e1ff"/>
      <path id="Path_3211" data-name="Path 3211" d="M4737.7,1717.147c.125-.518.23-1,.356-1.469.591-2.2,1.182-4.409,1.795-6.607a.583.583,0,0,1,.423-.3,58.586,58.586,0,0,1,9.412-.29c1.8.071,3.6.32,5.4.549,1.132.145,2.253.385,3.373.617.832.173,1.663.363,2.474.613,1.281.393,2.543.842,3.813,1.271a1.847,1.847,0,0,1,.263.147l-5.338,2.765q-3.333,1.725-6.666,3.448c-.661.342-1.345.647-1.971,1.046-.5.317-.911.092-1.363-.025-1.119-.289-2.231-.612-3.361-.849a29.989,29.989,0,0,0-3.1-.481c-1.635-.167-3.277-.267-4.916-.4C4738.114,1717.174,4737.936,1717.163,4737.7,1717.147Z" transform="translate(-4682.98 -1708.418)" fill="#00e1ff"/>
      <path id="Path_3212" data-name="Path 3212" d="M4760.8,1709.032q-2.6,1.668-5.2,3.334-3.855,2.466-7.709,4.932-4.08,2.615-8.156,5.237-5.06,3.243-10.126,6.48-3.559,2.281-7.1,4.583a1.007,1.007,0,0,0-.393.578,3.6,3.6,0,0,1-2.86,3.016,3.7,3.7,0,0,1-4.263-1.9,3.657,3.657,0,0,1,.245-4.045,3.606,3.606,0,0,1,3.685-1.547c.292.043.573.157.864.205a.8.8,0,0,0,.465-.042q6.127-3.158,12.244-6.332,5.362-2.772,10.729-5.535t10.714-5.573q3.178-1.65,6.366-3.282c.144-.074.3-.126.447-.187Z" transform="translate(-4669.43 -1708.734)" fill="#00e1ff"/>
      <path id="Path_3213" data-name="Path 3213" d="M4709.367,1710.431c-.246.91-.488,1.814-.732,2.719-.445,1.643-.9,3.284-1.329,4.932a.4.4,0,0,1-.432.359c-1.769.157-3.543.272-5.3.5-1.428.183-2.848.457-4.254.771-1.9.424-3.786.925-5.773,1.416-.451-1.671-.911-3.382-1.368-5.082C4693.644,1714.091,4706.928,1710.2,4709.367,1710.431Z" transform="translate(-4655.22 -1709.589)" fill="#00e1ff"/>
      <path id="Path_3214" data-name="Path 3214" d="M4653.378,1737.18l-2.424-2.351a81.007,81.007,0,0,1,13.9-8.389c.216.754.433,1.474.628,2.2.188.7.332,1.414.54,2.109.123.412.037.626-.375.787-1.769.692-3.556,1.344-5.279,2.136-2.121.974-4.186,2.072-6.273,3.119C4653.845,1736.916,4653.6,1737.058,4653.378,1737.18Z" transform="translate(-4632.311 -1718.945)" fill="#00e1ff"/>
      <path id="Path_3215" data-name="Path 3215" d="M4782.308,1757.244c-.188.016-.333.037-.478.037-1.163,0-2.327-.006-3.49.006-.285,0-.447-.062-.533-.368a16.13,16.13,0,0,0-7.322-9.41c-.124-.079-.231-.183-.415-.331a15.513,15.513,0,0,0,1.671-1.119,1.584,1.584,0,0,1,2.209-.02,19.84,19.84,0,0,1,6.853,7.048A14.076,14.076,0,0,1,4782.308,1757.244Z" transform="translate(-4701.892 -1730.138)" fill="#00e1ff"/>
      <path id="Path_3216" data-name="Path 3216" d="M4709.454,1736.591c-.895.463-1.787.931-2.686,1.385a.638.638,0,0,1-.408.07,42.4,42.4,0,0,0-14.616-1.232c-2.44.2-4.871.594-7.289,1a50.459,50.459,0,0,0-9.541,2.664,8.412,8.412,0,0,1-1.391.412c11.5-5.339,23.4-7.332,35.9-4.439Z" transform="translate(-4645.494 -1724.015)" fill="#00e1ff"/>
      <path id="Path_3217" data-name="Path 3217" d="M4624.777,1752.758a63.561,63.561,0,0,0-18.655,17.558c1.025-3.984,11.836-16.788,16.581-19.7Z" transform="translate(-4606.122 -1733.067)" fill="#00e1ff"/>
    </g>
    <path id="Path_3242" data-name="Path 3242" d="M6.6-14.4H9.92L10.78-6l7.64-8.4h3.72L16.02,0H12.1l2.44-5.74-4.1,4.18H7.36L6.82-5.72,4.4,0H.48ZM17.04,1h3.24A1.053,1.053,0,0,0,21.36.4a1.149,1.149,0,0,0,.06-.4l-.24-10.3h3.7L24.86-4l4.84-6.3h4.04L23.56,1.6a16.261,16.261,0,0,1-1.49,1.56,2.34,2.34,0,0,1-1.61.64H15.84ZM35.7-4.56l-.36.82q-.1.26.16.26h4.78a.362.362,0,0,0,.36-.26l.68-1.6q.12-.26-.14-.26H35.5a2.041,2.041,0,0,1-1.93-.95,2.5,2.5,0,0,1,.05-2.33l.94-2.24a5.946,5.946,0,0,1,1.74-2.33,3.922,3.922,0,0,1,2.54-.95h6.98a2.018,2.018,0,0,1,1.92.95,2.56,2.56,0,0,1-.04,2.33l-.54,1.28H43.24l.34-.82q.12-.26-.14-.26H38.66a.4.4,0,0,0-.38.26l-.68,1.6q-.1.26.16.26h5.68a2.041,2.041,0,0,1,1.93.95,2.5,2.5,0,0,1-.05,2.33l-.94,2.24a6.409,6.409,0,0,1-1.7,2.33A3.7,3.7,0,0,1,40.2,0H33.12a2.041,2.041,0,0,1-1.93-.95,2.5,2.5,0,0,1,.05-2.33l.54-1.28ZM49.72-10.3h7.92a1.915,1.915,0,0,1,1.4.49,1.7,1.7,0,0,1,.5,1.27,2.732,2.732,0,0,1-.26,1.12L57.3-2.72A6.252,6.252,0,0,1,55.91-.68a2.721,2.721,0,0,1-1.93.84q-.24,0-.77-.05t-1.2-.12q-.67-.07-1.4-.18T49.24-.42L47.44,3.8H43.72Zm.68,7.14q.1.02.5.07l.87.11q.47.06.89.1t.54.04a.617.617,0,0,0,.6-.42l1.54-3.62a.635.635,0,0,0,.04-.18q0-.24-.28-.24H52.16ZM70.1-3,68.82,0H61.14a1.771,1.771,0,0,1-1.68-.84,2.238,2.238,0,0,1,.02-2.04l1.94-4.54a5.28,5.28,0,0,1,1.5-2.04,3.344,3.344,0,0,1,2.2-.84h5.56a1.771,1.771,0,0,1,1.68.84,2.238,2.238,0,0,1-.02,2.04L70.96-4.18h-7.2l-.32.76q-.18.42.24.42ZM68.02-6.04l.36-.84q.18-.42-.24-.42H65.5a.617.617,0,0,0-.6.42l-.36.84ZM83.14-3,81.86,0H74.18A1.771,1.771,0,0,1,72.5-.84a2.238,2.238,0,0,1,.02-2.04l1.94-4.54a5.281,5.281,0,0,1,1.5-2.04,3.344,3.344,0,0,1,2.2-.84h5.56a1.771,1.771,0,0,1,1.68.84,2.238,2.238,0,0,1-.02,2.04L84-4.18H76.8l-.32.76q-.18.42.24.42ZM81.06-6.04l.36-.84q.18-.42-.24-.42H78.54a.617.617,0,0,0-.6.42l-.36.84ZM91.58-.38Q90.2-.16,88.94,0a16.407,16.407,0,0,1-1.78.16,1.794,1.794,0,0,1-1.69-.84,2.182,2.182,0,0,1,.03-2.04l2-4.7A5.281,5.281,0,0,1,89-9.46a3.344,3.344,0,0,1,2.2-.84h4.6l1.74-4.1h3.72L95.14,0H91.42ZM89.44-3.26q-.18.42.26.42.12,0,.58-.04t.98-.1l.96-.11q.44-.05.54-.07L94.52-7.3H91.58a.617.617,0,0,0-.6.42Z" transform="translate(375 62)" fill="#00e1ff"/>
  </g>
</svg>
