<svg width="157" height="24" viewBox="0 0 157 24" fill="none" xmlns="http://www.w3.org/2000/svg">
<g clip-path="url(#clip0_3_221)">
<path d="M24.4374 9.20622C24.2803 8.72024 23.8493 8.37508 23.3393 8.32912L16.4123 7.70014L13.6731 1.2889C13.4712 0.819039 13.0112 0.514893 12.5001 0.514893C11.9891 0.514893 11.5291 0.819039 11.3271 1.29L8.58797 7.70014L1.65982 8.32912C1.15077 8.37618 0.720828 8.72024 0.562804 9.20622C0.40478 9.69219 0.550718 10.2252 0.935799 10.5612L6.17183 15.1533L4.62785 21.9545C4.51487 22.4546 4.70897 22.9715 5.12389 23.2715C5.34692 23.4326 5.60785 23.5146 5.87098 23.5146C6.09786 23.5146 6.3229 23.4535 6.52487 23.3326L12.5001 19.7614L18.4732 23.3326C18.9103 23.5956 19.4612 23.5716 19.8752 23.2715C20.2904 22.9706 20.4843 22.4535 20.3713 21.9545L18.8273 15.1533L24.0633 10.5621C24.4484 10.2252 24.5955 9.69311 24.4374 9.20622Z" fill="#FFC107"/>
</g>
<g clip-path="url(#clip1_3_221)">
<path d="M57.4374 9.20622C57.2803 8.72024 56.8493 8.37508 56.3393 8.32912L49.4123 7.70014L46.6731 1.2889C46.4712 0.819039 46.0112 0.514893 45.5001 0.514893C44.9891 0.514893 44.5291 0.819039 44.3271 1.29L41.588 7.70014L34.6598 8.32912C34.1508 8.37618 33.7208 8.72024 33.5628 9.20622C33.4048 9.69219 33.5507 10.2252 33.9358 10.5612L39.1718 15.1533L37.6278 21.9545C37.5149 22.4546 37.709 22.9715 38.1239 23.2715C38.3469 23.4326 38.6079 23.5146 38.871 23.5146C39.0979 23.5146 39.3229 23.4535 39.5249 23.3326L45.5001 19.7614L51.4732 23.3326C51.9103 23.5956 52.4612 23.5716 52.8752 23.2715C53.2904 22.9706 53.4843 22.4535 53.3713 21.9545L51.8273 15.1533L57.0633 10.5621C57.4484 10.2252 57.5955 9.69311 57.4374 9.20622Z" fill="#FFC107"/>
</g>
<g clip-path="url(#clip2_3_221)">
<path d="M90.4374 9.20622C90.2803 8.72024 89.8493 8.37508 89.3393 8.32912L82.4123 7.70014L79.6731 1.2889C79.4712 0.819039 79.0112 0.514893 78.5001 0.514893C77.9891 0.514893 77.5291 0.819039 77.3271 1.29L74.588 7.70014L67.6598 8.32912C67.1508 8.37618 66.7208 8.72024 66.5628 9.20622C66.4048 9.69219 66.5507 10.2252 66.9358 10.5612L72.1718 15.1533L70.6278 21.9545C70.5149 22.4546 70.709 22.9715 71.1239 23.2715C71.3469 23.4326 71.6079 23.5146 71.871 23.5146C72.0979 23.5146 72.3229 23.4535 72.5249 23.3326L78.5001 19.7614L84.4732 23.3326C84.9103 23.5956 85.4612 23.5716 85.8752 23.2715C86.2904 22.9706 86.4843 22.4535 86.3713 21.9545L84.8273 15.1533L90.0633 10.5621C90.4484 10.2252 90.5955 9.69311 90.4374 9.20622Z" fill="#FFC107"/>
</g>
<g clip-path="url(#clip3_3_221)">
<path d="M123.437 9.20622C123.28 8.72024 122.849 8.37508 122.339 8.32912L115.412 7.70014L112.673 1.2889C112.471 0.819039 112.011 0.514893 111.5 0.514893C110.989 0.514893 110.529 0.819039 110.327 1.29L107.588 7.70014L100.66 8.32912C100.151 8.37618 99.7208 8.72024 99.5628 9.20622C99.4048 9.69219 99.5507 10.2252 99.9358 10.5612L105.172 15.1533L103.628 21.9545C103.515 22.4546 103.709 22.9715 104.124 23.2715C104.347 23.4326 104.608 23.5146 104.871 23.5146C105.098 23.5146 105.323 23.4535 105.525 23.3326L111.5 19.7614L117.473 23.3326C117.91 23.5956 118.461 23.5716 118.875 23.2715C119.29 22.9706 119.484 22.4535 119.371 21.9545L117.827 15.1533L123.063 10.5621C123.448 10.2252 123.595 9.69311 123.437 9.20622Z" fill="#FFC107"/>
</g>
<g clip-path="url(#clip4_3_221)">
<path d="M156.437 9.20622C156.28 8.72024 155.849 8.37508 155.339 8.32912L148.412 7.70014L145.673 1.2889C145.471 0.819039 145.011 0.514893 144.5 0.514893C143.989 0.514893 143.529 0.819039 143.327 1.29L140.588 7.70014L133.66 8.32912C133.151 8.37618 132.721 8.72024 132.563 9.20622C132.405 9.69219 132.551 10.2252 132.936 10.5612L138.172 15.1533L136.628 21.9545C136.515 22.4546 136.709 22.9715 137.124 23.2715C137.347 23.4326 137.608 23.5146 137.871 23.5146C138.098 23.5146 138.323 23.4535 138.525 23.3326L144.5 19.7614L150.473 23.3326C150.91 23.5956 151.461 23.5716 151.875 23.2715C152.29 22.9706 152.484 22.4535 152.371 21.9545L150.827 15.1533L156.063 10.5621C156.448 10.2252 156.595 9.69311 156.437 9.20622Z" fill="#FFC107"/>
</g>
<defs>
<clipPath id="clip0_3_221">
<rect width="24" height="24" fill="white" transform="translate(0.5)"/>
</clipPath>
<clipPath id="clip1_3_221">
<rect width="24" height="24" fill="white" transform="translate(33.5)"/>
</clipPath>
<clipPath id="clip2_3_221">
<rect width="24" height="24" fill="white" transform="translate(66.5)"/>
</clipPath>
<clipPath id="clip3_3_221">
<rect width="24" height="24" fill="white" transform="translate(99.5)"/>
</clipPath>
<clipPath id="clip4_3_221">
<rect width="24" height="24" fill="white" transform="translate(132.5)"/>
</clipPath>
</defs>
</svg>
