<svg width="100" height="100" viewBox="0 0 100 100" fill="none" xmlns="http://www.w3.org/2000/svg">
<g clip-path="url(#clip0_48_1003)">
<path d="M42.564 52.636C42.564 53.5393 42.1703 54.3755 41.5195 54.9515L50.0194 63.4888L58.424 54.7859C57.877 54.2206 57.5512 53.4554 57.5512 52.6352V48.0652C55.4287 49.53 52.8583 50.3899 50.0904 50.3899C47.1927 50.3899 44.6468 49.5949 42.564 48.2635V52.636Z" fill="#F9A870"/>
<path d="M48.5708 50.3142C46.298 50.0869 44.2747 49.3567 42.5642 48.2634L42.565 52.6358C42.565 53.5392 42.1705 54.3753 41.5205 54.9514L48.5716 62.0337V50.3142H48.5708Z" fill="#ED985F"/>
<path d="M77.3773 62.4312L69.2078 59.2681C65.9866 67.356 59.1957 73.6281 50.7927 76.1466C50.2907 76.2969 49.7467 76.303 49.2256 76.1466C40.8546 73.638 34.0569 67.3896 30.8235 59.3062L22.7615 62.4312C22.7615 62.4312 15.4297 65.4456 15.4297 73.8044V97.5562C15.4297 98.9058 16.5237 99.9999 17.8726 99.9999H82.2655C83.6151 99.9999 84.7092 98.9058 84.7092 97.5562V73.8044C84.7092 65.4456 77.3773 62.4312 77.3773 62.4312Z" fill="#6397D6"/>
<path d="M21.467 97.5562V70.314C21.467 66.1582 23.279 63.3247 25.1017 61.5249L22.7625 62.432C22.7625 62.432 15.4307 65.4464 15.4307 73.8044V97.5562C15.4307 98.9059 16.524 99.9999 17.8736 99.9999H23.91C22.5603 99.9999 21.467 98.9059 21.467 97.5562Z" fill="#4686C6"/>
<path d="M43.6979 68.1312C45.5984 69.5205 47.7186 70.6382 50.0089 71.4164C52.3015 70.6374 54.4233 69.5182 56.3253 68.1273L56.6144 67.7779L50.2454 63.2545L50.0196 63.4887L49.7846 63.2529L43.4141 67.7779L43.6979 68.1312Z" fill="#EDEBED"/>
<path d="M64.7162 57.5287L56.1698 67.8642C54.3143 69.2207 52.2452 70.3133 50.0091 71.0724C47.7752 70.314 45.7076 69.223 43.8537 67.868L35.5277 57.4829L30.6846 59.3605C33.8592 67.6132 40.734 74.0044 49.2255 76.5495C49.7466 76.7059 50.2914 76.6998 50.7926 76.5495C59.3162 73.9952 66.1841 67.5797 69.3473 59.3224L64.7162 57.5287Z" fill="#4686C6"/>
<path d="M57.4764 68.7927C58.0815 69.2222 58.926 69.0109 59.2571 68.3471L64.716 57.5287L59.528 55.5198C58.8688 55.2643 58.3347 54.7989 57.9884 54.2183L50.0088 63.4887L57.4764 68.7927Z" fill="#E0D9D5"/>
<path d="M40.5894 55.5207L35.5273 57.483L40.771 68.3472C41.1021 69.011 41.9467 69.2223 42.5517 68.7928L50.0194 63.4896L42.0909 54.2771C41.7438 54.8302 41.225 55.2735 40.5894 55.5207Z" fill="#E0D9D5"/>
<path d="M58.0052 61.7416L62.4027 56.633L59.528 55.5198C58.8688 55.2643 58.3347 54.7989 57.9884 54.2183L50.0088 63.4887L57.4764 68.7927C58.0815 69.2222 58.926 69.0109 59.2571 68.3471L60.3344 66.2117L58.3813 64.8239C57.3727 64.1075 57.198 62.6793 58.0052 61.7416Z" fill="#CEC5C0"/>
<path d="M44.1417 56.6605L42.0909 54.2771C41.7438 54.8302 41.2257 55.2735 40.5894 55.5207L35.5273 57.483L40.771 68.3472C41.1021 69.011 41.9467 69.2223 42.5517 68.7928L46.2207 66.1873L43.0095 59.5315C42.4762 58.4275 42.998 57.103 44.1417 56.6605Z" fill="#CEC5C0"/>
<path d="M73.5719 100V84.3987C73.5719 83.5656 72.8967 82.8896 72.0628 82.8896C71.2289 82.8896 70.5537 83.5648 70.5537 84.3987V100H73.5719Z" fill="#4686C6"/>
<path d="M29.5856 100V85.7803C29.5856 84.9472 28.9104 84.2712 28.0765 84.2712C27.2433 84.2712 26.5674 84.9472 26.5674 85.7803V100H29.5856Z" fill="#4686C6"/>
<path d="M49.899 4.53345C39.8999 4.53345 31.7646 12.6687 31.7646 22.6678V25.2213L32.1621 23.4208C32.314 22.7334 32.935 22.2352 33.6392 22.2352H35.0361C35.8708 22.2352 36.5498 22.9142 36.5498 23.7488V26.8525L36.9168 26.3238C37.1228 26.027 37.4722 25.8584 37.8293 25.8858C44.3882 26.3573 51.4767 24.4538 57.2789 20.6635C57.6954 20.3904 58.2448 20.4575 58.5835 20.8222C59.496 21.8026 60.2246 22.5793 60.8067 23.2003C62.0594 24.5354 62.6317 25.145 62.8842 25.4937L63.2481 25.9957V23.7481C63.2481 22.9134 63.9271 22.2344 64.7618 22.2344H66.1595C66.8622 22.2344 67.4832 22.7326 67.6358 23.4177L68.0333 25.2045V22.6678C68.034 12.6687 59.8988 4.53345 49.899 4.53345Z" fill="#935D38"/>
<path d="M37.9605 22.6685C37.9605 13.7246 44.4691 6.27371 52.9973 4.79895C51.9902 4.625 50.9556 4.53345 49.899 4.53345C39.8999 4.53345 31.7646 12.6687 31.7646 22.6685V25.2213L32.1621 23.4208C32.314 22.7341 32.935 22.2352 33.6392 22.2352H35.0361C35.8708 22.2352 36.5498 22.9142 36.5498 23.7488V26.8525L36.9168 26.3245C37.1228 26.027 37.4722 25.8584 37.8293 25.8858C37.8727 25.8896 37.917 25.8912 37.9605 25.8942V22.6685Z" fill="#7F4D2A"/>
<path d="M63.2717 39.8102C63.2564 39.7186 63.2488 39.6362 63.2488 39.5577V25.3105L63.2106 25.2579C62.9421 24.8886 62.3645 24.2722 61.0981 22.9225C60.5167 22.303 59.7888 21.5271 58.8787 20.5483C58.4056 20.0394 57.6404 19.9463 57.0591 20.3262C51.3286 24.07 44.3302 25.9491 37.8589 25.4845C37.36 25.4471 36.8732 25.6805 36.5856 26.0948L36.5497 26.1467V39.5577C36.5497 39.6339 36.5428 39.7156 36.5276 39.8064L36.5215 39.8399L36.5276 39.8735C37.6483 46.4211 43.2254 50.9934 50.0896 50.9934C56.6265 50.9934 62.17 46.3188 63.2709 39.8781L63.277 39.8438L63.2717 39.8102Z" fill="#FFB888"/>
<path d="M42.7877 38.7834V25.4006C41.1306 25.5708 39.4781 25.6005 37.8591 25.4846C37.3602 25.4472 36.8734 25.6806 36.5865 26.0949L36.5507 26.1468V39.5577C36.5507 39.634 36.5431 39.7157 36.5278 39.8065L36.5225 39.84L36.5278 39.8736C37.6486 46.4211 43.2256 50.9934 50.0906 50.9934C50.7261 50.9934 51.3517 50.9484 51.9659 50.8622C46.6734 49.3928 42.7877 44.5435 42.7877 38.7834Z" fill="#F9A870"/>
<path d="M31.9245 24.8756V24.7543C31.9245 24.6269 31.9397 23.497 31.9657 23.3772V22.6677C31.9657 12.7632 39.9948 4.73404 49.8993 4.73404C59.8046 4.73404 67.833 12.7632 67.833 22.6677V23.3742C67.8597 23.4947 67.8749 24.6262 67.8749 24.7543V24.8756C69.6244 25.0679 71.1815 25.7919 72.3893 26.8745V22.4899C72.3893 10.0693 62.32 0 49.8993 0C37.4787 0 27.4102 10.0693 27.4102 22.4899V26.8753C28.6179 25.7927 30.175 25.0679 31.9245 24.8756Z" fill="#EDEBED"/>
<path d="M37.2795 9.92737C40.7875 4.72794 46.4127 1.07498 52.9175 0.202179C51.9303 0.0694275 50.9232 0 49.8993 0C37.4787 0 27.4102 10.0693 27.4102 22.4899V26.8753C28.6179 25.7927 30.175 25.0679 31.9245 24.8756V24.7543C31.9245 24.6269 31.9397 23.497 31.9657 23.3772V22.6677C31.9657 17.6849 33.9989 13.1775 37.2795 9.92737Z" fill="#E0D9D5"/>
<path d="M66.3371 47.5495H52.0648C51.2309 47.5495 50.5557 46.8735 50.5557 46.0404C50.5557 45.2065 51.2309 44.5305 52.0648 44.5305H66.3371C66.5804 44.5305 66.778 44.3329 66.778 44.0896V39.3799C66.778 38.5468 67.4532 37.8708 68.2871 37.8708C69.1203 37.8708 69.7962 38.5461 69.7962 39.3799V44.0896C69.7962 45.9977 68.2444 47.5495 66.3371 47.5495Z" fill="#EDEBED"/>
<path d="M52.7986 46.0403C52.7986 47.4792 51.632 48.6457 50.1931 48.6457C48.7534 48.6457 47.5869 47.4792 47.5869 46.0403C47.5869 44.6006 48.7534 43.4341 50.1931 43.4341C51.632 43.4341 52.7986 44.6006 52.7986 46.0403Z" fill="#FF8087"/>
<path d="M50.731 46.0403C50.731 45.1919 51.1376 44.4412 51.7648 43.9651C51.3276 43.6332 50.7844 43.4341 50.1924 43.4341C48.7534 43.4341 47.5869 44.6006 47.5869 46.0403C47.5869 47.4792 48.7534 48.6465 50.1924 48.6465C50.7836 48.6465 51.3276 48.4474 51.7648 48.1155C51.1376 47.6394 50.731 46.8879 50.731 46.0403Z" fill="#EB6A76"/>
<path d="M67.875 23.8701V39.4364C71.9361 38.9908 74.9703 35.6812 74.9703 31.6529C74.9703 27.6245 71.9361 24.3157 67.875 23.8701Z" fill="#6397D6"/>
<path d="M72.3527 25.8362C71.1495 24.7719 69.6069 24.0601 67.875 23.8701V39.4364C69.6069 39.2464 71.1495 38.5346 72.3527 37.4695V25.8362Z" fill="#4686C6"/>
<path d="M31.9244 23.8701V39.4364C27.8633 38.9908 24.8291 35.6812 24.8291 31.6529C24.8291 27.6245 27.8633 24.3157 31.9244 23.8701Z" fill="#6397D6"/>
<path d="M29.306 31.6529C29.306 29.3419 30.3062 27.269 31.9244 25.8362V23.8701C27.8633 24.3157 24.8291 27.6245 24.8291 31.6529C24.8291 35.6812 27.8633 38.9908 31.9244 39.4364V37.4695C30.3062 36.0367 29.306 33.9638 29.306 31.6529Z" fill="#4686C6"/>
<path d="M66.3613 22.0337H64.7629C63.8161 22.0337 63.0479 22.8012 63.0479 23.7488V39.5576C63.0479 40.5045 63.8154 41.2727 64.7629 41.2727H66.3613C67.3089 41.2727 68.0764 40.5045 68.0764 39.5576V23.7488C68.0764 22.8012 67.3089 22.0337 66.3613 22.0337Z" fill="#6397D6"/>
<path d="M35.0361 22.0337H33.4377C32.4902 22.0337 31.7227 22.8012 31.7227 23.7488V39.5576C31.7227 40.5045 32.4902 41.2727 33.4377 41.2727H35.0361C35.9837 41.2727 36.7512 40.5045 36.7512 39.5576V23.7488C36.7512 22.8012 35.9837 22.0337 35.0361 22.0337Z" fill="#6397D6"/>
<path d="M66.1935 39.5576V23.7488C66.1935 23.0804 66.5764 22.5021 67.1349 22.2198C66.9022 22.1016 66.6398 22.0337 66.3613 22.0337H64.7629C63.8154 22.0337 63.0479 22.8012 63.0479 23.7488V39.5576C63.0479 40.5052 63.8154 41.2727 64.7629 41.2727H66.3613C66.6398 41.2727 66.9022 41.2048 67.1349 41.0866C66.5764 40.8043 66.1935 40.2267 66.1935 39.5576Z" fill="#4686C6"/>
<path d="M34.8683 39.5576V23.7488C34.8683 23.0804 35.2513 22.5021 35.8097 22.2198C35.577 22.1016 35.3153 22.0337 35.0361 22.0337H33.4377C32.4902 22.0337 31.7227 22.8012 31.7227 23.7488V39.5576C31.7227 40.5052 32.4902 41.2727 33.4377 41.2727H35.0361C35.3146 41.2727 35.577 41.2048 35.8097 41.0866C35.2513 40.8043 34.8683 40.2267 34.8683 39.5576Z" fill="#4686C6"/>
</g>
<defs>
<clipPath id="clip0_48_1003">
<rect width="100" height="100" fill="white"/>
</clipPath>
</defs>
</svg>
