<svg width="100" height="100" viewBox="0 0 100 100" fill="none" xmlns="http://www.w3.org/2000/svg">
<g clip-path="url(#clip0_48_1002)">
<path d="M52.4977 17.9359H22.0383C21.2172 17.9359 20.5518 17.2705 20.5518 16.4494C20.5518 15.6283 21.2174 14.9629 22.0383 14.9629H52.4977C53.3188 14.9629 53.9844 15.6283 53.9844 16.4494C53.9844 17.2705 53.319 17.9359 52.4977 17.9359Z" fill="#78C2A4"/>
<path d="M23.3838 28.8327H7.70527C6.88418 28.8327 6.21875 28.1672 6.21875 27.3461C6.21875 26.525 6.88438 25.8596 7.70527 25.8596H23.3838C24.2049 25.8596 24.8703 26.525 24.8703 27.3461C24.8703 28.1672 24.2049 28.8327 23.3838 28.8327Z" fill="#78C2A4"/>
<path d="M22.8459 38.9628H16.6525C15.8314 38.9628 15.166 38.2974 15.166 37.4763C15.166 36.6552 15.8316 35.9897 16.6525 35.9897H22.8461C23.6672 35.9897 24.3326 36.6552 24.3326 37.4763C24.3326 38.2974 23.667 38.9628 22.8459 38.9628Z" fill="#78C2A4"/>
<path d="M16.6525 46.2987H1.48652C0.66543 46.2987 0 45.6333 0 44.8122C0 43.9911 0.665625 43.3257 1.48652 43.3257H16.6523C17.4734 43.3257 18.1389 43.9911 18.1389 44.8122C18.1389 45.6333 17.4734 46.2987 16.6525 46.2987Z" fill="#78C2A4"/>
<path d="M54.4799 85.0372H22.0383C21.2172 85.0372 20.5518 84.3718 20.5518 83.5505C20.5518 82.7292 21.2174 82.064 22.0383 82.064H54.4799C55.301 82.064 55.9664 82.7294 55.9664 83.5505C55.9664 84.3716 55.301 85.0372 54.4799 85.0372Z" fill="#78C2A4"/>
<path d="M23.3838 74.1407H7.70527C6.88418 74.1407 6.21875 73.4753 6.21875 72.6542C6.21875 71.8331 6.88438 71.1675 7.70527 71.1675H23.3838C24.2049 71.1675 24.8703 71.8329 24.8703 72.6542C24.8703 73.4755 24.2049 74.1407 23.3838 74.1407Z" fill="#78C2A4"/>
<path d="M22.8459 64.0106H16.6525C15.8314 64.0106 15.166 63.3452 15.166 62.5239C15.166 61.7026 15.8316 61.0374 16.6525 61.0374H22.8461C23.6672 61.0374 24.3326 61.7028 24.3326 62.5239C24.3326 63.345 23.667 64.0106 22.8459 64.0106Z" fill="#78C2A4"/>
<path d="M16.6525 56.6747H1.48652C0.66543 56.6747 0 56.0092 0 55.1881C0 54.367 0.665625 53.7014 1.48652 53.7014H16.6523C17.4734 53.7014 18.1389 54.3668 18.1389 55.1881C18.1389 56.0094 17.4734 56.6747 16.6525 56.6747Z" fill="#78C2A4"/>
<path d="M63.3352 86.6642C83.5843 86.6642 99.9994 70.2491 99.9994 50C99.9994 29.7508 83.5843 13.3357 63.3352 13.3357C43.086 13.3357 26.6709 29.7508 26.6709 50C26.6709 70.2491 43.086 86.6642 63.3352 86.6642Z" fill="#95D6A4"/>
<path d="M63.3357 13.3357C62.4076 13.3357 61.4879 13.3708 60.5771 13.4386C79.5377 14.8492 94.4828 30.6789 94.4828 50C94.4828 69.3211 79.5377 85.1507 60.5771 86.5613C61.4879 86.6291 62.4076 86.6642 63.3357 86.6642C83.585 86.6642 100 70.2492 100 50C100 29.7507 83.585 13.3357 63.3357 13.3357Z" fill="#78C2A4"/>
<path d="M63.3357 78.1532C78.8843 78.1532 91.4889 65.5486 91.4889 50C91.4889 34.4515 78.8843 21.8469 63.3357 21.8469C47.7872 21.8469 35.1826 34.4515 35.1826 50C35.1826 65.5486 47.7872 78.1532 63.3357 78.1532Z" fill="#F4FBFF"/>
<path d="M63.3356 21.8467C62.4789 21.8467 61.632 21.8871 60.7949 21.9621C75.1527 23.2467 86.4074 35.308 86.4074 50C86.4074 64.692 75.1527 76.7531 60.7949 78.0377C61.632 78.1125 62.4789 78.1529 63.3356 78.1529C78.8842 78.1529 91.4887 65.5484 91.4887 49.9998C91.4889 34.4514 78.8842 21.8467 63.3356 21.8467Z" fill="#DAF1F4"/>
<path d="M63.3363 32.1269C62.5152 32.1269 61.8496 31.4615 61.8496 30.6404V28.371C61.8496 27.5499 62.515 26.8845 63.3363 26.8845C64.1576 26.8845 64.8229 27.5499 64.8229 28.371V30.6402C64.8229 31.4613 64.1574 32.1269 63.3363 32.1269Z" fill="#365E7D"/>
<path d="M77.0258 37.7971C76.6455 37.7971 76.2648 37.652 75.9744 37.3617C75.3939 36.7811 75.3939 35.8398 75.9744 35.2592L77.5789 33.6547C78.1596 33.0744 79.1008 33.0744 79.6814 33.6547C80.2619 34.2354 80.2619 35.1766 79.6814 35.7572L78.077 37.3617C77.7867 37.652 77.4063 37.7971 77.0258 37.7971Z" fill="#365E7D"/>
<path d="M84.9646 51.4867H82.6957C81.8746 51.4867 81.209 50.8212 81.209 49.9999C81.209 49.1787 81.8744 48.5134 82.6957 48.5134H84.9646C85.7857 48.5134 86.4514 49.1789 86.4514 49.9999C86.4514 50.821 85.7857 51.4867 84.9646 51.4867Z" fill="#365E7D"/>
<path d="M78.6303 66.7805C78.25 66.7805 77.8693 66.6354 77.5789 66.3451L75.9744 64.7406C75.3939 64.16 75.3939 63.2187 75.9744 62.6381C76.5551 62.0578 77.4963 62.0578 78.077 62.6381L79.6814 64.2426C80.2619 64.8232 80.2619 65.7645 79.6814 66.3451C79.3912 66.6354 79.0107 66.7805 78.6303 66.7805Z" fill="#365E7D"/>
<path d="M63.3363 73.1155C62.5152 73.1155 61.8496 72.4501 61.8496 71.6288V69.3598C61.8496 68.5387 62.515 67.8733 63.3363 67.8733C64.1576 67.8733 64.8229 68.5387 64.8229 69.3598V71.6288C64.8229 72.4501 64.1574 73.1155 63.3363 73.1155Z" fill="#365E7D"/>
<path d="M48.0423 66.7805C47.6619 66.7805 47.2814 66.6354 46.9912 66.3451C46.4105 65.7645 46.4105 64.8232 46.9912 64.2426L48.5957 62.6381C49.1761 62.0578 50.1175 62.0578 50.698 62.6381C51.2787 63.2187 51.2787 64.16 50.698 64.7406L49.0935 66.3451C48.8033 66.6354 48.4228 66.7805 48.0423 66.7805Z" fill="#365E7D"/>
<path d="M43.9764 51.4867H41.7072C40.8861 51.4867 40.2207 50.8212 40.2207 49.9999C40.2207 49.1787 40.8863 48.5134 41.7072 48.5134H43.9764C44.7975 48.5134 45.4629 49.1789 45.4629 49.9999C45.4629 50.821 44.7973 51.4867 43.9764 51.4867Z" fill="#365E7D"/>
<path d="M49.6468 37.7971C49.2664 37.7971 48.8859 37.652 48.5957 37.3617L46.9912 35.7572C46.4105 35.1766 46.4105 34.2354 46.9912 33.6547C47.5716 33.0744 48.513 33.0744 49.0935 33.6547L50.698 35.2592C51.2787 35.8398 51.2787 36.7811 50.698 37.3617C50.4078 37.652 50.0273 37.7971 49.6468 37.7971Z" fill="#365E7D"/>
<path d="M69.8428 51.4868H63.3354C62.5143 51.4868 61.8486 50.8213 61.8486 50V37.476C61.8486 36.6549 62.5141 35.9895 63.3354 35.9895C64.1566 35.9895 64.8219 36.6549 64.8219 37.476V48.5133H69.8428C70.6639 48.5133 71.3295 49.1788 71.3295 49.9999C71.3295 50.8209 70.6639 51.4868 69.8428 51.4868Z" fill="#2B4D66"/>
</g>
<defs>
<clipPath id="clip0_48_1002">
<rect width="100" height="100" fill="white"/>
</clipPath>
</defs>
</svg>
