<svg width="100" height="100" viewBox="0 0 100 100" fill="none" xmlns="http://www.w3.org/2000/svg">
<g clip-path="url(#clip0_48_1000)">
<path d="M53.3621 44.8276H94.8276C97.6842 44.8276 100 42.5118 100 39.6552V5.17241C100 2.31577 97.6842 0 94.8276 0H5.17241C2.31577 0 0 2.31577 0 5.17241V39.6552C0 42.5118 2.31577 44.8276 5.17241 44.8276H53.3621Z" fill="#FF5364"/>
<path d="M17.2413 10.3448C21.0448 10.3448 24.1379 12.6654 24.1379 15.5172C24.1379 16.4694 24.9098 17.2413 25.862 17.2413C26.8142 17.2413 27.5861 16.4694 27.5861 15.5172C27.5861 10.7637 22.9465 6.89648 17.2413 6.89648C11.5361 6.89648 6.89648 10.7637 6.89648 15.5172C6.89648 20.2706 11.5361 24.1379 17.2413 24.1379C21.0448 24.1379 24.1379 26.4586 24.1379 29.3103C24.1379 32.162 21.0448 34.4827 17.2413 34.4827C13.4379 34.4827 10.3448 32.162 10.3448 29.3103C10.3448 28.3581 9.57284 27.5861 8.62062 27.5861C7.66841 27.5861 6.89648 28.3581 6.89648 29.3103C6.89648 34.0637 11.5361 37.931 17.2413 37.931C22.9465 37.931 27.5861 34.0637 27.5861 29.3103C27.5861 24.5568 22.9465 20.6896 17.2413 20.6896C13.4379 20.6896 10.3448 18.3689 10.3448 15.5172C10.3448 12.6654 13.4379 10.3448 17.2413 10.3448Z" fill="white"/>
<path d="M48.276 10.3448C49.2282 10.3448 50.0002 9.57284 50.0002 8.62062C50.0002 7.66841 49.2282 6.89648 48.276 6.89648H34.4829C33.5307 6.89648 32.7588 7.66841 32.7588 8.62062V36.2068C32.7588 37.159 33.5307 37.931 34.4829 37.931H48.276C49.2282 37.931 50.0002 37.159 50.0002 36.2068C50.0002 35.2546 49.2282 34.4827 48.276 34.4827H36.2071V24.1379H46.5519C47.5041 24.1379 48.276 23.3659 48.276 22.4137C48.276 21.4615 47.5041 20.6896 46.5519 20.6896H36.2071V10.3448H48.276Z" fill="white"/>
<path d="M70.6891 34.4827H58.6202V8.62062C58.6202 7.66841 57.8482 6.89648 56.896 6.89648C55.9438 6.89648 55.1719 7.66841 55.1719 8.62062V36.2068C55.1719 37.159 55.9438 37.931 56.896 37.931H70.6891C71.6413 37.931 72.4133 37.159 72.4133 36.2068C72.4133 35.2546 71.6413 34.4827 70.6891 34.4827Z" fill="white"/>
<path d="M93.1032 34.4827H81.0342V8.62062C81.0342 7.66841 80.2623 6.89648 79.3101 6.89648C78.3579 6.89648 77.5859 7.66841 77.5859 8.62062V36.2068C77.5859 37.159 78.3579 37.931 79.3101 37.931H93.1032C94.0554 37.931 94.8273 37.159 94.8273 36.2068C94.8273 35.2546 94.0554 34.4827 93.1032 34.4827Z" fill="white"/>
<path d="M79.3105 69.8277V91.3794C79.3105 96.1405 75.4509 100 70.6898 100H51.7243C49.6986 100.005 47.774 99.1155 46.4656 97.569V97.5518C46.1568 97.1992 45.8906 96.8115 45.6725 96.3966C44.414 93.957 42.805 91.7148 40.8967 89.7415C37.4139 86.4175 33.7225 83.3192 29.8449 80.4656C28.4638 79.4417 27.6512 77.8228 27.6553 76.1035C27.6502 74.1859 28.6528 72.4065 30.2956 71.4173C31.9384 70.4281 33.98 70.3744 35.6725 71.2759L44.8277 75.8622V45.6897C44.8277 43.3092 46.7575 41.3794 49.1381 41.3794C51.5186 41.3794 53.4484 43.3092 53.4484 45.6897V59.4828C53.4484 57.1023 55.3782 55.1725 57.7587 55.1725C60.1393 55.1725 62.0691 57.1023 62.0691 59.4828V64.6553C62.0691 62.2747 63.9989 60.3449 66.3794 60.3449C68.76 60.3449 70.6898 62.2747 70.6898 64.6553V69.8277C70.6898 67.4471 72.6196 65.5173 75.0001 65.5173C77.3807 65.5173 79.3105 67.4471 79.3105 69.8277Z" fill="#FDD7AD"/>
<path d="M56.8965 55.2585V72.4137C56.8965 73.3659 56.1246 74.1379 55.1724 74.1379C54.2202 74.1379 53.4482 73.3659 53.4482 72.4137V59.4827C53.4478 57.4341 54.8893 55.6683 56.8965 55.2585Z" fill="#F9C795"/>
<path d="M65.5176 60.4312V72.4139C65.5176 73.3661 64.7457 74.1381 63.7935 74.1381C62.8413 74.1381 62.0693 73.3661 62.0693 72.4139V64.6553C62.0689 62.6067 63.5104 60.8409 65.5176 60.4312Z" fill="#F9C795"/>
<path d="M74.1377 65.6035V74.138C74.1377 75.0902 73.3658 75.8621 72.4136 75.8621C71.4614 75.8621 70.6895 75.0902 70.6895 74.138V69.8277C70.689 67.7791 72.1305 66.0132 74.1377 65.6035Z" fill="#F9C795"/>
</g>
<defs>
<clipPath id="clip0_48_1000">
<rect width="100" height="100" fill="white"/>
</clipPath>
</defs>
</svg>
