<svg width="100" height="100" viewBox="0 0 100 100" fill="none" xmlns="http://www.w3.org/2000/svg">
<path d="M19.5655 45.6521C18.3649 45.6544 17.3899 44.6826 17.3877 43.482C17.3867 42.9032 17.6166 42.3478 18.0264 41.939L39.7656 20.2C40.6291 19.3661 42.0054 19.3899 42.8396 20.2534C43.6532 21.096 43.6532 22.4315 42.8396 23.2738L21.1004 45.013C20.6936 45.421 20.1417 45.6509 19.5655 45.6521Z" fill="#455A64"/>
<path d="M80.4354 45.6522C79.8584 45.6533 79.3047 45.425 78.8962 45.0174L57.1571 23.2784C56.3231 22.4149 56.3469 21.0386 57.2105 20.2044C58.053 19.3908 59.3885 19.3908 60.2308 20.2044L81.97 41.9436C82.8176 42.7939 82.8156 44.1704 81.9651 45.018C81.559 45.423 81.0091 45.651 80.4354 45.6522Z" fill="#455A64"/>
<path d="M10.8695 41.3044H89.1303C95.1334 41.3044 99.9998 46.1709 99.9998 52.1739V78.2609C99.9998 84.2639 95.1334 89.1304 89.1303 89.1304H10.8695C4.86644 89.1304 0 84.2639 0 78.2609V52.1739C0 46.1709 4.86644 41.3044 10.8695 41.3044Z" fill="#4CAF50"/>
<path d="M10.8693 80.4349C9.66868 80.4349 8.69531 79.4615 8.69531 78.2609V52.174C8.69531 50.9734 9.66868 50 10.8693 50H23.9128C25.1134 50 26.0867 50.9734 26.0867 52.174C26.0867 53.3746 25.1134 54.348 23.9128 54.348H13.0433V78.2609C13.0433 79.4615 12.0699 80.4349 10.8693 80.4349Z" fill="#FAFAFA"/>
<path d="M19.565 67.3914H10.8693C9.66868 67.3914 8.69531 66.418 8.69531 65.2174C8.69531 64.0168 9.66868 63.0435 10.8693 63.0435H19.565C20.7656 63.0435 21.739 64.0168 21.739 65.2174C21.739 66.418 20.7656 67.3914 19.565 67.3914Z" fill="#FAFAFA"/>
<path d="M45.652 80.4349C45.0751 80.4359 44.5213 80.2077 44.1129 79.8L34.7825 70.4652V78.2609C34.7825 79.4615 33.8092 80.4349 32.6086 80.4349C31.4079 80.4349 30.4346 79.4615 30.4346 78.2609V52.174C30.4346 50.9734 31.4079 50 32.6086 50H39.1303C43.9327 50 47.826 53.8933 47.826 58.6957C47.826 63.4982 43.9327 67.3914 39.1303 67.3914H37.8563L47.1867 76.7218C48.0367 77.5696 48.0384 78.9461 47.1905 79.7962C46.7829 80.205 46.2294 80.4347 45.652 80.4349ZM34.7825 63.0435H39.1303C41.5315 63.0435 43.478 61.0969 43.478 58.6957C43.478 56.2945 41.5315 54.348 39.1303 54.348H34.7825V63.0435Z" fill="#FAFAFA"/>
<path d="M67.3913 80.4349H54.3478C53.1472 80.4349 52.1738 79.4615 52.1738 78.2609V52.174C52.1738 50.9734 53.1472 50 54.3478 50H67.3913C68.5919 50 69.5653 50.9734 69.5653 52.174C69.5653 53.3746 68.5919 54.348 67.3913 54.348H56.5218V76.0871H67.3913C68.5919 76.0871 69.5653 77.0605 69.5653 78.2611C69.5651 79.4615 68.5919 80.4349 67.3913 80.4349Z" fill="#FAFAFA"/>
<path d="M63.0435 67.3914H54.3478C53.1472 67.3914 52.1738 66.418 52.1738 65.2174C52.1738 64.0168 53.1472 63.0435 54.3478 63.0435H63.0435C64.2441 63.0435 65.2175 64.0168 65.2175 65.2174C65.2175 66.418 64.2441 67.3914 63.0435 67.3914Z" fill="#FAFAFA"/>
<path d="M89.1305 80.4349H76.0871C74.8865 80.4349 73.9131 79.4615 73.9131 78.2609V52.174C73.9131 50.9734 74.8865 50 76.0871 50H89.1305C90.3312 50 91.3045 50.9734 91.3045 52.174C91.3045 53.3746 90.3312 54.348 89.1305 54.348H78.261V76.0871H89.1305C90.3312 76.0871 91.3045 77.0605 91.3045 78.2611C91.3045 79.4615 90.3312 80.4349 89.1305 80.4349Z" fill="#FAFAFA"/>
<path d="M84.7828 67.3914H76.0871C74.8865 67.3914 73.9131 66.418 73.9131 65.2174C73.9131 64.0168 74.8865 63.0435 76.0871 63.0435H84.7828C85.9834 63.0435 86.9568 64.0168 86.9568 65.2174C86.9568 66.418 85.9834 67.3914 84.7828 67.3914Z" fill="#FAFAFA"/>
<path d="M50.0003 32.6086C43.9973 32.6086 39.1309 27.7422 39.1309 21.7391C39.1309 15.7361 43.9973 10.8696 50.0003 10.8696C56.0034 10.8696 60.8698 15.7361 60.8698 21.7391C60.8698 27.7422 56.0036 32.6086 50.0003 32.6086Z" fill="#607D8B"/>
</svg>
