<svg width="100" height="100" viewBox="0 0 100 100" fill="none" xmlns="http://www.w3.org/2000/svg">
<path d="M85.8486 12.6994V31.8242C85.8486 33.5145 85.5195 35.1258 84.9197 36.5998C83.0338 41.2463 78.474 44.5236 73.1492 44.5236H26.8508C19.8357 44.5236 14.1514 38.8373 14.1514 31.8242V12.6994C14.1514 8.50527 16.1848 4.78574 19.3207 2.47168C21.4268 0.91875 24.0318 0 26.8508 0H73.1494C80.1645 0 85.8486 5.68633 85.8486 12.6994Z" fill="#3D9AE2"/>
<path d="M77.9689 13.4728V31.0488C77.9689 34.7279 74.9885 37.7083 71.3113 37.7083H28.6879C25.0107 37.7083 22.0303 34.7279 22.0303 31.0488V13.4728C22.0303 9.79565 25.0107 6.81519 28.6879 6.81519H71.3113C74.9885 6.81519 77.9689 9.79565 77.9689 13.4728Z" fill="#96C8EF"/>
<path d="M31.1035 13.4402C31.1035 12.8063 31.7607 12.4775 32.4416 12.4775H36.9725C39.4139 12.4775 41.691 13.2756 41.691 16.6092C41.691 18.5342 40.9397 19.802 39.6955 20.3416C41.1275 20.9053 42.1137 21.8205 42.1137 24.1682V24.6611C42.1137 28.3234 40.0713 29.6379 37.4184 29.6379H32.4416C31.6201 29.6379 31.1035 29.1918 31.1035 28.6988V13.4402ZM34.1318 19.1447H36.7611C38.0289 19.1447 38.6393 18.323 38.6393 17.1258C38.6393 15.9051 37.935 15.1537 36.7377 15.1537H34.132V19.1447H34.1318ZM36.7846 26.9623C38.2166 26.9623 39.0617 26.1875 39.0617 24.4035V24.0279C39.0617 22.1969 38.2164 21.5395 36.7846 21.5395H34.1318V26.9623H36.7846Z" fill="#1E81CE"/>
<path d="M52.4426 13.4168C52.4426 12.7594 53.1939 12.4778 53.9686 12.4778C54.7199 12.4778 55.4945 12.7594 55.4945 13.4168V24.4036C55.4945 28.3239 53.0061 29.7793 49.8605 29.7793C46.6914 29.7793 44.2266 28.3239 44.2266 24.4036V13.4168C44.2266 12.7594 44.9777 12.4778 45.7525 12.4778C46.5037 12.4778 47.2785 12.7594 47.2785 13.4168V24.4036C47.2785 26.2344 48.2412 27.1032 49.8607 27.1032C51.4803 27.1032 52.443 26.2344 52.443 24.4036V13.4168H52.4426Z" fill="#1E81CE"/>
<path d="M62.0424 22.76C62.0424 22.6426 62.0189 22.5254 61.9719 22.4549L57.1127 14.0506C57.0656 13.9333 57.042 13.8159 57.042 13.7454C57.042 12.9942 58.2395 12.4778 59.0609 12.4778C59.5539 12.4778 59.7887 12.6657 60 13.0879L63.5684 19.8723L67.16 13.0879C67.3711 12.6887 67.5824 12.4778 68.0754 12.4778C68.8971 12.4778 70.0943 12.9944 70.0943 13.7454C70.0943 13.8159 70.0943 13.9334 70.0238 14.0506L65.1881 22.4549C65.1412 22.5254 65.0941 22.6428 65.0941 22.76V28.676C65.0941 29.3098 64.3428 29.6387 63.568 29.6387C62.8168 29.6387 62.042 29.31 62.042 28.676V22.76H62.0424Z" fill="#1E81CE"/>
<path d="M32.4479 30.5763C30.3746 30.5763 28.6939 28.8957 28.6939 26.8224V13.4728C28.6939 9.79565 31.6744 6.81519 35.3516 6.81519H28.6879C25.0109 6.81519 22.0303 9.79585 22.0303 13.4728V31.0488C22.0303 34.7279 25.0107 37.7083 28.6879 37.7083H30.951H35.3516H71.3113C74.9885 37.7083 77.9689 34.7279 77.9689 31.0488V30.5763H32.4479Z" fill="#5AAAE7"/>
<path d="M78.9771 66.9906V73.0909C78.9771 78.848 74.2701 83.557 68.5131 83.5591C68.5111 83.5591 68.5111 83.5591 68.509 83.5591H54.2406C54.1135 83.5591 53.9861 83.5572 53.859 83.553C50.3756 83.446 47.1348 81.7376 44.9619 79.0136L37.4461 69.5896C36.3719 68.1437 35.4268 66.2941 35.4268 64.4968C35.4268 63.5659 35.6812 62.6472 36.3051 61.8091C37.2521 60.537 38.6516 59.7859 40.1236 59.6142C40.3396 59.588 40.5578 59.5759 40.7758 59.5759C41.9287 59.5759 43.092 59.9314 44.0834 60.6683C45.6443 61.8294 47.8615 60.7167 47.8615 58.77V36.5091C47.8615 33.5185 50.4281 31.0993 53.4691 31.3437C56.1769 31.5618 58.2266 33.8982 58.2266 36.6161V56.5245H68.5109C74.2682 56.5245 78.9771 61.2335 78.9771 66.9906Z" fill="#FFC477"/>
<path d="M78.9771 73.0484V73.0908C78.9771 78.8478 74.2701 83.5568 68.5131 83.5589C68.5111 83.5589 68.5111 83.5589 68.509 83.5589H54.2406C54.1135 83.5589 53.9861 83.557 53.859 83.5529C50.3756 83.4458 47.1348 81.7375 44.9619 79.0134L37.4461 69.5894C36.3719 68.1435 35.4268 66.2939 35.4268 64.4966C35.4268 63.5658 35.6812 62.647 36.3051 61.8089C37.2521 60.5369 38.6516 59.7857 40.1236 59.614L45.9555 66.9218C48.1283 69.6439 52.5344 73.0484 56.0197 73.0484H78.9771Z" fill="#FFB655"/>
<path d="M79.7973 82.5168V96.1977C79.7973 98.2977 78.0949 100 75.9949 100H46.3434C44.2434 100 42.543 98.2977 42.543 96.1977V82.5168C42.543 80.0432 44.5664 78.0198 47.04 78.0198H75.2982C77.7719 78.02 79.7973 80.0432 79.7973 82.5168Z" fill="#5EAC24"/>
<path d="M79.7973 82.9835V96.1977C79.7973 98.2977 78.0949 100 75.9949 100H46.6826V87.4641C46.6826 84.9905 48.7061 82.967 51.1797 82.967H79.4379C79.559 82.9672 79.6781 82.9713 79.7973 82.9835Z" fill="#6DC82A"/>
<path d="M68.7916 91.1628C69.9812 91.1628 70.9455 90.1985 70.9455 89.0089C70.9455 87.8193 69.9812 86.855 68.7916 86.855C67.602 86.855 66.6377 87.8193 66.6377 89.0089C66.6377 90.1985 67.602 91.1628 68.7916 91.1628Z" fill="#4E901E"/>
</svg>
