<svg width="100" height="100" viewBox="0 0 100 100" fill="none" xmlns="http://www.w3.org/2000/svg">
<path d="M15.2174 73.913C14.0168 73.913 13.0435 72.9397 13.0435 71.7391V28.2609C13.0435 27.0603 14.0168 26.0869 15.2174 26.0869C16.418 26.0869 17.3914 27.0603 17.3914 28.2609V71.7391C17.3912 72.9397 16.418 73.913 15.2174 73.913Z" fill="#455A64"/>
<path d="M23.9127 65.2173C22.7121 65.2173 21.7388 64.244 21.7388 63.0433V28.2609C21.7388 27.0603 22.7121 26.0869 23.9127 26.0869C25.1134 26.0869 26.0867 27.0603 26.0867 28.2609V63.0435C26.0867 64.244 25.1134 65.2173 23.9127 65.2173Z" fill="#455A64"/>
<path d="M32.6086 65.2173C31.4079 65.2173 30.4346 64.244 30.4346 63.0433V28.2609C30.4346 27.0603 31.4079 26.0869 32.6086 26.0869C33.8092 26.0869 34.7825 27.0603 34.7825 28.2609V63.0435C34.7825 64.244 33.8092 65.2173 32.6086 65.2173Z" fill="#455A64"/>
<path d="M41.3044 65.2173C40.1037 65.2173 39.1304 64.244 39.1304 63.0433V28.2609C39.1304 27.0603 40.1037 26.0869 41.3044 26.0869C42.505 26.0869 43.4783 27.0603 43.4783 28.2609V63.0435C43.4781 64.244 42.505 65.2173 41.3044 65.2173Z" fill="#455A64"/>
<path d="M49.9997 73.913C48.7991 73.913 47.8257 72.9397 47.8257 71.7391V28.2609C47.8257 27.0603 48.7991 26.0869 49.9997 26.0869C51.2003 26.0869 52.1736 27.0603 52.1736 28.2609V71.7391C52.1736 72.9397 51.2003 73.913 49.9997 73.913Z" fill="#455A64"/>
<path d="M58.6955 65.2173C57.4949 65.2173 56.5215 64.244 56.5215 63.0433V28.2609C56.5215 27.0603 57.4949 26.0869 58.6955 26.0869C59.8961 26.0869 60.8694 27.0603 60.8694 28.2609V63.0435C60.8694 64.244 59.8961 65.2173 58.6955 65.2173Z" fill="#455A64"/>
<path d="M67.3913 65.2173C66.1907 65.2173 65.2173 64.244 65.2173 63.0433V28.2609C65.2173 27.0603 66.1907 26.0869 67.3913 26.0869C68.5919 26.0869 69.5652 27.0603 69.5652 28.2609V63.0435C69.565 64.244 68.5919 65.2173 67.3913 65.2173Z" fill="#455A64"/>
<path d="M76.0871 65.2173C74.8865 65.2173 73.9131 64.244 73.9131 63.0433V28.2609C73.9131 27.0603 74.8865 26.0869 76.0871 26.0869C77.2877 26.0869 78.261 27.0603 78.261 28.2609V63.0435C78.261 64.244 77.2877 65.2173 76.0871 65.2173Z" fill="#455A64"/>
<path d="M84.7824 73.913C83.5818 73.913 82.6084 72.9397 82.6084 71.7391V28.2609C82.6084 27.0603 83.5818 26.0869 84.7824 26.0869C85.983 26.0869 86.9564 27.0603 86.9564 28.2609V71.7391C86.9564 72.9397 85.983 73.913 84.7824 73.913Z" fill="#455A64"/>
<path d="M23.9128 73.913C23.6274 73.9228 23.344 73.8631 23.0868 73.7392C22.8149 73.6476 22.574 73.482 22.3912 73.2608C21.5507 72.4615 21.5173 71.1323 22.3166 70.292C22.3408 70.2665 22.3657 70.2417 22.3912 70.2174C22.5738 69.9961 22.8149 69.8304 23.0868 69.7391C23.8938 69.4067 24.8219 69.5956 25.4346 70.2174C26.2751 71.0746 26.2616 72.4511 25.4042 73.2916C25.0054 73.6825 24.4714 73.9051 23.9128 73.913Z" fill="#455A64"/>
<path d="M32.6086 73.913C32.3233 73.9228 32.0398 73.8631 31.7826 73.7392C31.5107 73.6477 31.2698 73.482 31.087 73.2609C30.2465 72.4615 30.2131 71.1323 31.0124 70.292C31.0366 70.2666 31.0615 70.2417 31.087 70.2174C31.2696 69.9961 31.5107 69.8304 31.7826 69.7391C32.5892 69.4016 33.52 69.5914 34.1304 70.2174C34.3515 70.4003 34.5172 70.6412 34.6087 70.913C34.8406 71.4392 34.8406 72.0388 34.6087 72.5653C34.518 72.8375 34.3523 73.0789 34.1304 73.2609C33.7385 73.684 33.1853 73.9212 32.6086 73.913Z" fill="#455A64"/>
<path d="M41.3044 73.913C41.0191 73.9228 40.7356 73.8631 40.4784 73.7392C40.2065 73.6477 39.9656 73.482 39.7828 73.2609C38.9423 72.4615 38.9089 71.1323 39.7082 70.292C39.7324 70.2666 39.7573 70.2417 39.7828 70.2174C39.9654 69.9961 40.2065 69.8304 40.4784 69.7391C41.285 69.4016 42.2158 69.5914 42.8262 70.2174C43.0473 70.4003 43.213 70.6412 43.3045 70.913C43.5364 71.4392 43.5364 72.0388 43.3045 72.5653C43.2138 72.8375 43.0481 73.0789 42.8262 73.2609C42.4343 73.684 41.8811 73.9212 41.3044 73.913Z" fill="#455A64"/>
<path d="M58.6957 73.913C57.4953 73.8961 56.5356 72.9093 56.5525 71.7089C56.5604 71.1504 56.7828 70.6163 57.1739 70.2174C58.0192 69.389 59.3721 69.389 60.2173 70.2174C60.4384 70.4002 60.6041 70.6411 60.6956 70.913C60.9275 71.4392 60.9275 72.0388 60.6956 72.5652C60.6049 72.8375 60.4392 73.0788 60.2173 73.2608C59.8256 73.6839 59.2724 73.9212 58.6957 73.913Z" fill="#455A64"/>
<path d="M67.3915 73.913C66.1911 73.8961 65.2314 72.9093 65.2483 71.7089C65.256 71.1505 65.4786 70.6163 65.8697 70.2174C66.715 69.3888 68.0679 69.3888 68.9131 70.2174C69.7536 71.0746 69.7401 72.4511 68.8827 73.2916C68.4841 73.6825 67.9499 73.9051 67.3915 73.913Z" fill="#455A64"/>
<path d="M76.0867 73.913C75.5099 73.9212 74.9568 73.6842 74.5649 73.2609C74.3429 73.0789 74.177 72.8378 74.0865 72.5653C73.8546 72.039 73.8546 71.4395 74.0865 70.913C74.1778 70.641 74.3435 70.4001 74.5649 70.2174C75.4102 69.3888 76.7631 69.3888 77.6083 70.2174C78.4488 71.0746 78.4353 72.4511 77.5779 73.2916C77.1793 73.6825 76.6453 73.9051 76.0867 73.913Z" fill="#455A64"/>
<path d="M2.17398 30.4347C0.973369 30.4347 0 29.4615 0 28.2609V15.2174C0 14.0168 0.973369 13.0435 2.17398 13.0435H15.2174C16.4181 13.0435 17.3914 14.0168 17.3914 15.2174C17.3914 16.418 16.4181 17.3914 15.2174 17.3914H4.34775V28.2609C4.34775 29.4615 3.37459 30.4347 2.17398 30.4347Z" fill="#2196F3"/>
<path d="M15.2175 86.9565H2.17398C0.973369 86.9565 0 85.9831 0 84.7825V71.739C0 70.5384 0.973369 69.5651 2.17398 69.5651C3.37459 69.5651 4.34776 70.5384 4.34776 71.739V82.6085H15.2172C16.4179 82.6085 17.3912 83.5819 17.3912 84.7825C17.3912 85.9831 16.4181 86.9565 15.2175 86.9565Z" fill="#2196F3"/>
<path d="M97.8258 30.4347C96.6252 30.4347 95.6519 29.4613 95.6519 28.2607V17.3912H84.7824C83.5818 17.3912 82.6084 16.4178 82.6084 15.2172C82.6084 14.0166 83.5818 13.0435 84.7824 13.0435H97.8258C99.0265 13.0435 99.9998 14.0168 99.9998 15.2174V28.2609C99.9998 29.4615 99.0265 30.4347 97.8258 30.4347Z" fill="#2196F3"/>
<path d="M97.8258 86.9565H84.7824C83.5818 86.9565 82.6084 85.9831 82.6084 84.7825C82.6084 83.5819 83.5818 82.6085 84.7824 82.6085H95.6519V71.739C95.6519 70.5384 96.6252 69.5651 97.8258 69.5651C99.0265 69.5651 99.9998 70.5384 99.9998 71.739V84.7825C99.9998 85.9831 99.0265 86.9565 97.8258 86.9565Z" fill="#2196F3"/>
<path d="M15.2174 73.913C14.0168 73.913 13.0435 72.9397 13.0435 71.7391V28.2609C13.0435 27.0603 14.0168 26.0869 15.2174 26.0869C16.418 26.0869 17.3914 27.0603 17.3914 28.2609V71.7391C17.3912 72.9397 16.418 73.913 15.2174 73.913Z" fill="#00A651"/>
<path d="M23.9127 65.2173C22.7121 65.2173 21.7388 64.244 21.7388 63.0433V28.2609C21.7388 27.0603 22.7121 26.0869 23.9127 26.0869C25.1134 26.0869 26.0867 27.0603 26.0867 28.2609V63.0435C26.0867 64.244 25.1134 65.2173 23.9127 65.2173Z" fill="#00A651"/>
<path d="M32.6086 65.2173C31.4079 65.2173 30.4346 64.244 30.4346 63.0433V28.2609C30.4346 27.0603 31.4079 26.0869 32.6086 26.0869C33.8092 26.0869 34.7825 27.0603 34.7825 28.2609V63.0435C34.7825 64.244 33.8092 65.2173 32.6086 65.2173Z" fill="#00A651"/>
<path d="M41.3044 65.2173C40.1037 65.2173 39.1304 64.244 39.1304 63.0433V28.2609C39.1304 27.0603 40.1037 26.0869 41.3044 26.0869C42.505 26.0869 43.4783 27.0603 43.4783 28.2609V63.0435C43.4781 64.244 42.505 65.2173 41.3044 65.2173Z" fill="#00A651"/>
<path d="M49.9997 73.913C48.7991 73.913 47.8257 72.9397 47.8257 71.7391V28.2609C47.8257 27.0603 48.7991 26.0869 49.9997 26.0869C51.2003 26.0869 52.1736 27.0603 52.1736 28.2609V71.7391C52.1736 72.9397 51.2003 73.913 49.9997 73.913Z" fill="#00A651"/>
<path d="M58.6955 65.2173C57.4949 65.2173 56.5215 64.244 56.5215 63.0433V28.2609C56.5215 27.0603 57.4949 26.0869 58.6955 26.0869C59.8961 26.0869 60.8694 27.0603 60.8694 28.2609V63.0435C60.8694 64.244 59.8961 65.2173 58.6955 65.2173Z" fill="#00A651"/>
<path d="M67.3913 65.2173C66.1907 65.2173 65.2173 64.244 65.2173 63.0433V28.2609C65.2173 27.0603 66.1907 26.0869 67.3913 26.0869C68.5919 26.0869 69.5652 27.0603 69.5652 28.2609V63.0435C69.565 64.244 68.5919 65.2173 67.3913 65.2173Z" fill="#00A651"/>
<path d="M76.0871 65.2173C74.8865 65.2173 73.9131 64.244 73.9131 63.0433V28.2609C73.9131 27.0603 74.8865 26.0869 76.0871 26.0869C77.2877 26.0869 78.261 27.0603 78.261 28.2609V63.0435C78.261 64.244 77.2877 65.2173 76.0871 65.2173Z" fill="#00A651"/>
<path d="M84.7824 73.913C83.5818 73.913 82.6084 72.9397 82.6084 71.7391V28.2609C82.6084 27.0603 83.5818 26.0869 84.7824 26.0869C85.983 26.0869 86.9564 27.0603 86.9564 28.2609V71.7391C86.9564 72.9397 85.983 73.913 84.7824 73.913Z" fill="#00A651"/>
<path d="M23.9128 73.9131C23.6274 73.9218 23.3441 73.8623 23.0867 73.7392C22.8151 73.6471 22.5744 73.4816 22.3912 73.2609C21.5507 72.4581 21.5201 71.126 22.3229 70.2857C22.3451 70.2625 22.3679 70.2397 22.3912 70.2175C22.5742 69.9967 22.8151 69.8311 23.0867 69.7391C23.616 69.5217 24.2097 69.5217 24.739 69.7391C25.0113 69.83 25.2524 69.9957 25.4346 70.2175C26.2751 71.0747 26.2616 72.4512 25.4042 73.2917C25.0054 73.6826 24.4714 73.9051 23.9128 73.9131Z" fill="#00A651"/>
<path d="M32.6086 73.9131C31.408 73.8986 30.4466 72.9136 30.4611 71.713C30.4678 71.153 30.6904 70.6172 31.0825 70.2173C31.6917 69.589 32.6239 69.399 33.4303 69.739C33.7026 69.8299 33.9437 69.9956 34.1259 70.2173C34.9664 71.0745 34.9529 72.451 34.0957 73.2915C33.6979 73.6816 33.1656 73.9041 32.6086 73.9131Z" fill="#00A651"/>
<path d="M41.3044 73.9131C40.1038 73.8986 39.1424 72.9136 39.1569 71.713C39.1636 71.153 39.3862 70.6172 39.7783 70.2173C39.9613 69.9966 40.2022 69.8309 40.4739 69.739C41.2809 69.4066 42.2091 69.5955 42.8217 70.2173C43.6622 71.0745 43.6487 72.451 42.7913 73.2915C42.3925 73.6826 41.8585 73.9051 41.2999 73.9129H41.3044V73.9131Z" fill="#00A651"/>
<path d="M58.6955 73.9131C58.4106 73.9175 58.1283 73.8582 57.8695 73.7392C57.5978 73.6471 57.3571 73.4816 57.1739 73.2609C56.3334 72.4581 56.3028 71.126 57.1056 70.2857C57.1278 70.2625 57.1506 70.2397 57.1739 70.2175C57.3569 69.9967 57.5978 69.8311 57.8695 69.7391C58.3987 69.5217 58.9924 69.5217 59.5217 69.7391C59.794 69.83 60.0351 69.9957 60.2173 70.2175C61.0578 71.0747 61.0443 72.4512 60.1869 73.2917C59.7881 73.6826 59.2539 73.9051 58.6955 73.9131Z" fill="#00A651"/>
<path d="M67.3913 73.913C67.1064 73.9175 66.8241 73.8582 66.5653 73.7392C66.2936 73.6471 66.0529 73.4816 65.8697 73.2609C65.0292 72.4581 64.9986 71.126 65.8014 70.2857C65.8236 70.2625 65.8464 70.2397 65.8697 70.2174C66.7151 69.3888 68.0679 69.3888 68.9131 70.2174C69.7536 71.0133 69.7896 72.3397 68.994 73.1799C68.9677 73.2077 68.9408 73.2346 68.9131 73.2609C68.7307 73.4824 68.4896 73.6481 68.2175 73.7392C67.9587 73.8586 67.6762 73.9181 67.3913 73.913Z" fill="#00A651"/>
<path d="M76.0866 73.913C75.8017 73.9175 75.5195 73.8582 75.2606 73.7392C74.989 73.647 74.7483 73.4816 74.565 73.2608C74.1424 72.8687 73.9053 72.3158 73.9129 71.739C73.9021 71.4535 73.9618 71.1698 74.0867 70.913C74.1766 70.6413 74.3407 70.4004 74.5606 70.2174C74.7436 69.9967 74.9845 69.831 75.2561 69.7391C76.0632 69.4067 76.9913 69.5956 77.604 70.2174C77.8237 70.4015 77.9892 70.6419 78.0823 70.913C78.2072 71.17 78.2669 71.4537 78.2561 71.739C78.2241 72.9262 77.2693 73.881 76.0822 73.913H76.0866Z" fill="#00A651"/>
<path d="M2.17398 30.4347C0.973369 30.4347 0 29.4615 0 28.2609V15.2174C0 14.0168 0.973369 13.0435 2.17398 13.0435H15.2174C16.4181 13.0435 17.3914 14.0168 17.3914 15.2174C17.3914 16.418 16.4181 17.3914 15.2174 17.3914H4.34775V28.2609C4.34775 29.4615 3.37459 30.4347 2.17398 30.4347Z" fill="#00A651"/>
<path d="M15.2175 86.9565H2.17398C0.973369 86.9565 0 85.9831 0 84.7825V71.739C0 70.5384 0.973369 69.5651 2.17398 69.5651C3.37459 69.5651 4.34776 70.5384 4.34776 71.739V82.6085H15.2172C16.4179 82.6085 17.3912 83.5819 17.3912 84.7825C17.3912 85.9831 16.4181 86.9565 15.2175 86.9565Z" fill="#00A651"/>
<path d="M97.8258 30.4347C96.6252 30.4347 95.6519 29.4613 95.6519 28.2607V17.3912H84.7824C83.5818 17.3912 82.6084 16.4178 82.6084 15.2172C82.6084 14.0166 83.5818 13.0435 84.7824 13.0435H97.8258C99.0265 13.0435 99.9998 14.0168 99.9998 15.2174V28.2609C99.9998 29.4615 99.0265 30.4347 97.8258 30.4347Z" fill="#00A651"/>
<path d="M97.8258 86.9565H84.7824C83.5818 86.9565 82.6084 85.9831 82.6084 84.7825C82.6084 83.5819 83.5818 82.6085 84.7824 82.6085H95.6519V71.739C95.6519 70.5384 96.6252 69.5651 97.8258 69.5651C99.0265 69.5651 99.9998 70.5384 99.9998 71.739V84.7825C99.9998 85.9831 99.0265 86.9565 97.8258 86.9565Z" fill="#00A651"/>
</svg>
