<svg width="100" height="100" viewBox="0 0 100 100" fill="none" xmlns="http://www.w3.org/2000/svg">
<g clip-path="url(#clip0_48_649)">
<path d="M70.8336 100.192H12.5C5.60837 100.192 0 94.5839 0 87.6922V29.3586C0 22.467 5.60837 16.8586 12.5 16.8586H45.8336C48.1377 16.8586 50 18.7256 50 21.0258C50 23.3253 48.1377 25.1922 45.8336 25.1922H12.5C10.1997 25.1922 8.33359 27.063 8.33359 29.3586V87.6922C8.33359 89.9879 10.1997 91.8586 12.5 91.8586H70.8336C73.1331 91.8586 75 89.9879 75 87.6922V54.3586C75 52.0591 76.8623 50.1922 79.1664 50.1922C81.4705 50.1922 83.3336 52.0591 83.3336 54.3586V87.6922C83.3336 94.5839 77.7252 100.192 70.8336 100.192Z" fill="#607D8B"/>
<path d="M72.0336 13.4301L39.0662 46.3967C38.7748 46.6881 38.5787 47.0589 38.4955 47.4587L35.5498 62.1926C35.4125 62.8754 35.6292 63.5796 36.1205 64.0755C36.5165 64.4715 37.0498 64.6836 37.596 64.6836C37.7288 64.6836 37.8669 64.6714 38.0042 64.6424L52.7335 61.6967C53.1417 61.6127 53.5125 61.4174 53.8001 61.1252L86.7667 28.1586L72.0336 13.4301Z" fill="#42A5F5"/>
<path d="M96.9497 3.24255C92.8878 -0.820107 86.2792 -0.820107 82.2204 3.24255L76.4541 9.00884L91.1834 23.7382L96.9497 17.9711C98.9166 16.0088 99.9999 13.3919 99.9999 10.6087C99.9999 7.82552 98.9166 5.20864 96.9497 3.24255Z" fill="#42A5F5"/>
</g>
<defs>
<clipPath id="clip0_48_649">
<rect width="100" height="100" fill="white"/>
</clipPath>
</defs>
</svg>
