<svg width="100" height="100" viewBox="0 0 100 100" fill="none" xmlns="http://www.w3.org/2000/svg">
<g clip-path="url(#clip0_48_648)">
<path d="M95.8335 36.2333C93.5293 36.2333 91.6668 34.3667 91.6668 32.0667V12.3167C91.6668 10.1208 89.8793 8.33333 87.6877 8.33333H67.9377C65.6335 8.33333 63.771 6.46667 63.771 4.16667C63.771 1.86667 65.6335 0 67.9377 0H87.6877C94.4793 0 100 5.525 100 12.3167V32.0667C100 34.3667 98.1377 36.2333 95.8335 36.2333Z" fill="#607D8B"/>
<path d="M4.16667 36.2333C1.8625 36.2333 0 34.3667 0 32.0667V12.3167C0 5.525 5.52083 0 12.3125 0H32.0625C34.3667 0 36.2292 1.86667 36.2292 4.16667C36.2292 6.46667 34.3667 8.33333 32.0625 8.33333H12.3125C10.1208 8.33333 8.33333 10.1208 8.33333 12.3167V32.0667C8.33333 34.3667 6.47083 36.2333 4.16667 36.2333Z" fill="#607D8B"/>
<path d="M87.6877 99.9999H67.9377C65.6335 99.9999 63.771 98.1333 63.771 95.8333C63.771 93.5333 65.6335 91.6666 67.9377 91.6666H87.6877C89.8793 91.6666 91.6668 89.8791 91.6668 87.6833V67.9333C91.6668 65.6333 93.5293 63.7666 95.8335 63.7666C98.1377 63.7666 100 65.6333 100 67.9333V87.6833C100 94.4749 94.4793 99.9999 87.6877 99.9999Z" fill="#607D8B"/>
<path d="M32.0625 99.9999H12.3125C5.52083 99.9999 0 94.4749 0 87.6833V67.9333C0 65.6333 1.8625 63.7666 4.16667 63.7666C6.47083 63.7666 8.33333 65.6333 8.33333 67.9333V87.6833C8.33333 89.8791 10.1208 91.6666 12.3125 91.6666H32.0625C34.3667 91.6666 36.2292 93.5333 36.2292 95.8333C36.2292 98.1333 34.3667 99.9999 32.0625 99.9999Z" fill="#607D8B"/>
<path d="M39.4918 46.4959H18.7502C16.446 46.4959 14.5835 44.6292 14.5835 42.3292V18.75C14.5835 16.45 16.446 14.5834 18.7502 14.5834H39.4918C41.796 14.5834 43.6585 16.45 43.6585 18.75V42.3292C43.6585 44.6292 41.7918 46.4959 39.4918 46.4959ZM22.9168 38.1625H35.3252V22.9167H22.9168V38.1625Z" fill="#2196F3"/>
<path d="M81.25 85.4167H60.4167C58.1125 85.4167 56.25 83.55 56.25 81.25V65.9083C56.25 63.6083 58.1125 61.7417 60.4167 61.7417C62.7208 61.7417 64.5833 63.6083 64.5833 65.9083V77.0833H77.0833V64.5833H72.1583C69.8542 64.5833 67.9917 62.7167 67.9917 60.4167C67.9917 58.1167 69.8542 56.25 72.1583 56.25H81.25C83.5542 56.25 85.4167 58.1167 85.4167 60.4167V81.25C85.4167 83.55 83.5542 85.4167 81.25 85.4167Z" fill="#2196F3"/>
<path d="M81.2501 39.9625H64.2043C61.9001 39.9625 60.0376 38.0959 60.0376 35.7959V18.75C60.0376 16.45 61.9001 14.5834 64.2043 14.5834H81.2501C83.5543 14.5834 85.4168 16.45 85.4168 18.75V35.7959C85.4168 38.0959 83.5543 39.9625 81.2501 39.9625ZM68.3709 31.6292H77.0834V22.9167H68.3709V31.6292Z" fill="#2196F3"/>
<path d="M51.9918 58.9H18.7502C16.446 58.9 14.5835 57.0333 14.5835 54.7333C14.5835 52.4333 16.446 50.5667 18.7502 50.5667H47.8252V22.5375C47.8252 20.2375 49.6877 18.3708 51.9918 18.3708C54.296 18.3708 56.1585 20.2375 56.1585 22.5375V54.7333C56.1585 57.0333 54.2918 58.9 51.9918 58.9Z" fill="#2196F3"/>
<path d="M63.5417 57.8583C61.2375 57.8583 59.375 55.9917 59.375 53.6917V48.0125C59.375 45.7125 61.2375 43.8458 63.5417 43.8458H82.2917C84.5958 43.8458 86.4583 45.7125 86.4583 48.0125C86.4583 50.3125 84.5958 52.1792 82.2917 52.1792H67.7083V53.6917C67.7083 55.9917 65.8458 57.8583 63.5417 57.8583Z" fill="#2196F3"/>
<path d="M50.092 80.0042C47.7878 80.0042 45.9253 78.1376 45.9253 75.8376V66.3709C45.9253 64.0709 47.7878 62.2042 50.092 62.2042C52.3961 62.2042 54.2586 64.0709 54.2586 66.3709V75.8376C54.2586 78.1376 52.3961 80.0042 50.092 80.0042Z" fill="#2196F3"/>
<path d="M39.5835 85.4167H18.7502C16.446 85.4167 14.5835 83.55 14.5835 81.25V66.1C14.5835 63.8 16.446 61.9333 18.7502 61.9333H39.5835C41.8877 61.9333 43.7502 63.8 43.7502 66.1V81.25C43.7502 83.55 41.8877 85.4167 39.5835 85.4167ZM22.9168 77.0833H35.4168V70.2667H22.9168V77.0833Z" fill="#2196F3"/>
</g>
<defs>
<clipPath id="clip0_48_648">
<rect width="100" height="100" fill="white"/>
</clipPath>
</defs>
</svg>
