<svg width="100" height="100" viewBox="0 0 100 100" fill="none" xmlns="http://www.w3.org/2000/svg">
<g clip-path="url(#clip0_48_650)">
<path d="M96.6086 49.8994C96.6629 77.4484 74.1979 99.9783 46.6486 100C33.2697 100.011 21.1156 94.765 12.1363 86.2174C11.6459 85.7504 11.6393 84.9693 12.118 84.4906L15.3 81.3086C15.7627 80.8459 16.5084 80.8375 16.9834 81.2877C24.866 88.7559 35.5695 93.2758 47.3285 93.0838C71.0135 92.6971 90.0303 73.0607 89.6934 49.375C89.359 25.8664 70.1965 6.91074 46.6084 6.91074C34.7607 6.91074 24.0311 11.6934 16.2426 19.4311L18.4941 21.6826C19.1535 22.342 18.8482 23.468 17.9463 23.7041L4.90586 27.1195C4.0127 27.3535 3.19825 26.5391 3.43223 25.6459L6.84766 12.6055C7.08379 11.7035 8.20996 11.3984 8.86914 12.0576L11.3564 14.5449C20.3973 5.55684 32.8525 0 46.6086 0C74.1889 0 96.5541 22.3318 96.6086 49.8994Z" fill="#62D8F9"/>
<path d="M89.7189 24.6637C90.3689 27.6541 90.7144 30.758 90.7144 33.9432C90.7144 37.6553 90.2482 41.2584 89.3732 44.6981C89.5865 46.4358 89.6982 48.2047 89.6982 50C89.6982 73.7967 70.4056 93.0895 46.6087 93.0895C35.1343 93.0895 24.707 88.6039 16.9859 81.2897C16.5099 80.8389 15.7634 80.8453 15.2998 81.3088L12.1181 84.4907C11.6392 84.9696 11.6459 85.7506 12.1365 86.2174C21.107 94.7567 33.2457 100 46.6087 100C74.2406 100 96.539 77.7606 96.6086 50.1287C96.632 40.8332 94.1158 32.1285 89.7189 24.6637Z" fill="#00BEF7"/>
<path d="M46.6087 82.5204C64.5692 82.5204 79.129 67.9605 79.129 50C79.129 32.0396 64.5692 17.4797 46.6087 17.4797C28.6482 17.4797 14.0884 32.0396 14.0884 50C14.0884 67.9605 28.6482 82.5204 46.6087 82.5204Z" fill="#C56E37"/>
<path d="M63.6055 22.2714C66.6437 27.2175 68.3971 33.038 68.3971 39.2682C68.3971 57.2288 53.8373 71.7886 35.8768 71.7886C29.6463 71.7886 23.826 70.0352 18.8799 66.9969C24.6002 76.3091 34.8785 82.5204 46.6086 82.5204C64.5691 82.5204 79.1289 67.9606 79.1289 50.0001C79.1289 38.27 72.9176 27.9917 63.6055 22.2714Z" fill="#A95E2C"/>
<path d="M46.6089 76.4229C61.2018 76.4229 73.0317 64.5929 73.0317 50C73.0317 35.4071 61.2018 23.5771 46.6089 23.5771C32.016 23.5771 20.186 35.4071 20.186 50C20.186 64.5929 32.016 76.4229 46.6089 76.4229Z" fill="#EFF3F5"/>
<path d="M46.6086 31.4743C47.4422 31.4743 48.1176 30.7987 48.1176 29.9653V28.6586C48.1176 27.825 47.442 27.1497 46.6086 27.1497C45.7752 27.1497 45.0996 27.8252 45.0996 28.6586V29.9653C45.0996 30.7987 45.7752 31.4743 46.6086 31.4743Z" fill="#595959"/>
<path d="M48.118 48.0864V36.5854C48.118 35.7518 47.4424 35.0764 46.609 35.0764C45.7756 35.0764 45.1 35.752 45.1 36.5854V48.0862C44.6213 48.4643 44.2893 49.0174 44.1981 49.6495L35.9975 54.384C35.2758 54.8008 35.0283 55.7237 35.4451 56.4454C35.7246 56.9295 36.2318 57.2001 36.7533 57.2001C37.0094 57.2001 37.269 57.1348 37.5065 56.9977L45.7055 52.2639C45.9852 52.3756 46.2895 52.4387 46.609 52.4387C47.9561 52.4387 49.0481 51.3467 49.0481 49.9997C49.0479 49.2233 48.6836 48.5331 48.118 48.0864Z" fill="#595959"/>
<path d="M35.2845 33.404C35.5642 33.8882 36.0712 34.1587 36.5927 34.1587C36.8487 34.1587 37.1083 34.0935 37.3458 33.9563C38.0675 33.5395 38.3149 32.6167 37.8982 31.895L37.2448 30.7634C36.828 30.0417 35.9048 29.7944 35.1835 30.211C34.4618 30.6278 34.2144 31.5507 34.6312 32.2724L35.2845 33.404Z" fill="#595959"/>
<path d="M30.0126 38.6759L28.881 38.0226C28.1587 37.6058 27.236 37.853 26.8196 38.5749C26.4028 39.2966 26.6503 40.2196 27.372 40.6362L28.5036 41.2895C28.7413 41.4267 29.0007 41.4919 29.2567 41.4919C29.7782 41.4919 30.2856 41.2214 30.5649 40.7372C30.9815 40.0155 30.7343 39.0927 30.0126 38.6759Z" fill="#595959"/>
<path d="M28.0829 50.0001C28.0829 49.1665 27.4073 48.4911 26.5739 48.4911H25.2673C24.4337 48.4911 23.7583 49.1667 23.7583 50.0001C23.7583 50.8335 24.4339 51.5091 25.2673 51.5091H26.5739C27.4075 51.5091 28.0829 50.8337 28.0829 50.0001Z" fill="#595959"/>
<path d="M28.5036 58.7106L27.372 59.3639C26.6503 59.7807 26.4028 60.7036 26.8196 61.4252C27.0993 61.9094 27.6064 62.1799 28.1278 62.1799C28.3839 62.1799 28.6435 62.1147 28.881 61.9776L30.0126 61.3243C30.7343 60.9075 30.9817 59.9846 30.5649 59.2629C30.1482 58.5411 29.2249 58.294 28.5036 58.7106Z" fill="#595959"/>
<path d="M37.3458 66.0438C36.6237 65.627 35.7009 65.8743 35.2845 66.5961L34.6312 67.7278C34.2144 68.4495 34.4618 69.3725 35.1835 69.7891C35.4212 69.9262 35.6806 69.9915 35.9366 69.9915C36.4581 69.9915 36.9655 69.7209 37.2448 69.2368L37.8982 68.1051C38.3149 67.3834 38.0675 66.4606 37.3458 66.0438Z" fill="#595959"/>
<path d="M46.6086 68.5259C45.775 68.5259 45.0996 69.2015 45.0996 70.0349V71.3415C45.0996 72.1751 45.7752 72.8505 46.6086 72.8505C47.442 72.8505 48.1176 72.1749 48.1176 71.3415V70.0349C48.1178 69.2015 47.4422 68.5259 46.6086 68.5259Z" fill="#595959"/>
<path d="M57.9328 66.5962C57.5158 65.8743 56.593 65.6272 55.8715 66.0438C55.1498 66.4606 54.9023 67.3835 55.3191 68.1052L55.9725 69.2368C56.2522 69.721 56.7592 69.9915 57.2807 69.9915C57.5367 69.9915 57.7963 69.9263 58.0338 69.7891C58.7555 69.3723 59.0029 68.4495 58.5861 67.7278L57.9328 66.5962Z" fill="#595959"/>
<path d="M65.8456 59.3639L64.714 58.7105C63.9919 58.2937 63.069 58.541 62.6526 59.2629C62.2358 59.9846 62.4833 60.9076 63.205 61.3242L64.3366 61.9775C64.5743 62.1147 64.8337 62.1799 65.0898 62.1799C65.6112 62.1799 66.1187 61.9094 66.398 61.4252C66.8147 60.7035 66.5675 59.7805 65.8456 59.3639Z" fill="#595959"/>
<path d="M67.9502 48.4911H66.6437C65.8102 48.4911 65.1348 49.1667 65.1348 50.0001C65.1348 50.8335 65.8103 51.5091 66.6437 51.5091H67.9502C68.7838 51.5091 69.4592 50.8335 69.4592 50.0001C69.4592 49.1667 68.7838 48.4911 67.9502 48.4911Z" fill="#595959"/>
<path d="M63.9608 41.492C64.2169 41.492 64.4765 41.4268 64.714 41.2897L65.8456 40.6363C66.5673 40.2195 66.8148 39.2967 66.398 38.575C65.9812 37.8533 65.0579 37.6061 64.3366 38.0227L63.205 38.676C62.4833 39.0928 62.2358 40.0156 62.6526 40.7373C62.9321 41.2213 63.4392 41.492 63.9608 41.492Z" fill="#595959"/>
<path d="M58.0338 30.211C57.3117 29.7942 56.3889 30.0412 55.9725 30.7633L55.3191 31.8949C54.9023 32.6166 55.1498 33.5397 55.8715 33.9563C56.1092 34.0934 56.3686 34.1586 56.6246 34.1586C57.1461 34.1586 57.6535 33.8881 57.9328 33.4039L58.5861 32.2723C59.0029 31.5506 58.7557 30.6278 58.0338 30.211Z" fill="#595959"/>
</g>
<defs>
<clipPath id="clip0_48_650">
<rect width="100" height="100" fill="white"/>
</clipPath>
</defs>
</svg>
