<svg width="100" height="100" viewBox="0 0 100 100" fill="none" xmlns="http://www.w3.org/2000/svg">
<path d="M68.75 58.9187C64.7177 59.0493 60.7552 57.8437 57.4788 55.4896C54.2023 53.1355 51.7956 49.7648 50.6328 45.9015L48.4375 38.6062L62.5 32.3562L68.75 58.9187Z" fill="#79BD9A"/>
<path d="M89.75 82.8125H86.4531C84.9928 82.81 83.5791 82.2984 82.4554 81.3658C81.3318 80.4332 80.5684 79.1379 80.2969 77.7031L74.8125 48.0156C74.6451 47.114 74.6782 46.1866 74.9094 45.2992C75.1406 44.4118 75.5643 43.5862 76.1503 42.8808C76.7363 42.1755 77.4704 41.6078 78.3004 41.2179C79.1305 40.8281 80.0361 40.6256 80.9531 40.625H86.8125L89.75 82.8125Z" fill="#A8DBA8"/>
<path d="M90.625 95.3125H83.0157C79.8636 95.3117 76.8071 94.2302 74.356 92.2483C71.9049 90.2664 70.2075 87.504 69.5469 84.4219C69.422 83.8575 69.3591 83.2812 69.3594 82.7031C69.3597 82.1998 69.4068 81.6977 69.5 81.2031L69.9688 78.6562C70.1835 77.5084 70.1511 76.3279 69.8736 75.1936C69.596 74.0593 69.0799 72.9972 68.3594 72.0781L65.125 67.9844C64.1974 66.8007 63.6122 65.3852 63.4332 63.892C63.2541 62.3988 63.488 60.8851 64.1094 59.5156C64.5892 58.4549 64.8395 57.3048 64.8438 56.1406C64.8463 54.1365 64.1123 52.2014 62.7813 50.7031C60.4073 48.0035 59.0967 44.5324 59.0938 40.9375C59.0917 40.0358 59.1754 39.1359 59.3438 38.25L60.9375 29.6875L85.9375 28.125L86.2969 33.1875L72.4844 37.5C71.6038 37.7668 70.7922 38.2228 70.1063 38.8361C69.4204 39.4494 68.8769 40.2053 68.5137 41.0507C68.1506 41.8961 67.9766 42.8106 68.0039 43.7303C68.0312 44.65 68.2592 45.5526 68.6719 46.375C68.7017 46.4056 68.7232 46.4432 68.7344 46.4844C70.5936 50.0342 71.6799 53.9376 71.9219 57.9375V63.1562C71.8934 64.3339 72.256 65.4879 72.9532 66.4375C73.9315 67.6731 75.2224 68.6246 76.6923 69.1933C78.1621 69.762 79.7573 69.9273 81.3125 69.6719L88.75 68.4688L90.625 95.3125Z" fill="#CFF09E"/>
<path d="M85.9375 28.125L35.9375 43.75L28.125 6.25H35.7344C36.4891 9.62295 37.935 12.8028 39.9808 15.5886C42.0266 18.3745 44.6279 20.7059 47.6203 22.4355C50.6127 24.1652 53.9313 25.2556 57.3664 25.6378C60.8016 26.0201 64.2787 25.6858 67.5781 24.6562L84.1562 19.4844C85.3327 22.2131 85.9389 25.1535 85.9375 28.125Z" fill="#CFF09E"/>
<path d="M39.0625 45.3125L31.25 50L18.75 4.6875H28.125L39.0625 45.3125Z" fill="#A8DBA8"/>
<path d="M63.4035 15.8288L45.066 19.7288C43.3781 20.0878 42.3008 21.7471 42.6598 23.435C43.0188 25.123 44.6781 26.2003 46.366 25.8413L64.7035 21.9413C66.3914 21.5823 67.4688 19.923 67.1098 18.235C66.7508 16.5471 65.0914 15.4698 63.4035 15.8288Z" fill="#A8DBA8"/>
<path d="M87.5 28.0156V28.0047C87.4625 21.8113 84.9773 15.8841 80.5866 11.516C76.1959 7.14779 70.256 4.69316 64.0625 4.6875H29.7438L29.6344 4.28125C29.545 3.94933 29.3487 3.65615 29.0758 3.44712C28.803 3.23808 28.4688 3.12487 28.125 3.125H18.75C18.5094 3.12499 18.272 3.18058 18.0563 3.28741C17.8407 3.39425 17.6527 3.54945 17.5069 3.74091C17.3611 3.93238 17.2615 4.15493 17.2158 4.39122C17.1702 4.62751 17.1798 4.87114 17.2438 5.10313L29.7438 50.4156C29.808 50.6478 29.9251 50.862 30.0858 51.0414C30.2466 51.2208 30.4466 51.3607 30.6704 51.45C30.8544 51.5251 31.0513 51.5633 31.25 51.5625C31.5336 51.5624 31.8117 51.4852 32.0547 51.3391L39.8672 46.6516C40.1584 46.4768 40.3847 46.2118 40.5119 45.8969C40.639 45.582 40.6601 45.2342 40.5719 44.9062L40.3313 44.0141L47.736 41.7L49.1422 46.3531C50.0863 49.4889 51.7923 52.342 54.108 54.6577C56.4236 56.9733 59.2768 58.6794 62.4125 59.6234C61.8495 61.1767 61.6915 62.8478 61.9534 64.479C62.2153 66.1103 62.8885 67.6479 63.9094 68.9469L67.1297 73.0438C67.7135 73.7872 68.1323 74.6465 68.3581 75.5644C68.5838 76.4823 68.6115 77.4378 68.4391 78.3672L67.9704 80.9125C67.734 82.181 67.752 83.4838 68.0235 84.7453C68.7721 88.1702 70.6652 91.2378 73.3907 93.4427C76.1162 95.6476 79.5116 96.8582 83.0172 96.875H90.625C90.8398 96.8755 91.0523 96.8318 91.2494 96.7465C91.4464 96.6612 91.6238 96.5363 91.7704 96.3794C91.9171 96.2225 92.0298 96.0371 92.1015 95.8347C92.1733 95.6323 92.2026 95.4173 92.1875 95.2031L87.5 28.0156ZM88.0782 81.25H86.4532C85.358 81.2473 84.2978 80.8635 83.4548 80.1644C82.6117 79.4653 82.0383 78.4945 81.8329 77.4187L76.3485 47.7313C76.2228 47.055 76.2476 46.3595 76.4209 45.6939C76.5942 45.0283 76.9118 44.409 77.3512 43.8799C77.7907 43.3509 78.3412 42.925 78.9637 42.6325C79.5862 42.34 80.2654 42.1881 80.9532 42.1875H85.3516L88.0782 81.25ZM32.2094 47.6016L20.8016 6.25H26.9266L37.2469 44.5797L32.2094 47.6016ZM30.5844 7.8125H64.0625C69.2509 7.81799 74.2408 9.8065 78.0109 13.3709C81.781 16.9354 84.046 21.8061 84.3422 26.9859L39.5188 40.9938L30.5844 7.8125ZM52.1297 45.4516L50.7235 40.7641L57.736 38.5766C57.3809 40.921 57.5445 43.3148 58.2154 45.5891C58.8863 47.8634 60.0481 49.9627 61.6188 51.7391C62.1955 52.3995 62.6361 53.1675 62.9152 53.9987C63.1944 54.8299 63.3066 55.7081 63.2454 56.5828C60.62 55.7847 58.2321 54.3512 56.2932 52.4096C54.3543 50.4679 52.9242 48.078 52.1297 45.4516ZM83.0172 93.75C80.2239 93.7385 77.5179 92.7753 75.3456 91.0193C73.1732 89.2634 71.6641 86.8195 71.0672 84.0906C70.8824 83.2323 70.8707 82.3457 71.0329 81.4828L71.5016 78.9375C71.7548 77.5714 71.7139 76.1671 71.3817 74.8181C71.0495 73.4691 70.4336 72.2063 69.575 71.1141L66.3563 67.0172C65.6021 66.0615 65.1257 64.9165 64.9793 63.7079C64.833 62.4993 65.0223 61.2737 65.5266 60.1656C66.3003 58.4506 66.5635 56.5489 66.2847 54.6882C66.006 52.8275 65.197 51.0865 63.9547 49.6734C62.6255 48.1739 61.6573 46.39 61.1243 44.4583C60.5912 42.5267 60.5076 40.4987 60.8797 38.5297L61.0641 37.5328L84.5157 30.2063L85.1407 39.0625H80.9532C79.8073 39.0639 78.6758 39.3173 77.6388 39.8049C76.6018 40.2924 75.6848 41.0021 74.9527 41.8836C74.2206 42.7651 73.6914 43.7968 73.4025 44.9057C73.1137 46.0145 73.0723 47.1734 73.2813 48.3L78.7672 77.9953C79.108 79.7859 80.0615 81.4019 81.464 82.566C82.8665 83.7302 84.6305 84.3698 86.4532 84.375H88.2953L88.95 93.75H83.0172Z" fill="#3B8686"/>
<path d="M66.6158 14.9516C66.1008 14.6135 65.5235 14.3815 64.9176 14.2694C64.3118 14.1572 63.6897 14.1671 63.0877 14.2985L44.7487 18.2047C44.1385 18.3244 43.5582 18.5643 43.0416 18.9105C42.525 19.2566 42.0824 19.7021 41.7397 20.2209C41.397 20.7398 41.1609 21.3216 41.0452 21.9326C40.9295 22.5436 40.9366 23.1715 41.0659 23.7797C41.1953 24.3879 41.4444 24.9644 41.7987 25.4754C42.153 25.9864 42.6054 26.4218 43.1296 26.7563C43.6539 27.0908 44.2394 27.3176 44.8521 27.4235C45.4649 27.5295 46.0926 27.5125 46.6987 27.3735L65.0377 23.4672C65.9444 23.2743 66.7734 22.8169 67.4202 22.1529C68.0669 21.4888 68.5022 20.648 68.6711 19.7365C68.84 18.8251 68.7349 17.8841 68.3691 17.0324C68.0033 16.1807 67.3931 15.4566 66.6158 14.9516ZM65.3659 19.7329C65.2546 19.9056 65.1102 20.0545 64.941 20.1709C64.7717 20.2873 64.581 20.3689 64.3799 20.411L46.0408 24.3172C45.6384 24.3962 45.2211 24.3137 44.8789 24.0877C44.5367 23.8616 44.2971 23.5101 44.2118 23.109C44.1265 22.7079 44.2023 22.2893 44.4229 21.9435C44.6435 21.5978 44.9911 21.3527 45.3908 21.261L63.7299 17.3547C63.9307 17.3119 64.138 17.309 64.3399 17.3462C64.5418 17.3835 64.7344 17.4602 64.9066 17.5719C65.0788 17.6837 65.2274 17.8282 65.3437 17.9974C65.4601 18.1666 65.5419 18.357 65.5846 18.5579C65.6726 18.962 65.5967 19.3846 65.3737 19.7329H65.3659Z" fill="#3B8686"/>
<path d="M15.2985 37.5469C15.5921 37.5466 15.8797 37.4637 16.1283 37.3075C16.3769 37.1514 16.5765 36.9283 16.7042 36.664C16.8319 36.3996 16.8825 36.1046 16.8503 35.8128C16.818 35.521 16.7042 35.2442 16.5219 35.0141C14.8781 32.931 13.6963 30.522 13.0548 27.9472C12.4134 25.3723 12.3271 22.6905 12.8016 20.0797C12.8458 19.8752 12.8485 19.6639 12.8095 19.4583C12.7705 19.2527 12.6906 19.057 12.5746 18.8829C12.4585 18.7088 12.3087 18.5598 12.1339 18.4447C11.9592 18.3296 11.7631 18.2507 11.5573 18.2128C11.3516 18.175 11.1403 18.1788 10.936 18.2241C10.7317 18.2694 10.5386 18.3553 10.3682 18.4767C10.1977 18.598 10.0534 18.7524 9.94369 18.9306C9.83402 19.1088 9.76126 19.3072 9.72973 19.5141C9.17312 22.5625 9.27248 25.6946 10.0212 28.7016C10.7699 31.7086 12.1508 34.5216 14.0719 36.9531C14.2183 37.1383 14.4046 37.2879 14.6171 37.3908C14.8295 37.4936 15.0625 37.547 15.2985 37.5469Z" fill="#3B8686"/>
<path d="M10.3299 41.3594C10.6235 41.3602 10.9113 41.2784 11.1605 41.1231C11.4097 40.9679 11.6101 40.7456 11.7387 40.4818C11.8674 40.2179 11.9191 39.9231 11.888 39.6312C11.8569 39.3393 11.7441 39.0621 11.5627 38.8313C8.10319 34.4478 6.2306 29.0217 6.25021 23.4375C6.24371 21.9429 6.38133 20.4511 6.66115 18.9829C6.7257 18.5819 6.6316 18.1716 6.39879 17.8388C6.16598 17.506 5.81276 17.277 5.41396 17.2002C5.01517 17.1234 4.60214 17.2049 4.26241 17.4274C3.92267 17.6499 3.68292 17.996 3.59396 18.3922C3.2794 20.0555 3.12246 21.7448 3.12521 23.4375C3.10077 29.7215 5.20703 35.8282 9.10021 40.761C9.24639 40.9474 9.43307 41.0982 9.6461 41.2019C9.85914 41.3056 10.093 41.3594 10.3299 41.3594Z" fill="#3B8686"/>
<path d="M20.2359 33.7188C20.5298 33.7184 20.8176 33.6352 21.0663 33.4787C21.315 33.3221 21.5146 33.0986 21.642 32.8338C21.7694 32.569 21.8196 32.2736 21.7867 31.9816C21.7539 31.6896 21.6393 31.4127 21.4563 31.1829C19.7067 28.9801 18.753 26.2506 18.75 23.4375C18.751 22.6839 18.8163 21.9317 18.9453 21.1891C18.9803 20.9869 18.9751 20.7798 18.93 20.5796C18.885 20.3793 18.8009 20.19 18.6827 20.0222C18.5644 19.8545 18.4143 19.7117 18.2409 19.602C18.0674 19.4923 17.8741 19.4178 17.6719 19.3829C17.4697 19.3479 17.2625 19.3531 17.0623 19.3981C16.8621 19.4432 16.6727 19.5272 16.505 19.6455C16.3373 19.7637 16.1945 19.9139 16.0848 20.0873C15.9751 20.2607 15.9006 20.4541 15.8656 20.6563C15.7067 21.5749 15.6262 22.5053 15.625 23.4375C15.6305 26.9561 16.8242 30.3698 19.0125 33.1251C19.1585 33.3098 19.3444 33.4592 19.5562 33.562C19.7681 33.6648 20.0004 33.7184 20.2359 33.7188Z" fill="#3B8686"/>
<path d="M54.6875 75H50V64.0625C50 63.6481 49.8354 63.2507 49.5424 62.9576C49.2493 62.6646 48.8519 62.5 48.4375 62.5C48.0231 62.5 47.6257 62.6646 47.3326 62.9576C47.0396 63.2507 46.875 63.6481 46.875 64.0625V75H43.75V64.0625C43.75 63.6481 43.5854 63.2507 43.2924 62.9576C42.9993 62.6646 42.6019 62.5 42.1875 62.5C41.7731 62.5 41.3757 62.6646 41.0826 62.9576C40.7896 63.2507 40.625 63.6481 40.625 64.0625V75H37.5V64.0625C37.5 63.6481 37.3354 63.2507 37.0424 62.9576C36.7493 62.6646 36.3519 62.5 35.9375 62.5C35.5231 62.5 35.1257 62.6646 34.8326 62.9576C34.5396 63.2507 34.375 63.6481 34.375 64.0625V75H31.25V64.0625C31.25 63.6481 31.0854 63.2507 30.7924 62.9576C30.4993 62.6646 30.1019 62.5 29.6875 62.5C29.2731 62.5 28.8757 62.6646 28.5826 62.9576C28.2896 63.2507 28.125 63.6481 28.125 64.0625V75H25V64.0625C25 63.6481 24.8354 63.2507 24.5424 62.9576C24.2493 62.6646 23.8519 62.5 23.4375 62.5C23.0231 62.5 22.6257 62.6646 22.3326 62.9576C22.0396 63.2507 21.875 63.6481 21.875 64.0625V75H18.75V64.0625C18.75 63.6481 18.5854 63.2507 18.2924 62.9576C17.9993 62.6646 17.6019 62.5 17.1875 62.5C16.7731 62.5 16.3757 62.6646 16.0826 62.9576C15.7896 63.2507 15.625 63.6481 15.625 64.0625V75H4.6875C4.2731 75 3.87567 75.1646 3.58265 75.4576C3.28962 75.7507 3.125 76.1481 3.125 76.5625C3.125 76.9769 3.28962 77.3743 3.58265 77.6674C3.87567 77.9604 4.2731 78.125 4.6875 78.125H9.375V89.0625C9.375 89.4769 9.53962 89.8743 9.83265 90.1674C10.1257 90.4604 10.5231 90.625 10.9375 90.625C11.3519 90.625 11.7493 90.4604 12.0424 90.1674C12.3354 89.8743 12.5 89.4769 12.5 89.0625V78.125H15.625V89.0625C15.625 89.4769 15.7896 89.8743 16.0826 90.1674C16.3757 90.4604 16.7731 90.625 17.1875 90.625C17.6019 90.625 17.9993 90.4604 18.2924 90.1674C18.5854 89.8743 18.75 89.4769 18.75 89.0625V78.125H34.375V89.0625C34.375 89.4769 34.5396 89.8743 34.8326 90.1674C35.1257 90.4604 35.5231 90.625 35.9375 90.625C36.3519 90.625 36.7493 90.4604 37.0424 90.1674C37.3354 89.8743 37.5 89.4769 37.5 89.0625V78.125H40.625V89.0625C40.625 89.4769 40.7896 89.8743 41.0826 90.1674C41.3757 90.4604 41.7731 90.625 42.1875 90.625C42.6019 90.625 42.9993 90.4604 43.2924 90.1674C43.5854 89.8743 43.75 89.4769 43.75 89.0625V78.125H54.6875C55.1019 78.125 55.4993 77.9604 55.7924 77.6674C56.0854 77.3743 56.25 76.9769 56.25 76.5625C56.25 76.1481 56.0854 75.7507 55.7924 75.4576C55.4993 75.1646 55.1019 75 54.6875 75Z" fill="#3B8686"/>
<path d="M48.4375 90.625C48.8519 90.625 49.2493 90.4604 49.5424 90.1674C49.8354 89.8743 50 89.4769 50 89.0625V82.8125C50 82.3981 49.8354 82.0007 49.5424 81.7076C49.2493 81.4146 48.8519 81.25 48.4375 81.25C48.0231 81.25 47.6257 81.4146 47.3326 81.7076C47.0396 82.0007 46.875 82.3981 46.875 82.8125V89.0625C46.875 89.4769 47.0396 89.8743 47.3326 90.1674C47.6257 90.4604 48.0231 90.625 48.4375 90.625Z" fill="#3B8686"/>
<path d="M23.4375 81.25C23.0231 81.25 22.6257 81.4146 22.3326 81.7076C22.0396 82.0007 21.875 82.3981 21.875 82.8125V89.0625C21.875 89.4769 22.0396 89.8743 22.3326 90.1674C22.6257 90.4604 23.0231 90.625 23.4375 90.625C23.8519 90.625 24.2493 90.4604 24.5424 90.1674C24.8354 89.8743 25 89.4769 25 89.0625V82.8125C25 82.3981 24.8354 82.0007 24.5424 81.7076C24.2493 81.4146 23.8519 81.25 23.4375 81.25Z" fill="#3B8686"/>
<path d="M29.6875 81.25C29.2731 81.25 28.8757 81.4146 28.5826 81.7076C28.2896 82.0007 28.125 82.3981 28.125 82.8125V89.0625C28.125 89.4769 28.2896 89.8743 28.5826 90.1674C28.8757 90.4604 29.2731 90.625 29.6875 90.625C30.1019 90.625 30.4993 90.4604 30.7924 90.1674C31.0854 89.8743 31.25 89.4769 31.25 89.0625V82.8125C31.25 82.3981 31.0854 82.0007 30.7924 81.7076C30.4993 81.4146 30.1019 81.25 29.6875 81.25Z" fill="#3B8686"/>
<path d="M10.9375 62.5C10.5231 62.5 10.1257 62.6646 9.83265 62.9576C9.53962 63.2507 9.375 63.6481 9.375 64.0625V70.3125C9.375 70.7269 9.53962 71.1243 9.83265 71.4174C10.1257 71.7104 10.5231 71.875 10.9375 71.875C11.3519 71.875 11.7493 71.7104 12.0424 71.4174C12.3354 71.1243 12.5 70.7269 12.5 70.3125V64.0625C12.5 63.6481 12.3354 63.2507 12.0424 62.9576C11.7493 62.6646 11.3519 62.5 10.9375 62.5Z" fill="#3B8686"/>
<path d="M4.6875 65.625C5.1019 65.625 5.49933 65.4604 5.79235 65.1674C6.08538 64.8743 6.25 64.4769 6.25 64.0625V59.375H10.9375C11.3519 59.375 11.7493 59.2104 12.0424 58.9174C12.3354 58.6243 12.5 58.2269 12.5 57.8125C12.5 57.3981 12.3354 57.0007 12.0424 56.7076C11.7493 56.4146 11.3519 56.25 10.9375 56.25H4.6875C4.2731 56.25 3.87567 56.4146 3.58265 56.7076C3.28962 57.0007 3.125 57.3981 3.125 57.8125V64.0625C3.125 64.4769 3.28962 64.8743 3.58265 65.1674C3.87567 65.4604 4.2731 65.625 4.6875 65.625Z" fill="#3B8686"/>
<path d="M10.9375 93.75H6.25V89.0625C6.25 88.6481 6.08538 88.2507 5.79235 87.9576C5.49933 87.6646 5.1019 87.5 4.6875 87.5C4.2731 87.5 3.87567 87.6646 3.58265 87.9576C3.28962 88.2507 3.125 88.6481 3.125 89.0625V95.3125C3.125 95.7269 3.28962 96.1243 3.58265 96.4174C3.87567 96.7104 4.2731 96.875 4.6875 96.875H10.9375C11.3519 96.875 11.7493 96.7104 12.0424 96.4174C12.3354 96.1243 12.5 95.7269 12.5 95.3125C12.5 94.8981 12.3354 94.5007 12.0424 94.2076C11.7493 93.9146 11.3519 93.75 10.9375 93.75Z" fill="#3B8686"/>
<path d="M54.6875 56.25H48.4375C48.0231 56.25 47.6257 56.4146 47.3326 56.7076C47.0396 57.0007 46.875 57.3981 46.875 57.8125C46.875 58.2269 47.0396 58.6243 47.3326 58.9174C47.6257 59.2104 48.0231 59.375 48.4375 59.375H53.125V64.0625C53.125 64.4769 53.2896 64.8743 53.5826 65.1674C53.8757 65.4604 54.2731 65.625 54.6875 65.625C55.1019 65.625 55.4993 65.4604 55.7924 65.1674C56.0854 64.8743 56.25 64.4769 56.25 64.0625V57.8125C56.25 57.3981 56.0854 57.0007 55.7924 56.7076C55.4993 56.4146 55.1019 56.25 54.6875 56.25Z" fill="#3B8686"/>
<path d="M54.6875 87.5C54.2731 87.5 53.8757 87.6646 53.5826 87.9576C53.2896 88.2507 53.125 88.6481 53.125 89.0625V93.75H48.4375C48.0231 93.75 47.6257 93.9146 47.3326 94.2076C47.0396 94.5007 46.875 94.8981 46.875 95.3125C46.875 95.7269 47.0396 96.1243 47.3326 96.4174C47.6257 96.7104 48.0231 96.875 48.4375 96.875H54.6875C55.1019 96.875 55.4993 96.7104 55.7924 96.4174C56.0854 96.1243 56.25 95.7269 56.25 95.3125V89.0625C56.25 88.6481 56.0854 88.2507 55.7924 87.9576C55.4993 87.6646 55.1019 87.5 54.6875 87.5Z" fill="#3B8686"/>
</svg>
