<svg xmlns="http://www.w3.org/2000/svg" width="41" height="40" viewBox="0 0 41 40">
  <g fill="#FFF" transform="translate(.629)">
    <path d="M0.496,10.1161254 L19.6484848,18.7835897 C19.8706667,18.8841026 20.1295758,18.8841026 20.3517576,18.7835897 L39.5042424,10.1160114 C40.1164848,9.83920228 40.1164848,9.01960114 39.5042424,8.74267806 L20.3515152,0.0754415954 C20.1294545,-0.0250712251 19.8705455,-0.0250712251 19.6483636,0.0754415954 L0.496,8.74279202 C-0.116242424,9.0197151 -0.116242424,9.83920228 0.496,10.1161254 Z"/>
    <path d="M0.496,20.6295157 L19.6484848,29.297094 C19.8706667,29.3976068 20.1295758,29.3976068 20.3517576,29.297094 L39.5042424,20.6296296 C40.1164848,20.3528205 40.1164848,19.5332194 39.5042424,19.2560684 L35.4635152,17.4276923 L22.6294545,23.2353276 C21.8141818,23.6041026 20.9048485,23.7989744 20.0001212,23.7989744 C19.0953939,23.7989744 18.186303,23.6041026 17.3695758,23.2347578 L4.5369697,17.4272365 L0.495878788,19.2559544 C-0.116242424,19.5332194 -0.116242424,20.3527066 0.496,20.6295157 Z"/>
    <path d="M39.5042424,29.7696866 L35.4635152,27.9409687 L22.6294545,33.7489459 C21.8141818,34.1177208 20.9048485,34.3125926 20.0001212,34.3125926 C19.0953939,34.3125926 18.186303,34.1177208 17.3695758,33.7483761 L4.5369697,27.9409687 L0.495878788,29.7698006 C-0.116363636,30.0469516 -0.116363636,30.8662108 0.495878788,31.1433618 L19.6483636,39.8108262 C19.8705455,39.911339 20.1294545,39.911339 20.3516364,39.8108262 L39.5041212,31.1433618 C40.1164848,30.8660969 40.1164848,30.0467236 39.5042424,29.7696866 Z"/>
  </g>
</svg>
