<svg xmlns="http://www.w3.org/2000/svg" width="47" height="47" viewBox="0 0 47 47">
  <defs>
    <filter id="diaspora-a" width="160%" height="160%" x="-30%" y="-30%" filterUnits="objectBoundingBox">
      <feOffset dy="2" in="SourceAlpha" result="shadowOffsetOuter1"/>
      <feGaussianBlur in="shadowOffsetOuter1" result="shadowBlurOuter1" stdDeviation="2"/>
      <feColorMatrix in="shadowBlurOuter1" result="shadowMatrixOuter1" values="0 0 0 0 0   0 0 0 0 0   0 0 0 0 0  0 0 0 0.5 0"/>
      <feMerge>
        <feMergeNode in="shadowMatrixOuter1"/>
        <feMergeNode in="SourceGraphic"/>
      </feMerge>
    </filter>
  </defs>
  <g fill="#FFF" filter="url(#diaspora-a)" transform="translate(3 2)">
    <path d="M25.6574359,36.4933333 L21.8305641,31.0666667 C20.8098462,29.6166667 19.9811282,28.4883333 19.9368205,28.4883333 C19.8925128,28.4883333 18.2859487,30.6783333 16.1362051,33.6766667 C14.0882051,36.5333333 12.3946667,38.8666667 12.3700513,38.8666667 C12.3158974,38.8666667 4.98871795,33.6266667 4.96902564,33.5716667 C4.95917949,33.545 6.61825641,31.075 8.64820513,28.0833333 C10.6830769,25.0916667 12.3470769,22.6 12.3470769,22.54 C12.3470769,22.4483333 11.6775385,22.2183333 6.50994872,20.465 L0.615384615,18.4666667 C0.566153846,18.4366667 0.871384615,17.4 1.91671795,14.05 C2.67158974,11.64 3.30174359,9.65 3.31979487,9.625 C3.34276923,9.59833333 6.12594872,10.4983333 9.50974359,11.6333333 C12.8951795,12.7666667 15.6882051,13.69 15.7259487,13.69 C15.7620513,13.69 15.8014359,13.64 15.8129231,13.5733333 C15.8293333,13.5233333 15.8621538,10.5966667 15.8785641,7.07333333 C15.9113846,3.57333333 15.9442051,0.673333333 15.9606154,0.623333333 C15.9934359,0.573333333 16.9452308,0.573333333 20.4406154,0.573333333 C22.8758974,0.573333333 24.8927179,0.598333333 24.9255385,0.623333333 C24.9665641,0.65 25.0322051,2.6 25.1487179,6.92333333 C25.3292308,14.0483333 25.3292308,14.1483333 25.4441026,14.1483333 C25.4851282,14.1483333 28.1682051,13.2483333 31.4010256,12.115 C34.6387692,11.015 37.2955897,10.115 37.3169231,10.1383333 C37.3661538,10.2116667 40.0246154,18.9883333 40.0001699,19.0133333 C39.9721026,19.04 37.2644103,19.9883333 33.9938462,21.1133333 C29.4646154,22.6633333 28.0090256,23.1883333 28.0090256,23.2633333 C27.9860513,23.3133333 29.5351795,25.6883333 31.5306667,28.6133333 C33.473641,31.5133333 35.0473846,33.8883333 35.0473846,33.9133333 C35.0227692,33.99 27.7612308,39.4166667 27.6906667,39.4166667 C27.6660513,39.4166667 26.7306667,38.14 25.6475897,36.5916667 L25.6557949,36.48 L25.6574359,36.4933333 Z"/>
  </g>
</svg>
