<svg xmlns="http://www.w3.org/2000/svg" width="35" height="22" viewBox="0 0 35 22">
  <g fill="#FFF">
    <rect width="16" height="2"/>
    <path d="M13.506489,14.0556989 L15.1318414,14.0556989 L15.1318414,4.94654014 L1.37779154,4.94654014 L1.37779154,14.0552298 L2.82468638,14.0552298 L4.05216045,19.2499414 L0,19.2499414 L0,21.3127199 L16.4209385,21.3127199 L16.4209385,19.2499414 L12.3531051,19.2499414 L13.506489,14.0556989 Z M4.14797894,7.29220597 L12.4482112,7.29220597 L12.4482112,11.6462309 L4.14797894,11.6462309 L4.14797894,7.29220597 Z M10.0313768,19.2504105 L6.3738888,19.2504105 L5.14605854,14.0556989 L11.1851169,14.0556989 L10.0313768,19.2504105 Z M22.5668577,12.9316558 L21.3589747,13.2431603 L21.3589747,10.7084337 L23,10.7084337 L23,8.43923657 L22.3392442,8.43923657 L22.564008,3.62733766 L22.8564503,3.62733766 L22.8564503,1.7977183 L21.1847917,1.7977183 L21.1847917,0 L19.7959579,0 L19.7959579,1.7977183 L18.1392597,1.7977183 L18.1392597,3.62733766 L18.4220845,3.62733766 L18.6472046,8.43923657 L17.7691653,8.43923657 L17.7691653,10.7084337 L19.6356667,10.7084337 L19.6356667,13.5673313 L18.0576893,13.9097985 L18.0576893,16.1226997 L19.6139383,15.7525536 C19.4561406,18.0062693 18.4487997,21.0556349 18.4381136,21.0889433 L20.016091,22 C20.0698776,21.8376799 21.317299,18.0630344 21.3568375,15.3256424 L22.5665014,15.0788783 L22.5665014,12.9316558 L22.5668577,12.9316558 Z M20.9472045,8.43923657 L20.038888,8.43923657 L19.813768,3.62733766 L21.1716122,3.62733766 L20.9472045,8.43923657 Z"/>
    <path d="M29.5663749,13.8593243 L29.5671009,1.92420235 L29.9776935,1.79704828 L28.819975,0 L23.3366948,1.61077461 L23.3366948,15.2552039 C23.3366948,16.9448046 22.3717478,20.12741 22,21.2112694 L23.3762656,22 C23.4358033,21.8259256 24.8414748,17.703037 24.8414748,15.2552039 L24.8414748,3.17228288 L25.6481385,2.94096571 L25.6481385,19.113931 L24.5336211,19.1176847 L24.5336211,21.4003583 L24.5485056,21.573025 L28.1298456,21.0615936 L28.1298456,19.1040778 L27.1540076,19.1078314 L27.1540076,2.50836034 L28.061958,2.24748336 L28.061958,13.8048968 C28.051793,14.2018427 27.9661167,18.873699 29.4189827,21.854547 C29.9442943,21.6682733 30.471058,21.498891 31,21.3403003 L30.7930701,21.0160809 C29.4505668,18.5330575 29.5645597,13.9048371 29.5663749,13.8593243 Z"/>
    <path d="M35,10.8394923 L35,8.54252289 L34.2545706,8.54252289 L34.4745496,3.81799344 L34.9085887,3.81799344 L34.9085887,1.7171473 L33.1757202,1.7171473 L33.1757202,0 L31.8124425,0 L31.8124425,1.7171473 L30.0795739,1.7171473 L30.0795739,3.81799344 L30.4702091,3.81799344 L30.7815994,8.54252289 L30,8.54252289 L30,10.8394923 L31.7045903,10.8394923 L31.7045903,13.6293818 L30.2561489,13.6293818 L30.2561489,15.9287256 L31.7045903,15.9287256 L31.7045903,22 L33.2954098,22 L33.2954098,15.9287256 L34.74418,15.9287256 L34.74418,13.6293818 L33.2954098,13.6293818 L33.2954098,10.8394923 L35,10.8394923 Z M32.8817572,8.54299774 L32.1540839,8.54299774 L31.8436802,3.81846832 L33.102065,3.81846832 L32.8817572,8.54299774 Z"/>
  </g>
</svg>
