<?xml version="1.0" encoding="utf-8"?>
<!-- Generator: Adobe Illustrator 23.0.1, SVG Export Plug-In . SVG Version: 6.00 Build 0)  -->
<svg version="1.1" id="Layer_1" xmlns="http://www.w3.org/2000/svg" xmlns:xlink="http://www.w3.org/1999/xlink" x="0px" y="0px"
	 viewBox="0 0 73 35" style="enable-background:new 0 0 73 35;" xml:space="preserve">
<style type="text/css">
	.st0{fill:#AFAEAE;}
	.st1{fill:#CE2E2E;}
</style>
<g>
	<g>
		<path class="st0" d="M-241.3,383.8c0.3-0.1,0.6-0.2,1-0.2h3V377h-4V383.8z M-236.3,383.7h4V377h-4V383.7z M-256.3,412h1v-35h-1
			V412z M-247.3,412h2v-35h-2V412z M-254.3,412h2v-35h-2V412z M-250.3,412h2v-35h-2V412z M-214.3,384.2c0.5-0.3,1.1-0.5,1.7-0.5h4.1
			c0.1,0,0.1,0,0.2,0V377h-6V384.2z M-207.3,383.9c0.6,0.3,1.1,0.7,1.4,1.3l0.2,0.3c0.1-0.2,0.2-0.4,0.4-0.6V377h-2V383.9z
			 M-244.3,412h2v-7.4c-0.6-0.5-1-1.3-1-2.2v-15.7c0-0.9,0.4-1.7,1-2.2V377h-2V412z M-204.3,384c0.4-0.2,0.9-0.4,1.4-0.4h2.6V377h-4
			V384z M-222.3,383.7h1V377h-1V383.7z M-228.3,384.8c0.4,0.5,0.7,1.2,0.7,1.9v0.9l0.5-1.7c0.4-1.3,1.5-2.1,2.9-2.1h0.9V377h-5
			V384.8z M-231.3,383.7h0.7c0.5,0,0.9,0.1,1.3,0.3v-7h-2V383.7z M-219.3,383.7c0.4,0,0.7,0.1,1,0.3V377h-1V383.7z M-206,403.8
			l-0.4-0.8c-0.1,0.6-0.4,1.1-0.9,1.5v7.5h2v-7.4C-205.6,404.4-205.8,404.1-206,403.8z M-204.3,405.2v6.8h4v-6.7h-3.1
			C-203.7,405.3-204,405.3-204.3,405.2z M-193.3,412h1v-35h-1V412z M-198.3,384c1,0.5,1.7,1.5,1.7,2.7v15.7c0,1.2-0.7,2.2-1.7,2.7v7
			h3v-35h-3V384z M-185.3,377v35h2v-35H-185.3z M-187.3,412h1v-35h-1V412z M-191.3,412h1v-35h-1V412z M-212.6,405.3
			c-0.4,0-0.7-0.1-1-0.2c-0.2,0.1-0.4,0.1-0.6,0.2v6.7h6v-6.9c-0.3,0.1-0.7,0.2-1.1,0.2H-212.6z M-230.3,405.3h-1v6.7h2v-6.7
			c-0.1,0-0.2,0-0.4,0C-229.9,405.3-230.1,405.3-230.3,405.3z M-228.3,405.3v6.7h5v-7.5c-0.5,0.5-1.3,0.8-2,0.8H-228.3z M-236.3,412
			h4v-6.7h-4V412z M-241.3,405.2v6.8h4v-6.7h-3C-240.7,405.3-241,405.3-241.3,405.2z M-219.3,405.2v6.8h1v-6.7h-0.2
			C-218.8,405.3-219.1,405.3-219.3,405.2z M-222,401.4l-0.3,1.2v9.4h1v-8.5c0-0.1-0.1-0.2-0.1-0.2L-222,401.4z"/>
	</g>
</g>
<g>
	<text transform="matrix(1 0 0 1 -241.7495 402.1855)" class="st1" style="font-family:'MyriadPro-Bold'; font-size:23.0581px;">EAN</text>
</g>
<g>
	<g>
		<g>
			<path class="st0" d="M0,35h1V0H0V35z M12,35h2v-7.4c-0.6-0.5-1-1.3-1-2.2V9.7c0-0.9,0.4-1.7,1-2.2V0h-2V35z M20,6.7h4V0h-4V6.7z
				 M15,6.8c0.3-0.1,0.6-0.2,1-0.2h3V0h-4V6.8z M52,7c0.4-0.2,0.9-0.4,1.4-0.4H56V0h-4V7z M6,35h2V0H6V35z M2,35h2V0H2V35z M9,35h2
				V0H9V35z M42,7.2c0.5-0.3,1.1-0.5,1.7-0.5h4.1c0.1,0,0.1,0,0.2,0V0h-6V7.2z M37,6.7c0.4,0,0.7,0.1,1,0.3V0h-1V6.7z M25,6.7h0.7
				c0.5,0,0.9,0.1,1.3,0.3V0h-2V6.7z M49,6.9c0.6,0.3,1.1,0.7,1.4,1.3l0.2,0.3c0.1-0.2,0.2-0.4,0.4-0.6V0h-2V6.9z M34,6.7h1V0h-1
				V6.7z M28,7.8c0.4,0.5,0.7,1.2,0.7,1.9v0.9l0.5-1.7c0.4-1.3,1.5-2.1,2.9-2.1H33V0h-5V7.8z M43.7,28.3c-0.4,0-0.7-0.1-1-0.2
				c-0.2,0.1-0.4,0.1-0.6,0.2V35h6v-6.9c-0.3,0.1-0.7,0.2-1.1,0.2H43.7z M63,35h1V0h-1V35z M58,7c1,0.5,1.7,1.5,1.7,2.7v15.7
				c0,1.2-0.7,2.2-1.7,2.7v7h3V0h-3V7z M65,35h1V0h-1V35z M69,35h1V0h-1V35z M52,28.2V35h4v-6.7h-3.1C52.6,28.3,52.3,28.3,52,28.2z
				 M71,0v35h2V0H71z M26,28.3h-1V35h2v-6.7c-0.1,0-0.2,0-0.4,0C26.4,28.3,26.2,28.3,26,28.3z M28,28.3V35h5v-7.5
				c-0.5,0.5-1.3,0.8-2,0.8H28z M15,28.2V35h4v-6.7h-3C15.6,28.3,15.3,28.3,15,28.2z M20,35h4v-6.7h-4V35z M34.3,24.4L34,25.6V35h1
				v-8.5c0-0.1-0.1-0.2-0.1-0.2L34.3,24.4z M50.3,26.8L49.9,26c-0.1,0.6-0.4,1.1-0.9,1.5V35h2v-7.4C50.7,27.4,50.5,27.1,50.3,26.8z
				 M37,28.2V35h1v-6.7h-0.2C37.5,28.3,37.2,28.3,37,28.2z"/>
		</g>
	</g>
	<g>
		<g>
			<path class="st1" d="M25.4,18.6h-5.7v3.7H26v2.9h-9.9V9.6h9.6v2.9h-6.1v3.2h5.7V18.6z"/>
			<path class="st1" d="M32,21.2l-1.1,4h-3.6L32,9.6h4.6l4.8,15.5h-3.8l-1.2-4H32z M36,18.6l-1-3.3c-0.3-0.9-0.5-2.1-0.8-3h-0.1
				c-0.2,0.9-0.5,2.1-0.7,3l-0.9,3.3H36z"/>
			<path class="st1" d="M43.5,25.2V9.6h4.1l3.2,5.7c0.9,1.6,1.8,3.6,2.5,5.3h0c-0.2-2.1-0.3-4.2-0.3-6.5V9.6h3.2v15.5h-3.7l-3.3-6
				c-0.9-1.7-2-3.7-2.7-5.5h-0.1c0.1,2.1,0.2,4.3,0.2,6.8v4.7H43.5z"/>
		</g>
	</g>
</g>
</svg>
