<svg width="80" height="80" viewBox="0 0 80 80" fill="none" xmlns="http://www.w3.org/2000/svg">
<rect width="80" height="80" rx="26" fill="white"/>
<path d="M31.2702 61.6667H24.9535C23.3953 61.665 21.9014 61.0453 20.7995 59.9436C19.6975 58.842 19.0774 57.3483 19.0752 55.7901V41.0517C19.0774 39.4935 19.6975 37.9998 20.7995 36.8981C21.9014 35.7965 23.3953 35.1768 24.9535 35.1751H30.0002C30.2182 35.1747 30.434 35.2178 30.6352 35.3017C30.8364 35.2178 31.0522 35.1747 31.2702 35.1751C31.7122 35.1751 32.1361 35.3506 32.4487 35.6632C32.7613 35.9758 32.9369 36.3997 32.9369 36.8417V60.0001C32.9369 60.4421 32.7613 60.866 32.4487 61.1786C32.1361 61.4911 31.7122 61.6667 31.2702 61.6667ZM24.9535 38.5084C24.2791 38.5093 23.6325 38.7775 23.1555 39.2542C22.6785 39.7309 22.4099 40.3773 22.4085 41.0517V55.7901C22.4099 56.4645 22.6785 57.1109 23.1555 57.5876C23.6325 58.0643 24.2791 58.3325 24.9535 58.3334H29.6035V38.5084H24.9535Z" fill="#00A651"/>
<path d="M50.0135 61.6666H36.6669C36.2248 61.6666 35.8009 61.491 35.4883 61.1785C35.1758 60.8659 35.0002 60.442 35.0002 60C35.0002 59.5579 35.1758 59.134 35.4883 58.8215C35.8009 58.5089 36.2248 58.3333 36.6669 58.3333H50.0135C50.5917 58.3366 51.1537 58.142 51.606 57.7818C52.0584 57.4217 52.3739 56.9176 52.5002 56.3533L55.8485 41.6166C55.9331 41.2442 55.9327 40.8575 55.8474 40.4852C55.7622 40.1129 55.5942 39.7646 55.356 39.4661C55.1178 39.1675 54.8155 38.9264 54.4715 38.7606C54.1274 38.5948 53.7504 38.5086 53.3685 38.5083H42.8485C42.5932 38.5084 42.3413 38.4498 42.1123 38.3371C41.8832 38.2245 41.6831 38.0607 41.5274 37.8584C41.3716 37.6561 41.2644 37.4208 41.2141 37.1705C41.1637 36.9202 41.1715 36.6617 41.2369 36.415L44.2885 24.9266C44.4614 24.2976 44.3909 23.6266 44.091 23.0473C43.7912 22.468 43.284 22.023 42.6707 21.8009C42.0573 21.5789 41.3828 21.5961 40.7816 21.8493C40.1804 22.1024 39.6967 22.5728 39.4269 23.1666L32.9369 37.205V60C32.9369 60.442 32.7613 60.8659 32.4487 61.1785C32.1361 61.491 31.7122 61.6666 31.2702 61.6666C30.8282 61.6666 30.4042 61.491 30.0917 61.1785C29.7791 60.8659 29.6035 60.442 29.6035 60V36.8416C29.6031 36.6005 29.6554 36.3621 29.7569 36.1433L36.4035 21.7716C37.0249 20.4238 38.1294 19.3582 39.4986 18.7855C40.8678 18.2128 42.4021 18.1746 43.7981 18.6785C45.194 19.1825 46.3501 20.1918 47.0378 21.5071C47.7255 22.8223 47.8946 24.3477 47.5119 25.7816L45.0119 35.175H53.3585C54.241 35.1751 55.1122 35.3739 55.9073 35.7566C56.7025 36.1394 57.4013 36.6963 57.9518 37.3859C58.5024 38.0756 58.8906 38.8804 59.0877 39.7406C59.2847 40.6008 59.2856 41.4944 59.0902 42.355L55.7402 57.0916C55.45 58.3927 54.724 59.5555 53.6825 60.3876C52.641 61.2196 51.3465 61.6709 50.0135 61.6666V61.6666Z" fill="#00A651"/>
</svg>
