<svg width="80" height="80" viewBox="0 0 80 80" fill="none" xmlns="http://www.w3.org/2000/svg">
<rect width="80" height="80" rx="26" fill="#00A651"/>
<g clip-path="url(#clip0_102_658)">
<path d="M62.824 51.504L49.2331 56.2724C49.0343 56.342 48.825 56.3767 48.6143 56.3748H48.4026C48.6743 55.4079 48.5496 54.3726 48.0563 53.4978L47.9868 53.372C47.1847 51.9585 45.6893 51.0802 44.064 51.0682H40.2247C38.9009 51.059 37.6223 50.5855 36.6117 49.7304C35.2793 48.6137 33.5977 47.9988 31.8593 47.9924H31.4088C31.1851 47.9924 26.629 48.034 23.6887 50.5413C23.358 50.0589 22.8108 49.7704 22.2259 49.7698H15.1163C14.1352 49.7709 13.34 50.5659 13.3389 51.5472V63.9891C13.34 64.9702 14.1351 65.7654 15.1163 65.7665H22.2259C22.7564 65.7646 23.2579 65.5244 23.592 65.1123C25.2018 66.2122 27.1279 66.7541 29.0751 66.6553H48.3774C49.4963 66.6513 50.5912 66.3308 51.5356 65.7306L65.2948 56.9126C65.9797 56.4615 66.452 55.7516 66.6036 54.9455C66.7637 54.1133 66.5786 53.2518 66.0907 52.5588C65.3534 51.5253 64.0263 51.0968 62.824 51.504ZM22.2258 63.9891H15.1163V51.5473H22.2259V63.9891H22.2258ZM64.8582 54.6101C64.8009 54.9401 64.6109 55.2321 64.3323 55.418L50.5826 64.2299C49.9233 64.6495 49.1589 64.874 48.3774 64.8778H29.0751C25.6774 64.8778 24.3547 63.5417 24.0032 63.0877V52.777C26.1738 49.8171 31.3567 49.7699 31.4087 49.7699H31.8592C33.1813 49.7759 34.4594 50.2447 35.4721 51.0947C36.8025 52.2167 38.4843 52.8363 40.2246 52.8457H44.064C45.0481 52.8475 45.9546 53.3802 46.4351 54.239L46.5046 54.3648C46.8557 54.9932 46.8387 55.7626 46.4599 56.3748H42.0854C40.591 56.3791 39.1343 56.844 37.9136 57.7061L37.3807 58.0802C37.1208 58.2625 36.9781 58.5695 37.006 58.8857C37.034 59.2019 37.2285 59.4791 37.5163 59.613C37.8041 59.7468 38.1415 59.717 38.4013 59.5346L38.9324 59.1623C39.8546 58.5095 40.9555 58.1568 42.0854 58.1521H48.6144C49.0294 58.1541 49.4417 58.0842 49.8329 57.9456L63.4038 53.1841C63.8624 53.0283 64.3686 53.1952 64.6449 53.5929C64.851 53.889 64.9281 54.2561 64.8582 54.6101Z" fill="white"/>
<path d="M17.7825 61.3229C18.0177 61.3193 18.2429 61.2273 18.4135 61.0652C18.4919 60.9787 18.555 60.8795 18.6001 60.7718C18.6456 60.6649 18.6698 60.5503 18.6712 60.4341C18.6678 60.1989 18.5757 59.9736 18.4135 59.8031C18.0571 59.4741 17.5078 59.4741 17.1516 59.8031C16.8953 60.0574 16.8182 60.4414 16.9566 60.7749C17.095 61.1084 17.4214 61.325 17.7825 61.3229Z" fill="white"/>
<path d="M50.6641 23.9977C52.1365 23.9977 53.3302 22.804 53.3302 21.3316C53.3302 19.8592 52.1366 18.6655 50.6641 18.6655C49.1916 18.6655 47.998 19.8591 47.998 21.3316C47.9997 22.8034 49.1924 23.9962 50.6641 23.9977ZM50.6641 20.443C51.155 20.443 51.5528 20.8408 51.5528 21.3316C51.5528 21.8225 51.155 22.2203 50.6641 22.2203C50.1733 22.2203 49.7755 21.8225 49.7755 21.3316C49.776 20.841 50.1735 20.4434 50.6641 20.443Z" fill="white"/>
<path d="M47.1095 39.9941H54.2191C54.4548 39.9942 54.6809 39.9006 54.8476 39.7339C55.0142 39.5673 55.1079 39.3412 55.1079 39.1054V35.5506C55.108 35.3149 55.0143 35.0888 54.8476 34.9221C54.681 34.7555 54.4549 34.6618 54.2191 34.6618H53.3304V26.6637C53.3305 26.428 53.2369 26.2019 53.0702 26.0352C52.9035 25.8685 52.6774 25.7749 52.4417 25.7749H47.1095C46.8738 25.7748 46.6477 25.8684 46.481 26.0352C46.3143 26.2018 46.2207 26.4279 46.2207 26.6637V30.2184C46.2206 30.4541 46.3142 30.6802 46.481 30.8469C46.6476 31.0136 46.8737 31.1072 47.1095 31.1072H47.9981V34.662H47.1095C46.8738 34.6618 46.6477 34.7555 46.481 34.9222C46.3143 35.0888 46.2207 35.3149 46.2207 35.5507V39.1055C46.2206 39.3412 46.3142 39.5673 46.481 39.734C46.6477 39.9006 46.8738 39.9942 47.1095 39.9941ZM47.9981 36.4394H48.8868C49.1225 36.4395 49.3486 36.3459 49.5153 36.1791C49.6819 36.0125 49.7756 35.7864 49.7756 35.5506V30.2184C49.7757 29.9827 49.682 29.7567 49.5153 29.5899C49.3487 29.4233 49.1226 29.3297 48.8868 29.3297H47.9981V27.5522H51.5529V35.5505C51.5528 35.7862 51.6464 36.0123 51.8131 36.179C51.9798 36.3457 52.2059 36.4393 52.4417 36.4393H53.3303V38.2167H47.9981V36.4394V36.4394Z" fill="white"/>
<path d="M40.8888 41.9859V47.1038C40.8888 47.4447 41.0838 47.7555 41.3907 47.9038C41.6976 48.0523 42.0623 48.0119 42.3294 47.8002L46.2383 44.7041C52.247 46.4336 58.7126 44.5041 62.7905 39.7641C66.8683 35.0242 67.811 28.343 65.2037 22.6599C62.5965 16.9768 56.9172 13.3337 50.6645 13.3333C43.8208 13.3316 37.7345 17.6847 35.5246 24.1619C33.3148 30.6389 35.4712 37.8043 40.8888 41.9859ZM38.0166 22.8677C41.198 16.6442 48.4322 13.6578 55.0773 15.8245C61.7225 17.9912 65.8057 24.6681 64.707 31.5706C63.6083 38.4731 57.654 43.5523 50.6645 43.5489C49.1916 43.5513 47.7273 43.323 46.3251 42.872C46.0423 42.7816 45.7331 42.8375 45.4998 43.0214L42.6662 45.2661V41.5407C42.6663 41.2559 42.5298 40.9884 42.2991 40.8213C36.6512 36.704 34.8352 29.0911 38.0166 22.8677Z" fill="white"/>
</g>
<defs>
<clipPath id="clip0_102_658">
<rect width="53.3333" height="53.3333" fill="white" transform="translate(13.333 13.3333)"/>
</clipPath>
</defs>
</svg>
