<svg width="80" height="80" viewBox="0 0 80 80" fill="none" xmlns="http://www.w3.org/2000/svg">
<rect width="80" height="80" rx="26" fill="white"/>
<g clip-path="url(#clip0_102_93)">
<path d="M61.966 16.6666H18.0337C17.2786 16.6666 16.6665 17.2788 16.6665 18.0338V55.0243C16.6665 55.7794 17.2786 56.3915 18.0337 56.3915H33.1639V60.5989H32.3655C30.5515 60.6712 30.5528 63.2617 32.3655 63.3333H47.6342C49.4482 63.261 49.4468 60.6705 47.6342 60.5989H46.8358V56.3915H61.966C62.721 56.3915 63.3332 55.7794 63.3332 55.0243V18.0338C63.3332 17.2788 62.721 16.6666 61.966 16.6666ZM19.4009 19.401H60.5988V45.9787H19.4009V19.401ZM44.1014 60.5989H35.8983V56.3915H44.1014V60.5989ZM60.5988 53.6572H45.4686H34.5311H19.4009V48.713H60.5988V53.6572Z" fill="#00A651"/>
<path d="M53.1671 24.7559H44.8522C43.0382 24.8281 43.0395 27.4187 44.8522 27.4902H53.1671C54.9811 27.418 54.9797 24.8274 53.1671 24.7559V24.7559Z" fill="#00A651"/>
<path d="M53.1671 31.3226H44.8522C43.0382 31.3949 43.0395 33.9855 44.8522 34.057H53.1671C54.9811 33.9847 54.9797 31.3942 53.1671 31.3226V31.3226Z" fill="#00A651"/>
<path d="M53.1671 37.8895H44.8522C43.0382 37.9618 43.0395 40.5524 44.8522 40.6239H53.1671C54.9811 40.5516 54.9797 37.9611 53.1671 37.8895V37.8895Z" fill="#00A651"/>
<path d="M35.6378 32.5877C38.2718 29.5735 36.0757 24.7395 32.0353 24.7558C27.9952 24.7394 25.7987 29.5742 28.4329 32.5877C26.6472 33.7623 25.4653 35.7829 25.4653 38.0753V39.2566C25.4653 40.0117 26.0775 40.6238 26.8325 40.6238H37.2382C37.9932 40.6238 38.6054 40.0117 38.6054 39.2566V38.0753C38.6055 35.7829 37.4235 33.7623 35.6378 32.5877V32.5877ZM32.0354 27.4902C33.1472 27.4902 34.0516 28.3919 34.0516 29.5001C33.941 32.1667 30.1294 32.1658 30.0191 29.5001C30.0192 28.3919 30.9236 27.4902 32.0354 27.4902V27.4902ZM28.2042 37.8894C28.3014 35.8631 29.9805 34.2445 32.0305 34.2445H32.0401C34.0902 34.2445 35.7693 35.8631 35.8665 37.8894H28.2042Z" fill="#00A651"/>
</g>
<defs>
<clipPath id="clip0_102_93">
<rect width="46.6667" height="46.6667" fill="white" transform="translate(16.6665 16.6666)"/>
</clipPath>
</defs>
</svg>
