<svg width="80" height="80" viewBox="0 0 80 80" fill="none" xmlns="http://www.w3.org/2000/svg">
<rect width="80" height="80" rx="26" fill="#00A651"/>
<g clip-path="url(#clip0_1_482)">
<path d="M26.9565 33.4783H21.7391C21.0191 33.4783 20.4347 34.0627 20.4347 34.7827V45.2174C20.4347 45.9374 21.0191 46.5218 21.7391 46.5218C22.4591 46.5218 23.0435 45.9374 23.0435 45.2174V36.0869H26.9565C27.6765 36.0869 28.2609 35.5025 28.2609 34.7825C28.2609 34.0625 27.6765 33.4783 26.9565 33.4783Z" fill="white"/>
<path d="M24.3477 38.6957H21.7391C21.0191 38.6957 20.4347 39.2801 20.4347 40.0001C20.4347 40.7201 21.0191 41.3043 21.7391 41.3043H24.3477C25.0677 41.3043 25.6521 40.7199 25.6521 39.9999C25.6521 39.2799 25.0677 38.6957 24.3477 38.6957Z" fill="white"/>
<path d="M39.9999 10C23.4583 10 10 23.4583 10 39.9999C10 56.5416 23.4583 69.9999 39.9999 69.9999C56.5416 69.9999 69.9999 56.5416 69.9999 39.9999C69.9999 23.4583 56.5417 10 39.9999 10ZM39.9999 67.3912C24.8956 67.3912 12.6087 55.1043 12.6087 39.9999C12.6087 24.8956 24.8956 12.6087 39.9999 12.6087C55.1043 12.6087 67.3912 24.8956 67.3912 39.9999C67.3912 55.1043 55.1043 67.3912 39.9999 67.3912Z" fill="white"/>
<path d="M57.293 26.14C53.0539 20.8574 46.7513 17.8261 40 17.8261C33.2486 17.8261 26.9461 20.8574 22.7069 26.14C22.2556 26.7009 22.3443 27.5226 22.9078 27.9738C23.4687 28.4252 24.2905 28.3364 24.7391 27.7729C28.4825 23.1086 34.0443 20.4346 40 20.4346C45.9556 20.4346 51.5174 23.1086 55.2583 27.7729C55.5165 28.0938 55.8947 28.2607 56.2757 28.2607C56.5652 28.2607 56.8522 28.1668 57.0921 27.9737C57.6556 27.5226 57.7444 26.7009 57.293 26.14Z" fill="white"/>
<path d="M56.0278 53.4009C55.5113 52.9079 54.6817 52.9288 54.1861 53.4504C50.4426 57.3922 45.4052 59.5652 40 59.5652C34.5947 59.5652 29.5574 57.3921 25.8165 53.4504C25.3235 52.9235 24.4939 52.9079 23.9748 53.4009C23.4479 53.8965 23.4296 54.7235 23.9253 55.2453C28.1645 59.714 33.8723 62.1739 40.0001 62.1739C46.1279 62.1739 51.8357 59.714 56.0774 55.2453C56.573 54.7235 56.5521 53.8965 56.0278 53.4009Z" fill="white"/>
<path d="M35.2887 41.2705C37.2086 41.0226 38.6956 39.3766 38.6956 37.3913C38.6956 35.2339 36.94 33.4783 34.7825 33.4783H32.1739C31.4539 33.4783 30.8695 34.0627 30.8695 34.7827V39.9896C30.8695 39.9948 30.8695 40.0027 30.8695 40.0078V45.2174C30.8695 45.9374 31.4539 46.5218 32.1739 46.5218C32.8939 46.5218 33.4783 45.9374 33.4783 45.2174V43.1487L36.4678 46.1409C36.7235 46.3939 37.0574 46.5218 37.3913 46.5218C37.7253 46.5218 38.0591 46.394 38.3122 46.1383C38.8209 45.6296 38.8209 44.8026 38.3122 44.2939L35.2887 41.2705ZM33.4783 38.6957V36.087H34.7827C35.5001 36.087 36.0871 36.6714 36.0871 37.3914C36.0871 38.1114 35.5001 38.6958 34.7827 38.6958H33.4783V38.6957Z" fill="white"/>
<path d="M47.826 43.913H43.913V36.0869H47.826C48.546 36.0869 49.1304 35.5025 49.1304 34.7825C49.1304 34.0625 48.546 33.4783 47.826 33.4783H42.6086C41.8886 33.4783 41.3042 34.0627 41.3042 34.7827V45.2174C41.3042 45.9374 41.8886 46.5218 42.6086 46.5218H47.826C48.546 46.5218 49.1304 45.9374 49.1304 45.2174C49.1304 44.4974 48.546 43.913 47.826 43.913Z" fill="white"/>
<path d="M45.2174 38.6957H42.6087C41.8887 38.6957 41.3043 39.2801 41.3043 40.0001C41.3043 40.7201 41.8887 41.3043 42.6087 41.3043H45.2174C45.9374 41.3043 46.5217 40.7199 46.5217 39.9999C46.5217 39.2799 45.9374 38.6957 45.2174 38.6957Z" fill="white"/>
<path d="M58.2608 43.913H54.3478V36.0869H58.2608C58.9808 36.0869 59.5652 35.5025 59.5652 34.7825C59.5652 34.0625 58.9808 33.4783 58.2608 33.4783H53.0434C52.3234 33.4783 51.739 34.0627 51.739 34.7827V45.2174C51.739 45.9374 52.3234 46.5218 53.0434 46.5218H58.2608C58.9808 46.5218 59.5652 45.9374 59.5652 45.2174C59.5652 44.4974 58.9808 43.913 58.2608 43.913Z" fill="white"/>
<path d="M55.6521 38.6957H53.0434C52.3234 38.6957 51.739 39.2801 51.739 40.0001C51.739 40.7201 52.3234 41.3043 53.0434 41.3043H55.6521C56.3721 41.3043 56.9564 40.7199 56.9564 39.9999C56.9564 39.2799 56.3721 38.6957 55.6521 38.6957Z" fill="white"/>
</g>
<defs>
<clipPath id="clip0_1_482">
<rect width="60" height="60" fill="white" transform="translate(10 10)"/>
</clipPath>
</defs>
</svg>
