<svg width="80" height="80" viewBox="0 0 80 80" fill="none" xmlns="http://www.w3.org/2000/svg">
<rect width="80" height="80" rx="26" fill="#00A651"/>
<path d="M40.0148 64.3779C30.7448 64.3789 22.1967 59.067 18.1026 50.7064C13.9598 42.2436 15.2142 31.6892 21.2255 24.4432C27.2301 17.2048 36.9923 14.0464 46.0936 16.3967C47.0958 16.6554 47.6986 17.6782 47.4408 18.6814C47.182 19.6845 46.1583 20.2864 45.1561 20.0286C37.4573 18.0401 29.1942 20.712 24.112 26.8386C19.027 32.9689 17.9658 41.8986 21.4711 49.0592C24.9633 56.1917 32.6667 60.8379 40.5736 60.6223C48.4795 60.4067 55.6542 55.5982 58.852 48.3729C60.7298 44.1298 61.1273 39.3251 59.9695 34.8429C59.7108 33.8407 60.3136 32.8179 61.3167 32.5582C62.317 32.2986 63.3417 32.9023 63.6014 33.9054C64.9683 39.2014 64.5005 44.8789 62.2823 49.8907C58.5023 58.4314 50.0208 64.1154 40.6767 64.3704C40.4555 64.3751 40.2342 64.3779 40.0148 64.3779Z" fill="white"/>
<path d="M39.9998 45.8501C39.5198 45.8501 39.0398 45.6673 38.6741 45.3007C37.942 44.5685 37.942 43.3817 38.6741 42.6495L61.1741 20.1495C61.9054 19.4173 63.0941 19.4173 63.8254 20.1495C64.5576 20.8817 64.5576 22.0685 63.8254 22.8007L41.3254 45.3007C40.9598 45.6664 40.4798 45.8501 39.9998 45.8501V45.8501Z" fill="white"/>
<path d="M39.9999 45.85C39.5199 45.85 39.0399 45.6671 38.6742 45.3006L30.7196 37.3459C29.9874 36.6137 29.9874 35.4268 30.7196 34.6946C31.4508 33.9625 32.6396 33.9625 33.3708 34.6946L41.3255 42.6493C42.0577 43.3815 42.0577 44.5684 41.3255 45.3006C40.9599 45.6662 40.4799 45.85 39.9999 45.85V45.85Z" fill="white"/>
</svg>
