<svg width="80" height="80" viewBox="0 0 80 80" fill="none" xmlns="http://www.w3.org/2000/svg">
<rect width="80" height="80" rx="26" fill="#00A651"/>
<g clip-path="url(#clip0_102_296)">
<path d="M53.6776 26.457C53.9902 25.8293 54.167 25.1226 54.167 24.375C54.167 21.7903 52.0642 19.6875 49.4795 19.6875C46.8948 19.6875 44.792 21.7903 44.792 24.375C44.792 25.1226 44.9688 25.8293 45.2814 26.457C37.8268 28.3353 32.292 35.0955 32.292 43.125C32.292 52.6022 40.0023 60.3125 49.4795 60.3125C58.9567 60.3125 66.667 52.6022 66.667 43.125C66.667 35.0955 61.1322 28.3353 53.6776 26.457ZM47.917 24.375C47.917 23.5134 48.6179 22.8125 49.4795 22.8125C50.3411 22.8125 51.042 23.5134 51.042 24.375C51.042 25.2366 50.3411 25.9375 49.4795 25.9375C48.6179 25.9375 47.917 25.2366 47.917 24.375ZM51.042 57.1002V55.625C51.042 54.7621 50.3424 54.0625 49.4795 54.0625C48.6166 54.0625 47.917 54.7621 47.917 55.625V57.1002C41.4088 56.3774 36.2271 51.1957 35.5043 44.6875H36.9795C37.8424 44.6875 38.542 43.9879 38.542 43.125C38.542 42.2621 37.8424 41.5625 36.9795 41.5625H35.5043C36.2271 35.0543 41.4088 29.8726 47.917 29.1498V30.625C47.917 31.4879 48.6166 32.1875 49.4795 32.1875C50.3424 32.1875 51.042 31.4879 51.042 30.625V29.1498C57.5502 29.8726 62.7319 35.0544 63.4547 41.5625H61.9795C61.1166 41.5625 60.417 42.2621 60.417 43.125C60.417 43.9879 61.1166 44.6875 61.9795 44.6875H63.4547C62.7319 51.1957 57.5502 56.3774 51.042 57.1002V57.1002Z" fill="white"/>
<path d="M27.6043 25.9375H24.271C23.4081 25.9375 22.7085 26.6371 22.7085 27.5C22.7085 28.3629 23.4081 29.0625 24.271 29.0625H27.6043C28.4672 29.0625 29.1668 28.3629 29.1668 27.5C29.1668 26.6371 28.4672 25.9375 27.6043 25.9375Z" fill="white"/>
<path d="M27.6043 35.3125H21.146C20.2831 35.3125 19.5835 36.0121 19.5835 36.875C19.5835 37.7379 20.2831 38.4375 21.146 38.4375H27.6043C28.4672 38.4375 29.1668 37.7379 29.1668 36.875C29.1668 36.0121 28.4672 35.3125 27.6043 35.3125Z" fill="white"/>
<path d="M27.6043 44.6875H18.021C17.1581 44.6875 16.4585 45.3871 16.4585 46.25C16.4585 47.1129 17.1581 47.8125 18.021 47.8125H27.6043C28.4672 47.8125 29.1668 47.1129 29.1668 46.25C29.1668 45.3871 28.4672 44.6875 27.6043 44.6875Z" fill="white"/>
<path d="M27.6043 54.0625H14.896C14.0331 54.0625 13.3335 54.7621 13.3335 55.625C13.3335 56.4879 14.0331 57.1875 14.896 57.1875H27.6043C28.4672 57.1875 29.1668 56.4879 29.1668 55.625C29.1668 54.7621 28.4672 54.0625 27.6043 54.0625Z" fill="white"/>
<path d="M55.7295 41.5625H51.042V36.875C51.042 36.0121 50.3424 35.3125 49.4795 35.3125C48.6166 35.3125 47.917 36.0121 47.917 36.875V43.125C47.917 43.9879 48.6166 44.6875 49.4795 44.6875H55.7295C56.5924 44.6875 57.292 43.9879 57.292 43.125C57.292 42.2621 56.5924 41.5625 55.7295 41.5625Z" fill="white"/>
</g>
<defs>
<clipPath id="clip0_102_296">
<rect width="53.3333" height="53.3333" fill="white" transform="translate(13.3335 13.3334)"/>
</clipPath>
</defs>
</svg>
