<svg width="80" height="80" viewBox="0 0 80 80" fill="none" xmlns="http://www.w3.org/2000/svg">
<rect width="80" height="80" rx="26" fill="white"/>
<g clip-path="url(#clip0_102_787)">
<path d="M26.9564 33.4783H21.739C21.019 33.4783 20.4346 34.0627 20.4346 34.7827V45.2174C20.4346 45.9374 21.019 46.5218 21.739 46.5218C22.459 46.5218 23.0433 45.9374 23.0433 45.2174V36.0869H26.9564C27.6764 36.0869 28.2608 35.5025 28.2608 34.7825C28.2608 34.0625 27.6764 33.4783 26.9564 33.4783Z" fill="#00A651"/>
<path d="M24.3476 38.6957H21.739C21.019 38.6957 20.4346 39.2801 20.4346 40.0001C20.4346 40.7201 21.019 41.3043 21.739 41.3043H24.3476C25.0676 41.3043 25.652 40.7199 25.652 39.9999C25.652 39.2799 25.0676 38.6957 24.3476 38.6957Z" fill="#00A651"/>
<path d="M39.9999 10C23.4583 10 10 23.4583 10 39.9999C10 56.5416 23.4583 69.9999 39.9999 69.9999C56.5416 69.9999 69.9999 56.5416 69.9999 39.9999C69.9999 23.4583 56.5417 10 39.9999 10ZM39.9999 67.3912C24.8956 67.3912 12.6087 55.1043 12.6087 39.9999C12.6087 24.8956 24.8956 12.6087 39.9999 12.6087C55.1043 12.6087 67.3912 24.8956 67.3912 39.9999C67.3912 55.1043 55.1043 67.3912 39.9999 67.3912Z" fill="#00A651"/>
<path d="M57.2929 26.1399C53.0538 20.8573 46.7512 17.826 39.9998 17.826C33.2485 17.826 26.9459 20.8573 22.7068 26.1399C22.2554 26.7008 22.3442 27.5226 22.9077 27.9738C23.4686 28.4251 24.2903 28.3364 24.739 27.7729C28.4824 23.1085 34.0442 20.4346 39.9998 20.4346C45.9555 20.4346 51.5173 23.1085 55.2581 27.7729C55.5164 28.0937 55.8946 28.2607 56.2755 28.2607C56.5651 28.2607 56.8521 28.1667 57.092 27.9737C57.6555 27.5226 57.7443 26.7008 57.2929 26.1399Z" fill="#00A651"/>
<path d="M56.028 53.4008C55.5115 52.9078 54.6819 52.9287 54.1863 53.4504C50.4429 57.3921 45.4055 59.5651 40.0002 59.5651C34.595 59.5651 29.5576 57.392 25.8168 53.4504C25.3237 52.9234 24.4942 52.9078 23.9751 53.4008C23.4482 53.8964 23.4298 54.7234 23.9256 55.2452C28.1647 59.7139 33.8725 62.1739 40.0003 62.1739C46.1282 62.1739 51.8359 59.7139 56.0777 55.2452C56.5733 54.7234 56.5524 53.8964 56.028 53.4008Z" fill="#00A651"/>
<path d="M35.2883 41.2705C37.2083 41.0226 38.6952 39.3766 38.6952 37.3913C38.6952 35.2339 36.9396 33.4783 34.7822 33.4783H32.1735C31.4535 33.4783 30.8691 34.0627 30.8691 34.7827V39.9896C30.8691 39.9948 30.8691 40.0027 30.8691 40.0078V45.2174C30.8691 45.9374 31.4535 46.5218 32.1735 46.5218C32.8935 46.5218 33.4779 45.9374 33.4779 45.2174V43.1487L36.4675 46.1409C36.7232 46.3939 37.057 46.5218 37.391 46.5218C37.7249 46.5218 38.0587 46.394 38.3119 46.1383C38.8206 45.6296 38.8206 44.8026 38.3119 44.2939L35.2883 41.2705ZM33.4779 38.6957V36.087H34.7823C35.4997 36.087 36.0867 36.6714 36.0867 37.3914C36.0867 38.1114 35.4997 38.6958 34.7823 38.6958H33.4779V38.6957Z" fill="#00A651"/>
<path d="M47.8265 43.913H43.9135V36.0869H47.8265C48.5465 36.0869 49.1309 35.5025 49.1309 34.7825C49.1309 34.0625 48.5465 33.4783 47.8265 33.4783H42.6091C41.8891 33.4783 41.3047 34.0627 41.3047 34.7827V45.2174C41.3047 45.9374 41.8891 46.5218 42.6091 46.5218H47.8265C48.5465 46.5218 49.1309 45.9374 49.1309 45.2174C49.1309 44.4974 48.5465 43.913 47.8265 43.913Z" fill="#00A651"/>
<path d="M45.2177 38.6957H42.6091C41.8891 38.6957 41.3047 39.2801 41.3047 40.0001C41.3047 40.7201 41.8891 41.3043 42.6091 41.3043H45.2177C45.9377 41.3043 46.5221 40.7199 46.5221 39.9999C46.5221 39.2799 45.9377 38.6957 45.2177 38.6957Z" fill="#00A651"/>
<path d="M58.2611 43.913H54.348V36.0869H58.2611C58.9811 36.0869 59.5655 35.5025 59.5655 34.7825C59.5655 34.0625 58.9811 33.4783 58.2611 33.4783H53.0436C52.3236 33.4783 51.7393 34.0627 51.7393 34.7827V45.2174C51.7393 45.9374 52.3236 46.5218 53.0436 46.5218H58.2611C58.9811 46.5218 59.5655 45.9374 59.5655 45.2174C59.5655 44.4974 58.9811 43.913 58.2611 43.913Z" fill="#00A651"/>
<path d="M55.6523 38.6957H53.0436C52.3236 38.6957 51.7393 39.2801 51.7393 40.0001C51.7393 40.7201 52.3236 41.3043 53.0436 41.3043H55.6523C56.3723 41.3043 56.9567 40.7199 56.9567 39.9999C56.9567 39.2799 56.3723 38.6957 55.6523 38.6957Z" fill="#00A651"/>
</g>
<defs>
<clipPath id="clip0_102_787">
<rect width="60" height="60" fill="white" transform="translate(10 10)"/>
</clipPath>
</defs>
</svg>
