<svg width="80" height="80" viewBox="0 0 80 80" fill="none" xmlns="http://www.w3.org/2000/svg">
<rect width="80" height="80" rx="26" fill="#00A651"/>
<g clip-path="url(#clip0_102_647)">
<path d="M61.9665 16.6666H18.0342C17.2791 16.6666 16.667 17.2788 16.667 18.0338V55.0243C16.667 55.7794 17.2791 56.3915 18.0342 56.3915H33.1644V60.5989H32.366C30.552 60.6712 30.5533 63.2617 32.366 63.3333H47.6347C49.4487 63.261 49.4473 60.6705 47.6347 60.5989H46.8363V56.3915H61.9665C62.7215 56.3915 63.3337 55.7794 63.3337 55.0243V18.0338C63.3337 17.2788 62.7215 16.6666 61.9665 16.6666ZM19.4014 19.401H60.5993V45.9787H19.4014V19.401ZM44.1019 60.5989H35.8988V56.3915H44.1019V60.5989ZM60.5993 53.6572H45.4691H34.5316H19.4014V48.713H60.5993V53.6572Z" fill="white"/>
<path d="M53.1671 24.7559H44.8522C43.0382 24.8281 43.0395 27.4187 44.8522 27.4902H53.1671C54.9811 27.418 54.9797 24.8274 53.1671 24.7559V24.7559Z" fill="white"/>
<path d="M53.1671 31.3226H44.8522C43.0382 31.3949 43.0395 33.9855 44.8522 34.057H53.1671C54.9811 33.9847 54.9797 31.3942 53.1671 31.3226V31.3226Z" fill="white"/>
<path d="M53.1671 37.8895H44.8522C43.0382 37.9618 43.0395 40.5524 44.8522 40.6239H53.1671C54.9811 40.5516 54.9797 37.9611 53.1671 37.8895V37.8895Z" fill="white"/>
<path d="M35.6383 32.5877C38.2723 29.5735 36.0762 24.7395 32.0358 24.7558C27.9957 24.7394 25.7991 29.5742 28.4333 32.5877C26.6477 33.7623 25.4658 35.7829 25.4658 38.0753V39.2566C25.4658 40.0117 26.078 40.6238 26.833 40.6238H37.2387C37.9937 40.6238 38.6059 40.0117 38.6059 39.2566V38.0753C38.6059 35.7829 37.424 33.7623 35.6383 32.5877V32.5877ZM32.0359 27.4902C33.1477 27.4902 34.0521 28.3919 34.0521 29.5001C33.9415 32.1667 30.1298 32.1658 30.0196 29.5001C30.0196 28.3919 30.9241 27.4902 32.0359 27.4902V27.4902ZM28.2047 37.8894C28.3019 35.8631 29.981 34.2445 32.031 34.2445H32.0406C34.0907 34.2445 35.7698 35.8631 35.867 37.8894H28.2047Z" fill="white"/>
</g>
<defs>
<clipPath id="clip0_102_647">
<rect width="46.6667" height="46.6667" fill="white" transform="translate(16.667 16.6666)"/>
</clipPath>
</defs>
</svg>
