<svg width="80" height="80" viewBox="0 0 80 80" fill="none" xmlns="http://www.w3.org/2000/svg">
<rect width="80" height="80" rx="26" fill="white"/>
<g clip-path="url(#clip0_102_127)">
<path d="M62.8245 51.504L49.2336 56.2724C49.0348 56.342 48.8255 56.3767 48.6148 56.3748H48.4031C48.6748 55.4079 48.5501 54.3726 48.0568 53.4978L47.9873 53.372C47.1852 51.9585 45.6898 51.0802 44.0645 51.0682H40.2251C38.9014 51.059 37.6228 50.5855 36.6122 49.7304C35.2797 48.6137 33.5982 47.9988 31.8598 47.9924H31.4093C31.1856 47.9924 26.6295 48.034 23.6892 50.5413C23.3585 50.0589 22.8113 49.7704 22.2264 49.7698H15.1168C14.1356 49.7709 13.3405 50.5659 13.3394 51.5472V63.9891C13.3405 64.9702 14.1355 65.7654 15.1168 65.7665H22.2264C22.7569 65.7646 23.2584 65.5244 23.5925 65.1123C25.2023 66.2122 27.1284 66.7541 29.0756 66.6553H48.3779C49.4968 66.6513 50.5917 66.3308 51.536 65.7306L65.2953 56.9126C65.9802 56.4615 66.4525 55.7516 66.6041 54.9455C66.7642 54.1133 66.5791 53.2518 66.0911 52.5588C65.3539 51.5253 64.0268 51.0968 62.8245 51.504ZM22.2263 63.9891H15.1168V51.5473H22.2264V63.9891H22.2263ZM64.8587 54.6101C64.8014 54.9401 64.6114 55.2321 64.3328 55.418L50.5831 64.2299C49.9238 64.6495 49.1594 64.874 48.3779 64.8778H29.0756C25.6779 64.8778 24.3552 63.5417 24.0037 63.0877V52.777C26.1743 49.8171 31.3572 49.7699 31.4092 49.7699H31.8596C33.1818 49.7759 34.4599 50.2447 35.4726 51.0947C36.803 52.2167 38.4848 52.8363 40.225 52.8457H44.0645C45.0486 52.8475 45.9551 53.3802 46.4356 54.239L46.505 54.3648C46.8562 54.9932 46.8391 55.7626 46.4604 56.3748H42.0859C40.5915 56.3791 39.1348 56.844 37.9141 57.7061L37.3812 58.0802C37.1213 58.2625 36.9785 58.5695 37.0065 58.8857C37.0345 59.2019 37.229 59.4791 37.5168 59.613C37.8046 59.7468 38.1419 59.717 38.4018 59.5346L38.9329 59.1623C39.8551 58.5095 40.956 58.1568 42.0859 58.1521H48.6149C49.0299 58.1541 49.4422 58.0842 49.8334 57.9456L63.4043 53.1841C63.8629 53.0283 64.3691 53.1952 64.6454 53.5929C64.8515 53.889 64.9286 54.2561 64.8587 54.6101Z" fill="#00A651"/>
<path d="M17.783 61.3229C18.0182 61.3193 18.2434 61.2273 18.414 61.0652C18.4924 60.9787 18.5555 60.8795 18.6006 60.7718C18.6461 60.6649 18.6703 60.5503 18.6717 60.4341C18.6683 60.1989 18.5762 59.9736 18.414 59.8031C18.0576 59.4741 17.5083 59.4741 17.152 59.8031C16.8957 60.0574 16.8187 60.4414 16.9571 60.7749C17.0955 61.1084 17.4219 61.325 17.783 61.3229Z" fill="#00A651"/>
<path d="M50.6646 23.9977C52.137 23.9977 53.3307 22.804 53.3307 21.3316C53.3307 19.8592 52.1371 18.6655 50.6646 18.6655C49.1921 18.6655 47.9985 19.8591 47.9985 21.3316C48.0002 22.8034 49.1929 23.9962 50.6646 23.9977ZM50.6646 20.443C51.1555 20.443 51.5533 20.8408 51.5533 21.3316C51.5533 21.8225 51.1555 22.2203 50.6646 22.2203C50.1738 22.2203 49.776 21.8225 49.776 21.3316C49.7765 20.841 50.174 20.4434 50.6646 20.443Z" fill="#00A651"/>
<path d="M47.11 39.9941H54.2196C54.4553 39.9942 54.6814 39.9006 54.8481 39.7339C55.0147 39.5673 55.1083 39.3412 55.1083 39.1054V35.5506C55.1085 35.3149 55.0148 35.0888 54.8481 34.9221C54.6815 34.7555 54.4554 34.6618 54.2196 34.6618H53.3309V26.6637C53.331 26.428 53.2374 26.2019 53.0707 26.0352C52.904 25.8685 52.6779 25.7749 52.4421 25.7749H47.11C46.8743 25.7748 46.6482 25.8684 46.4815 26.0352C46.3148 26.2018 46.2212 26.4279 46.2212 26.6637V30.2184C46.2211 30.4541 46.3147 30.6802 46.4815 30.8469C46.6481 31.0136 46.8742 31.1072 47.11 31.1072H47.9986V34.662H47.11C46.8743 34.6618 46.6482 34.7555 46.4815 34.9222C46.3148 35.0888 46.2212 35.3149 46.2212 35.5507V39.1055C46.2211 39.3412 46.3147 39.5673 46.4815 39.734C46.6482 39.9006 46.8743 39.9942 47.11 39.9941ZM47.9986 36.4394H48.8873C49.123 36.4395 49.3491 36.3459 49.5158 36.1791C49.6824 36.0125 49.7761 35.7864 49.7761 35.5506V30.2184C49.7762 29.9827 49.6825 29.7567 49.5158 29.5899C49.3492 29.4233 49.1231 29.3297 48.8873 29.3297H47.9986V27.5522H51.5534V35.5505C51.5533 35.7862 51.6469 36.0123 51.8136 36.179C51.9803 36.3457 52.2064 36.4393 52.4421 36.4393H53.3308V38.2167H47.9986V36.4394V36.4394Z" fill="#00A651"/>
<path d="M40.8888 41.9859V47.1038C40.8888 47.4447 41.0838 47.7555 41.3907 47.9038C41.6976 48.0523 42.0623 48.0119 42.3294 47.8002L46.2383 44.7041C52.247 46.4336 58.7126 44.5041 62.7905 39.7641C66.8683 35.0242 67.811 28.343 65.2037 22.6599C62.5965 16.9768 56.9172 13.3337 50.6645 13.3333C43.8208 13.3316 37.7345 17.6847 35.5246 24.1619C33.3148 30.6389 35.4712 37.8043 40.8888 41.9859ZM38.0166 22.8677C41.198 16.6442 48.4322 13.6578 55.0773 15.8245C61.7225 17.9912 65.8057 24.6681 64.707 31.5706C63.6083 38.4731 57.654 43.5523 50.6645 43.5489C49.1916 43.5513 47.7273 43.323 46.3251 42.872C46.0423 42.7816 45.7331 42.8375 45.4998 43.0214L42.6662 45.2661V41.5407C42.6663 41.2559 42.5298 40.9884 42.2991 40.8213C36.6512 36.704 34.8352 29.0911 38.0166 22.8677Z" fill="#00A651"/>
</g>
<defs>
<clipPath id="clip0_102_127">
<rect width="53.3333" height="53.3333" fill="white" transform="translate(13.3335 13.3333)"/>
</clipPath>
</defs>
</svg>
