<svg width="80" height="80" viewBox="0 0 80 80" fill="none" xmlns="http://www.w3.org/2000/svg">
<rect width="80" height="80" rx="26" fill="#00A651"/>
<path d="M31.2692 61.6667H24.9526C23.3944 61.665 21.9005 61.0453 20.7985 59.9436C19.6965 58.842 19.0764 57.3483 19.0742 55.7901V41.0517C19.0764 39.4935 19.6965 37.9998 20.7985 36.8981C21.9005 35.7965 23.3944 35.1768 24.9526 35.1751H29.9992C30.2172 35.1747 30.4331 35.2178 30.6342 35.3017C30.8354 35.2178 31.0512 35.1747 31.2692 35.1751C31.7112 35.1751 32.1352 35.3506 32.4477 35.6632C32.7603 35.9758 32.9359 36.3997 32.9359 36.8417V60.0001C32.9359 60.4421 32.7603 60.866 32.4477 61.1786C32.1352 61.4911 31.7112 61.6667 31.2692 61.6667ZM24.9526 38.5084C24.2781 38.5093 23.6316 38.7775 23.1545 39.2542C22.6775 39.7309 22.4089 40.3773 22.4076 41.0517V55.7901C22.4089 56.4645 22.6775 57.1109 23.1545 57.5876C23.6316 58.0643 24.2781 58.3325 24.9526 58.3334H29.6026V38.5084H24.9526Z" fill="white"/>
<path d="M50.0125 61.6666H36.6659C36.2238 61.6666 35.7999 61.491 35.4874 61.1785C35.1748 60.8659 34.9992 60.442 34.9992 60C34.9992 59.5579 35.1748 59.134 35.4874 58.8215C35.7999 58.5089 36.2238 58.3333 36.6659 58.3333H50.0125C50.5908 58.3366 51.1527 58.142 51.6051 57.7818C52.0574 57.4217 52.3729 56.9176 52.4992 56.3533L55.8475 41.6166C55.9321 41.2442 55.9317 40.8575 55.8465 40.4852C55.7612 40.1129 55.5933 39.7646 55.3551 39.4661C55.1169 39.1675 54.8145 38.9264 54.4705 38.7606C54.1264 38.5948 53.7495 38.5086 53.3675 38.5083H42.8475C42.5923 38.5084 42.3404 38.4498 42.1113 38.3371C41.8822 38.2245 41.6821 38.0607 41.5264 37.8584C41.3707 37.6561 41.2635 37.4208 41.2131 37.1705C41.1627 36.9202 41.1705 36.6617 41.2359 36.415L44.2875 24.9266C44.4604 24.2976 44.3899 23.6266 44.09 23.0473C43.7902 22.468 43.283 22.023 42.6697 21.8009C42.0563 21.5789 41.3818 21.5961 40.7806 21.8493C40.1794 22.1024 39.6957 22.5728 39.4259 23.1666L32.9359 37.205V60C32.9359 60.442 32.7603 60.8659 32.4477 61.1785C32.1352 61.491 31.7112 61.6666 31.2692 61.6666C30.8272 61.6666 30.4033 61.491 30.0907 61.1785C29.7781 60.8659 29.6025 60.442 29.6025 60V36.8416C29.6021 36.6005 29.6544 36.3621 29.7559 36.1433L36.4025 21.7716C37.0239 20.4238 38.1284 19.3582 39.4976 18.7855C40.8668 18.2128 42.4011 18.1746 43.7971 18.6785C45.1931 19.1825 46.3492 20.1918 47.0368 21.5071C47.7245 22.8223 47.8937 24.3477 47.5109 25.7816L45.0109 35.175H53.3575C54.24 35.1751 55.1112 35.3739 55.9063 35.7566C56.7015 36.1394 57.4003 36.6963 57.9509 37.3859C58.5014 38.0756 58.8896 38.8804 59.0867 39.7406C59.2838 40.6008 59.2846 41.4944 59.0892 42.355L55.7392 57.0916C55.449 58.3927 54.723 59.5555 53.6815 60.3876C52.64 61.2196 51.3456 61.6709 50.0125 61.6666V61.6666Z" fill="white"/>
</svg>
