<svg width="358" height="779" viewBox="0 0 358 779" fill="none" xmlns="http://www.w3.org/2000/svg">
<path d="M5 1.5H2.91954L3.57683 3.4739L132.12 389.5L3.57683 775.526L2.91954 777.5H5H225.299H226.38L226.722 776.474L355.423 389.974L355.581 389.5L355.423 389.026L226.722 2.5261L226.38 1.5H225.299H5Z" fill="#389BD8" stroke="#C0C0C0" stroke-width="3"/>
<mask id="mask0_53_1682" style="mask-type:alpha" maskUnits="userSpaceOnUse" x="5" y="3" width="349" height="773">
<path d="M5 3H225.299L354 389.5L225.299 776H5L133.701 389.5L5 3Z" fill="#389BD8"/>
</mask>
<g mask="url(#mask0_53_1682)">
<rect width="344" height="158" transform="translate(-39 3)" fill="white"/>
<g clip-path="url(#clip0_53_1682)">
<path d="M135.498 49.9359H105.038C104.217 49.9359 103.552 49.2705 103.552 48.4494C103.552 47.6283 104.217 46.9629 105.038 46.9629H135.498C136.319 46.9629 136.984 47.6283 136.984 48.4494C136.984 49.2705 136.319 49.9359 135.498 49.9359Z" fill="#78C2A4"/>
<path d="M106.384 60.8326H90.7053C89.8842 60.8326 89.2188 60.1672 89.2188 59.3461C89.2188 58.525 89.8844 57.8596 90.7053 57.8596H106.384C107.205 57.8596 107.87 58.525 107.87 59.3461C107.87 60.1672 107.205 60.8326 106.384 60.8326Z" fill="#78C2A4"/>
<path d="M105.846 70.9627H99.6525C98.8314 70.9627 98.166 70.2972 98.166 69.4761C98.166 68.6551 98.8316 67.9896 99.6525 67.9896H105.846C106.667 67.9896 107.333 68.6551 107.333 69.4761C107.333 70.2972 106.667 70.9627 105.846 70.9627Z" fill="#78C2A4"/>
<path d="M99.6525 78.2989H84.4865C83.6654 78.2989 83 77.6334 83 76.8123C83 75.9912 83.6656 75.3258 84.4865 75.3258H99.6523C100.473 75.3258 101.139 75.9912 101.139 76.8123C101.139 77.6334 100.473 78.2989 99.6525 78.2989Z" fill="#78C2A4"/>
<path d="M137.48 117.037H105.038C104.217 117.037 103.552 116.372 103.552 115.551C103.552 114.729 104.217 114.064 105.038 114.064H137.48C138.301 114.064 138.966 114.73 138.966 115.551C138.966 116.372 138.301 117.037 137.48 117.037Z" fill="#78C2A4"/>
<path d="M106.384 106.141H90.7053C89.8842 106.141 89.2188 105.475 89.2188 104.654C89.2188 103.833 89.8844 103.167 90.7053 103.167H106.384C107.205 103.167 107.87 103.833 107.87 104.654C107.87 105.475 107.205 106.141 106.384 106.141Z" fill="#78C2A4"/>
<path d="M105.846 96.0105H99.6525C98.8314 96.0105 98.166 95.3451 98.166 94.5238C98.166 93.7025 98.8316 93.0373 99.6525 93.0373H105.846C106.667 93.0373 107.333 93.7027 107.333 94.5238C107.333 95.3449 106.667 96.0105 105.846 96.0105Z" fill="#78C2A4"/>
<path d="M99.6525 88.6746H84.4865C83.6654 88.6746 83 88.0092 83 87.1881C83 86.367 83.6656 85.7014 84.4865 85.7014H99.6523C100.473 85.7014 101.139 86.3668 101.139 87.1881C101.139 88.0094 100.473 88.6746 99.6525 88.6746Z" fill="#78C2A4"/>
<path d="M146.335 118.664C166.584 118.664 182.999 102.249 182.999 82C182.999 61.7509 166.584 45.3358 146.335 45.3358C126.086 45.3358 109.671 61.7509 109.671 82C109.671 102.249 126.086 118.664 146.335 118.664Z" fill="#95D6A4"/>
<path d="M146.336 45.3358C145.408 45.3358 144.488 45.3709 143.577 45.4387C162.538 46.8492 177.483 62.6789 177.483 82C177.483 101.321 162.538 117.151 143.577 118.561C144.488 118.629 145.408 118.664 146.336 118.664C166.585 118.664 183 102.249 183 82C183 61.7508 166.585 45.3358 146.336 45.3358Z" fill="#78C2A4"/>
<path d="M146.336 110.153C161.884 110.153 174.489 97.5485 174.489 82C174.489 66.4514 161.884 53.8469 146.336 53.8469C130.787 53.8469 118.183 66.4514 118.183 82C118.183 97.5485 130.787 110.153 146.336 110.153Z" fill="#F4FBFF"/>
<path d="M146.336 53.8467C145.479 53.8467 144.632 53.8871 143.795 53.9621C158.153 55.2467 169.407 67.308 169.407 82C169.407 96.692 158.153 108.753 143.795 110.038C144.632 110.113 145.479 110.153 146.336 110.153C161.884 110.153 174.489 97.5484 174.489 81.9998C174.489 66.4514 161.884 53.8467 146.336 53.8467Z" fill="#DAF1F4"/>
<path d="M146.336 64.127C145.515 64.127 144.85 63.4615 144.85 62.6404V60.3711C144.85 59.55 145.515 58.8846 146.336 58.8846C147.158 58.8846 147.823 59.55 147.823 60.3711V62.6402C147.823 63.4613 147.157 64.127 146.336 64.127Z" fill="#365E7D"/>
<path d="M160.026 69.7971C159.646 69.7971 159.265 69.652 158.974 69.3617C158.394 68.7811 158.394 67.8398 158.974 67.2592L160.579 65.6547C161.16 65.0744 162.101 65.0744 162.681 65.6547C163.262 66.2354 163.262 67.1766 162.681 67.7572L161.077 69.3617C160.787 69.652 160.406 69.7971 160.026 69.7971Z" fill="#365E7D"/>
<path d="M167.965 83.4867H165.696C164.875 83.4867 164.209 82.8213 164.209 82C164.209 81.1787 164.874 80.5135 165.696 80.5135H167.965C168.786 80.5135 169.451 81.1789 169.451 82C169.451 82.8211 168.786 83.4867 167.965 83.4867Z" fill="#365E7D"/>
<path d="M161.63 98.7805C161.25 98.7805 160.869 98.6354 160.579 98.3451L158.974 96.7406C158.394 96.16 158.394 95.2187 158.974 94.6381C159.555 94.0578 160.496 94.0578 161.077 94.6381L162.681 96.2426C163.262 96.8232 163.262 97.7645 162.681 98.3451C162.391 98.6354 162.011 98.7805 161.63 98.7805Z" fill="#365E7D"/>
<path d="M146.336 105.115C145.515 105.115 144.85 104.45 144.85 103.629V101.36C144.85 100.539 145.515 99.8732 146.336 99.8732C147.158 99.8732 147.823 100.539 147.823 101.36V103.629C147.823 104.45 147.157 105.115 146.336 105.115Z" fill="#365E7D"/>
<path d="M131.042 98.7805C130.662 98.7805 130.281 98.6354 129.991 98.3451C129.41 97.7645 129.41 96.8232 129.991 96.2426L131.596 94.6381C132.176 94.0578 133.118 94.0578 133.698 94.6381C134.279 95.2187 134.279 96.16 133.698 96.7406L132.094 98.3451C131.803 98.6354 131.423 98.7805 131.042 98.7805Z" fill="#365E7D"/>
<path d="M126.976 83.4867H124.707C123.886 83.4867 123.221 82.8213 123.221 82C123.221 81.1787 123.886 80.5135 124.707 80.5135H126.976C127.797 80.5135 128.463 81.1789 128.463 82C128.463 82.8211 127.797 83.4867 126.976 83.4867Z" fill="#365E7D"/>
<path d="M132.647 69.7971C132.266 69.7971 131.886 69.652 131.596 69.3617L129.991 67.7572C129.41 67.1766 129.41 66.2354 129.991 65.6547C130.572 65.0744 131.513 65.0744 132.094 65.6547L133.698 67.2592C134.279 67.8398 134.279 68.7811 133.698 69.3617C133.408 69.652 133.027 69.7971 132.647 69.7971Z" fill="#365E7D"/>
<path d="M152.843 83.4867H146.335C145.514 83.4867 144.849 82.8213 144.849 82V69.476C144.849 68.6549 145.514 67.9894 146.335 67.9894C147.157 67.9894 147.822 68.6549 147.822 69.476V80.5133H152.843C153.664 80.5133 154.329 81.1787 154.329 81.9998C154.329 82.8209 153.664 83.4867 152.843 83.4867Z" fill="#2B4D66"/>
</g>
<rect width="344" height="154" transform="translate(10 159)" fill="#F3F3F3"/>
<path d="M217.849 198.699V217.824C217.849 219.514 217.52 221.126 216.92 222.6C215.034 227.246 210.474 230.524 205.149 230.524H158.851C151.836 230.524 146.151 224.837 146.151 217.824V198.699C146.151 194.505 148.185 190.786 151.321 188.472C153.427 186.919 156.032 186 158.851 186H205.149C212.164 186 217.849 191.686 217.849 198.699Z" fill="#3D9AE2"/>
<path d="M209.969 199.473V217.049C209.969 220.728 206.988 223.708 203.311 223.708H160.688C157.011 223.708 154.03 220.728 154.03 217.049V199.473C154.03 195.796 157.011 192.815 160.688 192.815H203.311C206.988 192.815 209.969 195.796 209.969 199.473Z" fill="#96C8EF"/>
<path d="M163.104 199.44C163.104 198.806 163.761 198.478 164.442 198.478H168.972C171.414 198.478 173.691 199.276 173.691 202.609C173.691 204.534 172.94 205.802 171.696 206.342C173.128 206.905 174.114 207.821 174.114 210.168V210.661C174.114 214.323 172.071 215.638 169.418 215.638H164.442C163.62 215.638 163.104 215.192 163.104 214.699V199.44ZM166.132 205.145H168.761C170.029 205.145 170.639 204.323 170.639 203.126C170.639 201.905 169.935 201.154 168.738 201.154H166.132V205.145H166.132ZM168.785 212.962C170.217 212.962 171.062 212.188 171.062 210.404V210.028C171.062 208.197 170.216 207.539 168.785 207.539H166.132V212.962H168.785Z" fill="#1E81CE"/>
<path d="M184.443 199.417C184.443 198.759 185.194 198.478 185.969 198.478C186.72 198.478 187.495 198.759 187.495 199.417V210.404C187.495 214.324 185.006 215.779 181.861 215.779C178.691 215.779 176.227 214.324 176.227 210.404V199.417C176.227 198.759 176.978 198.478 177.753 198.478C178.504 198.478 179.279 198.759 179.279 199.417V210.404C179.279 212.234 180.241 213.103 181.861 213.103C183.48 213.103 184.443 212.234 184.443 210.404V199.417H184.443Z" fill="#1E81CE"/>
<path d="M194.042 208.76C194.042 208.643 194.019 208.525 193.972 208.455L189.113 200.051C189.066 199.933 189.042 199.816 189.042 199.745C189.042 198.994 190.239 198.478 191.061 198.478C191.554 198.478 191.789 198.666 192 199.088L195.568 205.872L199.16 199.088C199.371 198.689 199.582 198.478 200.075 198.478C200.897 198.478 202.094 198.994 202.094 199.745C202.094 199.816 202.094 199.933 202.024 200.051L197.188 208.455C197.141 208.525 197.094 208.643 197.094 208.76V214.676C197.094 215.31 196.343 215.639 195.568 215.639C194.817 215.639 194.042 215.31 194.042 214.676V208.76H194.042Z" fill="#1E81CE"/>
<path d="M164.448 216.576C162.375 216.576 160.694 214.896 160.694 212.822V199.473C160.694 195.796 163.674 192.815 167.352 192.815H160.688C157.011 192.815 154.03 195.796 154.03 199.473V217.049C154.03 220.728 157.011 223.708 160.688 223.708H162.951H167.352H203.311C206.988 223.708 209.969 220.728 209.969 217.049V216.576H164.448Z" fill="#5AAAE7"/>
<path d="M210.977 252.99V259.091C210.977 264.848 206.27 269.557 200.513 269.559C200.511 269.559 200.511 269.559 200.509 269.559H186.241C186.113 269.559 185.986 269.557 185.859 269.553C182.376 269.446 179.135 267.738 176.962 265.013L169.446 255.589C168.372 254.144 167.427 252.294 167.427 250.497C167.427 249.566 167.681 248.647 168.305 247.809C169.252 246.537 170.652 245.786 172.124 245.614C172.34 245.588 172.558 245.576 172.776 245.576C173.929 245.576 175.092 245.931 176.083 246.668C177.644 247.829 179.862 246.717 179.862 244.77V222.509C179.862 219.518 182.428 217.099 185.469 217.344C188.177 217.562 190.227 219.898 190.227 222.616V242.524H200.511C206.268 242.524 210.977 247.233 210.977 252.99Z" fill="#FFC477"/>
<path d="M210.977 259.048V259.091C210.977 264.848 206.27 269.557 200.513 269.559C200.511 269.559 200.511 269.559 200.509 269.559H186.241C186.113 269.559 185.986 269.557 185.859 269.553C182.376 269.446 179.135 267.737 176.962 265.013L169.446 255.589C168.372 254.144 167.427 252.294 167.427 250.497C167.427 249.566 167.681 248.647 168.305 247.809C169.252 246.537 170.652 245.786 172.124 245.614L177.955 252.922C180.128 255.644 184.534 259.048 188.02 259.048H210.977Z" fill="#FFB655"/>
<path d="M211.797 268.517V282.198C211.797 284.298 210.095 286 207.995 286H178.343C176.243 286 174.543 284.298 174.543 282.198V268.517C174.543 266.043 176.566 264.02 179.04 264.02H207.298C209.772 264.02 211.797 266.043 211.797 268.517Z" fill="#5EAC24"/>
<path d="M211.797 268.983V282.198C211.797 284.298 210.095 286 207.995 286H178.683V273.464C178.683 270.99 180.706 268.967 183.18 268.967H211.438C211.559 268.967 211.678 268.971 211.797 268.983Z" fill="#6DC82A"/>
<path d="M200.792 277.163C201.981 277.163 202.946 276.199 202.946 275.009C202.946 273.819 201.981 272.855 200.792 272.855C199.602 272.855 198.638 273.819 198.638 275.009C198.638 276.199 199.602 277.163 200.792 277.163Z" fill="#4E901E"/>
<rect width="344" height="154" transform="translate(58 313)" fill="white"/>
<g clip-path="url(#clip1_53_1682)">
<path d="M233.362 384.828H274.828C277.684 384.828 280 382.512 280 379.655V345.172C280 342.316 277.684 340 274.828 340H185.172C182.316 340 180 342.316 180 345.172V379.655C180 382.512 182.316 384.828 185.172 384.828H233.362Z" fill="#FF5364"/>
<path d="M197.241 350.345C201.045 350.345 204.138 352.666 204.138 355.517C204.138 356.47 204.91 357.241 205.862 357.241C206.814 357.241 207.586 356.47 207.586 355.517C207.586 350.764 202.946 346.897 197.241 346.897C191.536 346.897 186.896 350.764 186.896 355.517C186.896 360.271 191.536 364.138 197.241 364.138C201.045 364.138 204.138 366.459 204.138 369.31C204.138 372.162 201.045 374.483 197.241 374.483C193.438 374.483 190.345 372.162 190.345 369.31C190.345 368.358 189.573 367.586 188.621 367.586C187.668 367.586 186.896 368.358 186.896 369.31C186.896 374.064 191.536 377.931 197.241 377.931C202.946 377.931 207.586 374.064 207.586 369.31C207.586 364.557 202.946 360.69 197.241 360.69C193.438 360.69 190.345 358.369 190.345 355.517C190.345 352.666 193.438 350.345 197.241 350.345Z" fill="white"/>
<path d="M228.276 350.345C229.228 350.345 230 349.573 230 348.621C230 347.669 229.228 346.897 228.276 346.897H214.483C213.531 346.897 212.759 347.669 212.759 348.621V376.207C212.759 377.159 213.531 377.931 214.483 377.931H228.276C229.228 377.931 230 377.159 230 376.207C230 375.255 229.228 374.483 228.276 374.483H216.207V364.138H226.552C227.504 364.138 228.276 363.366 228.276 362.414C228.276 361.462 227.504 360.69 226.552 360.69H216.207V350.345H228.276Z" fill="white"/>
<path d="M250.689 374.483H238.62V348.621C238.62 347.669 237.848 346.897 236.896 346.897C235.944 346.897 235.172 347.669 235.172 348.621V376.207C235.172 377.159 235.944 377.931 236.896 377.931H250.689C251.641 377.931 252.413 377.159 252.413 376.207C252.413 375.255 251.641 374.483 250.689 374.483Z" fill="white"/>
<path d="M273.103 374.483H261.034V348.621C261.034 347.669 260.262 346.897 259.31 346.897C258.358 346.897 257.586 347.669 257.586 348.621V376.207C257.586 377.159 258.358 377.931 259.31 377.931H273.103C274.055 377.931 274.827 377.159 274.827 376.207C274.827 375.255 274.055 374.483 273.103 374.483Z" fill="white"/>
<path d="M259.31 409.828V431.379C259.31 436.14 255.451 440 250.69 440H231.724C229.699 440.005 227.774 439.115 226.466 437.569V437.552C226.157 437.199 225.891 436.811 225.673 436.397C224.414 433.957 222.805 431.715 220.897 429.741C217.414 426.417 213.722 423.319 209.845 420.465C208.464 419.442 207.651 417.823 207.655 416.103C207.65 414.186 208.653 412.406 210.296 411.417C211.938 410.428 213.98 410.374 215.673 411.276L224.828 415.862V385.69C224.828 383.309 226.758 381.379 229.138 381.379C231.519 381.379 233.448 383.309 233.448 385.69V399.483C233.448 397.102 235.378 395.172 237.759 395.172C240.139 395.172 242.069 397.102 242.069 399.483V404.655C242.069 402.275 243.999 400.345 246.379 400.345C248.76 400.345 250.69 402.275 250.69 404.655V409.828C250.69 407.447 252.62 405.517 255 405.517C257.381 405.517 259.31 407.447 259.31 409.828Z" fill="#FDD7AD"/>
<path d="M236.897 395.259V412.414C236.897 413.366 236.125 414.138 235.172 414.138C234.22 414.138 233.448 413.366 233.448 412.414V399.483C233.448 397.434 234.889 395.668 236.897 395.259Z" fill="#F9C795"/>
<path d="M245.518 400.431V412.414C245.518 413.366 244.746 414.138 243.793 414.138C242.841 414.138 242.069 413.366 242.069 412.414V404.655C242.069 402.607 243.51 400.841 245.518 400.431Z" fill="#F9C795"/>
<path d="M254.138 405.603V414.138C254.138 415.09 253.366 415.862 252.414 415.862C251.461 415.862 250.689 415.09 250.689 414.138V409.828C250.689 407.779 252.131 406.013 254.138 405.603Z" fill="#F9C795"/>
</g>
<rect width="344" height="154" transform="translate(10 467)" fill="#F3F3F3"/>
<path d="M151.566 539.652C150.365 539.654 149.39 538.683 149.388 537.482C149.387 536.903 149.617 536.348 150.026 535.939L171.766 514.2C172.629 513.366 174.005 513.39 174.84 514.253C175.653 515.096 175.653 516.431 174.84 517.274L153.1 539.013C152.694 539.421 152.142 539.651 151.566 539.652Z" fill="#455A64"/>
<path d="M212.435 539.652C211.858 539.653 211.305 539.425 210.896 539.017L189.157 517.278C188.323 516.415 188.347 515.038 189.21 514.204C190.053 513.391 191.389 513.391 192.231 514.204L213.97 535.943C214.818 536.794 214.816 538.17 213.965 539.018C213.559 539.423 213.009 539.651 212.435 539.652Z" fill="#455A64"/>
<path d="M142.869 535.304H221.13C227.133 535.304 232 540.171 232 546.174V572.261C232 578.264 227.133 583.13 221.13 583.13H142.869C136.866 583.13 132 578.264 132 572.261V546.174C132 540.171 136.866 535.304 142.869 535.304Z" fill="#4CAF50"/>
<path d="M142.869 574.435C141.669 574.435 140.695 573.461 140.695 572.261V546.174C140.695 544.973 141.669 544 142.869 544H155.913C157.113 544 158.087 544.973 158.087 546.174C158.087 547.374 157.113 548.348 155.913 548.348H145.043V572.261C145.043 573.461 144.07 574.435 142.869 574.435Z" fill="#FAFAFA"/>
<path d="M151.565 561.391H142.869C141.669 561.391 140.695 560.418 140.695 559.217C140.695 558.017 141.669 557.043 142.869 557.043H151.565C152.766 557.043 153.739 558.017 153.739 559.217C153.739 560.418 152.766 561.391 151.565 561.391Z" fill="#FAFAFA"/>
<path d="M177.652 574.435C177.075 574.436 176.521 574.208 176.113 573.8L166.783 564.465V572.261C166.783 573.461 165.809 574.435 164.609 574.435C163.408 574.435 162.435 573.461 162.435 572.261V546.174C162.435 544.973 163.408 544 164.609 544H171.13C175.933 544 179.826 547.893 179.826 552.696C179.826 557.498 175.933 561.391 171.13 561.391H169.856L179.187 570.722C180.037 571.569 180.038 572.946 179.191 573.796C178.783 574.205 178.229 574.435 177.652 574.435ZM166.783 557.043H171.13C173.532 557.043 175.478 555.097 175.478 552.696C175.478 550.294 173.532 548.348 171.13 548.348H166.783V557.043Z" fill="#FAFAFA"/>
<path d="M199.391 574.435H186.348C185.147 574.435 184.174 573.461 184.174 572.261V546.174C184.174 544.973 185.147 544 186.348 544H199.391C200.592 544 201.565 544.973 201.565 546.174C201.565 547.374 200.592 548.348 199.391 548.348H188.522V570.087H199.391C200.592 570.087 201.565 571.06 201.565 572.261C201.565 573.461 200.592 574.435 199.391 574.435Z" fill="#FAFAFA"/>
<path d="M195.044 561.391H186.348C185.147 561.391 184.174 560.418 184.174 559.217C184.174 558.017 185.147 557.043 186.348 557.043H195.044C196.244 557.043 197.218 558.017 197.218 559.217C197.218 560.418 196.244 561.391 195.044 561.391Z" fill="#FAFAFA"/>
<path d="M221.131 574.435H208.087C206.886 574.435 205.913 573.461 205.913 572.261V546.174C205.913 544.973 206.886 544 208.087 544H221.131C222.331 544 223.305 544.973 223.305 546.174C223.305 547.374 222.331 548.348 221.131 548.348H210.261V570.087H221.131C222.331 570.087 223.305 571.06 223.305 572.261C223.305 573.461 222.331 574.435 221.131 574.435Z" fill="#FAFAFA"/>
<path d="M216.783 561.391H208.087C206.886 561.391 205.913 560.418 205.913 559.217C205.913 558.017 206.886 557.043 208.087 557.043H216.783C217.983 557.043 218.957 558.017 218.957 559.217C218.957 560.418 217.983 561.391 216.783 561.391Z" fill="#FAFAFA"/>
<path d="M182 526.609C175.997 526.609 171.131 521.742 171.131 515.739C171.131 509.736 175.997 504.87 182 504.87C188.003 504.87 192.87 509.736 192.87 515.739C192.87 521.742 188.004 526.609 182 526.609Z" fill="#607D8B"/>
<rect width="344" height="155" transform="translate(-36 621)" fill="white"/>
<g clip-path="url(#clip2_53_1682)">
<path d="M128.564 701.136C128.564 702.039 128.17 702.875 127.52 703.451L136.019 711.989L144.424 703.286C143.877 702.721 143.551 701.955 143.551 701.135V696.565C141.429 698.03 138.858 698.89 136.09 698.89C133.193 698.89 130.647 698.095 128.564 696.764V701.136Z" fill="#F9A870"/>
<path d="M134.571 698.814C132.298 698.587 130.275 697.857 128.564 696.764L128.565 701.136C128.565 702.039 128.171 702.875 127.521 703.451L134.572 710.534V698.814H134.571Z" fill="#ED985F"/>
<path d="M163.377 710.931L155.208 707.768C151.987 715.856 145.196 722.128 136.793 724.647C136.291 724.797 135.747 724.803 135.226 724.647C126.855 722.138 120.057 715.89 116.824 707.806L108.762 710.931C108.762 710.931 101.43 713.946 101.43 722.304V746.056C101.43 747.406 102.524 748.5 103.873 748.5H168.265C169.615 748.5 170.709 747.406 170.709 746.056V722.304C170.709 713.946 163.377 710.931 163.377 710.931Z" fill="#6397D6"/>
<path d="M107.467 746.056V718.814C107.467 714.658 109.279 711.825 111.102 710.025L108.763 710.932C108.763 710.932 101.431 713.946 101.431 722.304V746.056C101.431 747.406 102.524 748.5 103.874 748.5H109.91C108.56 748.5 107.467 747.406 107.467 746.056Z" fill="#4686C6"/>
<path d="M129.698 716.631C131.598 718.021 133.719 719.138 136.009 719.917C138.302 719.138 140.423 718.018 142.325 716.627L142.614 716.278L136.245 711.755L136.02 711.989L135.785 711.753L129.414 716.278L129.698 716.631Z" fill="#EDEBED"/>
<path d="M150.716 706.029L142.17 716.364C140.314 717.721 138.245 718.813 136.009 719.572C133.775 718.814 131.708 717.723 129.854 716.368L121.528 705.983L116.685 707.861C119.859 716.113 126.734 722.504 135.226 725.05C135.747 725.206 136.291 725.2 136.793 725.05C145.316 722.495 152.184 716.08 155.347 707.822L150.716 706.029Z" fill="#4686C6"/>
<path d="M143.476 717.293C144.081 717.722 144.926 717.511 145.257 716.847L150.716 706.029L145.528 704.02C144.869 703.764 144.335 703.299 143.988 702.718L136.009 711.989L143.476 717.293Z" fill="#E0D9D5"/>
<path d="M126.589 704.021L121.527 705.983L126.771 716.847C127.102 717.511 127.947 717.722 128.552 717.293L136.019 711.99L128.091 702.777C127.744 703.33 127.225 703.773 126.589 704.021Z" fill="#E0D9D5"/>
<path d="M144.005 710.242L148.403 705.133L145.528 704.02C144.869 703.764 144.335 703.299 143.988 702.718L136.009 711.989L143.476 717.293C144.081 717.722 144.926 717.511 145.257 716.847L146.334 714.712L144.381 713.324C143.373 712.607 143.198 711.179 144.005 710.242Z" fill="#CEC5C0"/>
<path d="M130.142 705.161L128.091 702.777C127.744 703.33 127.226 703.773 126.589 704.021L121.527 705.983L126.771 716.847C127.102 717.511 127.947 717.722 128.552 717.293L132.221 714.687L129.009 708.031C128.476 706.927 128.998 705.603 130.142 705.161Z" fill="#CEC5C0"/>
<path d="M159.572 748.5V732.899C159.572 732.065 158.897 731.39 158.063 731.39C157.229 731.39 156.554 732.065 156.554 732.899V748.5H159.572Z" fill="#4686C6"/>
<path d="M115.586 748.5V734.28C115.586 733.447 114.91 732.771 114.076 732.771C113.243 732.771 112.567 733.447 112.567 734.28V748.5H115.586Z" fill="#4686C6"/>
<path d="M135.899 653.033C125.9 653.033 117.765 661.169 117.765 671.168V673.721L118.162 671.921C118.314 671.233 118.935 670.735 119.639 670.735H121.036C121.871 670.735 122.55 671.414 122.55 672.249V675.352L122.917 674.824C123.123 674.527 123.472 674.358 123.829 674.386C130.388 674.857 137.477 672.954 143.279 669.163C143.695 668.89 144.245 668.957 144.583 669.322C145.496 670.302 146.225 671.079 146.807 671.7C148.059 673.035 148.632 673.645 148.884 673.994L149.248 674.496V672.248C149.248 671.413 149.927 670.734 150.762 670.734H152.159C152.862 670.734 153.483 671.232 153.636 671.918L154.033 673.704V671.168C154.034 661.169 145.899 653.033 135.899 653.033Z" fill="#935D38"/>
<path d="M123.96 671.168C123.96 662.224 130.469 654.774 138.997 653.299C137.99 653.125 136.956 653.033 135.899 653.033C125.9 653.033 117.765 661.169 117.765 671.168V673.721L118.162 671.921C118.314 671.234 118.935 670.735 119.639 670.735H121.036C121.871 670.735 122.55 671.414 122.55 672.249V675.352L122.917 674.824C123.123 674.527 123.472 674.358 123.829 674.386C123.873 674.39 123.917 674.391 123.96 674.394V671.168Z" fill="#7F4D2A"/>
<path d="M149.272 688.31C149.256 688.219 149.249 688.136 149.249 688.058V673.811L149.211 673.758C148.942 673.389 148.365 672.772 147.098 671.423C146.517 670.803 145.789 670.027 144.879 669.048C144.406 668.539 143.64 668.446 143.059 668.826C137.329 672.57 130.33 674.449 123.859 673.984C123.36 673.947 122.873 674.181 122.586 674.595L122.55 674.647V688.058C122.55 688.134 122.543 688.216 122.528 688.306L122.521 688.34L122.528 688.374C123.648 694.921 129.225 699.493 136.09 699.493C142.626 699.493 148.17 694.819 149.271 688.378L149.277 688.344L149.272 688.31Z" fill="#FFB888"/>
<path d="M128.788 687.283V673.901C127.131 674.071 125.478 674.1 123.859 673.984C123.36 673.947 122.873 674.181 122.587 674.595L122.551 674.647V688.058C122.551 688.134 122.543 688.216 122.528 688.306L122.522 688.34L122.528 688.373C123.649 694.921 129.226 699.493 136.091 699.493C136.726 699.493 137.352 699.448 137.966 699.362C132.673 697.893 128.788 693.043 128.788 687.283Z" fill="#F9A870"/>
<path d="M117.924 673.376V673.254C117.924 673.127 117.94 671.997 117.966 671.877V671.168C117.966 661.263 125.995 653.234 135.899 653.234C145.805 653.234 153.833 661.263 153.833 671.168V671.874C153.86 671.995 153.875 673.126 153.875 673.254V673.376C155.624 673.568 157.182 674.292 158.389 675.375V670.99C158.389 658.569 148.32 648.5 135.899 648.5C123.479 648.5 113.41 658.569 113.41 670.99V675.375C114.618 674.293 116.175 673.568 117.924 673.376Z" fill="#EDEBED"/>
<path d="M123.28 658.427C126.788 653.228 132.413 649.575 138.918 648.702C137.93 648.569 136.923 648.5 135.899 648.5C123.479 648.5 113.41 658.569 113.41 670.99V675.375C114.618 674.293 116.175 673.568 117.924 673.376V673.254C117.924 673.127 117.94 671.997 117.966 671.877V671.168C117.966 666.185 119.999 661.677 123.28 658.427Z" fill="#E0D9D5"/>
<path d="M152.337 696.05H138.065C137.231 696.05 136.556 695.374 136.556 694.54C136.556 693.707 137.231 693.031 138.065 693.031H152.337C152.58 693.031 152.778 692.833 152.778 692.59V687.88C152.778 687.047 153.453 686.371 154.287 686.371C155.12 686.371 155.796 687.046 155.796 687.88V692.59C155.796 694.498 154.244 696.05 152.337 696.05Z" fill="#EDEBED"/>
<path d="M138.799 694.54C138.799 695.979 137.632 697.146 136.193 697.146C134.753 697.146 133.587 695.979 133.587 694.54C133.587 693.101 134.753 691.934 136.193 691.934C137.632 691.934 138.799 693.101 138.799 694.54Z" fill="#FF8087"/>
<path d="M136.731 694.54C136.731 693.692 137.138 692.941 137.765 692.465C137.328 692.133 136.784 691.934 136.192 691.934C134.753 691.934 133.587 693.101 133.587 694.54C133.587 695.979 134.753 697.146 136.192 697.146C136.784 697.146 137.328 696.947 137.765 696.615C137.138 696.139 136.731 695.388 136.731 694.54Z" fill="#EB6A76"/>
<path d="M153.875 672.37V687.936C157.936 687.491 160.97 684.181 160.97 680.153C160.97 676.125 157.936 672.816 153.875 672.37Z" fill="#6397D6"/>
<path d="M158.353 674.336C157.15 673.272 155.607 672.56 153.875 672.37V687.936C155.607 687.746 157.15 687.035 158.353 685.97V674.336Z" fill="#4686C6"/>
<path d="M117.924 672.37V687.936C113.863 687.491 110.829 684.181 110.829 680.153C110.829 676.125 113.863 672.816 117.924 672.37Z" fill="#6397D6"/>
<path d="M115.306 680.153C115.306 677.842 116.306 675.769 117.924 674.336V672.37C113.863 672.816 110.829 676.125 110.829 680.153C110.829 684.181 113.863 687.491 117.924 687.936V685.97C116.306 684.537 115.306 682.464 115.306 680.153Z" fill="#4686C6"/>
<path d="M152.361 670.534H150.763C149.816 670.534 149.048 671.301 149.048 672.249V688.058C149.048 689.004 149.815 689.773 150.763 689.773H152.361C153.309 689.773 154.076 689.004 154.076 688.058V672.249C154.076 671.301 153.309 670.534 152.361 670.534Z" fill="#6397D6"/>
<path d="M121.036 670.534H119.438C118.49 670.534 117.723 671.301 117.723 672.249V688.058C117.723 689.004 118.49 689.773 119.438 689.773H121.036C121.984 689.773 122.751 689.004 122.751 688.058V672.249C122.751 671.301 121.984 670.534 121.036 670.534Z" fill="#6397D6"/>
<path d="M152.193 688.058V672.249C152.193 671.58 152.576 671.002 153.135 670.72C152.902 670.602 152.64 670.534 152.361 670.534H150.763C149.815 670.534 149.048 671.301 149.048 672.249V688.058C149.048 689.005 149.815 689.773 150.763 689.773H152.361C152.64 689.773 152.902 689.705 153.135 689.587C152.576 689.304 152.193 688.727 152.193 688.058Z" fill="#4686C6"/>
<path d="M120.868 688.058V672.249C120.868 671.58 121.251 671.002 121.81 670.72C121.577 670.602 121.315 670.534 121.036 670.534H119.438C118.49 670.534 117.723 671.301 117.723 672.249V688.058C117.723 689.005 118.49 689.773 119.438 689.773H121.036C121.315 689.773 121.577 689.705 121.81 689.587C121.251 689.304 120.868 688.727 120.868 688.058Z" fill="#4686C6"/>
</g>
</g>
<defs>
<clipPath id="clip0_53_1682">
<rect width="100" height="100" fill="white" transform="translate(83 32)"/>
</clipPath>
<clipPath id="clip1_53_1682">
<rect width="100" height="100" fill="white" transform="translate(180 340)"/>
</clipPath>
<clipPath id="clip2_53_1682">
<rect width="100" height="100" fill="white" transform="translate(86 648.5)"/>
</clipPath>
</defs>
</svg>
