<svg width="410" height="1039" viewBox="0 0 410 1039" fill="none" xmlns="http://www.w3.org/2000/svg">
<path fill-rule="evenodd" clip-rule="evenodd" d="M210.496 187.107C199.016 175.627 198.182 157.628 203.905 142.435C208.254 130.891 210.633 118.382 210.633 105.316C210.633 47.1518 163.481 0 105.316 0C47.1518 0 0 47.1518 0 105.316C0 163.481 47.1518 210.633 105.316 210.633C115.586 210.633 125.512 209.163 134.896 206.422C149.27 202.224 165.557 203.798 176.145 214.386L217.723 255.964C226.232 264.474 240.029 264.474 248.538 255.964C257.048 247.455 257.048 233.659 248.538 225.149L210.496 187.107Z" fill="#E0E0E0"/>
<path fill-rule="evenodd" clip-rule="evenodd" d="M210.496 598.107C199.016 586.627 198.182 568.628 203.905 553.435C208.254 541.891 210.633 529.382 210.633 516.316C210.633 458.152 163.481 411 105.316 411C47.1518 411 0 458.152 0 516.316C0 574.481 47.1518 621.633 105.316 621.633C115.586 621.633 125.512 620.163 134.896 617.422C149.27 613.224 165.557 614.798 176.145 625.386L217.723 666.964C226.232 675.474 240.029 675.474 248.538 666.964C257.048 658.455 257.048 644.659 248.538 636.149L210.496 598.107Z" fill="#E0E0E0"/>
<path d="M210.633 933.316C210.633 991.481 163.481 1038.63 105.316 1038.63C47.1518 1038.63 0 991.481 0 933.316C0 875.152 47.1518 828 105.316 828C163.481 828 210.633 875.152 210.633 933.316Z" fill="#E0E0E0"/>
<path fill-rule="evenodd" clip-rule="evenodd" d="M199.424 393.107C210.904 381.627 211.738 363.628 206.015 348.435C201.666 336.891 199.287 324.382 199.287 311.316C199.287 253.152 246.439 206 304.604 206C362.768 206 409.92 253.152 409.92 311.316C409.92 369.481 362.768 416.633 304.604 416.633C294.334 416.633 284.408 415.163 275.024 412.422C260.65 408.224 244.363 409.798 233.775 420.386L192.197 461.964C183.688 470.474 169.891 470.474 161.382 461.964C152.872 453.455 152.872 439.659 161.382 431.149L199.424 393.107Z" fill="#E0E0E0"/>
<path fill-rule="evenodd" clip-rule="evenodd" d="M199.424 804.107C210.904 792.627 211.738 774.628 206.015 759.435C201.666 747.891 199.287 735.382 199.287 722.316C199.287 664.152 246.439 617 304.604 617C362.768 617 409.92 664.152 409.92 722.316C409.92 780.481 362.768 827.633 304.604 827.633C294.334 827.633 284.408 826.163 275.024 823.422C260.65 819.224 244.363 820.798 233.775 831.386L192.197 872.964C183.688 881.474 169.891 881.474 161.382 872.964C152.872 864.455 152.872 850.659 161.382 842.149L199.424 804.107Z" fill="#E0E0E0"/>
<circle cx="105" cy="105" r="84.5" fill="white" stroke="#389BD8" stroke-width="11"/>
<circle cx="105" cy="516" r="84.5" fill="white" stroke="#389BD8" stroke-width="11"/>
<circle cx="105" cy="933" r="84.5" fill="white" stroke="#389BD8" stroke-width="11"/>
<circle r="84.5" transform="matrix(-1 0 0 1 304.92 311)" fill="white" stroke="#00A651" stroke-width="11"/>
<circle r="84.5" transform="matrix(-1 0 0 1 304.92 722)" fill="white" stroke="#00A651" stroke-width="11"/>
<path d="M70.2174 128.913C69.0168 128.913 68.0435 127.94 68.0435 126.739V83.2609C68.0435 82.0603 69.0168 81.0869 70.2174 81.0869C71.418 81.0869 72.3914 82.0603 72.3914 83.2609V126.739C72.3912 127.94 71.418 128.913 70.2174 128.913Z" fill="#455A64"/>
<path d="M78.9127 120.217C77.7121 120.217 76.7388 119.244 76.7388 118.043V83.2609C76.7388 82.0603 77.7121 81.0869 78.9127 81.0869C80.1134 81.0869 81.0867 82.0603 81.0867 83.2609V118.044C81.0867 119.244 80.1134 120.217 78.9127 120.217Z" fill="#455A64"/>
<path d="M87.6086 120.217C86.4079 120.217 85.4346 119.244 85.4346 118.043V83.2609C85.4346 82.0603 86.4079 81.0869 87.6086 81.0869C88.8092 81.0869 89.7825 82.0603 89.7825 83.2609V118.044C89.7825 119.244 88.8092 120.217 87.6086 120.217Z" fill="#455A64"/>
<path d="M96.3044 120.217C95.1037 120.217 94.1304 119.244 94.1304 118.043V83.2609C94.1304 82.0603 95.1037 81.0869 96.3044 81.0869C97.505 81.0869 98.4783 82.0603 98.4783 83.2609V118.044C98.4781 119.244 97.505 120.217 96.3044 120.217Z" fill="#455A64"/>
<path d="M105 128.913C103.799 128.913 102.826 127.94 102.826 126.739V83.2609C102.826 82.0603 103.799 81.0869 105 81.0869C106.2 81.0869 107.174 82.0603 107.174 83.2609V126.739C107.174 127.94 106.2 128.913 105 128.913Z" fill="#455A64"/>
<path d="M113.695 120.217C112.495 120.217 111.521 119.244 111.521 118.043V83.2609C111.521 82.0603 112.495 81.0869 113.695 81.0869C114.896 81.0869 115.869 82.0603 115.869 83.2609V118.044C115.869 119.244 114.896 120.217 113.695 120.217Z" fill="#455A64"/>
<path d="M122.391 120.217C121.191 120.217 120.217 119.244 120.217 118.043V83.2609C120.217 82.0603 121.191 81.0869 122.391 81.0869C123.592 81.0869 124.565 82.0603 124.565 83.2609V118.044C124.565 119.244 123.592 120.217 122.391 120.217Z" fill="#455A64"/>
<path d="M131.087 120.217C129.886 120.217 128.913 119.244 128.913 118.043V83.2609C128.913 82.0603 129.886 81.0869 131.087 81.0869C132.288 81.0869 133.261 82.0603 133.261 83.2609V118.044C133.261 119.244 132.288 120.217 131.087 120.217Z" fill="#455A64"/>
<path d="M139.782 128.913C138.582 128.913 137.608 127.94 137.608 126.739V83.2609C137.608 82.0603 138.582 81.0869 139.782 81.0869C140.983 81.0869 141.956 82.0603 141.956 83.2609V126.739C141.956 127.94 140.983 128.913 139.782 128.913Z" fill="#455A64"/>
<path d="M78.9128 128.913C78.6274 128.923 78.344 128.863 78.0868 128.739C77.8149 128.648 77.574 128.482 77.3912 128.261C76.5507 127.462 76.5173 126.132 77.3166 125.292C77.3408 125.267 77.3657 125.242 77.3912 125.217C77.5738 124.996 77.8149 124.83 78.0868 124.739C78.8938 124.407 79.8219 124.596 80.4346 125.217C81.2751 126.075 81.2616 127.451 80.4042 128.292C80.0054 128.683 79.4714 128.905 78.9128 128.913Z" fill="#455A64"/>
<path d="M87.6086 128.913C87.3233 128.923 87.0398 128.863 86.7826 128.739C86.5107 128.648 86.2698 128.482 86.087 128.261C85.2465 127.462 85.2131 126.132 86.0124 125.292C86.0366 125.267 86.0615 125.242 86.087 125.217C86.2696 124.996 86.5107 124.83 86.7826 124.739C87.5892 124.402 88.52 124.591 89.1304 125.217C89.3515 125.4 89.5172 125.641 89.6087 125.913C89.8406 126.439 89.8406 127.039 89.6087 127.565C89.518 127.838 89.3523 128.079 89.1304 128.261C88.7385 128.684 88.1853 128.921 87.6086 128.913Z" fill="#455A64"/>
<path d="M96.3044 128.913C96.0191 128.923 95.7356 128.863 95.4784 128.739C95.2065 128.648 94.9656 128.482 94.7828 128.261C93.9423 127.462 93.9089 126.132 94.7082 125.292C94.7324 125.267 94.7573 125.242 94.7828 125.217C94.9654 124.996 95.2065 124.83 95.4784 124.739C96.285 124.402 97.2158 124.591 97.8262 125.217C98.0473 125.4 98.213 125.641 98.3045 125.913C98.5364 126.439 98.5364 127.039 98.3045 127.565C98.2138 127.838 98.0481 128.079 97.8262 128.261C97.4343 128.684 96.8811 128.921 96.3044 128.913Z" fill="#455A64"/>
<path d="M113.696 128.913C112.495 128.896 111.536 127.909 111.552 126.709C111.56 126.15 111.783 125.616 112.174 125.217C113.019 124.389 114.372 124.389 115.217 125.217C115.438 125.4 115.604 125.641 115.696 125.913C115.928 126.439 115.928 127.039 115.696 127.565C115.605 127.838 115.439 128.079 115.217 128.261C114.826 128.684 114.272 128.921 113.696 128.913Z" fill="#455A64"/>
<path d="M122.391 128.913C121.191 128.896 120.231 127.909 120.248 126.709C120.256 126.15 120.479 125.616 120.87 125.217C121.715 124.389 123.068 124.389 123.913 125.217C124.754 126.075 124.74 127.451 123.883 128.292C123.484 128.683 122.95 128.905 122.391 128.913Z" fill="#455A64"/>
<path d="M131.087 128.913C130.51 128.921 129.957 128.684 129.565 128.261C129.343 128.079 129.177 127.838 129.087 127.565C128.855 127.039 128.855 126.439 129.087 125.913C129.178 125.641 129.344 125.4 129.565 125.217C130.41 124.389 131.763 124.389 132.608 125.217C133.449 126.075 133.435 127.451 132.578 128.292C132.179 128.683 131.645 128.905 131.087 128.913Z" fill="#455A64"/>
<path d="M57.174 85.4347C55.9734 85.4347 55 84.4615 55 83.2609V70.2174C55 69.0168 55.9734 68.0435 57.174 68.0435H70.2174C71.4181 68.0435 72.3914 69.0168 72.3914 70.2174C72.3914 71.418 71.4181 72.3914 70.2174 72.3914H59.3478V83.2609C59.3478 84.4615 58.3746 85.4347 57.174 85.4347Z" fill="#2196F3"/>
<path d="M70.2175 141.957H57.174C55.9734 141.957 55 140.983 55 139.783V126.739C55 125.538 55.9734 124.565 57.174 124.565C58.3746 124.565 59.3478 125.538 59.3478 126.739V137.609H70.2172C71.4179 137.609 72.3912 138.582 72.3912 139.783C72.3912 140.983 71.4181 141.957 70.2175 141.957Z" fill="#2196F3"/>
<path d="M152.826 85.4347C151.625 85.4347 150.652 84.4613 150.652 83.2607V72.3912H139.782C138.582 72.3912 137.608 71.4178 137.608 70.2172C137.608 69.0166 138.582 68.0435 139.782 68.0435H152.826C154.026 68.0435 155 69.0168 155 70.2174V83.2609C155 84.4615 154.026 85.4347 152.826 85.4347Z" fill="#2196F3"/>
<path d="M152.826 141.957H139.782C138.582 141.957 137.608 140.983 137.608 139.783C137.608 138.582 138.582 137.609 139.782 137.609H150.652V126.739C150.652 125.538 151.625 124.565 152.826 124.565C154.026 124.565 155 125.538 155 126.739V139.783C155 140.983 154.026 141.957 152.826 141.957Z" fill="#2196F3"/>
<path d="M70.2174 128.913C69.0168 128.913 68.0435 127.94 68.0435 126.739V83.2609C68.0435 82.0603 69.0168 81.0869 70.2174 81.0869C71.418 81.0869 72.3914 82.0603 72.3914 83.2609V126.739C72.3912 127.94 71.418 128.913 70.2174 128.913Z" fill="#00A651"/>
<path d="M78.9127 120.217C77.7121 120.217 76.7388 119.244 76.7388 118.043V83.2609C76.7388 82.0603 77.7121 81.0869 78.9127 81.0869C80.1134 81.0869 81.0867 82.0603 81.0867 83.2609V118.044C81.0867 119.244 80.1134 120.217 78.9127 120.217Z" fill="#00A651"/>
<path d="M87.6086 120.217C86.4079 120.217 85.4346 119.244 85.4346 118.043V83.2609C85.4346 82.0603 86.4079 81.0869 87.6086 81.0869C88.8092 81.0869 89.7825 82.0603 89.7825 83.2609V118.044C89.7825 119.244 88.8092 120.217 87.6086 120.217Z" fill="#00A651"/>
<path d="M96.3044 120.217C95.1037 120.217 94.1304 119.244 94.1304 118.043V83.2609C94.1304 82.0603 95.1037 81.0869 96.3044 81.0869C97.505 81.0869 98.4783 82.0603 98.4783 83.2609V118.044C98.4781 119.244 97.505 120.217 96.3044 120.217Z" fill="#00A651"/>
<path d="M105 128.913C103.799 128.913 102.826 127.94 102.826 126.739V83.2609C102.826 82.0603 103.799 81.0869 105 81.0869C106.2 81.0869 107.174 82.0603 107.174 83.2609V126.739C107.174 127.94 106.2 128.913 105 128.913Z" fill="#00A651"/>
<path d="M113.695 120.217C112.495 120.217 111.521 119.244 111.521 118.043V83.2609C111.521 82.0603 112.495 81.0869 113.695 81.0869C114.896 81.0869 115.869 82.0603 115.869 83.2609V118.044C115.869 119.244 114.896 120.217 113.695 120.217Z" fill="#00A651"/>
<path d="M122.391 120.217C121.191 120.217 120.217 119.244 120.217 118.043V83.2609C120.217 82.0603 121.191 81.0869 122.391 81.0869C123.592 81.0869 124.565 82.0603 124.565 83.2609V118.044C124.565 119.244 123.592 120.217 122.391 120.217Z" fill="#00A651"/>
<path d="M131.087 120.217C129.886 120.217 128.913 119.244 128.913 118.043V83.2609C128.913 82.0603 129.886 81.0869 131.087 81.0869C132.288 81.0869 133.261 82.0603 133.261 83.2609V118.044C133.261 119.244 132.288 120.217 131.087 120.217Z" fill="#00A651"/>
<path d="M139.782 128.913C138.582 128.913 137.608 127.94 137.608 126.739V83.2609C137.608 82.0603 138.582 81.0869 139.782 81.0869C140.983 81.0869 141.956 82.0603 141.956 83.2609V126.739C141.956 127.94 140.983 128.913 139.782 128.913Z" fill="#00A651"/>
<path d="M78.9128 128.913C78.6274 128.922 78.3441 128.862 78.0867 128.739C77.8151 128.647 77.5744 128.482 77.3912 128.261C76.5507 127.458 76.5201 126.126 77.3229 125.286C77.3451 125.263 77.3679 125.24 77.3912 125.217C77.5742 124.997 77.8151 124.831 78.0867 124.739C78.616 124.522 79.2097 124.522 79.739 124.739C80.0113 124.83 80.2524 124.996 80.4346 125.217C81.2751 126.075 81.2616 127.451 80.4042 128.292C80.0054 128.683 79.4714 128.905 78.9128 128.913Z" fill="#00A651"/>
<path d="M87.6086 128.913C86.408 128.899 85.4466 127.914 85.4611 126.713C85.4678 126.153 85.6904 125.617 86.0825 125.217C86.6917 124.589 87.6239 124.399 88.4303 124.739C88.7026 124.83 88.9437 124.996 89.1259 125.217C89.9664 126.074 89.9529 127.451 89.0957 128.291C88.6979 128.682 88.1656 128.904 87.6086 128.913Z" fill="#00A651"/>
<path d="M96.3044 128.913C95.1038 128.899 94.1424 127.914 94.1569 126.713C94.1636 126.153 94.3862 125.617 94.7783 125.217C94.9613 124.997 95.2022 124.831 95.4739 124.739C96.2809 124.407 97.2091 124.595 97.8217 125.217C98.6622 126.074 98.6487 127.451 97.7913 128.291C97.3925 128.683 96.8585 128.905 96.2999 128.913H96.3044V128.913Z" fill="#00A651"/>
<path d="M113.695 128.913C113.411 128.918 113.128 128.858 112.869 128.739C112.598 128.647 112.357 128.482 112.174 128.261C111.333 127.458 111.303 126.126 112.106 125.286C112.128 125.263 112.151 125.24 112.174 125.217C112.357 124.997 112.598 124.831 112.869 124.739C113.399 124.522 113.992 124.522 114.522 124.739C114.794 124.83 115.035 124.996 115.217 125.217C116.058 126.075 116.044 127.451 115.187 128.292C114.788 128.683 114.254 128.905 113.695 128.913Z" fill="#00A651"/>
<path d="M122.391 128.913C122.106 128.918 121.824 128.858 121.565 128.739C121.294 128.647 121.053 128.482 120.87 128.261C120.029 127.458 119.999 126.126 120.801 125.286C120.824 125.262 120.846 125.24 120.87 125.217C121.715 124.389 123.068 124.389 123.913 125.217C124.754 126.013 124.79 127.34 123.994 128.18C123.968 128.208 123.941 128.235 123.913 128.261C123.731 128.482 123.49 128.648 123.217 128.739C122.959 128.859 122.676 128.918 122.391 128.913Z" fill="#00A651"/>
<path d="M131.087 128.913C130.802 128.918 130.519 128.858 130.261 128.739C129.989 128.647 129.748 128.482 129.565 128.261C129.142 127.869 128.905 127.316 128.913 126.739C128.902 126.454 128.962 126.17 129.087 125.913C129.177 125.641 129.341 125.4 129.561 125.217C129.744 124.997 129.984 124.831 130.256 124.739C131.063 124.407 131.991 124.596 132.604 125.217C132.824 125.402 132.989 125.642 133.082 125.913C133.207 126.17 133.267 126.454 133.256 126.739C133.224 127.926 132.269 128.881 131.082 128.913H131.087Z" fill="#00A651"/>
<path d="M57.174 85.4347C55.9734 85.4347 55 84.4615 55 83.2609V70.2174C55 69.0168 55.9734 68.0435 57.174 68.0435H70.2174C71.4181 68.0435 72.3914 69.0168 72.3914 70.2174C72.3914 71.418 71.4181 72.3914 70.2174 72.3914H59.3478V83.2609C59.3478 84.4615 58.3746 85.4347 57.174 85.4347Z" fill="#00A651"/>
<path d="M70.2175 141.957H57.174C55.9734 141.957 55 140.983 55 139.783V126.739C55 125.538 55.9734 124.565 57.174 124.565C58.3746 124.565 59.3478 125.538 59.3478 126.739V137.609H70.2172C71.4179 137.609 72.3912 138.582 72.3912 139.783C72.3912 140.983 71.4181 141.957 70.2175 141.957Z" fill="#00A651"/>
<path d="M152.826 85.4347C151.625 85.4347 150.652 84.4613 150.652 83.2607V72.3912H139.782C138.582 72.3912 137.608 71.4178 137.608 70.2172C137.608 69.0166 138.582 68.0435 139.782 68.0435H152.826C154.026 68.0435 155 69.0168 155 70.2174V83.2609C155 84.4615 154.026 85.4347 152.826 85.4347Z" fill="#00A651"/>
<path d="M152.826 141.957H139.782C138.582 141.957 137.608 140.983 137.608 139.783C137.608 138.582 138.582 137.609 139.782 137.609H150.652V126.739C150.652 125.538 151.625 124.565 152.826 124.565C154.026 124.565 155 125.538 155 126.739V139.783C155 140.983 154.026 141.957 152.826 141.957Z" fill="#00A651"/>
<g clip-path="url(#clip0_66_853)">
<path d="M150.833 502.233C148.529 502.233 146.667 500.367 146.667 498.067V478.317C146.667 476.121 144.879 474.333 142.688 474.333H122.938C120.633 474.333 118.771 472.467 118.771 470.167C118.771 467.867 120.633 466 122.938 466H142.688C149.479 466 155 471.525 155 478.317V498.067C155 500.367 153.138 502.233 150.833 502.233Z" fill="#607D8B"/>
<path d="M59.1667 502.233C56.8625 502.233 55 500.367 55 498.067V478.317C55 471.525 60.5208 466 67.3125 466H87.0625C89.3667 466 91.2292 467.867 91.2292 470.167C91.2292 472.467 89.3667 474.333 87.0625 474.333H67.3125C65.1208 474.333 63.3333 476.121 63.3333 478.317V498.067C63.3333 500.367 61.4708 502.233 59.1667 502.233Z" fill="#607D8B"/>
<path d="M142.688 566H122.938C120.633 566 118.771 564.133 118.771 561.833C118.771 559.533 120.633 557.667 122.938 557.667H142.688C144.879 557.667 146.667 555.879 146.667 553.683V533.933C146.667 531.633 148.529 529.767 150.833 529.767C153.138 529.767 155 531.633 155 533.933V553.683C155 560.475 149.479 566 142.688 566Z" fill="#607D8B"/>
<path d="M87.0625 566H67.3125C60.5208 566 55 560.475 55 553.683V533.933C55 531.633 56.8625 529.767 59.1667 529.767C61.4708 529.767 63.3333 531.633 63.3333 533.933V553.683C63.3333 555.879 65.1208 557.667 67.3125 557.667H87.0625C89.3667 557.667 91.2292 559.533 91.2292 561.833C91.2292 564.133 89.3667 566 87.0625 566Z" fill="#607D8B"/>
<path d="M94.4918 512.496H73.7502C71.446 512.496 69.5835 510.629 69.5835 508.329V484.75C69.5835 482.45 71.446 480.583 73.7502 480.583H94.4918C96.796 480.583 98.6585 482.45 98.6585 484.75V508.329C98.6585 510.629 96.7918 512.496 94.4918 512.496ZM77.9168 504.163H90.3252V488.917H77.9168V504.163Z" fill="#2196F3"/>
<path d="M136.25 551.417H115.417C113.113 551.417 111.25 549.55 111.25 547.25V531.908C111.25 529.608 113.113 527.742 115.417 527.742C117.721 527.742 119.583 529.608 119.583 531.908V543.083H132.083V530.583H127.158C124.854 530.583 122.992 528.717 122.992 526.417C122.992 524.117 124.854 522.25 127.158 522.25H136.25C138.554 522.25 140.417 524.117 140.417 526.417V547.25C140.417 549.55 138.554 551.417 136.25 551.417Z" fill="#2196F3"/>
<path d="M136.25 505.963H119.204C116.9 505.963 115.038 504.096 115.038 501.796V484.75C115.038 482.45 116.9 480.583 119.204 480.583H136.25C138.554 480.583 140.417 482.45 140.417 484.75V501.796C140.417 504.096 138.554 505.963 136.25 505.963ZM123.371 497.629H132.083V488.917H123.371V497.629Z" fill="#2196F3"/>
<path d="M106.992 524.9H73.7502C71.446 524.9 69.5835 523.033 69.5835 520.733C69.5835 518.433 71.446 516.567 73.7502 516.567H102.825V488.538C102.825 486.238 104.688 484.371 106.992 484.371C109.296 484.371 111.158 486.238 111.158 488.538V520.733C111.158 523.033 109.292 524.9 106.992 524.9Z" fill="#2196F3"/>
<path d="M118.542 523.858C116.238 523.858 114.375 521.992 114.375 519.692V514.012C114.375 511.712 116.238 509.846 118.542 509.846H137.292C139.596 509.846 141.458 511.712 141.458 514.012C141.458 516.312 139.596 518.179 137.292 518.179H122.708V519.692C122.708 521.992 120.846 523.858 118.542 523.858Z" fill="#2196F3"/>
<path d="M105.092 546.004C102.788 546.004 100.925 544.138 100.925 541.838V532.371C100.925 530.071 102.788 528.204 105.092 528.204C107.396 528.204 109.259 530.071 109.259 532.371V541.838C109.259 544.138 107.396 546.004 105.092 546.004Z" fill="#2196F3"/>
<path d="M94.5835 551.417H73.7502C71.446 551.417 69.5835 549.55 69.5835 547.25V532.1C69.5835 529.8 71.446 527.933 73.7502 527.933H94.5835C96.8877 527.933 98.7502 529.8 98.7502 532.1V547.25C98.7502 549.55 96.8877 551.417 94.5835 551.417ZM77.9168 543.083H90.4168V536.267H77.9168V543.083Z" fill="#2196F3"/>
</g>
<g clip-path="url(#clip1_66_853)">
<path d="M151.609 932.899C151.663 960.448 129.198 982.978 101.649 983C88.2697 983.011 76.1156 977.765 67.1363 969.217C66.6459 968.75 66.6393 967.969 67.118 967.491L70.3 964.309C70.7627 963.846 71.5084 963.837 71.9834 964.288C79.866 971.756 90.5695 976.276 102.329 976.084C126.013 975.697 145.03 956.061 144.693 932.375C144.359 908.866 125.196 889.911 101.608 889.911C89.7607 889.911 79.0311 894.693 71.2426 902.431L73.4941 904.683C74.1535 905.342 73.8482 906.468 72.9463 906.704L59.9059 910.12C59.0127 910.354 58.1982 909.539 58.4322 908.646L61.8477 895.605C62.0838 894.704 63.21 894.398 63.8691 895.058L66.3564 897.545C75.3973 888.557 87.8525 883 101.609 883C129.189 883 151.554 905.332 151.609 932.899Z" fill="#62D8F9"/>
<path d="M144.719 907.664C145.369 910.654 145.714 913.758 145.714 916.943C145.714 920.655 145.248 924.258 144.373 927.698C144.586 929.436 144.698 931.205 144.698 933C144.698 956.797 125.406 976.089 101.609 976.089C90.1343 976.089 79.707 971.604 71.9859 964.29C71.5099 963.839 70.7634 963.845 70.2998 964.309L67.1181 967.491C66.6392 967.97 66.6459 968.751 67.1365 969.217C76.107 977.757 88.2457 983 101.609 983C129.241 983 151.539 960.761 151.609 933.129C151.632 923.833 149.116 915.129 144.719 907.664Z" fill="#00BEF7"/>
<path d="M101.609 965.52C119.569 965.52 134.129 950.961 134.129 933C134.129 915.04 119.569 900.48 101.609 900.48C83.6482 900.48 69.0884 915.04 69.0884 933C69.0884 950.961 83.6482 965.52 101.609 965.52Z" fill="#C56E37"/>
<path d="M118.605 905.271C121.644 910.217 123.397 916.038 123.397 922.268C123.397 940.229 108.837 954.789 90.8768 954.789C84.6463 954.789 78.826 953.035 73.8799 949.997C79.6002 959.309 89.8785 965.52 101.609 965.52C119.569 965.52 134.129 950.961 134.129 933C134.129 921.27 127.918 910.992 118.605 905.271Z" fill="#A95E2C"/>
<path d="M101.609 959.423C116.202 959.423 128.032 947.593 128.032 933C128.032 918.407 116.202 906.577 101.609 906.577C87.016 906.577 75.186 918.407 75.186 933C75.186 947.593 87.016 959.423 101.609 959.423Z" fill="#EFF3F5"/>
<path d="M101.609 914.474C102.442 914.474 103.118 913.799 103.118 912.965V911.659C103.118 910.825 102.442 910.15 101.609 910.15C100.775 910.15 100.1 910.825 100.1 911.659V912.965C100.1 913.799 100.775 914.474 101.609 914.474Z" fill="#595959"/>
<path d="M103.118 931.086V919.585C103.118 918.752 102.442 918.076 101.609 918.076C100.776 918.076 100.1 918.752 100.1 919.585V931.086C99.6213 931.464 99.2893 932.017 99.1981 932.649L90.9975 937.384C90.2758 937.801 90.0283 938.724 90.4451 939.445C90.7246 939.93 91.2318 940.2 91.7533 940.2C92.0094 940.2 92.269 940.135 92.5065 939.998L100.705 935.264C100.985 935.376 101.289 935.439 101.609 935.439C102.956 935.439 104.048 934.347 104.048 933C104.048 932.223 103.684 931.533 103.118 931.086Z" fill="#595959"/>
<path d="M90.2845 916.404C90.5642 916.888 91.0712 917.159 91.5927 917.159C91.8487 917.159 92.1083 917.093 92.3458 916.956C93.0675 916.54 93.3149 915.617 92.8982 914.895L92.2448 913.763C91.828 913.042 90.9048 912.794 90.1835 913.211C89.4618 913.628 89.2144 914.551 89.6312 915.272L90.2845 916.404Z" fill="#595959"/>
<path d="M85.0126 921.676L83.881 921.023C83.1587 920.606 82.236 920.853 81.8196 921.575C81.4028 922.297 81.6503 923.22 82.372 923.636L83.5036 924.29C83.7413 924.427 84.0007 924.492 84.2567 924.492C84.7782 924.492 85.2856 924.221 85.5649 923.737C85.9815 923.016 85.7343 922.093 85.0126 921.676Z" fill="#595959"/>
<path d="M83.0829 933C83.0829 932.166 82.4073 931.491 81.5739 931.491H80.2673C79.4337 931.491 78.7583 932.167 78.7583 933C78.7583 933.833 79.4339 934.509 80.2673 934.509H81.5739C82.4075 934.509 83.0829 933.834 83.0829 933Z" fill="#595959"/>
<path d="M83.5036 941.711L82.372 942.364C81.6503 942.781 81.4028 943.704 81.8196 944.425C82.0993 944.909 82.6064 945.18 83.1278 945.18C83.3839 945.18 83.6435 945.115 83.881 944.978L85.0126 944.324C85.7343 943.907 85.9817 942.985 85.5649 942.263C85.1482 941.541 84.2249 941.294 83.5036 941.711Z" fill="#595959"/>
<path d="M92.3458 949.044C91.6237 948.627 90.7009 948.874 90.2845 949.596L89.6312 950.728C89.2144 951.449 89.4618 952.373 90.1835 952.789C90.4212 952.926 90.6806 952.991 90.9366 952.991C91.4581 952.991 91.9655 952.721 92.2448 952.237L92.8982 951.105C93.3149 950.383 93.0675 949.461 92.3458 949.044Z" fill="#595959"/>
<path d="M101.609 951.526C100.775 951.526 100.1 952.201 100.1 953.035V954.342C100.1 955.175 100.775 955.85 101.609 955.85C102.442 955.85 103.118 955.175 103.118 954.342V953.035C103.118 952.201 102.442 951.526 101.609 951.526Z" fill="#595959"/>
<path d="M112.933 949.596C112.516 948.874 111.593 948.627 110.871 949.044C110.15 949.461 109.902 950.383 110.319 951.105L110.972 952.237C111.252 952.721 111.759 952.991 112.281 952.991C112.537 952.991 112.796 952.926 113.034 952.789C113.755 952.372 114.003 951.449 113.586 950.728L112.933 949.596Z" fill="#595959"/>
<path d="M120.846 942.364L119.714 941.711C118.992 941.294 118.069 941.541 117.653 942.263C117.236 942.985 117.483 943.908 118.205 944.324L119.337 944.978C119.574 945.115 119.834 945.18 120.09 945.18C120.611 945.18 121.119 944.909 121.398 944.425C121.815 943.704 121.567 942.78 120.846 942.364Z" fill="#595959"/>
<path d="M122.95 931.491H121.644C120.81 931.491 120.135 932.167 120.135 933C120.135 933.833 120.81 934.509 121.644 934.509H122.95C123.784 934.509 124.459 933.833 124.459 933C124.459 932.167 123.784 931.491 122.95 931.491Z" fill="#595959"/>
<path d="M118.961 924.492C119.217 924.492 119.476 924.427 119.714 924.29L120.846 923.636C121.567 923.22 121.815 922.297 121.398 921.575C120.981 920.853 120.058 920.606 119.337 921.023L118.205 921.676C117.483 922.093 117.236 923.016 117.653 923.737C117.932 924.221 118.439 924.492 118.961 924.492Z" fill="#595959"/>
<path d="M113.034 913.211C112.312 912.794 111.389 913.041 110.972 913.763L110.319 914.895C109.902 915.617 110.15 916.54 110.871 916.956C111.109 917.093 111.369 917.159 111.625 917.159C112.146 917.159 112.654 916.888 112.933 916.404L113.586 915.272C114.003 914.551 113.756 913.628 113.034 913.211Z" fill="#595959"/>
</g>
<path d="M286.17 319.919C290.202 320.049 294.165 318.844 297.441 316.49C300.718 314.136 303.124 310.765 304.287 306.902L306.482 299.606L292.42 293.356L286.17 319.919Z" fill="#79BD9A"/>
<path d="M265.17 343.812H268.467C269.927 343.81 271.341 343.298 272.464 342.366C273.588 341.433 274.352 340.138 274.623 338.703L280.107 309.016C280.275 308.114 280.242 307.187 280.01 306.299C279.779 305.412 279.356 304.586 278.77 303.881C278.184 303.176 277.45 302.608 276.619 302.218C275.789 301.828 274.884 301.626 273.967 301.625H268.107L265.17 343.812Z" fill="#A8DBA8"/>
<path d="M264.295 356.312H271.904C275.056 356.312 278.113 355.23 280.564 353.248C283.015 351.266 284.712 348.504 285.373 345.422C285.498 344.857 285.561 344.281 285.561 343.703C285.56 343.2 285.513 342.698 285.42 342.203L284.951 339.656C284.736 338.508 284.769 337.328 285.046 336.194C285.324 335.059 285.84 333.997 286.561 333.078L289.795 328.984C290.723 327.801 291.308 326.385 291.487 324.892C291.666 323.399 291.432 321.885 290.811 320.516C290.331 319.455 290.08 318.305 290.076 317.141C290.074 315.137 290.808 313.201 292.139 311.703C294.513 309.004 295.823 305.532 295.826 301.938C295.828 301.036 295.744 300.136 295.576 299.25L293.982 290.688L268.982 289.125L268.623 294.187L282.436 298.5C283.316 298.767 284.128 299.223 284.814 299.836C285.499 300.449 286.043 301.205 286.406 302.051C286.769 302.896 286.943 303.811 286.916 304.73C286.889 305.65 286.661 306.553 286.248 307.375C286.218 307.406 286.197 307.443 286.186 307.484C284.326 311.034 283.24 314.938 282.998 318.938V324.156C283.027 325.334 282.664 326.488 281.967 327.438C280.988 328.673 279.697 329.625 278.228 330.193C276.758 330.762 275.163 330.927 273.607 330.672L266.17 329.469L264.295 356.312Z" fill="#CFF09E"/>
<path d="M268.982 289.125L318.982 304.75L326.795 267.25H319.186C318.431 270.623 316.985 273.803 314.939 276.589C312.893 279.374 310.292 281.706 307.3 283.436C304.307 285.165 300.989 286.256 297.553 286.638C294.118 287.02 290.641 286.686 287.342 285.656L270.764 280.484C269.587 283.213 268.981 286.153 268.982 289.125Z" fill="#CFF09E"/>
<path d="M315.857 306.312L323.67 311L336.17 265.688H326.795L315.857 306.312Z" fill="#A8DBA8"/>
<path d="M291.516 276.829L309.854 280.729C311.542 281.088 312.619 282.747 312.26 284.435C311.901 286.123 310.242 287.2 308.554 286.841L290.216 282.941C288.528 282.582 287.451 280.923 287.81 279.235C288.169 277.547 289.828 276.47 291.516 276.829Z" fill="#A8DBA8"/>
<path d="M267.42 289.016V289.005C267.457 282.811 269.943 276.884 274.333 272.516C278.724 268.148 284.664 265.693 290.857 265.688H325.176L325.286 265.281C325.375 264.949 325.571 264.656 325.844 264.447C326.117 264.238 326.451 264.125 326.795 264.125H336.17C336.411 264.125 336.648 264.181 336.864 264.287C337.079 264.394 337.267 264.549 337.413 264.741C337.559 264.932 337.658 265.155 337.704 265.391C337.75 265.628 337.74 265.871 337.676 266.103L325.176 311.416C325.112 311.648 324.995 311.862 324.834 312.041C324.673 312.221 324.473 312.361 324.25 312.45C324.066 312.525 323.869 312.563 323.67 312.562C323.386 312.562 323.108 312.485 322.865 312.339L315.053 307.652C314.762 307.477 314.535 307.212 314.408 306.897C314.281 306.582 314.26 306.234 314.348 305.906L314.589 305.014L307.184 302.7L305.778 307.353C304.834 310.489 303.128 313.342 300.812 315.658C298.496 317.973 295.643 319.679 292.507 320.623C293.07 322.177 293.228 323.848 292.966 325.479C292.705 327.11 292.031 328.648 291.011 329.947L287.79 334.044C287.206 334.787 286.788 335.646 286.562 336.564C286.336 337.482 286.308 338.438 286.481 339.367L286.95 341.912C287.186 343.181 287.168 344.484 286.896 345.745C286.148 349.17 284.255 352.238 281.529 354.443C278.804 356.648 275.408 357.858 271.903 357.875H264.295C264.08 357.876 263.868 357.832 263.671 357.747C263.473 357.661 263.296 357.536 263.149 357.379C263.003 357.223 262.89 357.037 262.818 356.835C262.747 356.632 262.717 356.417 262.732 356.203L267.42 289.016ZM266.842 342.25H268.467C269.562 342.247 270.622 341.863 271.465 341.164C272.308 340.465 272.882 339.495 273.087 338.419L278.571 308.731C278.697 308.055 278.672 307.359 278.499 306.694C278.326 306.028 278.008 305.409 277.569 304.88C277.129 304.351 276.579 303.925 275.956 303.632C275.334 303.34 274.655 303.188 273.967 303.188H269.568L266.842 342.25ZM322.711 308.602L334.118 267.25H327.993L317.673 305.58L322.711 308.602ZM324.336 268.812H290.857C285.669 268.818 280.679 270.806 276.909 274.371C273.139 277.935 270.874 282.806 270.578 287.986L315.401 301.994L324.336 268.812ZM302.79 306.452L304.196 301.764L297.184 299.577C297.539 301.921 297.375 304.315 296.705 306.589C296.034 308.863 294.872 310.963 293.301 312.739C292.724 313.4 292.284 314.167 292.005 314.999C291.726 315.83 291.613 316.708 291.675 317.583C294.3 316.785 296.688 315.351 298.627 313.41C300.566 311.468 301.996 309.078 302.79 306.452ZM271.903 354.75C274.696 354.738 277.402 353.775 279.574 352.019C281.747 350.263 283.256 347.819 283.853 345.091C284.037 344.232 284.049 343.346 283.887 342.483L283.418 339.938C283.165 338.571 283.206 337.167 283.538 335.818C283.87 334.469 284.486 333.206 285.345 332.114L288.564 328.017C289.318 327.061 289.794 325.917 289.941 324.708C290.087 323.499 289.898 322.274 289.393 321.166C288.62 319.451 288.356 317.549 288.635 315.688C288.914 313.827 289.723 312.086 290.965 310.673C292.294 309.174 293.263 307.39 293.796 305.458C294.329 303.527 294.412 301.499 294.04 299.53L293.856 298.533L270.404 291.206L269.779 300.062H273.967C275.113 300.064 276.244 300.317 277.281 300.805C278.318 301.292 279.235 302.002 279.967 302.884C280.699 303.765 281.229 304.797 281.517 305.906C281.806 307.015 281.848 308.173 281.639 309.3L276.153 338.995C275.812 340.786 274.858 342.402 273.456 343.566C272.053 344.73 270.289 345.37 268.467 345.375H266.625L265.97 354.75H271.903Z" fill="#3B8686"/>
<path d="M288.304 275.952C288.819 275.613 289.396 275.381 290.002 275.269C290.608 275.157 291.23 275.167 291.832 275.298L310.171 279.205C310.781 279.324 311.362 279.564 311.878 279.91C312.395 280.257 312.837 280.702 313.18 281.221C313.523 281.74 313.759 282.322 313.875 282.933C313.99 283.544 313.983 284.171 313.854 284.78C313.725 285.388 313.476 285.964 313.121 286.475C312.767 286.986 312.315 287.422 311.79 287.756C311.266 288.091 310.681 288.318 310.068 288.423C309.455 288.529 308.827 288.512 308.221 288.373L289.882 284.467C288.976 284.274 288.146 283.817 287.5 283.153C286.853 282.489 286.418 281.648 286.249 280.736C286.08 279.825 286.185 278.884 286.551 278.032C286.917 277.181 287.527 276.457 288.304 275.952ZM289.554 280.733C289.665 280.906 289.81 281.054 289.979 281.171C290.148 281.287 290.339 281.369 290.54 281.411L308.879 285.317C309.282 285.396 309.699 285.314 310.041 285.088C310.383 284.862 310.623 284.51 310.708 284.109C310.793 283.708 310.718 283.289 310.497 282.943C310.276 282.598 309.929 282.353 309.529 282.261L291.19 278.355C290.989 278.312 290.782 278.309 290.58 278.346C290.378 278.383 290.186 278.46 290.013 278.572C289.841 278.684 289.693 278.828 289.576 278.997C289.46 279.167 289.378 279.357 289.335 279.558C289.247 279.962 289.323 280.384 289.546 280.733H289.554Z" fill="#3B8686"/>
<path d="M339.621 298.547C339.328 298.547 339.04 298.464 338.792 298.308C338.543 298.151 338.343 297.928 338.216 297.664C338.088 297.4 338.037 297.105 338.07 296.813C338.102 296.521 338.216 296.244 338.398 296.014C340.042 293.931 341.224 291.522 341.865 288.947C342.507 286.372 342.593 283.69 342.118 281.08C342.074 280.875 342.071 280.664 342.11 280.458C342.149 280.253 342.229 280.057 342.345 279.883C342.461 279.709 342.611 279.56 342.786 279.445C342.961 279.33 343.157 279.251 343.363 279.213C343.568 279.175 343.78 279.179 343.984 279.224C344.188 279.269 344.381 279.355 344.552 279.477C344.722 279.598 344.867 279.752 344.976 279.931C345.086 280.109 345.159 280.307 345.19 280.514C345.747 283.563 345.647 286.695 344.899 289.702C344.15 292.709 342.769 295.522 340.848 297.953C340.702 298.138 340.515 298.288 340.303 298.391C340.09 298.494 339.857 298.547 339.621 298.547Z" fill="#3B8686"/>
<path d="M344.59 302.359C344.296 302.36 344.009 302.278 343.759 302.123C343.51 301.968 343.31 301.746 343.181 301.482C343.053 301.218 343.001 300.923 343.032 300.631C343.063 300.339 343.176 300.062 343.357 299.831C346.817 295.448 348.689 290.022 348.67 284.437C348.676 282.943 348.539 281.451 348.259 279.983C348.194 279.582 348.288 279.172 348.521 278.839C348.754 278.506 349.107 278.277 349.506 278.2C349.905 278.123 350.318 278.205 350.658 278.427C350.997 278.65 351.237 278.996 351.326 279.392C351.641 281.055 351.797 282.745 351.795 284.437C351.819 290.721 349.713 296.828 345.82 301.761C345.674 301.947 345.487 302.098 345.274 302.202C345.061 302.305 344.827 302.359 344.59 302.359Z" fill="#3B8686"/>
<path d="M334.684 294.719C334.39 294.718 334.102 294.635 333.854 294.479C333.605 294.322 333.405 294.099 333.278 293.834C333.15 293.569 333.1 293.274 333.133 292.982C333.166 292.69 333.281 292.413 333.464 292.183C335.213 289.98 336.167 287.251 336.17 284.437C336.169 283.684 336.104 282.932 335.975 282.189C335.94 281.987 335.945 281.78 335.99 281.579C336.035 281.379 336.119 281.19 336.237 281.022C336.355 280.854 336.506 280.712 336.679 280.602C336.852 280.492 337.046 280.418 337.248 280.383C337.45 280.348 337.657 280.353 337.858 280.398C338.058 280.443 338.247 280.527 338.415 280.645C338.583 280.764 338.725 280.914 338.835 281.087C338.945 281.261 339.019 281.454 339.054 281.656C339.213 282.575 339.294 283.505 339.295 284.437C339.289 287.956 338.096 291.37 335.907 294.125C335.761 294.31 335.576 294.459 335.364 294.562C335.152 294.665 334.919 294.718 334.684 294.719Z" fill="#3B8686"/>
<path d="M300.232 336H304.92V325.062C304.92 324.648 305.085 324.251 305.378 323.958C305.671 323.665 306.068 323.5 306.482 323.5C306.897 323.5 307.294 323.665 307.587 323.958C307.88 324.251 308.045 324.648 308.045 325.062V336H311.17V325.062C311.17 324.648 311.335 324.251 311.628 323.958C311.921 323.665 312.318 323.5 312.732 323.5C313.147 323.5 313.544 323.665 313.837 323.958C314.13 324.251 314.295 324.648 314.295 325.062V336H317.42V325.062C317.42 324.648 317.585 324.251 317.878 323.958C318.171 323.665 318.568 323.5 318.982 323.5C319.397 323.5 319.794 323.665 320.087 323.958C320.38 324.251 320.545 324.648 320.545 325.062V336H323.67V325.062C323.67 324.648 323.835 324.251 324.128 323.958C324.421 323.665 324.818 323.5 325.232 323.5C325.647 323.5 326.044 323.665 326.337 323.958C326.63 324.251 326.795 324.648 326.795 325.062V336H329.92V325.062C329.92 324.648 330.085 324.251 330.378 323.958C330.671 323.665 331.068 323.5 331.482 323.5C331.897 323.5 332.294 323.665 332.587 323.958C332.88 324.251 333.045 324.648 333.045 325.062V336H336.17V325.062C336.17 324.648 336.335 324.251 336.628 323.958C336.921 323.665 337.318 323.5 337.732 323.5C338.147 323.5 338.544 323.665 338.837 323.958C339.13 324.251 339.295 324.648 339.295 325.062V336H350.232C350.647 336 351.044 336.165 351.337 336.458C351.63 336.751 351.795 337.148 351.795 337.562C351.795 337.977 351.63 338.374 351.337 338.667C351.044 338.96 350.647 339.125 350.232 339.125H345.545V350.062C345.545 350.477 345.38 350.874 345.087 351.167C344.794 351.46 344.397 351.625 343.982 351.625C343.568 351.625 343.171 351.46 342.878 351.167C342.585 350.874 342.42 350.477 342.42 350.062V339.125H339.295V350.062C339.295 350.477 339.13 350.874 338.837 351.167C338.544 351.46 338.147 351.625 337.732 351.625C337.318 351.625 336.921 351.46 336.628 351.167C336.335 350.874 336.17 350.477 336.17 350.062V339.125H320.545V350.062C320.545 350.477 320.38 350.874 320.087 351.167C319.794 351.46 319.397 351.625 318.982 351.625C318.568 351.625 318.171 351.46 317.878 351.167C317.585 350.874 317.42 350.477 317.42 350.062V339.125H314.295V350.062C314.295 350.477 314.13 350.874 313.837 351.167C313.544 351.46 313.147 351.625 312.732 351.625C312.318 351.625 311.921 351.46 311.628 351.167C311.335 350.874 311.17 350.477 311.17 350.062V339.125H300.232C299.818 339.125 299.421 338.96 299.128 338.667C298.835 338.374 298.67 337.977 298.67 337.562C298.67 337.148 298.835 336.751 299.128 336.458C299.421 336.165 299.818 336 300.232 336Z" fill="#3B8686"/>
<path d="M306.482 351.625C306.068 351.625 305.671 351.46 305.378 351.167C305.085 350.874 304.92 350.477 304.92 350.062V343.812C304.92 343.398 305.085 343.001 305.378 342.708C305.671 342.415 306.068 342.25 306.482 342.25C306.897 342.25 307.294 342.415 307.587 342.708C307.88 343.001 308.045 343.398 308.045 343.812V350.062C308.045 350.477 307.88 350.874 307.587 351.167C307.294 351.46 306.897 351.625 306.482 351.625Z" fill="#3B8686"/>
<path d="M331.482 342.25C331.897 342.25 332.294 342.415 332.587 342.708C332.88 343.001 333.045 343.398 333.045 343.812V350.062C333.045 350.477 332.88 350.874 332.587 351.167C332.294 351.46 331.897 351.625 331.482 351.625C331.068 351.625 330.671 351.46 330.378 351.167C330.085 350.874 329.92 350.477 329.92 350.062V343.812C329.92 343.398 330.085 343.001 330.378 342.708C330.671 342.415 331.068 342.25 331.482 342.25Z" fill="#3B8686"/>
<path d="M325.232 342.25C325.647 342.25 326.044 342.415 326.337 342.708C326.63 343.001 326.795 343.398 326.795 343.812V350.062C326.795 350.477 326.63 350.874 326.337 351.167C326.044 351.46 325.647 351.625 325.232 351.625C324.818 351.625 324.421 351.46 324.128 351.167C323.835 350.874 323.67 350.477 323.67 350.062V343.812C323.67 343.398 323.835 343.001 324.128 342.708C324.421 342.415 324.818 342.25 325.232 342.25Z" fill="#3B8686"/>
<path d="M343.982 323.5C344.397 323.5 344.794 323.665 345.087 323.958C345.38 324.251 345.545 324.648 345.545 325.062V331.312C345.545 331.727 345.38 332.124 345.087 332.417C344.794 332.71 344.397 332.875 343.982 332.875C343.568 332.875 343.171 332.71 342.878 332.417C342.585 332.124 342.42 331.727 342.42 331.312V325.062C342.42 324.648 342.585 324.251 342.878 323.958C343.171 323.665 343.568 323.5 343.982 323.5Z" fill="#3B8686"/>
<path d="M350.232 326.625C349.818 326.625 349.421 326.46 349.128 326.167C348.835 325.874 348.67 325.477 348.67 325.062V320.375H343.982C343.568 320.375 343.171 320.21 342.878 319.917C342.585 319.624 342.42 319.227 342.42 318.812C342.42 318.398 342.585 318.001 342.878 317.708C343.171 317.415 343.568 317.25 343.982 317.25H350.232C350.647 317.25 351.044 317.415 351.337 317.708C351.63 318.001 351.795 318.398 351.795 318.812V325.062C351.795 325.477 351.63 325.874 351.337 326.167C351.044 326.46 350.647 326.625 350.232 326.625Z" fill="#3B8686"/>
<path d="M343.982 354.75H348.67V350.062C348.67 349.648 348.835 349.251 349.128 348.958C349.421 348.665 349.818 348.5 350.232 348.5C350.647 348.5 351.044 348.665 351.337 348.958C351.63 349.251 351.795 349.648 351.795 350.062V356.312C351.795 356.727 351.63 357.124 351.337 357.417C351.044 357.71 350.647 357.875 350.232 357.875H343.982C343.568 357.875 343.171 357.71 342.878 357.417C342.585 357.124 342.42 356.727 342.42 356.312C342.42 355.898 342.585 355.501 342.878 355.208C343.171 354.915 343.568 354.75 343.982 354.75Z" fill="#3B8686"/>
<path d="M300.232 317.25H306.482C306.897 317.25 307.294 317.415 307.587 317.708C307.88 318.001 308.045 318.398 308.045 318.812C308.045 319.227 307.88 319.624 307.587 319.917C307.294 320.21 306.897 320.375 306.482 320.375H301.795V325.062C301.795 325.477 301.63 325.874 301.337 326.167C301.044 326.46 300.647 326.625 300.232 326.625C299.818 326.625 299.421 326.46 299.128 326.167C298.835 325.874 298.67 325.477 298.67 325.062V318.812C298.67 318.398 298.835 318.001 299.128 317.708C299.421 317.415 299.818 317.25 300.232 317.25Z" fill="#3B8686"/>
<path d="M300.232 348.5C300.647 348.5 301.044 348.665 301.337 348.958C301.63 349.251 301.795 349.648 301.795 350.062V354.75H306.482C306.897 354.75 307.294 354.915 307.587 355.208C307.88 355.501 308.045 355.898 308.045 356.312C308.045 356.727 307.88 357.124 307.587 357.417C307.294 357.71 306.897 357.875 306.482 357.875H300.232C299.818 357.875 299.421 357.71 299.128 357.417C298.835 357.124 298.67 356.727 298.67 356.312V350.062C298.67 349.648 298.835 349.251 299.128 348.958C299.421 348.665 299.818 348.5 300.232 348.5Z" fill="#3B8686"/>
<g clip-path="url(#clip2_66_853)">
<path d="M284.086 772.192H342.42C349.312 772.192 354.92 766.584 354.92 759.692V701.359C354.92 694.467 349.312 688.859 342.42 688.859H309.086C306.782 688.859 304.92 690.726 304.92 693.026C304.92 695.325 306.782 697.192 309.086 697.192H342.42C344.72 697.192 346.586 699.063 346.586 701.359V759.692C346.586 761.988 344.72 763.859 342.42 763.859H284.086C281.787 763.859 279.92 761.988 279.92 759.692V726.359C279.92 724.059 278.058 722.192 275.754 722.192C273.449 722.192 271.586 724.059 271.586 726.359V759.692C271.586 766.584 277.195 772.192 284.086 772.192Z" fill="#607D8B"/>
<path d="M282.886 685.43L315.854 718.397C316.145 718.688 316.341 719.059 316.424 719.459L319.37 734.193C319.507 734.875 319.291 735.58 318.799 736.076C318.403 736.471 317.87 736.684 317.324 736.684C317.191 736.684 317.053 736.671 316.916 736.642L302.186 733.697C301.778 733.613 301.407 733.417 301.12 733.125L268.153 700.159L282.886 685.43Z" fill="#42A5F5"/>
<path d="M257.97 675.243C262.032 671.18 268.641 671.18 272.7 675.243L278.466 681.009L263.737 695.738L257.97 689.971C256.003 688.009 254.92 685.392 254.92 682.609C254.92 679.826 256.003 677.209 257.97 675.243Z" fill="#42A5F5"/>
</g>
<defs>
<clipPath id="clip0_66_853">
<rect width="100" height="100" fill="white" transform="translate(55 466)"/>
</clipPath>
<clipPath id="clip1_66_853">
<rect width="100" height="100" fill="white" transform="translate(55 883)"/>
</clipPath>
<clipPath id="clip2_66_853">
<rect width="100" height="100" fill="white" transform="matrix(-1 0 0 1 354.92 672)"/>
</clipPath>
</defs>
</svg>
