<svg width="24" height="24" viewBox="0 0 24 24" fill="none" xmlns="http://www.w3.org/2000/svg">
<g clip-path="url(#clip0_509_1376)">
<path d="M12 6.03906C8.17879 6.03906 4.71351 8.12968 2.15649 11.5254C1.94784 11.8036 1.94784 12.1923 2.15649 12.4705C4.71351 15.8703 8.17879 17.9609 12 17.9609C15.8212 17.9609 19.2865 15.8703 21.8435 12.4746C22.0522 12.1964 22.0522 11.8077 21.8435 11.5295C19.2865 8.12968 15.8212 6.03906 12 6.03906ZM12.2741 16.1976C9.73755 16.3572 7.64284 14.2665 7.80239 11.7259C7.93331 9.63117 9.63118 7.9333 11.7259 7.80238C14.2625 7.64283 16.3572 9.73345 16.1976 12.2741C16.0626 14.3647 14.3647 16.0626 12.2741 16.1976ZM12.1473 14.2584C10.7808 14.3443 9.65163 13.2192 9.74164 11.8527C9.81119 10.7235 10.7276 9.81118 11.8568 9.73754C13.2233 9.65162 14.3525 10.7767 14.2625 12.1432C14.1888 13.2765 13.2724 14.1888 12.1473 14.2584Z" fill="#A1A1A1"/>
</g>
<defs>
<clipPath id="clip0_509_1376">
<rect width="20" height="20" fill="white" transform="translate(2 2)"/>
</clipPath>
</defs>
</svg>
