<svg width="25" height="24" viewBox="0 0 25 24" fill="none" xmlns="http://www.w3.org/2000/svg">
<path d="M12.4999 3.75C11.0442 3.74935 9.61422 4.13408 8.35532 4.8651C7.09642 5.59612 6.05347 6.64737 5.33247 7.91203C4.61146 9.17669 4.23809 10.6097 4.25029 12.0654C4.26249 13.5211 4.65984 14.9476 5.40195 16.2L4.2957 19.2435C4.25448 19.3568 4.24116 19.4783 4.25687 19.5978C4.27259 19.7173 4.31687 19.8312 4.38596 19.93C4.45506 20.0287 4.54694 20.1094 4.65382 20.1651C4.76069 20.2208 4.87942 20.2499 4.99995 20.25C5.08739 20.2498 5.17415 20.2346 5.25645 20.205L8.29995 19.098C9.39223 19.7451 10.6191 20.1313 11.8851 20.2267C13.1511 20.3221 14.422 20.124 15.5989 19.6478C16.7758 19.1717 17.8269 18.4304 18.6704 17.4816C19.514 16.5328 20.1271 15.4021 20.4622 14.1776C20.7973 12.953 20.8453 11.6677 20.6024 10.4216C20.3595 9.17546 19.8323 8.00222 19.0618 6.99319C18.2913 5.98416 17.2984 5.16656 16.1602 4.60404C15.0221 4.04152 13.7695 3.74925 12.4999 3.75Z" fill="#A1A1A1"/>
</svg>
