<svg width="28" height="28" viewBox="0 0 28 28" fill="none" xmlns="http://www.w3.org/2000/svg">
<path d="M25 0H3C2.20757 0.0103599 1.45052 0.329269 0.890137 0.889648C0.329758 1.45003 0.0103599 2.20757 0 3V25C0.0103599 25.7924 0.329758 26.55 0.890137 27.1104C1.45052 27.6707 2.20757 27.9896 3 28H11.58V18.5H7.64001V14H11.58V10.5996C11.58 6.69961 13.8901 4.59961 17.4301 4.59961C18.5925 4.61515 19.7522 4.71619 20.9 4.90039V8.7002H18.95C18.6184 8.65543 18.281 8.68525 17.9626 8.78809C17.6443 8.89092 17.3531 9.06369 17.1104 9.29395C16.8676 9.5242 16.6796 9.80663 16.5602 10.1191C16.4407 10.4316 16.3928 10.7662 16.42 11.0996V14H20.72L20.03 18.5H16.42V28H25C25.7924 27.9896 26.5495 27.6707 27.1099 27.1104C27.6702 26.55 27.9896 25.7924 28 25V3C27.9896 2.20757 27.6702 1.45003 27.1099 0.889648C26.5495 0.329269 25.7924 0.0103599 25 0Z" fill="white"/>
</svg>
