<svg id="ic_informations" xmlns="http://www.w3.org/2000/svg" width="26" height="26" viewBox="0 0 26 26">
  <path id="Path_3127" data-name="Path 3127" d="M236.731,107.7a1.032,1.032,0,1,1-1.032-1.032A1.032,1.032,0,0,1,236.731,107.7Zm0,0" transform="translate(-222.7 -101.228)" fill="#fff"/>
  <path id="Path_3128" data-name="Path 3128" d="M205.247,202.318a.774.774,0,0,1-.774-.774v-8h-1.032a.774.774,0,1,1,0-1.548h1.806a.774.774,0,0,1,.774.774v8.77A.774.774,0,0,1,205.247,202.318Zm0,0" transform="translate(-192.3 -181.919)" fill="#fff"/>
  <path id="Path_3129" data-name="Path 3129" d="M13,26A13,13,0,1,1,26,13,13.014,13.014,0,0,1,13,26ZM13,1.625A11.375,11.375,0,1,0,24.375,13,11.387,11.387,0,0,0,13,1.625Zm0,0" fill="#fff"/>
  <path id="Path_3130" data-name="Path 3130" d="M197.417,374.88h-4.643a.774.774,0,1,1,0-1.548h4.643a.774.774,0,1,1,0,1.548Zm0,0" transform="translate(-182.095 -354.314)" fill="#fff"/>
</svg>
