<svg width="28" height="28" viewBox="0 0 28 28" fill="none" xmlns="http://www.w3.org/2000/svg">
<path d="M14 10.7002C13.3514 10.7107 12.7156 10.8825 12.15 11.2002C11.5922 11.5763 11.1592 12.11 10.9062 12.7334C10.6533 13.3568 10.5919 14.0417 10.73 14.7002C10.879 15.3368 11.1929 15.9233 11.64 16.4004C12.1436 16.8125 12.7252 17.1181 13.35 17.2998C14.0001 17.3847 14.6611 17.316 15.28 17.0996C15.8674 16.8276 16.379 16.4163 16.77 15.9004C17.1364 15.3345 17.3309 14.6742 17.33 14C17.3193 13.1066 16.9731 12.2495 16.36 11.5996C15.7181 11.0077 14.873 10.686 14 10.7002ZM21.79 8.09961C21.6206 7.68403 21.365 7.3095 21.04 7C20.7252 6.64631 20.3311 6.37237 19.89 6.2002C18.58 5.7002 15.46 5.7998 14 5.7998C12.54 5.7998 9.41998 5.7002 8.10999 6.2002C7.66745 6.36967 7.27275 6.64403 6.95996 7C6.632 7.30906 6.373 7.68352 6.19995 8.09961C5.68995 9.39961 5.80005 12.5 5.80005 14C5.80005 15.5 5.68996 18.6004 6.20996 19.9004C6.37936 20.316 6.63498 20.6905 6.95996 21C7.27479 21.3537 7.66889 21.6276 8.10999 21.7998C9.41998 22.2998 12.55 22.2002 14 22.2002C15.45 22.2002 18.58 22.2998 19.9 21.7998C20.3396 21.6301 20.7309 21.3556 21.04 21C21.368 20.6909 21.627 20.3165 21.8 19.9004C22.32 18.6004 22.2 15.5 22.2 14C22.2 12.5 22.32 9.39961 21.8 8.09961H21.79ZM14 19.0996C12.9959 19.0902 12.0123 18.8143 11.15 18.2998C10.3237 17.7207 9.67311 16.9251 9.27002 16C8.88493 15.0493 8.78076 14.0081 8.96997 13C9.1651 12.0103 9.65693 11.1038 10.38 10.4004C11.1001 9.69086 12.0099 9.20427 13 9C13.9943 8.79842 15.0263 8.90282 15.96 9.2998C16.9073 9.67552 17.7122 10.3408 18.26 11.2002C18.824 12.0247 19.1239 13.001 19.12 14C19.12 14.6846 18.9911 15.3631 18.74 16C18.4671 16.5946 18.0914 17.1358 17.63 17.5996C17.1718 18.0974 16.5983 18.4758 15.96 18.7002C15.3455 18.9806 14.6752 19.1169 14 19.0996ZM19.34 9.90039C19.1043 9.88584 18.8751 9.81722 18.67 9.7002C18.4886 9.52815 18.3395 9.32434 18.23 9.09961C18.1372 8.87851 18.1129 8.63548 18.16 8.40039C18.2223 8.17762 18.3352 7.97169 18.49 7.7998C18.5627 7.70728 18.6553 7.63201 18.7609 7.58008C18.8665 7.52815 18.9823 7.50109 19.1 7.5C19.2155 7.46713 19.3368 7.45933 19.4557 7.47656C19.5746 7.4938 19.6886 7.53529 19.79 7.59961C19.9052 7.61901 20.0141 7.66584 20.1079 7.73535C20.2018 7.80487 20.2778 7.89549 20.33 8C20.4685 8.20654 20.5385 8.45165 20.53 8.7002C20.5291 8.83844 20.4983 8.97427 20.4399 9.09961C20.4 9.25805 20.3086 9.39913 20.1801 9.5C20.0592 9.60717 19.9323 9.70714 19.8 9.7998C19.65 9.7998 19.5 9.90039 19.34 9.90039ZM25 0H3C2.20757 0.0103599 1.45052 0.329269 0.890137 0.889648C0.329758 1.45003 0.0103599 2.20757 0 3V25C0.0103599 25.7924 0.329758 26.55 0.890137 27.1104C1.45052 27.6707 2.20757 27.9896 3 28H25C25.7924 27.9896 26.5495 27.6707 27.1099 27.1104C27.6702 26.55 27.9896 25.7924 28 25V3C27.9896 2.20757 27.6702 1.45003 27.1099 0.889648C26.5495 0.329269 25.7924 0.0103599 25 0ZM23.9301 18.0996C23.9517 19.6561 23.3714 21.161 22.3101 22.2998C21.7652 22.8457 21.1112 23.2702 20.3909 23.5459C19.6705 23.8216 18.9001 23.943 18.13 23.9004C16.48 24.0004 11.53 24.0004 9.88 23.9004C8.32689 23.941 6.82065 23.3653 5.68994 22.2998C4.62865 21.161 4.04826 19.6561 4.06995 18.0996C3.97995 16.4996 3.97995 11.5004 4.06995 9.90039C4.04826 8.34389 4.62865 6.83898 5.68994 5.7002C6.82153 4.6361 8.32717 4.06059 9.88 4.09961C11.53 3.99961 16.48 3.99961 18.13 4.09961C19.6801 4.05899 21.1832 4.6349 22.3101 5.7002C23.3714 6.83898 23.9517 8.34389 23.9301 9.90039C24.0201 11.5004 24.0201 16.4996 23.9301 18.0996Z" fill="white"/>
</svg>
