<svg width="28" height="28" viewBox="0 0 28 28" fill="none" xmlns="http://www.w3.org/2000/svg">
<path d="M26 0H1.98999C1.46129 0.00264352 0.955188 0.214081 0.582275 0.588867C0.209363 0.963654 -6.6087e-06 1.4713 1.5666e-10 2V26C-6.6087e-06 26.5287 0.209363 27.0363 0.582275 27.4111C0.955188 27.7859 1.46129 27.9974 1.98999 28H26C26.5299 27.9984 27.0377 27.7868 27.4125 27.4121C27.7872 27.0374 27.9984 26.5299 28 26V2C27.9984 1.47005 27.7872 0.962621 27.4125 0.587891C27.0377 0.21316 26.5299 0.00158273 26 0ZM8.45996 24H4.31006V10.5996H8.46997V24H8.45996ZM6.39001 8.7998C5.91534 8.7998 5.45132 8.65922 5.05664 8.39551C4.66196 8.13179 4.35438 7.7569 4.17273 7.31836C3.99108 6.87982 3.94353 6.39719 4.03613 5.93164C4.12874 5.46609 4.35735 5.03877 4.69299 4.70312C5.02864 4.36748 5.4562 4.1385 5.92175 4.0459C6.38731 3.95329 6.86993 4.00097 7.30847 4.18262C7.74701 4.36427 8.12178 4.67173 8.3855 5.06641C8.64921 5.46108 8.79004 5.92572 8.79004 6.40039C8.7843 7.03513 8.52954 7.64197 8.08069 8.09082C7.63184 8.53967 7.02476 8.79406 6.39001 8.7998ZM24.02 24H19.87V17.5C19.87 16 19.84 14 17.71 14C15.55 14 15.22 15.6004 15.22 17.4004V24H11.0699V10.5996H15.05V12.5H15.11C15.4969 11.8052 16.0694 11.2312 16.7633 10.8428C17.4573 10.4543 18.2455 10.2664 19.04 10.2998C23.24 10.2998 24.02 13.1002 24.02 16.7002V24Z" fill="white"/>
</svg>
