<svg width="28" height="28" viewBox="0 0 28 28" fill="none" xmlns="http://www.w3.org/2000/svg">
<path d="M28.0001 3.00014V25.0001C28.004 25.3952 27.9291 25.7868 27.7797 26.1525C27.6303 26.5182 27.4095 26.8507 27.1301 27.13C26.8508 27.4094 26.5185 27.63 26.1527 27.7794C25.787 27.9288 25.3952 28.004 25.0001 28.0001H9.65017C10.3795 26.8469 10.9543 25.6027 11.3601 24.2999C11.5501 23.5999 12.3201 20.5998 12.3201 20.5998C12.7023 21.1773 13.2272 21.6467 13.8439 21.9621C14.4606 22.2774 15.1481 22.4288 15.8401 22.4005C20.4701 22.4005 23.8002 18.2005 23.8002 12.9005C23.8002 7.80053 19.6601 4.00014 14.3401 4.00014C7.71011 4.00014 4.20009 8.39995 4.20009 13.2999C4.20009 15.4999 5.4002 18.3003 7.3102 19.2003C7.6102 19.4003 7.76009 19.3001 7.82009 19.0001C7.87009 18.8001 8.14014 17.7999 8.25014 17.2999C8.29014 17.0999 8.27016 17.0005 8.14016 16.9005C7.40976 15.8786 7.01171 14.6566 7.00014 13.4005C6.99441 12.4995 7.17146 11.6062 7.52065 10.7755C7.86984 9.94489 8.38396 9.19382 9.03176 8.56752C9.67956 7.94123 10.4476 7.45294 11.2896 7.13198C12.1315 6.81101 13.0299 6.66421 13.9302 6.70034C14.7667 6.65244 15.604 6.77861 16.3894 7.07046C17.1748 7.3623 17.8912 7.81313 18.4934 8.39565C19.0957 8.97817 19.5707 9.67899 19.8886 10.4542C20.2064 11.2295 20.3601 12.0629 20.3401 12.9005C20.3401 17.1005 18.2502 20.0001 15.5202 20.0001C15.1707 20.012 14.8232 19.9427 14.5049 19.798C14.1866 19.6533 13.9061 19.4373 13.6853 19.1662C13.4645 18.895 13.3096 18.5765 13.2323 18.2355C13.1551 17.8945 13.1577 17.5401 13.2401 17.2003C13.6701 15.4003 14.5102 13.3998 14.5102 12.0998C14.5102 8.79975 9.79018 9.19975 9.79018 13.5998C9.77547 14.3907 9.93237 15.1761 10.2501 15.9005C8.29014 24.2005 7.99017 24.3001 8.40017 28.0001H3.00014C2.6051 28.004 2.21328 27.9288 1.84756 27.7794C1.48183 27.63 1.14949 27.4094 0.870138 27.13C0.590787 26.8507 0.369994 26.5182 0.220602 26.1525C0.0712101 25.7868 -0.00373225 25.3952 0.000142964 25.0001V3.00014C-0.00373225 2.6051 0.0712101 2.21353 0.220602 1.8478C0.369994 1.48207 0.590787 1.14961 0.870138 0.87026C1.14949 0.590909 1.48183 0.370237 1.84756 0.220846C2.21328 0.0714538 2.6051 -0.00373269 3.00014 0.00014253H25.0001C25.3952 -0.00373269 25.787 0.0714538 26.1527 0.220846C26.5185 0.370237 26.8508 0.590909 27.1301 0.87026C27.4095 1.14961 27.6303 1.48207 27.7797 1.8478C27.9291 2.21353 28.004 2.6051 28.0001 3.00014Z" fill="white"/>
</svg>
