<svg width="25" height="24" viewBox="0 0 25 24" fill="none" xmlns="http://www.w3.org/2000/svg">
<g clip-path="url(#clip0_602_839)">
<path d="M21.4529 9.90409C21.3344 9.53961 21.0111 9.28156 20.6302 9.24709L15.4341 8.77536L13.3806 3.96766C13.229 3.61444 12.884 3.38647 12.5 3.38647C12.116 3.38647 11.7709 3.61444 11.6203 3.96766L9.56676 8.77536L4.36987 9.24709C3.98891 9.28225 3.66632 9.5403 3.54712 9.90409C3.4286 10.2686 3.53805 10.6683 3.82617 10.921L7.75399 14.3652L6.59587 19.4659C6.51114 19.841 6.65671 20.2288 6.9679 20.4537C7.13517 20.5753 7.33169 20.636 7.5289 20.636C7.69837 20.636 7.86797 20.5909 8.01945 20.5003L12.5 17.8212L16.9798 20.5003C17.3084 20.6967 17.7216 20.6787 18.0321 20.4537C18.3433 20.2288 18.4889 19.841 18.4042 19.4659L17.2461 14.3652L21.1739 10.921C21.4619 10.6683 21.5714 10.2694 21.4529 9.90409Z" fill="#A1A1A1"/>
</g>
<defs>
<clipPath id="clip0_602_839">
<rect width="18" height="18" fill="white" transform="translate(3.5 3)"/>
</clipPath>
</defs>
</svg>
