<svg id="trophy" xmlns="http://www.w3.org/2000/svg" width="22" height="22" viewBox="0 0 22 22">
  <g id="Group_2687" data-name="Group 2687" transform="translate(0)">
    <path id="Path_9776" data-name="Path 9776" d="M20.9,1.1H17.6V0H4.4V1.1H1.1A1.039,1.039,0,0,0,0,2.2V4.84A4.99,4.99,0,0,0,4.4,9.79V9.9a6.616,6.616,0,0,0,5.17,6.49L8.8,18.7H6.27a1.057,1.057,0,0,0-.99.77L4.4,22H17.6l-.88-2.53a1.057,1.057,0,0,0-.99-.77H13.2l-.77-2.31A6.616,6.616,0,0,0,17.6,9.9V9.79A4.99,4.99,0,0,0,22,4.84V2.2A1.039,1.039,0,0,0,20.9,1.1ZM4.4,7.59A2.938,2.938,0,0,1,2.2,4.84V3.3H4.4ZM13.2,11,11,9.79,8.8,11l.55-2.2L7.7,6.6h2.31L11,4.4l.99,2.2H14.3L12.65,8.8Zm6.6-6.16a2.838,2.838,0,0,1-2.2,2.75V3.3h2.2Z" transform="translate(0)" fill="rgba(255,255,255,0.69)"/>
  </g>
</svg>
