<svg xmlns="http://www.w3.org/2000/svg" width="63" height="63" viewBox="0 0 63 63">
  <g id="ic_tumblr" transform="translate(21149 -7719)">
    <circle id="Ellipse_1443" data-name="Ellipse 1443" cx="31.5" cy="31.5" r="31.5" transform="translate(-21149 7719)" fill="#22579b"/>
    <path id="Path_117728" data-name="Path 117728" d="M40.728,47.925a.5.5,0,0,1-.168.382c-.136.119-3.351,2.878-10.732,2.878-8.85,0-9.108-9.905-9.108-11.037L20.637,28h-4.13A.507.507,0,0,1,16,27.493V22.7a.517.517,0,0,1,.321-.478c.08-.031,7.992-3.219,7.992-10.715A.505.505,0,0,1,24.819,11H29.4a.508.508,0,0,1,.507.51v10.31h8.763a.508.508,0,0,1,.51.507V27.5a.506.506,0,0,1-.51.505H29.91V39.919a4.288,4.288,0,0,0,4.266,3.893,12.3,12.3,0,0,0,5.78-1.631.5.5,0,0,1,.773.433v5.31Z" transform="translate(-21145.863 7719.408)" fill="#fff"/>
  </g>
</svg>
