<svg width="24" height="24" viewBox="0 0 24 24" fill="none" xmlns="http://www.w3.org/2000/svg">
<g clip-path="url(#clip0_602_1393)">
<path d="M12 3.75C10.3683 3.75 8.77325 4.23385 7.41655 5.14038C6.05984 6.0469 5.00242 7.33537 4.378 8.84286C3.75357 10.3504 3.5902 12.0092 3.90853 13.6095C4.22685 15.2098 5.01259 16.6798 6.16637 17.8336C7.32016 18.9874 8.79017 19.7732 10.3905 20.0915C11.9909 20.4098 13.6497 20.2464 15.1571 19.622C16.6646 18.9976 17.9531 17.9402 18.8596 16.5835C19.7661 15.2268 20.25 13.6317 20.25 12C20.2474 9.81276 19.3774 7.71584 17.8308 6.16922C16.2842 4.6226 14.1872 3.75258 12 3.75ZM14.7803 14.7803C14.6396 14.9209 14.4489 14.9998 14.25 14.9998C14.0511 14.9998 13.8604 14.9209 13.7198 14.7803L11.4698 12.5303C11.3291 12.3896 11.25 12.1989 11.25 12V7.5C11.25 7.30109 11.329 7.11032 11.4697 6.96967C11.6103 6.82902 11.8011 6.75 12 6.75C12.1989 6.75 12.3897 6.82902 12.5303 6.96967C12.671 7.11032 12.75 7.30109 12.75 7.5V11.6895L14.7803 13.7198C14.9209 13.8604 14.9998 14.0511 14.9998 14.25C14.9998 14.4489 14.9209 14.6396 14.7803 14.7803Z" fill="#A1A1A1"/>
</g>
<defs>
<clipPath id="clip0_602_1393">
<rect width="18" height="18" fill="white" transform="translate(3 3)"/>
</clipPath>
</defs>
</svg>
