<svg width="28" height="28" viewBox="0 0 28 28" fill="none" xmlns="http://www.w3.org/2000/svg">
<path d="M25.0001 0.00014253H3.00014C2.6051 -0.00373269 2.21328 0.0714538 1.84756 0.220846C1.48183 0.370237 1.14949 0.590909 0.870138 0.87026C0.590787 1.14961 0.369994 1.48207 0.220602 1.8478C0.0712101 2.21353 -0.00373225 2.6051 0.000142964 3.00014V25.0001C-0.00373225 25.3952 0.0712101 25.7868 0.220602 26.1525C0.369994 26.5182 0.590787 26.8507 0.870138 27.13C1.14949 27.4094 1.48183 27.63 1.84756 27.7794C2.21328 27.9288 2.6051 28.004 3.00014 28.0001H25.0001C25.3952 28.004 25.787 27.9288 26.1527 27.7794C26.5185 27.63 26.8508 27.4094 27.1301 27.13C27.4095 26.8507 27.6303 26.5182 27.7797 26.1525C27.9291 25.7868 28.004 25.3952 28.0001 25.0001V3.00014C28.004 2.6051 27.9291 2.21353 27.7797 1.8478C27.6303 1.48207 27.4095 1.14961 27.1301 0.87026C26.8508 0.590909 26.5185 0.370237 26.1527 0.220846C25.787 0.0714538 25.3952 -0.00373269 25.0001 0.00014253V0.00014253ZM21.9401 9.90053C21.9568 10.1001 21.9635 10.2999 21.9601 10.5001C21.9671 12.0313 21.6695 13.5489 21.0846 14.964C20.4997 16.3791 19.6393 17.6638 18.5534 18.7433C17.4674 19.8228 16.1775 20.6748 14.7589 21.2511C13.3403 21.8275 11.8213 22.1159 10.2902 22.0998C8.06819 22.0874 5.89227 21.465 4.00014 20.2999H4.99013C6.82681 20.3229 8.61717 19.7235 10.0701 18.5998C9.20931 18.575 8.37772 18.2827 7.69118 17.7628C7.00465 17.243 6.49741 16.5221 6.24013 15.7003C6.85278 15.7999 7.47746 15.7999 8.09011 15.7003C7.1589 15.4913 6.32669 14.971 5.73049 14.2257C5.13429 13.4805 4.80975 12.5541 4.8102 11.5998V11.5998C5.37512 11.9191 6.01131 12.091 6.66018 12.0998C6.10288 11.7108 5.64396 11.1972 5.32009 10.5998C5.00028 10.0179 4.83503 9.36429 4.84011 8.70034C4.83183 7.96368 5.02184 7.23777 5.39016 6.59975C6.42059 7.86647 7.70475 8.9041 9.16006 9.64467C10.6154 10.3852 12.2095 10.8131 13.8401 10.9005C13.6406 10.0213 13.7366 9.10064 14.1131 8.28139C14.4895 7.46215 15.1255 6.78963 15.9226 6.36831C16.7197 5.94698 17.6334 5.79996 18.5224 5.95034C19.4113 6.10072 20.2259 6.54028 20.8401 7.20034C21.7451 6.9769 22.6186 6.64095 23.4401 6.20034C23.1185 7.12312 22.481 7.90262 21.6402 8.40053C22.4579 8.3527 23.2589 8.14846 24.0001 7.79995C23.4287 8.60436 22.7334 9.31373 21.9401 9.90053V9.90053Z" fill="white"/>
</svg>
