<?xml version="1.0" encoding="utf-8"?>
<!-- Generator: Adobe Illustrator 23.0.1, SVG Export Plug-In . SVG Version: 6.00 Build 0)  -->
<svg version="1.1" id="Layer_1" xmlns="http://www.w3.org/2000/svg" xmlns:xlink="http://www.w3.org/1999/xlink" x="0px" y="0px"
	 viewBox="0 0 73 35" style="enable-background:new 0 0 73 35;" xml:space="preserve">
<style type="text/css">
	.st0{fill:#AFAEAE;}
	.st1{fill:#CE2E2E;}
</style>
<g>
	<g>
		<path class="st0" d="M-460.8,223.7c0.2,0,0.4-0.1,0.6-0.1h3.4v-6.9h-4V223.7z M-466.8,251.8h2v-35h-2V251.8z M-450.8,223.7
			c0.6-0.2,1.3-0.3,2-0.3v-6.7h-2V223.7z M-475.8,251.8h1v-35h-1V251.8z M-469.8,251.8h2v-35h-2V251.8z M-473.8,251.8h2v-35h-2
			V251.8z M-438.8,223.6c0.3,0,0.7,0,1,0v-6.8h-1V223.6z M-426.8,223.6h2v-6.9h-2V223.6z M-423.8,223.6h0.1c1.1,0,2.1,0.6,2.6,1.5
			l0.2,0.3c0.2-0.5,0.6-1,1.1-1.3v-7.4h-4V223.6z M-417.8,223.6h2.9c0,0,0.1,0,0.1,0v-6.9h-3V223.6z M-447.8,223.4
			c1.8,0,3.4,0.4,4.9,1c0,0,0.1-0.1,0.1-0.1v-7.6h-5V223.4z M-433.8,223.8c1.4,0.2,2.5,0.6,3.5,1.3c0.5-0.8,1.5-1.4,2.5-1.4v-6.9h-6
			V223.8z M-441.8,223.9c0,0,0.1,0,0.1,0c0.3,0,0.6-0.1,0.9-0.1v-7h-1V223.9z M-463.8,251.8h2v-7c-0.8-0.5-1.4-1.5-1.4-2.5v-15.5
			c0-1.1,0.6-2,1.4-2.5v-7.4h-2V251.8z M-455.8,223.8c0.8,0.2,1.4,0.7,1.8,1.4c0.7-0.5,1.4-0.9,2.2-1.2v-7.3h-4V223.8z
			 M-417.8,245.2v6.6h3v-6.6c0,0-0.1,0-0.1,0H-417.8z M-412.8,224.5c0.5,0.5,0.9,1.3,0.9,2.1v15.5c0,0.8-0.3,1.6-0.9,2.1v7.4h1v-35
			h-1V224.5z M-426.8,251.8h2v-6.6h-2V251.8z M-421.3,243.6l-0.4-0.7c-0.3,1.1-1.1,1.9-2.2,2.2v6.7h4v-6.8
			C-420.4,244.6-420.9,244.2-421.3,243.6z M-404.8,216.8v35h2v-35H-404.8z M-410.8,251.8h1v-35h-1V251.8z M-406.8,251.8h1v-35h-1
			V251.8z M-430.8,242.2v-3.9c-0.9,0.5-1.9,0.9-3,1.1v12.3h6v-6.6C-429.5,245.2-430.8,243.8-430.8,242.2z M-450.8,245.4v6.4h2v-6.4
			c-0.3,0-0.7,0-1,0C-450.2,245.4-450.5,245.4-450.8,245.4z M-443.8,243.7c-1.1,0.7-2.4,1.3-4.1,1.5v6.5h5v-7.1
			C-443.2,244.4-443.5,244.1-443.8,243.7z M-455.8,245v6.7h4v-6.5c-1.1-0.2-2.1-0.4-3-0.7C-455.1,244.8-455.5,244.9-455.8,245z
			 M-441.8,245.1v6.6h1v-6.6h-0.4C-441.4,245.2-441.6,245.1-441.8,245.1z M-460.8,245.1v6.6h4v-6.6h-3.4
			C-460.4,245.2-460.6,245.2-460.8,245.1z M-438.8,251.8h1v-6.6h-1V251.8z"/>
	</g>
</g>
<g>
	<text transform="matrix(1 0 0 1 -461.6662 242.1022)" class="st1" style="font-family:'MyriadPro-Bold'; font-size:23.0581px;">ISPN</text>
</g>
<g>
	<path class="st0" d="M15,7c0.2,0,0.4-0.1,0.6-0.1H19V0h-4V7z"/>
	<rect class="st0" width="1" height="35"/>
	<path class="st0" d="M20,7c0.8,0.2,1.4,0.7,1.8,1.4C22.4,8,23.2,7.6,24,7.3V0h-4V7z"/>
	<rect x="6" class="st0" width="2" height="35"/>
	<rect x="2" class="st0" width="2" height="35"/>
	<rect x="9" class="st0" width="2" height="35"/>
	<path class="st0" d="M28,6.7c1.8,0,3.4,0.4,4.9,1c0,0,0.1-0.1,0.1-0.1V0h-5V6.7z"/>
	<path class="st0" d="M52,6.9h0.1c1.1,0,2.1,0.6,2.6,1.5l0.2,0.3c0.2-0.5,0.6-1,1.1-1.3V0h-4V6.9z"/>
	<path class="st0" d="M58,6.9h2.9c0,0,0.1,0,0.1,0V0h-3V6.9z"/>
	<path class="st0" d="M12,35h2v-7c-0.8-0.5-1.4-1.5-1.4-2.5V9.9c0-1.1,0.6-2,1.4-2.5V0h-2V35z"/>
	<rect x="49" class="st0" width="2" height="6.9"/>
	<path class="st0" d="M34,7.2c0,0,0.1,0,0.1,0c0.3,0,0.6-0.1,0.9-0.1V0h-1V7.2z"/>
	<path class="st0" d="M37,6.8c0.3,0,0.7,0,1,0V0h-1V6.8z"/>
	<path class="st0" d="M42,7c1.4,0.2,2.5,0.6,3.5,1.3C46,7.5,46.9,6.9,48,6.9V0h-6V7z"/>
	<path class="st0" d="M25,7c0.6-0.2,1.3-0.3,2-0.3V0h-2V7z"/>
	<path class="st0" d="M63,7.8c0.5,0.5,0.9,1.3,0.9,2.1v15.5c0,0.8-0.3,1.6-0.9,2.1V35h1V0h-1V7.8z"/>
	<path class="st0" d="M58,28.4V35h3v-6.6c0,0-0.1,0-0.1,0H58z"/>
	<rect x="49" y="28.4" class="st0" width="2" height="6.6"/>
	<path class="st0" d="M54.6,26.9l-0.4-0.7c-0.3,1.1-1.1,1.9-2.2,2.2V35h4v-6.8C55.4,27.9,54.9,27.5,54.6,26.9z"/>
	<rect x="71" class="st0" width="2" height="35"/>
	<rect x="65" class="st0" width="1" height="35"/>
	<rect x="69" class="st0" width="1" height="35"/>
	<path class="st0" d="M48,28.4V35h-6v-6.7c1.4-0.2,2.6-0.6,3.5-1.2C46.1,27.9,47,28.4,48,28.4z"/>
	<path class="st0" d="M25,28.6V35h2v-6.4c-0.3,0-0.7,0-1,0C25.7,28.7,25.3,28.6,25,28.6z"/>
	<path class="st0" d="M32.1,27c-1.1,0.7-2.4,1.3-4.1,1.5V35h5v-7.1C32.6,27.7,32.3,27.4,32.1,27z"/>
	<path class="st0" d="M20,28.3V35h4v-6.5c-1.1-0.2-2.1-0.4-3-0.7C20.7,28,20.4,28.2,20,28.3z"/>
	<rect x="37" y="28.4" class="st0" width="1" height="6.6"/>
	<path class="st0" d="M34,28.4V35h1v-6.6h-0.4C34.4,28.4,34.2,28.4,34,28.4z"/>
	<path class="st0" d="M15,28.4V35h4v-6.6h-3.4C15.4,28.4,15.2,28.4,15,28.4z"/>
	<path class="st1" d="M19.2,9.8v15.5h-3.5V9.8H19.2z"/>
	<path class="st1" d="M22.4,21.7c0.9,0.5,2.4,1,3.9,1c1.6,0,2.5-0.7,2.5-1.7c0-1-0.7-1.5-2.6-2.2c-2.6-0.9-4.3-2.4-4.3-4.6
		c0-2.7,2.2-4.7,5.9-4.7c1.8,0,3,0.3,4,0.8l-0.8,2.8c-0.6-0.3-1.7-0.7-3.2-0.7c-1.5,0-2.3,0.7-2.3,1.5c0,1,0.9,1.4,2.9,2.2
		c2.7,1,4,2.4,4,4.6c0,2.6-2,4.8-6.2,4.8c-1.8,0-3.5-0.5-4.4-1L22.4,21.7z"/>
	<path class="st1" d="M34.7,10c0.9-0.2,2.8-0.3,4.5-0.3c2.1,0,3.5,0.2,4.6,0.9c1.1,0.6,1.8,1.6,1.8,3.1c0,1.4-0.8,2.6-2.5,3.3v0
		c1.8,0.5,3.1,1.8,3.1,3.8c0,1.4-0.6,2.5-1.6,3.3c-1.1,0.9-3,1.4-6.1,1.4c-1.7,0-3-0.1-3.8-0.2V10z M38.2,16h1.2
		c1.9,0,2.8-0.8,2.8-1.9c0-1.2-0.9-1.8-2.5-1.8c-0.8,0-1.2,0-1.5,0.1V16z M38.2,22.9c0.3,0.1,0.8,0.1,1.4,0.1c1.6,0,3-0.6,3-2.3
		c0-1.6-1.4-2.2-3.2-2.2h-1.2V22.9z"/>
	<path class="st1" d="M48.6,25.4V9.8h4.1l3.2,5.7c0.9,1.6,1.8,3.6,2.5,5.3h0c-0.2-2.1-0.3-4.2-0.3-6.5V9.8h3.2v15.5h-3.7l-3.3-6
		c-0.9-1.7-2-3.7-2.7-5.5h-0.1c0.1,2.1,0.2,4.3,0.2,6.8v4.7H48.6z"/>
</g>
</svg>
