<?xml version="1.0" encoding="utf-8"?>
<!-- Generator: Adobe Illustrator 23.0.1, SVG Export Plug-In . SVG Version: 6.00 Build 0)  -->
<svg version="1.1" id="Layer_1" xmlns="http://www.w3.org/2000/svg" xmlns:xlink="http://www.w3.org/1999/xlink" x="0px" y="0px"
	 viewBox="0 0 73 35" style="enable-background:new 0 0 73 35;" xml:space="preserve">
<style type="text/css">
	.st0{fill:#AFAEAE;}
	.st1{fill:#CE2E2E;}
</style>
<g>
	<g>
		<path class="st0" d="M-241.3,462.2c0.2,0,0.4-0.1,0.6-0.1h3.4v-6.9h-4V462.2z M-247.3,490.3h2v-35h-2V490.3z M-231.3,462.2
			c0.6-0.2,1.3-0.3,2-0.3v-6.7h-2V462.2z M-256.3,490.3h1v-35h-1V490.3z M-250.3,490.3h2v-35h-2V490.3z M-254.3,490.3h2v-35h-2
			V490.3z M-219.3,462.1c0.3,0,0.7,0,1,0v-6.8h-1V462.1z M-207.3,462.1h2v-6.9h-2V462.1z M-204.3,462.1h0.1c1.1,0,2.1,0.6,2.6,1.5
			l0.2,0.3c0.2-0.5,0.6-1,1.1-1.3v-7.4h-4V462.1z M-198.3,462.1h2.9c0,0,0.1,0,0.1,0v-6.9h-3V462.1z M-228.3,461.9
			c1.8,0,3.4,0.4,4.9,1c0,0,0.1-0.1,0.1-0.1v-7.6h-5V461.9z M-214.3,462.3c1.4,0.2,2.5,0.6,3.5,1.3c0.5-0.8,1.5-1.4,2.5-1.4v-6.9h-6
			V462.3z M-222.3,462.4c0,0,0.1,0,0.1,0c0.3,0,0.6-0.1,0.9-0.1v-7h-1V462.4z M-244.3,490.3h2v-7c-0.8-0.5-1.4-1.5-1.4-2.5v-15.5
			c0-1.1,0.6-2,1.4-2.5v-7.4h-2V490.3z M-236.3,462.3c0.8,0.2,1.4,0.7,1.8,1.4c0.7-0.5,1.4-0.9,2.2-1.2v-7.3h-4V462.3z
			 M-198.3,483.7v6.6h3v-6.6c0,0-0.1,0-0.1,0H-198.3z M-193.3,463c0.5,0.5,0.9,1.3,0.9,2.1v15.5c0,0.8-0.3,1.6-0.9,2.1v7.4h1v-35h-1
			V463z M-207.3,490.3h2v-6.6h-2V490.3z M-201.8,482.1l-0.4-0.7c-0.3,1.1-1.1,1.9-2.2,2.2v6.7h4v-6.8
			C-200.9,483.1-201.4,482.7-201.8,482.1z M-185.3,455.3v35h2v-35H-185.3z M-191.3,490.3h1v-35h-1V490.3z M-187.3,490.3h1v-35h-1
			V490.3z M-211.3,480.7v-3.9c-0.9,0.5-1.9,0.9-3,1.1v12.3h6v-6.6C-210,483.7-211.3,482.3-211.3,480.7z M-231.3,483.9v6.4h2v-6.4
			c-0.3,0-0.7,0-1,0C-230.7,483.9-231,483.9-231.3,483.9z M-224.3,482.2c-1.1,0.7-2.4,1.3-4.1,1.5v6.5h5v-7.1
			C-223.7,482.9-224,482.6-224.3,482.2z M-236.3,483.5v6.7h4v-6.5c-1.1-0.2-2.1-0.4-3-0.7C-235.6,483.3-236,483.4-236.3,483.5z
			 M-222.3,483.6v6.6h1v-6.6h-0.4C-221.9,483.7-222.1,483.6-222.3,483.6z M-241.3,483.6v6.6h4v-6.6h-3.4
			C-240.9,483.7-241.1,483.7-241.3,483.6z M-219.3,490.3h1v-6.6h-1V490.3z"/>
	</g>
</g>
<g>
	<text transform="matrix(1 0 0 1 -242.1662 480.6022)" class="st1" style="font-family:'MyriadPro-Bold'; font-size:23.0581px;">ISPN</text>
</g>
<g>
	<g>
		<g>
			<path class="st0" d="M0,35h1V0H0V35z M15,7c0.2,0,0.4-0.1,0.6-0.1H19V0h-4V7z M25,7c0.6-0.2,1.3-0.3,2-0.3V0h-2V7z M20,7
				c0.8,0.2,1.4,0.7,1.8,1.4C22.4,8,23.2,7.6,24,7.3V0h-4V7z M6,35h2V0H6V35z M9,35h2V0H9V35z M2,35h2V0H2V35z M49,6.9h2V0h-2V6.9z
				 M52,6.9h0.1c1.1,0,2.1,0.6,2.6,1.5l0.2,0.3c0.2-0.5,0.6-1,1.1-1.3V0h-4V6.9z M58,6.9h2.9c0,0,0.1,0,0.1,0V0h-3V6.9z M28,6.7
				c1.8,0,3.4,0.4,4.9,1c0,0,0.1-0.1,0.1-0.1V0h-5V6.7z M34,7.2c0,0,0.1,0,0.1,0c0.3,0,0.6-0.1,0.9-0.1V0h-1V7.2z M42,7
				c1.4,0.2,2.5,0.6,3.5,1.3C46,7.5,46.9,6.9,48,6.9V0h-6V7z M37,6.8c0.3,0,0.7,0,1,0V0h-1V6.8z M12,35h2v-7
				c-0.8-0.5-1.4-1.5-1.4-2.5V9.9c0-1.1,0.6-2,1.4-2.5V0h-2V35z M63,7.8c0.5,0.5,0.9,1.3,0.9,2.1v15.5c0,0.8-0.3,1.6-0.9,2.1V35h1V0
				h-1V7.8z M49,35h2v-6.6h-2V35z M54.6,26.9l-0.4-0.7c-0.3,1.1-1.1,1.9-2.2,2.2V35h4v-6.8C55.4,27.9,54.9,27.5,54.6,26.9z M58,28.4
				V35h3v-6.6c0,0-0.1,0-0.1,0H58z M71,0v35h2V0H71z M15,28.4V35h4v-6.6h-3.4C15.4,28.4,15.2,28.4,15,28.4z M65,35h1V0h-1V35z
				 M69,35h1V0h-1V35z M32.1,27c-1.1,0.7-2.4,1.3-4.1,1.5V35h5v-7.1C32.6,27.7,32.3,27.4,32.1,27z M25,28.6V35h2v-6.4
				c-0.3,0-0.7,0-1,0C25.7,28.7,25.3,28.6,25,28.6z M20,28.3V35h4v-6.5c-1.1-0.2-2.1-0.4-3-0.7C20.7,28,20.4,28.2,20,28.3z M34,28.4
				V35h1v-6.6h-0.4C34.4,28.4,34.2,28.4,34,28.4z M45,25.4v-3.9c-0.9,0.5-1.9,0.9-3,1.1V35h6v-6.6C46.4,28.4,45,27.1,45,25.4z
				 M37,35h1v-6.6h-1V35z"/>
		</g>
	</g>
	<g>
		<g>
			<path class="st1" d="M19.2,9.8v15.5h-3.5V9.8H19.2z"/>
			<path class="st1" d="M22.4,21.7c0.9,0.5,2.4,1,3.9,1c1.6,0,2.5-0.7,2.5-1.7c0-1-0.7-1.5-2.6-2.2c-2.6-0.9-4.3-2.4-4.3-4.6
				c0-2.7,2.2-4.7,5.9-4.7c1.8,0,3,0.3,4,0.8l-0.8,2.8c-0.6-0.3-1.7-0.7-3.2-0.7c-1.5,0-2.3,0.7-2.3,1.5c0,1,0.9,1.4,2.9,2.2
				c2.7,1,4,2.4,4,4.6c0,2.6-2,4.8-6.2,4.8c-1.8,0-3.5-0.5-4.4-1L22.4,21.7z"/>
			<path class="st1" d="M34.7,10c1.1-0.2,2.6-0.3,4.7-0.3c2.2,0,3.7,0.4,4.8,1.3c1,0.8,1.7,2.1,1.7,3.6c0,1.5-0.5,2.8-1.4,3.7
				c-1.2,1.1-3,1.6-5,1.6c-0.5,0-0.9,0-1.2-0.1v5.6h-3.5V10z M38.2,17.1c0.3,0.1,0.6,0.1,1.2,0.1c1.9,0,3-0.9,3-2.5
				c0-1.4-1-2.3-2.8-2.3c-0.7,0-1.2,0-1.4,0.1V17.1z"/>
			<path class="st1" d="M48.1,25.4V9.8h4.1l3.2,5.7c0.9,1.6,1.8,3.6,2.5,5.3h0c-0.2-2.1-0.3-4.2-0.3-6.5V9.8H61v15.5h-3.7l-3.3-6
				c-0.9-1.7-2-3.7-2.7-5.5h-0.1c0.1,2.1,0.2,4.3,0.2,6.8v4.7H48.1z"/>
		</g>
	</g>
</g>
</svg>
