<svg width="83" height="73" viewBox="0 0 83 73" fill="none" xmlns="http://www.w3.org/2000/svg">
<path d="M17.1606 7.87402H14.4878V24.7135H17.1606V7.87402Z" fill="white"/>
<path d="M20.8155 7.87402H19.3232V24.7135H20.8155V7.87402Z" fill="white"/>
<path d="M24.3761 7.87402H22.7705V24.7135H24.3761V7.87402Z" fill="white"/>
<path d="M31.4875 7.87402H26.7275V24.7135H31.4875V7.87402Z" fill="white"/>
<path d="M38.8826 7.87402H34.1226V24.7135H38.8826V7.87402Z" fill="white"/>
<path d="M44.3698 7.87402H41.5176V24.7135H44.3698V7.87402Z" fill="white"/>
<path d="M48.686 7.87402H47.0615V24.7135H48.686V7.87402Z" fill="white"/>
<path d="M12.0228 7.87402H6.73389V24.7135H12.0228V7.87402Z" fill="white"/>
<path d="M61.5209 7.87402H58.8481V24.7135H61.5209V7.87402Z" fill="white"/>
<path d="M65.1758 7.87402H63.6836V24.7135H65.1758V7.87402Z" fill="white"/>
<path d="M68.7462 7.87402H67.1406V24.7135H68.7462V7.87402Z" fill="white"/>
<path d="M75.8484 7.87402H71.0884V24.7135H75.8484V7.87402Z" fill="white"/>
<path d="M56.3831 7.87402H51.0942V24.7135H56.3831V7.87402Z" fill="white"/>
<path d="M17.1606 30.8806H14.4878V46.8984H17.1606V30.8806Z" fill="white"/>
<path d="M20.8155 30.8806H19.3232V46.8984H20.8155V30.8806Z" fill="white"/>
<path d="M24.3761 30.8806H22.7705V46.8984H24.3761V30.8806Z" fill="white"/>
<path d="M31.4875 30.8806H26.7275V46.8984H31.4875V30.8806Z" fill="white"/>
<path d="M38.8826 30.8806H34.1226V46.8984H38.8826V30.8806Z" fill="white"/>
<path d="M44.3698 30.8806H41.5176V46.8984H44.3698V30.8806Z" fill="white"/>
<path d="M48.686 30.8806H47.0615V46.8984H48.686V30.8806Z" fill="white"/>
<path d="M12.0228 30.8806H6.73389V46.8984H12.0228V30.8806Z" fill="white"/>
<path d="M61.5209 30.8806H58.8481V46.8984H61.5209V30.8806Z" fill="white"/>
<path d="M65.1758 30.8806H63.6836V46.8984H65.1758V30.8806Z" fill="white"/>
<path d="M68.7462 30.8806H67.1406V46.8984H68.7462V30.8806Z" fill="white"/>
<path d="M75.8484 30.8806H71.0884V46.8984H75.8484V30.8806Z" fill="white"/>
<path d="M56.3831 30.8806H51.0942V46.8984H56.3831V30.8806Z" fill="white"/>
<path d="M3.08865 3.7751H16.0275V0.686768H0.00976562V16.7045H3.08865V3.7751Z" fill="white"/>
<path d="M3.08817 51.8285V38.8896H0.00927734V54.9074H16.0271V51.8285H3.08817Z" fill="white"/>
<path d="M66.5547 0.686768V3.7751H79.4936V16.7045H82.5725V0.686768H66.5547Z" fill="white"/>
<path d="M79.4936 38.8896V51.8285H66.5547V54.9074H82.5725V38.8896H79.4936Z" fill="white"/>
<path d="M82.5732 28.6995V27.2073L0.00991058 27.2073V28.6995L82.5732 28.6995Z" fill="white"/>
<path d="M0.00944439 59.2044C0.783889 59.0533 2.34222 58.9116 3.83444 58.9116C5.63833 58.9116 6.74333 59.0911 7.69722 59.6483C8.61333 60.13 9.24611 61.0272 9.24611 62.2266C9.24611 63.3694 8.56611 64.4366 7.11167 65.0033V65.0411C8.60389 65.4283 9.70889 66.5711 9.70889 68.2616C9.70889 69.4611 9.16111 70.3961 8.34889 71.0383C7.395 71.7938 5.80833 72.2188 3.20167 72.2188C1.74722 72.2188 0.661111 72.1244 0 72.0205V59.2044H0.00944439ZM2.93722 64.2005H3.91C5.47778 64.2005 6.29944 63.5583 6.29944 62.5855C6.29944 61.5938 5.54389 61.0744 4.20278 61.0744C3.54167 61.0744 3.17333 61.1122 2.93722 61.1688V64.2005ZM2.93722 69.9994C3.23 70.0561 3.57944 70.0561 4.08 70.0561C5.42111 70.0561 6.60167 69.5366 6.60167 68.1577C6.60167 66.8355 5.42111 66.3161 3.93833 66.3161H2.93722V69.9994Z" fill="white"/>
<path d="M14.6862 68.734L13.7701 72.0962H10.7007L14.6957 59.0156H18.5585L22.6385 72.0962H19.4557L18.4451 68.734H14.6862ZM18.0012 66.524L17.189 63.7473C16.9718 62.9728 16.7451 61.9812 16.5468 61.2256H16.4901C16.3107 62.0001 16.1029 62.9917 15.9046 63.7473L15.1112 66.524H18.0012Z" fill="white"/>
<path d="M24.3952 59.2044C25.3491 59.025 26.7469 58.9116 28.3335 58.9116C30.2791 58.9116 31.6296 59.2044 32.5646 59.96C33.358 60.5833 33.783 61.49 33.783 62.6988C33.783 64.3516 32.6024 65.4944 31.4691 65.9005V65.9572C32.3852 66.3255 32.8857 67.1755 33.2163 68.3844C33.6224 69.8766 34.0096 71.5861 34.2646 72.0961H31.233C31.0346 71.7088 30.7135 70.6605 30.3357 69.0455C29.9674 67.3927 29.4007 66.9677 28.1824 66.9488H27.3135V72.0961H24.3857V59.2044H24.3952ZM27.323 64.8144H28.4846C29.958 64.8144 30.8363 64.0777 30.8363 62.935C30.8363 61.7544 30.0241 61.1311 28.6641 61.1311C27.9463 61.1311 27.5402 61.1688 27.323 61.2255V64.8144Z" fill="white"/>
<path d="M45.4183 71.7277C44.8988 71.9827 43.6521 72.2944 42.0749 72.2944C37.551 72.2944 35.2183 69.461 35.2183 65.7305C35.2183 61.2821 38.401 58.8171 42.3583 58.8171C43.8883 58.8171 45.0594 59.1288 45.5788 59.3838L44.9555 61.7355C44.3699 61.4805 43.5388 61.2538 42.4716 61.2538C40.1388 61.2538 38.316 62.6705 38.316 65.5794C38.316 68.1766 39.8649 69.8294 42.4905 69.8294C43.4066 69.8294 44.3699 69.6499 44.9744 69.4044L45.4183 71.7277Z" fill="white"/>
<path d="M52.3506 72.3133C48.4879 72.3133 46.1929 69.3856 46.1929 65.655C46.1929 61.7356 48.7145 58.7983 52.5584 58.7983C56.5723 58.7983 58.7729 61.8111 58.7729 65.4189C58.7729 69.7256 56.1945 72.3133 52.3695 72.3133H52.3506ZM52.5018 69.9617C54.504 69.9617 55.6468 68.0822 55.6468 65.5133C55.6468 63.1617 54.5418 61.15 52.5018 61.15C50.4618 61.15 49.319 63.1333 49.319 65.5795C49.319 68.0445 50.4995 69.9617 52.4829 69.9617H52.5018Z" fill="white"/>
<path d="M60.7087 59.2044C61.7948 59.0061 63.2114 58.9116 64.6848 58.9116C67.1876 58.9116 68.8214 59.3744 70.0587 60.3094C71.4187 61.32 72.2687 62.9066 72.2687 65.2394C72.2687 67.7422 71.3526 69.4705 70.1153 70.5377C68.7364 71.6805 66.6209 72.2283 64.0614 72.2283C62.5314 72.2283 61.417 72.1338 60.6992 72.03V59.2044H60.7087ZM63.6648 69.8672C63.9198 69.9238 64.3448 69.9238 64.6942 69.9238C67.3953 69.9427 69.1614 68.4694 69.1614 65.3433C69.1614 62.6233 67.5653 61.1877 65.0059 61.1877C64.3637 61.1877 63.9198 61.2444 63.6648 61.3011V69.8672Z" fill="white"/>
<path d="M82.0062 66.5617H77.1895V69.669H82.5634V72.0962H74.2334V59.0156H82.2895V61.4428H77.1801V64.1628H81.9967V66.5617H82.0062Z" fill="white"/>
</svg>
