<svg xmlns="http://www.w3.org/2000/svg" fill="#fff" preserveAspectRatio="xMidYMid meet" height="1em" width="1em" viewBox="0 0 40 40">
  <g>
    <path d="M37.6371624,10.0104081 C36.6268087,11.0735024 35.3851257,11.7323663 34.1607384,12.4190806 C33.0545379,13.0405452 31.9144669,13.5911899 30.8702425,14.343154 C29.735216,15.1635509 28.7926035,16.1645784 28.4798406,17.69397 C28.2268918,18.9376949 28.4322776,20.1686881 28.6600035,21.3837667 C29.1586946,24.0598043 30.1380603,26.5496412 31.1094988,29.042661 C31.6074692,30.3293553 32.1421928,31.6009307 32.5421545,32.93139 C33.1842552,35.0758805 32.648811,36.7294059 30.9206881,37.9357315 C29.6761225,38.7998935 28.2831027,39.1786606 26.852609,39.4309068 C26.0166529,39.5765253 25.1691665,39.6234733 24.305105,39.6855402 C24.1220595,39.6171075 23.7847945,39.8407074 23.727863,39.5614064 C23.6774173,39.2876755 24.0290954,39.1977581 24.2373638,39.1006792 C25.4934598,38.5261626 26.7574829,37.975518 28.0128583,37.4010014 C28.7954861,37.043719 29.5579356,36.6363056 30.2591298,36.1079413 C30.5012688,35.9273108 30.7232295,35.7188297 30.9178055,35.4801109 C31.2276857,35.0973651 31.3033542,34.6931347 31.1231912,34.1934167 C30.1661657,31.5539827 29.1017631,28.9583137 28.2629244,26.2671573 C27.5905563,24.0940206 27.0529501,21.8930335 26.9117024,19.5838271 C26.7430699,16.8608415 27.5992042,14.7410187 29.7272888,13.2832426 C30.7318773,12.5965283 31.8099723,12.0832829 32.8880674,11.5676503 C34.2227144,10.9302712 35.5429484,10.2777731 36.7140075,9.29266029 C38.4651913,7.81578675 39.0395507,5.83919521 38.8896551,3.5045255 C38.8226345,2.45416285 38.6619292,1.42210198 38.445013,0.399589849 C38.4197902,0.284209103 38.2763805,0.113127308 38.4651913,0.0232098993 C38.6367064,-0.0571587581 38.7267879,0.0852767832 38.8002943,0.234873888 C39.3710505,1.38151978 39.8164133,2.56556495 39.9569404,3.88408837 C40.2243022,6.41052884 39.2218756,8.33778516 37.6371624,10.0104081 M23.0864829,39.5518577 C23.0021667,39.6791743 22.9092026,39.8407074 22.7398494,39.7754576 C22.5877919,39.7165736 22.6079701,39.539126 22.6022049,39.3966905 C22.5596865,38.3829313 22.7088614,37.3882697 22.7938983,36.3872423 C22.9149678,34.9517467 23.1340459,33.5218212 23.0129764,32.067228 C22.9762232,31.6072965 22.7852505,31.3271998 22.4133942,31.1314504 C21.3216068,30.5529552 20.1505477,30.3635717 18.9650755,30.236255 C17.5151242,30.0810878 16.0601283,30.0962066 14.6072944,29.9999234 C14.5172129,29.9935575 14.4271315,29.9720728 14.33705,29.9593412 C17.1382234,29.4500744 19.9365141,29.1731607 22.7571451,29.5463577 C24.0968367,29.7230096 24.3533887,30.0277739 24.3843767,31.5229492 C24.4348223,33.8886524 24.1335899,36.2105904 23.5282424,38.4792146 C23.4266305,38.8587775 23.3005165,39.2287916 23.0864829,39.5518577 M21.7576011,39.7070249 C20.0035347,39.8629878 18.250189,39.9529052 16.4903574,39.9807557 C14.0192426,40.0213379 11.5358766,40.0396397 9.09574982,39.586074 C5.13216519,38.8492287 2.06074743,36.6705219 0.568998308,32.3711966 C-0.230925135,30.0651732 -0.129313238,27.6620707 0.512787472,25.318648 C1.47774017,21.803116 2.93922192,18.5772295 5.31809334,15.9377955 C5.93425059,15.2542641 6.62679692,14.6662201 7.30781283,14.0638531 C7.37267149,14.0041734 7.43753014,13.914256 7.57229202,13.961204 C7.53914204,14.1848039 7.42599972,14.3527028 7.31646065,14.5269675 C5.46726826,17.4393367 3.88471701,20.5068731 2.69131771,23.8202898 C1.8611269,26.127109 1.66078571,28.4832634 2.20992234,30.8919359 C2.88805564,33.8759207 4.68752306,35.7164425 7.22061397,36.7978386 C9.05899658,37.5840192 10.9759302,37.9603991 12.9180867,38.2150325 C15.6205308,38.5667448 18.3345053,38.8022807 21.0398319,39.0919261 C21.3014285,39.1197767 21.5579805,39.1977581 21.8109293,39.2749439 C21.9348814,39.3091602 22.0927041,39.365657 22.0754085,39.5486747 C22.0559509,39.7603387 21.8786706,39.6950889 21.7576011,39.7070249 M11.1424008,3.1782765 C12.8453009,1.61785138 14.8717736,0.862704291 17.0229191,0.440172043 C20.3977312,-0.219487531 23.5902185,0.505421844 26.6782112,1.97831674 C28.265807,2.73664675 29.797192,3.63184219 31.4359541,4.25967259 C31.79628,4.39653803 32.1623711,4.5206718 32.5421545,4.58353441 C33.2289356,4.68857067 33.7917647,4.43075439 34.242172,3.86817379 C34.8338271,3.13132847 35.0420955,2.24568178 35.0420955,1.2788707 C35.2078454,1.27011768 35.241716,1.41255322 35.2950442,1.52156814 C35.7987798,2.54408026 35.6553701,4.20715446 34.9714716,5.07131646 C34.2537024,5.97844784 33.3024421,6.14077661 32.2913677,6.01027701 C31.1426488,5.86386282 30.0508614,5.49384871 29.0037544,4.94399977 C27.0356545,3.90557306 25.0372872,2.94831074 22.8976721,2.41358066 C20.2204509,1.74516806 17.5634079,1.86373173 14.9647377,2.81781113 C11.1784334,4.20397154 9.1887139,8.35688266 10.2185252,12.618013 C10.8152249,15.0768164 12.0684383,17.0136215 14.0250078,18.3838673 C14.868891,18.9774814 15.8035763,19.1612948 16.7894279,19.1485632 C17.7853686,19.1334443 18.7568072,18.9185974 19.7282457,18.7132993 C19.8968783,18.6790829 20.0604662,18.6329306 20.3220628,18.7196651 C19.4716937,19.3013432 18.6242073,19.6307751 17.7291578,19.8384605 C16.4175716,20.1432248 15.1031028,20.1432248 13.790796,19.8639238 C12.6593727,19.6275922 11.7304526,18.9496308 10.9816955,18.011466 C9.4978735,16.1462766 8.4284263,14.0415726 8.11061888,11.5461656 C7.67678652,8.12373398 8.76352936,5.35380035 11.1424008,3.1782765"></path>
  </g>
</svg>

