<?xml version="1.0"?>
<svg xmlns="http://www.w3.org/2000/svg" xmlns:xlink="http://www.w3.org/1999/xlink" version="1.1" viewBox="0 0 172 172" width="50px" height="50px"><g fill="none" fill-rule="none" stroke="none" stroke-width="1" stroke-linecap="butt" stroke-linejoin="miter" stroke-miterlimit="10" stroke-dasharray="" stroke-dashoffset="0" font-family="none" font-weight="none" font-size="none" text-anchor="none" style="mix-blend-mode: normal"><path d="M0,172v-172h172v172z" fill="none" fill-rule="nonzero"/><g fill="#ffffff" fill-rule="evenodd"><g id="surface1"><path d="M86,154.8c-41.8175,0 -75.68,-33.54 -75.68,-74.96781v-47.75687c0,-6.30219 5.17344,-11.43531 11.55625,-11.43531h128.2475c6.38281,0 11.55625,5.13313 11.55625,11.43531v47.75687c0,41.42781 -33.8625,74.96781 -75.68,74.96781zM86,116.96c-2.39187,0 -4.75687,-0.645 -7.17562,-2.76812l-37.54438,-38.51188c-3.9775,-3.95062 -4.27312,-10.84406 -0.29562,-14.39156c3.99094,-3.95062 10.36031,-3.95062 13.94812,0l31.0675,30.38219l30.66438,-30.38219c3.99094,-3.95062 10.36031,-3.95062 13.94812,0c3.9775,3.93719 4.085,10.84406 0.1075,14.39156l-37.9475,38.51188c-1.89469,2.20375 -4.38062,2.76812 -6.7725,2.76812z"/></g></g></g></svg>
