<svg xmlns="http://www.w3.org/2000/svg" width="41" height="40" viewBox="0 0 41 40">
  <g fill="#FFF" transform="translate(.392)">
    <path d="M19.9998326,11.8574059 C17.82159,11.8574059 15.7742259,12.7022594 14.2349791,14.2359833 C12.6985774,15.7668619 11.8525523,17.801841 11.8525523,19.9656904 C11.8525523,22.129205 12.6987448,24.1635146 14.2349791,25.6942259 C15.7742259,27.2282845 17.82159,28.0731381 19.9996653,28.0731381 C22.1777406,28.0731381 24.2247699,27.2282845 25.7641841,25.6948954 C27.3005858,24.1641841 28.1466109,22.129205 28.1466109,19.9656904 C28.1466109,17.8016736 27.3005858,15.7665272 25.7641841,14.2356485 C24.2256067,12.7020921 22.1779079,11.8574059 19.9998326,11.8574059 Z"/>
    <path d="M36.6321339,30.9933054 C41.8078661,23.2610879 40.9722176,12.7154812 34.1240167,5.89205021 C26.3240167,-1.88033473 13.6766527,-1.88033473 5.87665272,5.89205021 C-1.9241841,13.6644351 -1.9241841,26.2657741 5.87665272,34.0386611 C12.7243515,40.8620921 23.3076151,41.6955649 31.0686192,36.5379079 L27.2564017,31.6913808 C25.0974059,33.0261088 22.6050209,33.7427615 20.0001674,33.7427615 C16.3117992,33.7427615 12.8433473,32.3106276 10.2338075,29.7109623 C7.62225941,27.1084519 6.18359833,23.6476987 6.18359833,19.9661925 C6.18359833,16.2841841 7.62192469,12.8230962 10.2338075,10.2200837 C12.8430126,7.61991632 16.3114644,6.18828452 20.0001674,6.18828452 C23.6883682,6.18828452 27.1571548,7.61991632 29.7665272,10.219749 C32.3790795,12.8225941 33.8172385,16.2838494 33.8172385,19.9661925 C33.816569,22.5594979 33.0999163,25.0420084 31.7653556,27.1924686 L36.6323013,30.9933054 L36.6321339,30.9933054 Z"/>
  </g>
</svg>
