<?xml version="1.0"?>
<svg xmlns="http://www.w3.org/2000/svg" xmlns:xlink="http://www.w3.org/1999/xlink" version="1.1" viewBox="0 0 172 172" width="50px" height="50px"><g fill="none" fill-rule="none" stroke="none" stroke-width="1" stroke-linecap="butt" stroke-linejoin="miter" stroke-miterlimit="10" stroke-dasharray="" stroke-dashoffset="0" font-family="none" font-weight="none" font-size="none" text-anchor="none" style="mix-blend-mode: normal"><path d="M0,172v-172h172v172z" fill="none" fill-rule="nonzero"/><g fill="#ffffff" fill-rule="evenodd"><g id="surface1"><path d="M44.72,34.4c-23.3275,3.35938 -41.28,23.5425 -41.28,47.91813c0,12.77906 4.945,24.41594 13.0075,33.08312c16.03094,-7.82062 28.2725,-24.48312 28.2725,-43.47031zM58.48,34.4v37.53094c0,19.36344 11.00531,36.6575 27.50656,44.26313l0.01344,-0.01344c16.03094,-7.82063 27.52,-25.2625 27.52,-44.24969v-37.53094c-10.72312,1.54531 -20.29062,6.67844 -27.52,14.10938c-7.22937,-7.43094 -16.79687,-12.56406 -27.52,-14.10938zM127.28,34.4v37.53094c0,19.36344 11.00531,36.6575 27.50656,44.26313c8.51937,-8.73438 13.77344,-20.69375 13.77344,-33.87594c0,-24.37563 -17.9525,-44.55875 -41.28,-47.91813zM51.6,100.63344c-5.01219,9.75563 -13.93469,18.19438 -23.27375,24.06656c6.89344,3.82969 14.835,6.02 23.27375,6.02c8.10281,0 15.73531,-2.01562 22.42719,-5.57656c-9.36594,-5.87219 -17.37469,-14.68719 -22.42719,-24.51zM120.4,100.63344c-5.01219,9.75563 -13.93469,18.19438 -23.27375,24.06656c6.89344,3.82969 14.835,6.02 23.27375,6.02c8.10281,0 15.73531,-2.01562 22.42719,-5.57656c-9.36594,-5.87219 -17.37469,-14.68719 -22.42719,-24.51z"/></g></g></g></svg>
