<svg xmlns="http://www.w3.org/2000/svg" width="45" height="45" viewBox="0 0 45 45">
  <g fill="none" fill-rule="evenodd">
    <polygon points="0 45 0 0 45 0 45 45"/>
    <path fill="#FFF" fill-rule="nonzero" d="M12.853125,0 C5.76914128,0 0,5.69179622 0,12.684375 C0,14.8289076 0.558983721,16.9207038 1.603125,18.7875 C1.35703256,20.08125 1.2375,21.4136712 1.2375,22.725 C1.2375,34.425 10.8667962,43.93125 22.725,43.93125 C23.9414076,43.93125 25.1578125,43.8503913 26.353125,43.65 C28.1320326,44.5394538 30.1324212,45 32.146875,45 C39.2308587,45 45,39.3082038 45,32.315625 C45,30.4382826 44.5851576,28.6453125 43.790625,26.971875 C44.0789076,25.5902337 44.240625,24.1628913 44.240625,22.725 C44.240625,11.0285163 34.5832038,1.51875 22.725,1.51875 C21.6105462,1.51875 20.4855462,1.603125 19.378125,1.771875 C17.4023451,0.615233721 15.1628913,0 12.853125,0 Z M22.584375,8.4375 C24.4265625,8.4375 26.0402337,8.63789128 27.39375,9.05625 C28.7507826,9.47109506 29.9003913,10.0230462 30.796875,10.715625 C31.7039076,11.4152337 32.3964837,12.1605462 32.821875,12.9375 C33.2507826,13.7214837 33.46875,14.5195326 33.46875,15.271875 C33.46875,15.9996087 33.159375,16.6359375 32.596875,17.2125 C32.034375,17.7890625 31.3277337,18.084375 30.4875,18.084375 C29.7246087,18.084375 29.1304701,17.9085951 28.715625,17.55 C28.3289076,17.2125 27.9210951,16.6992201 27.478125,15.946875 C26.9648451,14.9835951 26.3636712,14.1996087 25.65,13.66875 C24.9574212,13.1519538 23.7796875,12.909375 22.190625,12.909375 C20.7140625,12.909375 19.5082038,13.1765625 18.61875,13.753125 C17.7574212,14.3085951 17.353125,14.9660163 17.353125,15.721875 C17.353125,16.1859375 17.4972663,16.5691413 17.775,16.903125 C18.0703125,17.2546875 18.4605462,17.5464837 18.984375,17.803125 C19.5257826,18.0703125 20.0847663,18.2988288 20.64375,18.45 C21.2167962,18.6046875 22.1941413,18.8507826 23.5125,19.153125 C25.1789076,19.5082038 26.7117201,19.8808587 28.06875,20.30625 C29.4398451,20.7421875 30.6175788,21.2871087 31.584375,21.909375 C32.56875,22.5421875 33.3632826,23.3542962 33.91875,24.328125 C34.4742201,25.3019538 34.734375,26.4972663 34.734375,27.9 C34.7308587,29.5734375 34.2597663,31.0921875 33.3,32.428125 C32.34375,33.7605462 30.9339837,34.8328125 29.109375,35.578125 C27.3023451,36.3164076 25.1332038,36.675 22.66875,36.675 C19.7085951,36.675 17.2335951,36.1722663 15.3,35.15625 C13.9148451,34.4214837 12.7582038,33.4054701 11.896875,32.175 C11.0179701,30.9304701 10.575,29.7105462 10.575,28.51875 C10.575,27.7769538 10.8773451,27.1371087 11.446875,26.60625 C12.0128913,26.0859375 12.7230462,25.81875 13.584375,25.81875 C14.2910163,25.81875 14.9167962,26.0226576 15.4125,26.4375 C15.890625,26.8347663 16.2949212,27.4253913 16.621875,28.18125 C16.9875,29.0074212 17.3777337,29.6824212 17.803125,30.234375 C18.2039076,30.7582038 18.7769538,31.2117201 19.51875,31.55625 C20.2640625,31.9078125 21.2871087,32.090625 22.528125,32.090625 C24.2332038,32.090625 25.6148451,31.7285163 26.6625,31.021875 C27.6890625,30.3328125 28.209375,29.5066413 28.209375,28.490625 C28.209375,27.6890625 27.928125,27.0421875 27.39375,26.55 C26.83125,26.0332038 26.0929701,25.6429701 25.2,25.36875 C24.2613288,25.0839837 23.0027337,24.7675788 21.43125,24.440625 C19.29375,23.9871087 17.4761712,23.4421875 16.03125,22.8375 C14.5511712,22.2152337 13.359375,21.3503913 12.4875,20.278125 C11.6015625,19.1847663 11.1375,17.8382826 11.1375,16.228125 C11.1375,14.6917962 11.6121087,13.2855462 12.54375,12.09375 C13.4613288,10.9125 14.8042962,9.99492122 16.5375,9.365625 C18.2460951,8.73984506 20.2851576,8.4375 22.584375,8.4375 L22.584375,8.4375 Z"/>
  </g>
</svg>
