<svg width="680" height="680" viewBox="0 0 680 680" fill="none" xmlns="http://www.w3.org/2000/svg">
<circle cx="340" cy="340" r="340" fill="white"/>
<path d="M266.099 349.401C225.499 349.401 192.699 382.201 193.299 422.401C193.699 448.201 207.899 470.601 228.799 483.101C221.699 472.201 217.499 459.301 217.299 445.401C216.699 405.201 249.499 372.401 290.099 372.401C298.099 372.401 305.799 373.701 312.999 376.001V295.501C305.499 294.401 297.799 293.801 290.099 293.801C289.699 293.801 289.399 293.801 288.999 293.801V353.001C281.799 350.701 274.099 349.401 266.099 349.401V349.401Z" fill="#F00044"/>
<path d="M441.599 108H440.999H420.199C426.199 138.1 443.099 164.3 466.699 182.1C451.199 161.6 441.799 136 441.599 108V108Z" fill="#F00044"/>
<path d="M563.999 230.501C556.099 230.501 548.499 229.701 540.999 228.301V286.001C513.799 286.001 487.399 280.701 462.599 270.101C446.599 263.301 431.699 254.601 417.999 244.101L418.399 422.001C418.199 462.001 402.399 499.501 373.799 527.801C350.499 550.801 320.999 565.501 288.999 570.201C281.499 571.301 273.799 571.901 266.099 571.901C231.899 571.901 199.299 560.801 172.799 540.301C175.799 543.901 178.999 547.401 182.499 550.801C211.299 579.201 249.499 594.901 290.199 594.901C297.899 594.901 305.599 594.301 313.099 593.201C345.099 588.501 374.599 573.801 397.899 550.801C426.499 522.501 442.299 485.001 442.499 445.001L440.999 267.101C454.599 277.601 469.499 286.401 485.599 293.101C510.499 303.601 536.899 309.001 563.999 309.001" fill="#F00044"/>
<path d="M182.199 338.101C210.699 309.801 248.599 294.101 288.999 293.801V272.501C281.499 271.401 273.799 270.801 266.099 270.801C225.299 270.801 186.999 286.501 158.199 315.101C129.899 343.201 113.699 381.601 113.799 421.501C113.799 461.701 129.699 499.401 158.399 527.901C162.999 532.401 167.699 536.601 172.699 540.401C150.099 513.501 137.799 479.901 137.699 444.501C137.799 404.601 153.899 366.201 182.199 338.101V338.101Z" fill="#08FFF9"/>
<path d="M540.999 228.3V206.9H540.799C512.999 206.9 487.399 197.7 466.799 182.1C484.699 205.7 510.899 222.5 540.999 228.3Z" fill="#08FFF9"/>
<path d="M285.999 516.2C295.499 516.7 304.599 515.4 312.999 512.7C341.999 503.2 362.899 476.2 362.899 444.4L362.999 325.4V108H420.199C418.699 100.5 417.899 92.9 417.799 85H338.999V302.3L338.899 421.3C338.899 453.1 317.999 480.1 288.999 489.6C280.599 492.4 271.499 493.7 261.999 493.1C249.899 492.4 238.599 488.8 228.799 483C241.099 502 262.099 514.9 285.999 516.2V516.2Z" fill="#08FFF9"/>
<path d="M288.999 570.2C320.999 565.5 350.499 550.8 373.799 527.8C402.399 499.5 418.199 462 418.399 422L417.999 244.1C431.599 254.6 446.499 263.4 462.599 270.1C487.499 280.6 513.899 286 540.999 286V228.3C510.899 222.5 484.699 205.7 466.799 182.1C443.199 164.3 426.199 138.1 420.299 108H362.999V325.3L362.899 444.3C362.899 476.1 341.999 503.1 312.999 512.6C304.599 515.4 295.499 516.7 285.999 516.1C261.999 514.8 241.099 501.9 228.799 483C207.899 470.6 193.699 448.1 193.299 422.3C192.699 382.1 225.499 349.3 266.099 349.3C274.099 349.3 281.799 350.6 288.999 352.9V293.7C248.599 294 210.699 309.7 182.199 338C153.899 366.1 137.699 404.5 137.799 444.3C137.799 479.7 150.099 513.3 172.799 540.2C199.399 560.7 231.899 571.8 266.099 571.8C273.799 571.9 281.499 571.3 288.999 570.2V570.2Z" fill="black"/>
</svg>
