<svg width="33" height="26" viewBox="0 0 33 26" fill="none" xmlns="http://www.w3.org/2000/svg">
<path d="M32.5 3.078C31.31 3.6 30.042 3.946 28.72 4.114C30.08 3.302 31.118 2.026 31.606 0.488C30.338 1.244 28.938 1.778 27.446 2.076C26.242 0.794 24.526 0 22.654 0C19.022 0 16.098 2.948 16.098 6.562C16.098 7.082 16.142 7.582 16.25 8.058C10.796 7.792 5.97 5.178 2.728 1.196C2.162 2.178 1.83 3.302 1.83 4.512C1.83 6.784 3 8.798 4.744 9.964C3.69 9.944 2.656 9.638 1.78 9.156C1.78 9.176 1.78 9.202 1.78 9.228C1.78 12.416 4.054 15.064 7.036 15.674C6.502 15.82 5.92 15.89 5.316 15.89C4.896 15.89 4.472 15.866 4.074 15.778C4.924 18.376 7.336 20.286 10.204 20.348C7.972 22.094 5.138 23.146 2.07 23.146C1.532 23.146 1.016 23.122 0.5 23.056C3.406 24.93 6.85 26 10.564 26C22.636 26 29.236 16 29.236 7.332C29.236 7.042 29.226 6.762 29.212 6.484C30.514 5.56 31.608 4.406 32.5 3.078Z" fill="#03A9F4"/>
</svg>
