<?xml version="1.0" encoding="utf-8"?>
<!-- Generator: Adobe Illustrator 23.0.1, SVG Export Plug-In . SVG Version: 6.00 Build 0)  -->
<svg version="1.1" id="Layer_1" xmlns="http://www.w3.org/2000/svg" xmlns:xlink="http://www.w3.org/1999/xlink" x="0px" y="0px"
	 viewBox="0 0 73 35" style="enable-background:new 0 0 73 35;" xml:space="preserve">
<style type="text/css">
	.st0{fill:none;}
	.st1{fill:#AFAEAE;}
	.st2{fill:#CE2E2E;}
</style>
<path class="st0" d="M-409.4,108.6c-0.7,0-1.2,0.1-1.5,0.1v4.6c0.3,0.1,0.7,0.1,1.2,0.1c1.9,0,3-0.9,3-2.5
	C-406.7,109.5-407.7,108.6-409.4,108.6z"/>
<g>
	<g>
		<path class="st1" d="M-431.5,103.1h4v-6.2h-4V103.1z M-434.5,131.9h2V119c-0.4-1.3-0.6-2.7-0.6-4.3v-11.7h0.6v-6.2h-2V131.9z
			 M-440.5,131.9h2v-35h-2V131.9z M-437.5,131.9h2v-35h-2V131.9z M-421.5,103.1h2v-6.2h-2V103.1z M-444.5,131.9h2v-35h-2V131.9z
			 M-426.5,103.1h4v-6.2h-4V103.1z M-397.5,103.5c0.6-0.2,1.3-0.4,2-0.5v-6.1h-2V103.5z M-393,111.7c-0.7,0-1.1,0.1-1.4,0.4v3.4
			c0.3,0.3,0.8,0.4,1.5,0.4c0.7,0,1.5-0.2,1.8-0.3l0.7-0.3v-3l-0.8-0.3C-391.8,111.8-392.4,111.7-393,111.7z M-394.5,102.9
			c0.4,0,0.8-0.1,1.3-0.1c0.9,0,1.9,0.1,2.7,0.2v-6.2h-4V102.9z M-412.5,103c0.3,0,0.7,0,1-0.1v-6.1h-1V103z M-418.5,103.1h4.1v0.2
			c0.3,0,0.6-0.1,0.9-0.1v-6.3h-5V103.1z M-409.5,102.9c0.3,0,0.7,0,1,0v-6.1h-1V102.9z M-404.5,103.9c0.5,0.3,1,0.6,1.5,0.9
			c0.5,0.4,0.9,0.8,1.3,1.3c0.9-0.9,2-1.7,3.2-2.3v-7.1h-6V103.9z M-446.5,131.9h1v-35h-1V131.9z M-388.5,103.6
			c0.2,0.1,0.3,0.1,0.5,0.2l2.1,1.1l-0.6,2.3l-0.7,2.8l-0.9,3.4l-0.4-0.2v1.3l0.6-0.3l0.7,3.6l0.5,2.7l0.4,2.2l-2,1
			c-0.1,0-0.2,0.1-0.3,0.1v7.9h3v-35h-3V103.6z M-383.5,131.9h1v-35h-1V131.9z M-394.5,124.8v7.1h4v-7.3c-0.9,0.2-2,0.3-3.1,0.3
			C-393.9,124.8-394.2,124.8-394.5,124.8z M-397.5,131.9h2v-7.2c-0.7-0.1-1.4-0.2-2-0.4V131.9z M-381.5,131.9h1v-35h-1V131.9z
			 M-375.5,96.9v35h2v-35H-375.5z M-377.5,131.9h1v-35h-1V131.9z M-412.5,131.9h1v-7.3h-1V131.9z M-421.5,131.9h2V124
			c-0.6,0.3-1.3,0.5-2,0.6V131.9z M-404.1,117.8c-0.1,0.1-0.2,0.1-0.3,0.2v13.9h6v-8C-401.2,122.8-403.2,120.6-404.1,117.8z
			 M-417.4,122.6c-0.3,0.3-0.7,0.6-1.1,0.8v8.4h5v-7.3h-3.9V122.6z M-426.5,124.6v7.3h4v-7.1c-0.5,0.1-0.9,0.1-1.4,0.1
			C-424.8,124.9-425.7,124.7-426.5,124.6z M-409.5,131.9h1v-7.3h-1V131.9z M-431.5,121.1v10.8h4v-7.6
			C-429.2,123.7-430.5,122.6-431.5,121.1z"/>
	</g>
</g>
<text transform="matrix(1 0 0 1 -431.6202 121.1005)" class="st2" style="font-family:'MyriadPro-Bold'; font-size:23.0581px;">UPC</text>
<path class="st0" d="M66.1,25.8c-0.7,0-1.2,0.1-1.5,0.1v4.6c0.3,0.1,0.7,0.1,1.2,0.1c1.9,0,3-0.9,3-2.5
	C68.8,26.6,67.8,25.8,66.1,25.8z"/>
<g>
	<g>
		<g>
			<path class="st1" d="M0,35h1V0H0V35z M20,6.2h2.9H24V0h-4V6.2z M15,6.2h1.4H19V0h-4V6.2z M2,35h2V0H2V35z M9,35h2V0H9V35z M6,35
				h2V0H6V35z M49,6.7c0.6-0.2,1.3-0.4,2-0.5V0h-2V6.7z M12,35h2V22.2c-0.4-1.3-0.6-2.7-0.6-4.3V9.2v-3H14V0h-2V35z M28,6.2h1.1h3
				v0.2c0.3,0,0.6-0.1,0.9-0.1V0h-5V6.2z M52,6C52.4,6,52.8,6,53.3,6C54.2,6,55.1,6,56,6.2V0h-4V6z M53.4,14.9
				c-0.7,0-1.1,0.1-1.4,0.4v3.4c0.3,0.3,0.8,0.4,1.5,0.4c0.7,0,1.5-0.2,1.8-0.3l0.7-0.3v-3l-0.8-0.3C54.7,15,54.1,14.9,53.4,14.9z
				 M34,6.2c0.3,0,0.7,0,1-0.1V0h-1V6.2z M42,7.1c0.5,0.3,1,0.6,1.5,0.9c0.5,0.4,0.9,0.8,1.3,1.3c0.9-0.9,2-1.7,3.2-2.3V0h-6V7.1z
				 M37,6.1c0.3,0,0.7,0,1,0V0h-1V6.1z M25,6.2h0.6H27V0h-2V6.2z M58,6.8c0.2,0.1,0.3,0.1,0.5,0.2l2.1,1.1L60,10.4l-0.7,2.8
				l-0.9,3.4L58,16.4v1.3l0.6-0.3l0.7,3.6l0.5,2.7l0.4,2.2l-2,1c-0.1,0-0.2,0.1-0.3,0.1V35h3V0h-3V6.8z M52,27.9V35h4v-7.3
				c-0.9,0.2-2,0.3-3.1,0.3C52.6,28,52.3,28,52,27.9z M63,35h1V0h-1V35z M65,35h1V0h-1V35z M71,0v35h2V0H71z M49,35h2v-7.2
				c-0.7-0.1-1.4-0.2-2-0.4V35z M69,35h1V0h-1V35z M37,35h1v-7.3h-1V35z M29.1,27.7v-2c-0.3,0.3-0.7,0.6-1.1,0.8V35h5v-7.3h-0.9
				H29.1z M42.3,20.9c-0.1,0.1-0.2,0.1-0.3,0.2V35h6v-8C45.3,25.9,43.3,23.8,42.3,20.9z M20,27.7V35h4v-7.1C23.5,28,23.1,28,22.6,28
				C21.7,28,20.8,27.9,20,27.7z M25,35h2v-7.9c-0.6,0.3-1.3,0.5-2,0.6V35z M15,24.2V35h4v-7.6C17.3,26.8,16,25.7,15,24.2z M34,35h1
				v-7.3h-1V35z"/>
		</g>
	</g>
	<g>
		<path class="st2" d="M19.9,8.7v8.9c0,2.7,1,4.1,2.8,4.1c1.8,0,2.9-1.3,2.9-4.1V8.7h3.5v8.7c0,4.8-2.4,7.1-6.5,7.1
			c-3.9,0-6.2-2.2-6.2-7.1V8.7H19.9z"/>
		<path class="st2" d="M32.1,8.9c1.1-0.2,2.6-0.3,4.8-0.3c2.2,0,3.7,0.4,4.7,1.3c1,0.8,1.7,2.1,1.7,3.6c0,1.5-0.5,2.8-1.4,3.7
			c-1.2,1.1-3,1.6-5,1.6c-0.5,0-0.9,0-1.2-0.1v5.6h-3.5V8.9z M35.6,16c0.3,0.1,0.6,0.1,1.2,0.1c1.9,0,3-0.9,3-2.5
			c0-1.4-1-2.3-2.8-2.3c-0.7,0-1.2,0-1.4,0.1V16z"/>
		<path class="st2" d="M56.9,23.8c-0.6,0.3-2.1,0.7-4,0.7c-5.4,0-8.1-3.4-8.1-7.8c0-5.3,3.8-8.2,8.5-8.2c1.8,0,3.2,0.4,3.8,0.7
			l-0.7,2.8c-0.7-0.3-1.7-0.6-3-0.6c-2.8,0-4.9,1.7-4.9,5.1c0,3.1,1.8,5,5,5c1.1,0,2.2-0.2,3-0.5L56.9,23.8z"/>
	</g>
</g>
</svg>
