<?xml version="1.0"?>
<svg xmlns="http://www.w3.org/2000/svg" xmlns:xlink="http://www.w3.org/1999/xlink" version="1.1" viewBox="0 0 172 172" width="45px" height="45px"><g fill="none" fill-rule="nonzero" stroke="none" stroke-width="1" stroke-linecap="butt" stroke-linejoin="miter" stroke-miterlimit="10" stroke-dasharray="" stroke-dashoffset="0" font-family="none" font-weight="none" font-size="none" text-anchor="none" style="mix-blend-mode: normal"><path d="M0,172v-172h172v172z" fill="none"/><g fill="#ffffff"><path d="M86,6.88c-43.62952,0 -79.12,35.49392 -79.12,79.12c0,43.62608 35.49048,79.12 79.12,79.12c43.62952,0 79.12,-35.49392 79.12,-79.12c0,-43.62608 -35.49048,-79.12 -79.12,-79.12zM86,24.08c14.6544,0 28.09104,5.1084 38.68968,13.6052c-3.28864,2.18784 -5.32168,5.9856 -5.32168,10.1308c0,5.504 3.096,10.32 6.536,15.824c2.752,4.472 5.504,10.32 5.504,18.576c0,5.848 -1.72,13.072 -5.16,22.016l-6.88,22.704l-24.424,-72.928c4.128,-0.344 7.912,-0.688 7.912,-0.688c3.44,-0.344 3.096,-5.504 -0.344,-5.504c0,0 0,0 -0.344,0c0,0 -11.008,1.032 -18.232,1.032c-6.536,0 -17.888,-1.032 -17.888,-1.032c0,0 0,0 -0.344,0c-3.44,0 -3.784,5.504 -0.344,5.504c0,0 3.44,0.344 7.224,0.688l10.664,28.896l-14.792,44.376l-24.768,-73.616c4.128,-0.344 7.912,-0.688 7.912,-0.688c3.44,-0.344 3.096,-5.504 -0.344,-5.504c0,0 0,0 -0.344,0c0,0 -7.40288,0.69488 -14.0524,0.94256c11.31072,-14.77136 29.07832,-24.33456 49.1404,-24.33456zM24.08,86c0,-6.192 0.93224,-12.1604 2.62128,-17.79856l25.53856,69.68064c-16.942,-11.04584 -28.15984,-30.13096 -28.15984,-51.88208zM67.69232,145.168l18.30768,-53.664l19.5564,53.22024c-6.15072,2.04336 -12.71424,3.19576 -19.5564,3.19576c-6.37432,0 -12.5216,-0.96664 -18.30768,-2.752zM121.44576,136.74v0l18.21824,-52.804c2.70384,-6.88 4.1624,-12.87248 4.7816,-18.24576c2.21192,6.36744 3.4744,13.18208 3.4744,20.30976c0,21.02184 -10.47824,39.54968 -26.47424,50.74z"/></g></g></svg>
