<svg xmlns="http://www.w3.org/2000/svg" width="50" height="51" viewBox="0 0 50 51">
  <path fill="#FFF" d="M40.1925754,12.3204633 C38.9712297,12.8681467 27.8,27.2843629 27.0635731,30.8216216 C26.9012761,32.0432432 27.0799304,43.8911197 27.2422274,45.6677606 C27.9786543,45.9399614 33.2926914,45.7030888 34.2678654,45.9741313 L34.1509281,49.6366795 C33.1958237,49.5133205 26.4431555,49.542278 22.5903712,49.542278 C20.6320186,49.542278 14.337703,49.9025097 12.4045244,49.8088803 L12.7699536,46.322973 C13.8308585,46.192278 18.2201856,46.6482625 19.1822506,44.9416988 C19.6606729,44.0930502 19.5103248,32.8333977 19.3479118,30.9297297 C18.9415313,28.8934363 9.15150812,8.48050193 6.59361949,5.13610039 L0,5.13610039 L0,0.00444015444 L22.237123,0.00444015444 L22.237123,0.358494208 C22.2566125,0.358494208 22.2937355,0.364285714 22.312645,0.370656371 L22.237123,1.23783784 L22.237123,5.13590734 L15.5315545,5.13590734 C18.5201856,12.4086873 22.8053364,21.1891892 24.6329466,25.4084942 L33.5895592,11.9013514 L28.2656613,11.9013514 L27.5157773,6.77528958 L47.0174014,6.77528958 L46.8734339,7.14073359 C46.8885151,7.14073359 46.9209977,7.1465251 46.9422274,7.1465251 L45.5490719,10.5088803 C45.5366589,10.5088803 45.5155452,10.5146718 45.5046404,10.5202703 L44.9425754,11.9013514 L41.3453596,11.9013514 C40.8796984,12.0722008 40.4698376,12.2245174 40.1925754,12.3204633 Z M46.5559165,44.4588803 L44.8341067,44.3175676 L42.913109,43.9274131 L42.9294664,49.4073359 L44.4444316,49.6245174 L46.0772622,49.8252896 L46.5559165,44.4588803 Z M49.8975638,18.2646718 C49.3167053,18.2305019 44.0339907,17.3984556 43.3474478,17.1722008 L43.4286543,40.3223938 L46.4183295,40.7243243 L49.8975638,18.2646718 Z" transform="translate(0 .372)"/>
</svg>
