<svg width="28" height="28" viewBox="0 0 28 28" fill="none" xmlns="http://www.w3.org/2000/svg">
<path d="M11.6802 10.5998L17.6201 14.0001L11.6802 17.4005V10.5998ZM28.0001 3.00014V25.0001C28.004 25.3952 27.9291 25.7868 27.7797 26.1525C27.6303 26.5182 27.4095 26.8507 27.1301 27.13C26.8508 27.4094 26.5185 27.63 26.1527 27.7794C25.787 27.9288 25.3952 28.004 25.0001 28.0001H3.00014C2.6051 28.004 2.21328 27.9288 1.84756 27.7794C1.48183 27.63 1.14949 27.4094 0.870138 27.13C0.590787 26.8507 0.369994 26.5182 0.220602 26.1525C0.0712101 25.7868 -0.00373225 25.3952 0.000142964 25.0001V3.00014C-0.00373225 2.6051 0.0712101 2.21353 0.220602 1.8478C0.369994 1.48207 0.590787 1.14961 0.870138 0.87026C1.14949 0.590909 1.48183 0.370237 1.84756 0.220846C2.21328 0.0714538 2.6051 -0.00373269 3.00014 0.00014253H25.0001C25.3952 -0.00373269 25.787 0.0714538 26.1527 0.220846C26.5185 0.370237 26.8508 0.590909 27.1301 0.87026C27.4095 1.14961 27.6303 1.48207 27.7797 1.8478C27.9291 2.21353 28.004 2.6051 28.0001 3.00014ZM25.3801 14.0001C25.386 12.1561 25.2254 10.3153 24.9002 8.50014C24.7835 8.01318 24.5338 7.56818 24.1789 7.21499C23.8239 6.8618 23.3777 6.61434 22.8902 6.50014C21.1202 6.00014 14.0001 6.00014 14.0001 6.00014C14.0001 6.00014 6.88013 6.00014 5.11013 6.50014C4.62259 6.61434 4.17639 6.8618 3.82143 7.21499C3.46648 7.56818 3.21674 8.01318 3.10012 8.50014C2.46015 12.1389 2.46015 15.8614 3.10012 19.5001C3.21674 19.9871 3.46648 20.4321 3.82143 20.7853C4.17639 21.1385 4.62259 21.3859 5.11013 21.5001C6.88013 22.0001 14.0001 22.0001 14.0001 22.0001C14.0001 22.0001 21.1202 22.0001 22.8902 21.5001C23.3777 21.3859 23.8239 21.1385 24.1789 20.7853C24.5338 20.4321 24.7835 19.9871 24.9002 19.5001C25.2254 17.685 25.386 15.8442 25.3801 14.0001Z" fill="white"/>
</svg>
